M48
;GenerationSoftware,Autodesk,EAGLE,9.6.2*%
;CreationDate,2023-05-03T03:51:09Z*%
FMAT,2
ICI,OFF
INCH,TZ,000.000
T15C0.012
T14C0.014
T13C0.031
T12C0.032
T11C0.035
T10C0.039
T9C0.040
T8C0.043
T7C0.044
T6C0.055
T5C0.055
T4C0.079
T3C0.098
T2C0.125
T1C0.126
%
G90
M72
T1
X4300Y-1600
X4300Y-400
X3100Y-1600
X3100Y-400
T2
X150Y150
X11850Y150
X11850Y5850
X150Y5850
T3
X3097Y3426
X2703Y3426
X7753Y3376
X8147Y3376
X3683Y3950
X11647Y5176
X11253Y5176
X6636Y2730
X3683Y2730
X6636Y3950
T4
X11350Y982
X11350Y3018
T5
X746Y898
X7254Y5198
X7254Y5002
X7746Y5002
X11276Y278
X2546Y702
X7746Y5198
X254Y702
X11129Y278
X746Y702
X11424Y278
X11571Y278
X11276Y3722
X11424Y3722
X2054Y898
X2054Y702
X2546Y898
X1154Y898
X1154Y702
X1646Y702
X1646Y898
X254Y898
T6
X4150Y938
X7200Y1463
X4150Y1463
X4750Y1463
X7200Y938
X6600Y938
X6600Y1463
X4750Y938
T7
X1650Y5700
X1650Y5500
X500Y5700
X500Y5500
X11640Y4300
X11640Y4100
X10700Y4300
X10700Y4100
X9700Y4300
X9700Y4100
X8700Y4300
X8700Y4100
X9200Y5300
X9200Y5100
X1700Y2200
X1700Y2000
X500Y2200
X500Y2000
X1700Y3200
X1700Y3000
X500Y3200
X500Y3000
X1700Y4100
X1700Y3900
X500Y4100
X500Y3900
X1700Y4900
X1700Y4700
X500Y4900
X500Y4700
T8
X6775Y1692
X7025Y1692
X6775Y1515
X7025Y1515
X4575Y1515
X4325Y1692
X4575Y1692
X4325Y1515
T9
X7000Y400
X6800Y400
X4550Y550
X7100Y400
X6700Y400
X6900Y400
X4250Y550
X4350Y550
X4450Y550
X4650Y550
T10
X2998Y3150
X4700Y3950
X4500Y3950
X11548Y4900
X4300Y3950
X4200Y3950
X4100Y3950
X4000Y3950
X3900Y3950
X4800Y3950
X4900Y3950
X5000Y3950
X5400Y3950
X4600Y3950
X5100Y3950
X11450Y4900
X5200Y3950
X5300Y3950
X7852Y3100
X4400Y3950
X8048Y3100
X11352Y4900
X2802Y3150
X2900Y3150
X7950Y3100
T11
X6192Y2239
X4892Y3339
X4792Y3239
X4792Y3339
X4692Y3239
X4692Y3339
X4592Y3239
X4592Y3339
X4492Y3239
X4492Y3339
X4350Y800
X4450Y800
X4550Y800
X4050Y1300
X4050Y1200
X4050Y1100
X5192Y3339
X6800Y800
X6900Y800
X7000Y800
X6500Y1300
X6500Y1200
X6500Y1100
X6192Y2339
X6092Y2239
X6092Y2339
X5992Y2239
X5992Y2339
X5892Y2239
X5892Y2339
X5792Y2239
X5792Y2339
X5692Y2239
X5692Y2339
X5592Y2239
X5592Y2339
X5492Y2239
X5492Y2339
X5392Y2239
X5392Y2339
X5292Y2239
X5292Y2339
X5192Y2239
X5192Y2339
X5092Y2239
X5092Y2339
X4992Y2239
X4992Y2339
X4892Y2239
X4892Y2339
X4792Y2239
X4792Y2339
X4692Y2239
X4692Y2339
X4592Y2239
X4592Y2339
X4492Y2239
X4492Y2339
X6192Y3239
X6192Y3339
X6092Y3239
X6092Y3339
X5992Y3239
X5992Y3339
X5892Y3239
X5892Y3339
X5792Y3239
X5792Y3339
X5692Y3239
X5692Y3339
X5592Y3239
X5592Y3339
X5492Y3239
X5492Y3339
X5392Y3239
X5392Y3339
X5292Y3239
X5292Y3339
X5192Y3239
X5092Y3239
X5092Y3339
X4992Y3239
X4992Y3339
X4892Y3239
T12
X9850Y1350
X10900Y4100
X700Y4700
X700Y4800
X700Y4900
X700Y2200
X9900Y4300
X10150Y3150
X10150Y3050
X10150Y2950
X10150Y2850
X10150Y2750
X10150Y2650
X10150Y2550
X10150Y2450
X10150Y2350
X10150Y2250
X9850Y2250
X9850Y2350
X9850Y2750
X9850Y2650
X9850Y2850
X9850Y2950
X9850Y2450
X9850Y2550
X1900Y4700
X1900Y4800
X1900Y4900
X9900Y4200
X11840Y4200
X9900Y4100
X700Y3900
X700Y4000
X700Y4100
X8900Y4300
X8900Y4200
X1900Y3900
X1900Y4000
X1900Y4100
X8900Y4100
X9400Y5300
X700Y3000
X700Y3100
X700Y3200
X9400Y5200
X1900Y2200
X1900Y3000
X1900Y3100
X1900Y3200
X1900Y2100
X1900Y2000
X700Y2000
X700Y2100
X9850Y1650
X9850Y1550
X9850Y1050
X9850Y950
X9850Y1450
X9850Y3050
X9850Y1150
X9850Y1250
X9850Y850
X9850Y750
X10150Y750
X10150Y850
X10150Y950
X10150Y1050
X10150Y1150
X10150Y1250
X10150Y1350
X10150Y1450
X10150Y1550
X10150Y1650
X9850Y3150
X9400Y5100
X11840Y4300
X700Y5500
X700Y5600
X700Y5700
X11840Y4100
X10900Y4300
X1850Y5500
X1850Y5600
X1850Y5700
X10900Y4200
T13
X9050Y2575
X9050Y2475
X9050Y2375
X9050Y2275
X9050Y2175
X9050Y2075
X8750Y1800
X8750Y1700
X8750Y1600
X8750Y1500
X8750Y1300
X8750Y1200
X8750Y1100
X8750Y1000
X8750Y900
X8750Y800
X8750Y700
X8750Y600
X8750Y500
X9050Y1800
X9050Y1700
X9050Y1600
X9050Y1500
X9050Y1400
X9050Y1300
X9050Y1200
X9050Y1100
X9050Y1000
X9050Y900
X9050Y800
X9050Y700
X9050Y600
X9050Y500
X8750Y1400
X8750Y3375
X8750Y3275
X8750Y3175
X8750Y3075
X8750Y2975
X8750Y2875
X8750Y2775
X8750Y2675
X8750Y2575
X8750Y2475
X8750Y2375
X8750Y2275
X8750Y2175
X8750Y2075
X9050Y3375
X9050Y3275
X9050Y3175
X9050Y3075
X9050Y2975
X9050Y2875
X9050Y2775
X9050Y2675
T14
X5355Y2895
X7550Y4475
X2325Y1525
X2500Y1625
X5325Y2425
X5910Y2895
X6175Y2775
X7850Y3875
X8025Y4775
X7750Y1450
X6900Y4625
X7425Y2025
X3675Y4380
X7425Y2475
X8250Y725
X7750Y1325
X3690Y4305
X2625Y4320
X5850Y2820
X5970Y2790
X3900Y3775
X7275Y2275
X4400Y3450
X3900Y3725
X2625Y4380
X2300Y3325
X2150Y2600
X7600Y4600
X7550Y4575
X7550Y4525
X7300Y2175
T15
X1785Y900
X855Y900
X810Y2100
X2025Y2100
X840Y3105
X2070Y3090
X650Y250
X1575Y2550
X1575Y3550
X1575Y4350
X325Y5250
X350Y4400
X350Y3600
X350Y2600
X350Y1700
X1625Y1650
X6775Y5100
X10305Y3150
X10305Y3045
X10305Y2940
X10290Y2850
X10305Y2745
X10305Y2655
X10305Y2550
X10305Y2445
X1575Y250
X10305Y2340
X10305Y2250
X10275Y1650
X10275Y1545
X10275Y1455
X2700Y900
X10290Y1350
X10290Y1260
X10290Y1140
X5600Y2675
X10075Y3900
X11865Y3850
X9775Y5200
X2435Y250
X9125Y3900
X5100Y2925
X600Y405
X5475Y4545
X11125Y3900
X9075Y5700
X10305Y750
X8985Y4245
X9990Y4245
X10995Y4245
X11860Y4245
X9510Y5235
X1575Y5150
X7860Y5250
X6375Y5100
X1965Y5595
X795Y5625
X2025Y4800
X810Y4800
X2025Y3990
X795Y4005
X10290Y1050
X10290Y945
X10305Y840
X9330Y5700
M30