G04 EAGLE Gerber RS-274X export*
G75*
%MOIN*%
%FSLAX34Y34*%
%LPD*%
%INCopper Layer 2*%
%IPPOS*%
%AMOC8*
5,1,8,0,0,1.08239X$1,22.5*%
G01*
%ADD10C,0.049000*%
%ADD11C,0.077165*%
%ADD12C,0.055118*%
%ADD13C,0.060630*%
%ADD14C,0.077000*%
%ADD15C,0.056000*%
%ADD16C,0.110236*%
%ADD17C,0.044094*%
%ADD18C,0.044800*%
%ADD19C,0.061600*%
%ADD20C,0.165000*%
%ADD21C,0.024000*%
%ADD22C,0.025780*%

G36*
X119855Y101D02*
X119855Y101D01*
X119860Y102D01*
X119861Y102D01*
X119862Y102D01*
X119867Y104D01*
X119872Y106D01*
X119873Y106D01*
X119874Y107D01*
X119878Y110D01*
X119882Y113D01*
X119883Y114D01*
X119884Y114D01*
X119887Y118D01*
X119890Y122D01*
X119891Y123D01*
X119892Y124D01*
X119894Y128D01*
X119896Y133D01*
X119896Y134D01*
X119897Y135D01*
X119899Y147D01*
X119899Y149D01*
X119899Y150D01*
X119899Y59850D01*
X119899Y59855D01*
X119898Y59860D01*
X119898Y59861D01*
X119898Y59862D01*
X119896Y59867D01*
X119894Y59872D01*
X119894Y59873D01*
X119893Y59874D01*
X119890Y59878D01*
X119887Y59882D01*
X119886Y59883D01*
X119886Y59884D01*
X119882Y59887D01*
X119878Y59890D01*
X119877Y59891D01*
X119876Y59892D01*
X119872Y59894D01*
X119867Y59896D01*
X119866Y59896D01*
X119865Y59897D01*
X119853Y59899D01*
X119851Y59899D01*
X119850Y59899D01*
X150Y59899D01*
X145Y59899D01*
X140Y59898D01*
X139Y59898D01*
X138Y59898D01*
X133Y59896D01*
X128Y59894D01*
X127Y59894D01*
X126Y59893D01*
X122Y59890D01*
X118Y59887D01*
X117Y59886D01*
X116Y59886D01*
X113Y59882D01*
X110Y59878D01*
X109Y59877D01*
X108Y59876D01*
X106Y59872D01*
X104Y59867D01*
X104Y59866D01*
X103Y59865D01*
X101Y59853D01*
X101Y59851D01*
X101Y59850D01*
X101Y150D01*
X101Y145D01*
X102Y140D01*
X102Y139D01*
X102Y138D01*
X104Y133D01*
X106Y128D01*
X106Y127D01*
X107Y126D01*
X110Y122D01*
X113Y118D01*
X114Y117D01*
X114Y116D01*
X118Y113D01*
X122Y110D01*
X123Y109D01*
X124Y108D01*
X128Y106D01*
X133Y104D01*
X134Y104D01*
X135Y103D01*
X147Y101D01*
X149Y101D01*
X150Y101D01*
X119850Y101D01*
X119855Y101D01*
G37*
%LPC*%
G36*
X118316Y57574D02*
X118316Y57574D01*
X117976Y57715D01*
X117715Y57976D01*
X117574Y58316D01*
X117574Y58684D01*
X117715Y59024D01*
X117976Y59285D01*
X118316Y59426D01*
X118684Y59426D01*
X119024Y59285D01*
X119285Y59024D01*
X119426Y58684D01*
X119426Y58316D01*
X119285Y57976D01*
X119024Y57715D01*
X118684Y57574D01*
X118316Y57574D01*
G37*
%LPD*%
%LPC*%
G36*
X1316Y57574D02*
X1316Y57574D01*
X976Y57715D01*
X715Y57976D01*
X574Y58316D01*
X574Y58684D01*
X715Y59024D01*
X976Y59285D01*
X1316Y59426D01*
X1684Y59426D01*
X2024Y59285D01*
X2285Y59024D01*
X2426Y58684D01*
X2426Y58316D01*
X2285Y57976D01*
X2024Y57715D01*
X1684Y57574D01*
X1316Y57574D01*
G37*
%LPD*%
%LPC*%
G36*
X1316Y574D02*
X1316Y574D01*
X976Y715D01*
X715Y976D01*
X574Y1316D01*
X574Y1684D01*
X715Y2024D01*
X976Y2285D01*
X1316Y2426D01*
X1684Y2426D01*
X2024Y2285D01*
X2285Y2024D01*
X2426Y1684D01*
X2426Y1316D01*
X2285Y976D01*
X2024Y715D01*
X1684Y574D01*
X1316Y574D01*
G37*
%LPD*%
%LPC*%
G36*
X118316Y574D02*
X118316Y574D01*
X117976Y715D01*
X117715Y976D01*
X117574Y1316D01*
X117574Y1684D01*
X117715Y2024D01*
X117976Y2285D01*
X118316Y2426D01*
X118684Y2426D01*
X119024Y2285D01*
X119285Y2024D01*
X119426Y1684D01*
X119426Y1316D01*
X119285Y976D01*
X119024Y715D01*
X118684Y574D01*
X118316Y574D01*
G37*
%LPD*%
%LPC*%
G36*
X113370Y9171D02*
X113370Y9171D01*
X113131Y9270D01*
X112947Y9454D01*
X112848Y9693D01*
X112848Y9953D01*
X112947Y10192D01*
X113131Y10376D01*
X113370Y10475D01*
X113630Y10475D01*
X113869Y10376D01*
X114053Y10192D01*
X114152Y9953D01*
X114152Y9693D01*
X114053Y9454D01*
X113869Y9270D01*
X113630Y9171D01*
X113370Y9171D01*
G37*
%LPD*%
%LPC*%
G36*
X113370Y29525D02*
X113370Y29525D01*
X113131Y29624D01*
X112947Y29808D01*
X112848Y30047D01*
X112848Y30307D01*
X112947Y30546D01*
X113131Y30730D01*
X113370Y30829D01*
X113630Y30829D01*
X113869Y30730D01*
X114053Y30546D01*
X114152Y30307D01*
X114152Y30047D01*
X114053Y29808D01*
X113869Y29624D01*
X113630Y29525D01*
X113370Y29525D01*
G37*
%LPD*%
%LPC*%
G36*
X26914Y33663D02*
X26914Y33663D01*
X26696Y33753D01*
X26529Y33920D01*
X26439Y34138D01*
X26439Y34374D01*
X26529Y34592D01*
X26696Y34759D01*
X26914Y34849D01*
X27149Y34849D01*
X27367Y34759D01*
X27534Y34592D01*
X27624Y34374D01*
X27624Y34138D01*
X27534Y33920D01*
X27367Y33753D01*
X27149Y33663D01*
X26914Y33663D01*
G37*
%LPD*%
%LPC*%
G36*
X30851Y33663D02*
X30851Y33663D01*
X30633Y33753D01*
X30466Y33920D01*
X30376Y34138D01*
X30376Y34374D01*
X30466Y34592D01*
X30633Y34759D01*
X30851Y34849D01*
X31086Y34849D01*
X31304Y34759D01*
X31471Y34592D01*
X31561Y34374D01*
X31561Y34138D01*
X31471Y33920D01*
X31304Y33753D01*
X31086Y33663D01*
X30851Y33663D01*
G37*
%LPD*%
%LPC*%
G36*
X66244Y26702D02*
X66244Y26702D01*
X66026Y26793D01*
X65860Y26959D01*
X65769Y27177D01*
X65769Y27413D01*
X65860Y27631D01*
X66026Y27798D01*
X66244Y27888D01*
X66480Y27888D01*
X66698Y27798D01*
X66865Y27631D01*
X66955Y27413D01*
X66955Y27177D01*
X66865Y26959D01*
X66698Y26793D01*
X66480Y26702D01*
X66244Y26702D01*
G37*
%LPD*%
%LPC*%
G36*
X36717Y26702D02*
X36717Y26702D01*
X36499Y26793D01*
X36332Y26959D01*
X36242Y27177D01*
X36242Y27413D01*
X36332Y27631D01*
X36499Y27798D01*
X36717Y27888D01*
X36953Y27888D01*
X37170Y27798D01*
X37337Y27631D01*
X37428Y27413D01*
X37428Y27177D01*
X37337Y26959D01*
X37170Y26793D01*
X36953Y26702D01*
X36717Y26702D01*
G37*
%LPD*%
%LPC*%
G36*
X116351Y51163D02*
X116351Y51163D01*
X116133Y51253D01*
X115966Y51420D01*
X115876Y51638D01*
X115876Y51874D01*
X115966Y52092D01*
X116133Y52259D01*
X116351Y52349D01*
X116586Y52349D01*
X116804Y52259D01*
X116971Y52092D01*
X117061Y51874D01*
X117061Y51638D01*
X116971Y51420D01*
X116804Y51253D01*
X116586Y51163D01*
X116351Y51163D01*
G37*
%LPD*%
%LPC*%
G36*
X77414Y33163D02*
X77414Y33163D01*
X77196Y33253D01*
X77029Y33420D01*
X76939Y33638D01*
X76939Y33874D01*
X77029Y34092D01*
X77196Y34259D01*
X77414Y34349D01*
X77649Y34349D01*
X77867Y34259D01*
X78034Y34092D01*
X78124Y33874D01*
X78124Y33638D01*
X78034Y33420D01*
X77867Y33253D01*
X77649Y33163D01*
X77414Y33163D01*
G37*
%LPD*%
%LPC*%
G36*
X112414Y51163D02*
X112414Y51163D01*
X112196Y51253D01*
X112029Y51420D01*
X111939Y51638D01*
X111939Y51874D01*
X112029Y52092D01*
X112196Y52259D01*
X112414Y52349D01*
X112649Y52349D01*
X112867Y52259D01*
X113034Y52092D01*
X113124Y51874D01*
X113124Y51638D01*
X113034Y51420D01*
X112867Y51253D01*
X112649Y51163D01*
X112414Y51163D01*
G37*
%LPD*%
%LPC*%
G36*
X81351Y33163D02*
X81351Y33163D01*
X81133Y33253D01*
X80966Y33420D01*
X80876Y33638D01*
X80876Y33874D01*
X80966Y34092D01*
X81133Y34259D01*
X81351Y34349D01*
X81586Y34349D01*
X81804Y34259D01*
X81971Y34092D01*
X82061Y33874D01*
X82061Y33638D01*
X81971Y33420D01*
X81804Y33253D01*
X81586Y33163D01*
X81351Y33163D01*
G37*
%LPD*%
%LPC*%
G36*
X36717Y38907D02*
X36717Y38907D01*
X36499Y38997D01*
X36332Y39164D01*
X36242Y39382D01*
X36242Y39618D01*
X36332Y39836D01*
X36499Y40003D01*
X36717Y40093D01*
X36953Y40093D01*
X37170Y40003D01*
X37337Y39836D01*
X37428Y39618D01*
X37428Y39382D01*
X37337Y39164D01*
X37170Y38997D01*
X36953Y38907D01*
X36717Y38907D01*
G37*
%LPD*%
%LPC*%
G36*
X66244Y38907D02*
X66244Y38907D01*
X66026Y38997D01*
X65860Y39164D01*
X65769Y39382D01*
X65769Y39618D01*
X65860Y39836D01*
X66026Y40003D01*
X66244Y40093D01*
X66480Y40093D01*
X66698Y40003D01*
X66865Y39836D01*
X66955Y39618D01*
X66955Y39382D01*
X66865Y39164D01*
X66698Y38997D01*
X66480Y38907D01*
X66244Y38907D01*
G37*
%LPD*%
%LPC*%
G36*
X72443Y49529D02*
X72443Y49529D01*
X72264Y49603D01*
X72127Y49740D01*
X72053Y49919D01*
X72053Y50113D01*
X72127Y50291D01*
X72264Y50428D01*
X72443Y50502D01*
X72636Y50502D01*
X72815Y50428D01*
X72952Y50291D01*
X73026Y50113D01*
X73026Y49919D01*
X72952Y49740D01*
X72815Y49603D01*
X72636Y49529D01*
X72443Y49529D01*
G37*
%LPD*%
%LPC*%
G36*
X77364Y49529D02*
X77364Y49529D01*
X77185Y49603D01*
X77048Y49740D01*
X76974Y49919D01*
X76974Y50113D01*
X77048Y50291D01*
X77185Y50428D01*
X77364Y50502D01*
X77557Y50502D01*
X77736Y50428D01*
X77873Y50291D01*
X77947Y50113D01*
X77947Y49919D01*
X77873Y49740D01*
X77736Y49603D01*
X77557Y49529D01*
X77364Y49529D01*
G37*
%LPD*%
%LPC*%
G36*
X114141Y2289D02*
X114141Y2289D01*
X113963Y2363D01*
X113826Y2500D01*
X113752Y2679D01*
X113752Y2872D01*
X113826Y3051D01*
X113963Y3188D01*
X114141Y3262D01*
X114335Y3262D01*
X114514Y3188D01*
X114651Y3051D01*
X114725Y2872D01*
X114725Y2679D01*
X114651Y2500D01*
X114514Y2363D01*
X114335Y2289D01*
X114141Y2289D01*
G37*
%LPD*%
%LPC*%
G36*
X111189Y2289D02*
X111189Y2289D01*
X111010Y2363D01*
X110873Y2500D01*
X110799Y2679D01*
X110799Y2872D01*
X110873Y3051D01*
X111010Y3188D01*
X111189Y3262D01*
X111382Y3262D01*
X111561Y3188D01*
X111698Y3051D01*
X111772Y2872D01*
X111772Y2679D01*
X111698Y2500D01*
X111561Y2363D01*
X111382Y2289D01*
X111189Y2289D01*
G37*
%LPD*%
%LPC*%
G36*
X112665Y36738D02*
X112665Y36738D01*
X112486Y36812D01*
X112349Y36949D01*
X112275Y37128D01*
X112275Y37321D01*
X112349Y37500D01*
X112486Y37637D01*
X112665Y37711D01*
X112859Y37711D01*
X113037Y37637D01*
X113174Y37500D01*
X113248Y37321D01*
X113248Y37128D01*
X113174Y36949D01*
X113037Y36812D01*
X112859Y36738D01*
X112665Y36738D01*
G37*
%LPD*%
%LPC*%
G36*
X11443Y6529D02*
X11443Y6529D01*
X11264Y6603D01*
X11127Y6740D01*
X11053Y6919D01*
X11053Y7113D01*
X11127Y7291D01*
X11264Y7428D01*
X11443Y7502D01*
X11636Y7502D01*
X11815Y7428D01*
X11952Y7291D01*
X12026Y7113D01*
X12026Y6919D01*
X11952Y6740D01*
X11815Y6603D01*
X11636Y6529D01*
X11443Y6529D01*
G37*
%LPD*%
%LPC*%
G36*
X72443Y51498D02*
X72443Y51498D01*
X72264Y51572D01*
X72127Y51709D01*
X72053Y51887D01*
X72053Y52081D01*
X72127Y52260D01*
X72264Y52397D01*
X72443Y52471D01*
X72636Y52471D01*
X72815Y52397D01*
X72952Y52260D01*
X73026Y52081D01*
X73026Y51887D01*
X72952Y51709D01*
X72815Y51572D01*
X72636Y51498D01*
X72443Y51498D01*
G37*
%LPD*%
%LPC*%
G36*
X16364Y6529D02*
X16364Y6529D01*
X16185Y6603D01*
X16048Y6740D01*
X15974Y6919D01*
X15974Y7113D01*
X16048Y7291D01*
X16185Y7428D01*
X16364Y7502D01*
X16557Y7502D01*
X16736Y7428D01*
X16873Y7291D01*
X16947Y7113D01*
X16947Y6919D01*
X16873Y6740D01*
X16736Y6603D01*
X16557Y6529D01*
X16364Y6529D01*
G37*
%LPD*%
%LPC*%
G36*
X20443Y6529D02*
X20443Y6529D01*
X20264Y6603D01*
X20127Y6740D01*
X20053Y6919D01*
X20053Y7113D01*
X20127Y7291D01*
X20264Y7428D01*
X20443Y7502D01*
X20636Y7502D01*
X20815Y7428D01*
X20952Y7291D01*
X21026Y7113D01*
X21026Y6919D01*
X20952Y6740D01*
X20815Y6603D01*
X20636Y6529D01*
X20443Y6529D01*
G37*
%LPD*%
%LPC*%
G36*
X115618Y2289D02*
X115618Y2289D01*
X115439Y2363D01*
X115302Y2500D01*
X115228Y2679D01*
X115228Y2872D01*
X115302Y3051D01*
X115439Y3188D01*
X115618Y3262D01*
X115811Y3262D01*
X115990Y3188D01*
X116127Y3051D01*
X116201Y2872D01*
X116201Y2679D01*
X116127Y2500D01*
X115990Y2363D01*
X115811Y2289D01*
X115618Y2289D01*
G37*
%LPD*%
%LPC*%
G36*
X112665Y2289D02*
X112665Y2289D01*
X112486Y2363D01*
X112349Y2500D01*
X112275Y2679D01*
X112275Y2872D01*
X112349Y3051D01*
X112486Y3188D01*
X112665Y3262D01*
X112859Y3262D01*
X113037Y3188D01*
X113174Y3051D01*
X113248Y2872D01*
X113248Y2679D01*
X113174Y2500D01*
X113037Y2363D01*
X112859Y2289D01*
X112665Y2289D01*
G37*
%LPD*%
%LPC*%
G36*
X25364Y6529D02*
X25364Y6529D01*
X25185Y6603D01*
X25048Y6740D01*
X24974Y6919D01*
X24974Y7113D01*
X25048Y7291D01*
X25185Y7428D01*
X25364Y7502D01*
X25557Y7502D01*
X25736Y7428D01*
X25873Y7291D01*
X25947Y7113D01*
X25947Y6919D01*
X25873Y6740D01*
X25736Y6603D01*
X25557Y6529D01*
X25364Y6529D01*
G37*
%LPD*%
%LPC*%
G36*
X2443Y6529D02*
X2443Y6529D01*
X2264Y6603D01*
X2127Y6740D01*
X2053Y6919D01*
X2053Y7113D01*
X2127Y7291D01*
X2264Y7428D01*
X2443Y7502D01*
X2636Y7502D01*
X2815Y7428D01*
X2952Y7291D01*
X3026Y7113D01*
X3026Y6919D01*
X2952Y6740D01*
X2815Y6603D01*
X2636Y6529D01*
X2443Y6529D01*
G37*
%LPD*%
%LPC*%
G36*
X7364Y6529D02*
X7364Y6529D01*
X7185Y6603D01*
X7048Y6740D01*
X6974Y6919D01*
X6974Y7113D01*
X7048Y7291D01*
X7185Y7428D01*
X7364Y7502D01*
X7557Y7502D01*
X7736Y7428D01*
X7873Y7291D01*
X7947Y7113D01*
X7947Y6919D01*
X7873Y6740D01*
X7736Y6603D01*
X7557Y6529D01*
X7364Y6529D01*
G37*
%LPD*%
%LPC*%
G36*
X20443Y8498D02*
X20443Y8498D01*
X20264Y8572D01*
X20127Y8709D01*
X20053Y8887D01*
X20053Y9081D01*
X20127Y9260D01*
X20264Y9397D01*
X20443Y9471D01*
X20636Y9471D01*
X20815Y9397D01*
X20952Y9260D01*
X21026Y9081D01*
X21026Y8887D01*
X20952Y8709D01*
X20815Y8572D01*
X20636Y8498D01*
X20443Y8498D01*
G37*
%LPD*%
%LPC*%
G36*
X2443Y8498D02*
X2443Y8498D01*
X2264Y8572D01*
X2127Y8709D01*
X2053Y8887D01*
X2053Y9081D01*
X2127Y9260D01*
X2264Y9397D01*
X2443Y9471D01*
X2636Y9471D01*
X2815Y9397D01*
X2952Y9260D01*
X3026Y9081D01*
X3026Y8887D01*
X2952Y8709D01*
X2815Y8572D01*
X2636Y8498D01*
X2443Y8498D01*
G37*
%LPD*%
%LPC*%
G36*
X114141Y36738D02*
X114141Y36738D01*
X113963Y36812D01*
X113826Y36949D01*
X113752Y37128D01*
X113752Y37321D01*
X113826Y37500D01*
X113963Y37637D01*
X114141Y37711D01*
X114335Y37711D01*
X114514Y37637D01*
X114651Y37500D01*
X114725Y37321D01*
X114725Y37128D01*
X114651Y36949D01*
X114514Y36812D01*
X114335Y36738D01*
X114141Y36738D01*
G37*
%LPD*%
%LPC*%
G36*
X11443Y8498D02*
X11443Y8498D01*
X11264Y8572D01*
X11127Y8709D01*
X11053Y8887D01*
X11053Y9081D01*
X11127Y9260D01*
X11264Y9397D01*
X11443Y9471D01*
X11636Y9471D01*
X11815Y9397D01*
X11952Y9260D01*
X12026Y9081D01*
X12026Y8887D01*
X11952Y8709D01*
X11815Y8572D01*
X11636Y8498D01*
X11443Y8498D01*
G37*
%LPD*%
%LPC*%
G36*
X65903Y14139D02*
X65903Y14139D01*
X65725Y14213D01*
X65588Y14350D01*
X65514Y14528D01*
X65514Y14722D01*
X65588Y14900D01*
X65725Y15037D01*
X65903Y15111D01*
X66097Y15111D01*
X66275Y15037D01*
X66412Y14900D01*
X66486Y14722D01*
X66486Y14528D01*
X66412Y14350D01*
X66275Y14213D01*
X66097Y14139D01*
X65903Y14139D01*
G37*
%LPD*%
%LPC*%
G36*
X71903Y14139D02*
X71903Y14139D01*
X71725Y14213D01*
X71588Y14350D01*
X71514Y14528D01*
X71514Y14722D01*
X71588Y14900D01*
X71725Y15037D01*
X71903Y15111D01*
X72097Y15111D01*
X72275Y15037D01*
X72412Y14900D01*
X72486Y14722D01*
X72486Y14528D01*
X72412Y14350D01*
X72275Y14213D01*
X72097Y14139D01*
X71903Y14139D01*
G37*
%LPD*%
%LPC*%
G36*
X47403Y8889D02*
X47403Y8889D01*
X47225Y8963D01*
X47088Y9100D01*
X47014Y9278D01*
X47014Y9472D01*
X47088Y9650D01*
X47225Y9787D01*
X47403Y9861D01*
X47597Y9861D01*
X47775Y9787D01*
X47912Y9650D01*
X47986Y9472D01*
X47986Y9278D01*
X47912Y9100D01*
X47775Y8963D01*
X47597Y8889D01*
X47403Y8889D01*
G37*
%LPD*%
%LPC*%
G36*
X41403Y8889D02*
X41403Y8889D01*
X41225Y8963D01*
X41088Y9100D01*
X41014Y9278D01*
X41014Y9472D01*
X41088Y9650D01*
X41225Y9787D01*
X41403Y9861D01*
X41597Y9861D01*
X41775Y9787D01*
X41912Y9650D01*
X41986Y9472D01*
X41986Y9278D01*
X41912Y9100D01*
X41775Y8963D01*
X41597Y8889D01*
X41403Y8889D01*
G37*
%LPD*%
%LPC*%
G36*
X65903Y8889D02*
X65903Y8889D01*
X65725Y8963D01*
X65588Y9100D01*
X65514Y9278D01*
X65514Y9472D01*
X65588Y9650D01*
X65725Y9787D01*
X65903Y9861D01*
X66097Y9861D01*
X66275Y9787D01*
X66412Y9650D01*
X66486Y9472D01*
X66486Y9278D01*
X66412Y9100D01*
X66275Y8963D01*
X66097Y8889D01*
X65903Y8889D01*
G37*
%LPD*%
%LPC*%
G36*
X71903Y8889D02*
X71903Y8889D01*
X71725Y8963D01*
X71588Y9100D01*
X71514Y9278D01*
X71514Y9472D01*
X71588Y9650D01*
X71725Y9787D01*
X71903Y9861D01*
X72097Y9861D01*
X72275Y9787D01*
X72412Y9650D01*
X72486Y9472D01*
X72486Y9278D01*
X72412Y9100D01*
X72275Y8963D01*
X72097Y8889D01*
X71903Y8889D01*
G37*
%LPD*%
%LPC*%
G36*
X41403Y14139D02*
X41403Y14139D01*
X41225Y14213D01*
X41088Y14350D01*
X41014Y14528D01*
X41014Y14722D01*
X41088Y14900D01*
X41225Y15037D01*
X41403Y15111D01*
X41597Y15111D01*
X41775Y15037D01*
X41912Y14900D01*
X41986Y14722D01*
X41986Y14528D01*
X41912Y14350D01*
X41775Y14213D01*
X41597Y14139D01*
X41403Y14139D01*
G37*
%LPD*%
%LPC*%
G36*
X47403Y14139D02*
X47403Y14139D01*
X47225Y14213D01*
X47088Y14350D01*
X47014Y14528D01*
X47014Y14722D01*
X47088Y14900D01*
X47225Y15037D01*
X47403Y15111D01*
X47597Y15111D01*
X47775Y15037D01*
X47912Y14900D01*
X47986Y14722D01*
X47986Y14528D01*
X47912Y14350D01*
X47775Y14213D01*
X47597Y14139D01*
X47403Y14139D01*
G37*
%LPD*%
%LPC*%
G36*
X16419Y56591D02*
X16419Y56591D01*
X16268Y56653D01*
X16153Y56768D01*
X16091Y56919D01*
X16091Y57081D01*
X16153Y57232D01*
X16268Y57347D01*
X16419Y57409D01*
X16581Y57409D01*
X16732Y57347D01*
X16847Y57232D01*
X16909Y57081D01*
X16909Y56919D01*
X16847Y56768D01*
X16732Y56653D01*
X16581Y56591D01*
X16419Y56591D01*
G37*
%LPD*%
%LPC*%
G36*
X4919Y56591D02*
X4919Y56591D01*
X4768Y56653D01*
X4653Y56768D01*
X4591Y56919D01*
X4591Y57081D01*
X4653Y57232D01*
X4768Y57347D01*
X4919Y57409D01*
X5081Y57409D01*
X5232Y57347D01*
X5347Y57232D01*
X5409Y57081D01*
X5409Y56919D01*
X5347Y56768D01*
X5232Y56653D01*
X5081Y56591D01*
X4919Y56591D01*
G37*
%LPD*%
%LPC*%
G36*
X96919Y40591D02*
X96919Y40591D01*
X96768Y40653D01*
X96653Y40768D01*
X96591Y40919D01*
X96591Y41081D01*
X96653Y41232D01*
X96768Y41347D01*
X96919Y41409D01*
X97081Y41409D01*
X97232Y41347D01*
X97347Y41232D01*
X97409Y41081D01*
X97409Y40919D01*
X97347Y40768D01*
X97232Y40653D01*
X97081Y40591D01*
X96919Y40591D01*
G37*
%LPD*%
%LPC*%
G36*
X91919Y50591D02*
X91919Y50591D01*
X91768Y50653D01*
X91653Y50768D01*
X91591Y50919D01*
X91591Y51081D01*
X91653Y51232D01*
X91768Y51347D01*
X91919Y51409D01*
X92081Y51409D01*
X92232Y51347D01*
X92347Y51232D01*
X92409Y51081D01*
X92409Y50919D01*
X92347Y50768D01*
X92232Y50653D01*
X92081Y50591D01*
X91919Y50591D01*
G37*
%LPD*%
%LPC*%
G36*
X86919Y40591D02*
X86919Y40591D01*
X86768Y40653D01*
X86653Y40768D01*
X86591Y40919D01*
X86591Y41081D01*
X86653Y41232D01*
X86768Y41347D01*
X86919Y41409D01*
X87081Y41409D01*
X87232Y41347D01*
X87347Y41232D01*
X87409Y41081D01*
X87409Y40919D01*
X87347Y40768D01*
X87232Y40653D01*
X87081Y40591D01*
X86919Y40591D01*
G37*
%LPD*%
%LPC*%
G36*
X16919Y40591D02*
X16919Y40591D01*
X16768Y40653D01*
X16653Y40768D01*
X16591Y40919D01*
X16591Y41081D01*
X16653Y41232D01*
X16768Y41347D01*
X16919Y41409D01*
X17081Y41409D01*
X17232Y41347D01*
X17347Y41232D01*
X17409Y41081D01*
X17409Y40919D01*
X17347Y40768D01*
X17232Y40653D01*
X17081Y40591D01*
X16919Y40591D01*
G37*
%LPD*%
%LPC*%
G36*
X4919Y38591D02*
X4919Y38591D01*
X4768Y38653D01*
X4653Y38768D01*
X4591Y38919D01*
X4591Y39081D01*
X4653Y39232D01*
X4768Y39347D01*
X4919Y39409D01*
X5081Y39409D01*
X5232Y39347D01*
X5347Y39232D01*
X5409Y39081D01*
X5409Y38919D01*
X5347Y38768D01*
X5232Y38653D01*
X5081Y38591D01*
X4919Y38591D01*
G37*
%LPD*%
%LPC*%
G36*
X106919Y40591D02*
X106919Y40591D01*
X106768Y40653D01*
X106653Y40768D01*
X106591Y40919D01*
X106591Y41081D01*
X106653Y41232D01*
X106768Y41347D01*
X106919Y41409D01*
X107081Y41409D01*
X107232Y41347D01*
X107347Y41232D01*
X107409Y41081D01*
X107409Y40919D01*
X107347Y40768D01*
X107232Y40653D01*
X107081Y40591D01*
X106919Y40591D01*
G37*
%LPD*%
%LPC*%
G36*
X91919Y52591D02*
X91919Y52591D01*
X91768Y52653D01*
X91653Y52768D01*
X91591Y52919D01*
X91591Y53081D01*
X91653Y53232D01*
X91768Y53347D01*
X91919Y53409D01*
X92081Y53409D01*
X92232Y53347D01*
X92347Y53232D01*
X92409Y53081D01*
X92409Y52919D01*
X92347Y52768D01*
X92232Y52653D01*
X92081Y52591D01*
X91919Y52591D01*
G37*
%LPD*%
%LPC*%
G36*
X4919Y21591D02*
X4919Y21591D01*
X4768Y21653D01*
X4653Y21768D01*
X4591Y21919D01*
X4591Y22081D01*
X4653Y22232D01*
X4768Y22347D01*
X4919Y22409D01*
X5081Y22409D01*
X5232Y22347D01*
X5347Y22232D01*
X5409Y22081D01*
X5409Y21919D01*
X5347Y21768D01*
X5232Y21653D01*
X5081Y21591D01*
X4919Y21591D01*
G37*
%LPD*%
%LPC*%
G36*
X4919Y54591D02*
X4919Y54591D01*
X4768Y54653D01*
X4653Y54768D01*
X4591Y54919D01*
X4591Y55081D01*
X4653Y55232D01*
X4768Y55347D01*
X4919Y55409D01*
X5081Y55409D01*
X5232Y55347D01*
X5347Y55232D01*
X5409Y55081D01*
X5409Y54919D01*
X5347Y54768D01*
X5232Y54653D01*
X5081Y54591D01*
X4919Y54591D01*
G37*
%LPD*%
%LPC*%
G36*
X16419Y54591D02*
X16419Y54591D01*
X16268Y54653D01*
X16153Y54768D01*
X16091Y54919D01*
X16091Y55081D01*
X16153Y55232D01*
X16268Y55347D01*
X16419Y55409D01*
X16581Y55409D01*
X16732Y55347D01*
X16847Y55232D01*
X16909Y55081D01*
X16909Y54919D01*
X16847Y54768D01*
X16732Y54653D01*
X16581Y54591D01*
X16419Y54591D01*
G37*
%LPD*%
%LPC*%
G36*
X4919Y29591D02*
X4919Y29591D01*
X4768Y29653D01*
X4653Y29768D01*
X4591Y29919D01*
X4591Y30081D01*
X4653Y30232D01*
X4768Y30347D01*
X4919Y30409D01*
X5081Y30409D01*
X5232Y30347D01*
X5347Y30232D01*
X5409Y30081D01*
X5409Y29919D01*
X5347Y29768D01*
X5232Y29653D01*
X5081Y29591D01*
X4919Y29591D01*
G37*
%LPD*%
%LPC*%
G36*
X116319Y40591D02*
X116319Y40591D01*
X116168Y40653D01*
X116053Y40768D01*
X115991Y40919D01*
X115991Y41081D01*
X116053Y41232D01*
X116168Y41347D01*
X116319Y41409D01*
X116481Y41409D01*
X116632Y41347D01*
X116747Y41232D01*
X116809Y41081D01*
X116809Y40919D01*
X116747Y40768D01*
X116632Y40653D01*
X116481Y40591D01*
X116319Y40591D01*
G37*
%LPD*%
%LPC*%
G36*
X16919Y29591D02*
X16919Y29591D01*
X16768Y29653D01*
X16653Y29768D01*
X16591Y29919D01*
X16591Y30081D01*
X16653Y30232D01*
X16768Y30347D01*
X16919Y30409D01*
X17081Y30409D01*
X17232Y30347D01*
X17347Y30232D01*
X17409Y30081D01*
X17409Y29919D01*
X17347Y29768D01*
X17232Y29653D01*
X17081Y29591D01*
X16919Y29591D01*
G37*
%LPD*%
%LPC*%
G36*
X16919Y46591D02*
X16919Y46591D01*
X16768Y46653D01*
X16653Y46768D01*
X16591Y46919D01*
X16591Y47081D01*
X16653Y47232D01*
X16768Y47347D01*
X16919Y47409D01*
X17081Y47409D01*
X17232Y47347D01*
X17347Y47232D01*
X17409Y47081D01*
X17409Y46919D01*
X17347Y46768D01*
X17232Y46653D01*
X17081Y46591D01*
X16919Y46591D01*
G37*
%LPD*%
%LPC*%
G36*
X4919Y46591D02*
X4919Y46591D01*
X4768Y46653D01*
X4653Y46768D01*
X4591Y46919D01*
X4591Y47081D01*
X4653Y47232D01*
X4768Y47347D01*
X4919Y47409D01*
X5081Y47409D01*
X5232Y47347D01*
X5347Y47232D01*
X5409Y47081D01*
X5409Y46919D01*
X5347Y46768D01*
X5232Y46653D01*
X5081Y46591D01*
X4919Y46591D01*
G37*
%LPD*%
%LPC*%
G36*
X16919Y21591D02*
X16919Y21591D01*
X16768Y21653D01*
X16653Y21768D01*
X16591Y21919D01*
X16591Y22081D01*
X16653Y22232D01*
X16768Y22347D01*
X16919Y22409D01*
X17081Y22409D01*
X17232Y22347D01*
X17347Y22232D01*
X17409Y22081D01*
X17409Y21919D01*
X17347Y21768D01*
X17232Y21653D01*
X17081Y21591D01*
X16919Y21591D01*
G37*
%LPD*%
%LPC*%
G36*
X16919Y48591D02*
X16919Y48591D01*
X16768Y48653D01*
X16653Y48768D01*
X16591Y48919D01*
X16591Y49081D01*
X16653Y49232D01*
X16768Y49347D01*
X16919Y49409D01*
X17081Y49409D01*
X17232Y49347D01*
X17347Y49232D01*
X17409Y49081D01*
X17409Y48919D01*
X17347Y48768D01*
X17232Y48653D01*
X17081Y48591D01*
X16919Y48591D01*
G37*
%LPD*%
%LPC*%
G36*
X4919Y48591D02*
X4919Y48591D01*
X4768Y48653D01*
X4653Y48768D01*
X4591Y48919D01*
X4591Y49081D01*
X4653Y49232D01*
X4768Y49347D01*
X4919Y49409D01*
X5081Y49409D01*
X5232Y49347D01*
X5347Y49232D01*
X5409Y49081D01*
X5409Y48919D01*
X5347Y48768D01*
X5232Y48653D01*
X5081Y48591D01*
X4919Y48591D01*
G37*
%LPD*%
%LPC*%
G36*
X4919Y40591D02*
X4919Y40591D01*
X4768Y40653D01*
X4653Y40768D01*
X4591Y40919D01*
X4591Y41081D01*
X4653Y41232D01*
X4768Y41347D01*
X4919Y41409D01*
X5081Y41409D01*
X5232Y41347D01*
X5347Y41232D01*
X5409Y41081D01*
X5409Y40919D01*
X5347Y40768D01*
X5232Y40653D01*
X5081Y40591D01*
X4919Y40591D01*
G37*
%LPD*%
%LPC*%
G36*
X96919Y42591D02*
X96919Y42591D01*
X96768Y42653D01*
X96653Y42768D01*
X96591Y42919D01*
X96591Y43081D01*
X96653Y43232D01*
X96768Y43347D01*
X96919Y43409D01*
X97081Y43409D01*
X97232Y43347D01*
X97347Y43232D01*
X97409Y43081D01*
X97409Y42919D01*
X97347Y42768D01*
X97232Y42653D01*
X97081Y42591D01*
X96919Y42591D01*
G37*
%LPD*%
%LPC*%
G36*
X4919Y31591D02*
X4919Y31591D01*
X4768Y31653D01*
X4653Y31768D01*
X4591Y31919D01*
X4591Y32081D01*
X4653Y32232D01*
X4768Y32347D01*
X4919Y32409D01*
X5081Y32409D01*
X5232Y32347D01*
X5347Y32232D01*
X5409Y32081D01*
X5409Y31919D01*
X5347Y31768D01*
X5232Y31653D01*
X5081Y31591D01*
X4919Y31591D01*
G37*
%LPD*%
%LPC*%
G36*
X4919Y19591D02*
X4919Y19591D01*
X4768Y19653D01*
X4653Y19768D01*
X4591Y19919D01*
X4591Y20081D01*
X4653Y20232D01*
X4768Y20347D01*
X4919Y20409D01*
X5081Y20409D01*
X5232Y20347D01*
X5347Y20232D01*
X5409Y20081D01*
X5409Y19919D01*
X5347Y19768D01*
X5232Y19653D01*
X5081Y19591D01*
X4919Y19591D01*
G37*
%LPD*%
%LPC*%
G36*
X16919Y19591D02*
X16919Y19591D01*
X16768Y19653D01*
X16653Y19768D01*
X16591Y19919D01*
X16591Y20081D01*
X16653Y20232D01*
X16768Y20347D01*
X16919Y20409D01*
X17081Y20409D01*
X17232Y20347D01*
X17347Y20232D01*
X17409Y20081D01*
X17409Y19919D01*
X17347Y19768D01*
X17232Y19653D01*
X17081Y19591D01*
X16919Y19591D01*
G37*
%LPD*%
%LPC*%
G36*
X16919Y38591D02*
X16919Y38591D01*
X16768Y38653D01*
X16653Y38768D01*
X16591Y38919D01*
X16591Y39081D01*
X16653Y39232D01*
X16768Y39347D01*
X16919Y39409D01*
X17081Y39409D01*
X17232Y39347D01*
X17347Y39232D01*
X17409Y39081D01*
X17409Y38919D01*
X17347Y38768D01*
X17232Y38653D01*
X17081Y38591D01*
X16919Y38591D01*
G37*
%LPD*%
%LPC*%
G36*
X16919Y31591D02*
X16919Y31591D01*
X16768Y31653D01*
X16653Y31768D01*
X16591Y31919D01*
X16591Y32081D01*
X16653Y32232D01*
X16768Y32347D01*
X16919Y32409D01*
X17081Y32409D01*
X17232Y32347D01*
X17347Y32232D01*
X17409Y32081D01*
X17409Y31919D01*
X17347Y31768D01*
X17232Y31653D01*
X17081Y31591D01*
X16919Y31591D01*
G37*
%LPD*%
%LPC*%
G36*
X86919Y42591D02*
X86919Y42591D01*
X86768Y42653D01*
X86653Y42768D01*
X86591Y42919D01*
X86591Y43081D01*
X86653Y43232D01*
X86768Y43347D01*
X86919Y43409D01*
X87081Y43409D01*
X87232Y43347D01*
X87347Y43232D01*
X87409Y43081D01*
X87409Y42919D01*
X87347Y42768D01*
X87232Y42653D01*
X87081Y42591D01*
X86919Y42591D01*
G37*
%LPD*%
%LPC*%
G36*
X116319Y42591D02*
X116319Y42591D01*
X116168Y42653D01*
X116053Y42768D01*
X115991Y42919D01*
X115991Y43081D01*
X116053Y43232D01*
X116168Y43347D01*
X116319Y43409D01*
X116481Y43409D01*
X116632Y43347D01*
X116747Y43232D01*
X116809Y43081D01*
X116809Y42919D01*
X116747Y42768D01*
X116632Y42653D01*
X116481Y42591D01*
X116319Y42591D01*
G37*
%LPD*%
%LPC*%
G36*
X106919Y42591D02*
X106919Y42591D01*
X106768Y42653D01*
X106653Y42768D01*
X106591Y42919D01*
X106591Y43081D01*
X106653Y43232D01*
X106768Y43347D01*
X106919Y43409D01*
X107081Y43409D01*
X107232Y43347D01*
X107347Y43232D01*
X107409Y43081D01*
X107409Y42919D01*
X107347Y42768D01*
X107232Y42653D01*
X107081Y42591D01*
X106919Y42591D01*
G37*
%LPD*%
%LPC*%
G36*
X75454Y44520D02*
X75454Y44520D01*
X75370Y44555D01*
X75305Y44620D01*
X75270Y44704D01*
X75270Y44796D01*
X75305Y44880D01*
X75370Y44945D01*
X75394Y44954D01*
X75398Y44957D01*
X75403Y44960D01*
X75404Y44960D01*
X75404Y44961D01*
X75408Y44965D01*
X75412Y44968D01*
X75413Y44969D01*
X75416Y44974D01*
X75419Y44979D01*
X75420Y44980D01*
X75421Y44985D01*
X75423Y44991D01*
X75423Y44992D01*
X75424Y44997D01*
X75424Y45003D01*
X75424Y45004D01*
X75423Y45010D01*
X75422Y45015D01*
X75421Y45016D01*
X75419Y45021D01*
X75416Y45026D01*
X75416Y45027D01*
X75416Y45028D01*
X75412Y45032D01*
X75408Y45036D01*
X75407Y45037D01*
X75397Y45044D01*
X75395Y45045D01*
X75394Y45046D01*
X75370Y45055D01*
X75305Y45120D01*
X75270Y45204D01*
X75270Y45296D01*
X75305Y45380D01*
X75370Y45445D01*
X75394Y45454D01*
X75398Y45457D01*
X75403Y45460D01*
X75404Y45460D01*
X75404Y45461D01*
X75408Y45465D01*
X75412Y45468D01*
X75413Y45469D01*
X75416Y45474D01*
X75419Y45479D01*
X75420Y45480D01*
X75421Y45485D01*
X75423Y45491D01*
X75423Y45492D01*
X75424Y45497D01*
X75424Y45503D01*
X75424Y45504D01*
X75423Y45510D01*
X75422Y45515D01*
X75421Y45516D01*
X75419Y45521D01*
X75416Y45526D01*
X75416Y45527D01*
X75416Y45528D01*
X75412Y45532D01*
X75408Y45536D01*
X75407Y45537D01*
X75397Y45544D01*
X75395Y45545D01*
X75394Y45546D01*
X75370Y45555D01*
X75305Y45620D01*
X75270Y45704D01*
X75270Y45796D01*
X75305Y45880D01*
X75370Y45945D01*
X75454Y45980D01*
X75546Y45980D01*
X75630Y45945D01*
X75701Y45873D01*
X75703Y45872D01*
X75705Y45870D01*
X75708Y45868D01*
X75711Y45866D01*
X75714Y45865D01*
X75716Y45863D01*
X75719Y45862D01*
X75719Y45861D01*
X75717Y45858D01*
X75717Y45855D01*
X75716Y45852D01*
X75716Y45849D01*
X75715Y45846D01*
X75715Y45843D01*
X75715Y45840D01*
X75715Y45838D01*
X75715Y45833D01*
X75718Y45825D01*
X75718Y45823D01*
X75730Y45796D01*
X75730Y45704D01*
X75695Y45620D01*
X75630Y45555D01*
X75606Y45546D01*
X75602Y45543D01*
X75597Y45540D01*
X75596Y45540D01*
X75596Y45539D01*
X75592Y45535D01*
X75588Y45532D01*
X75587Y45531D01*
X75584Y45526D01*
X75581Y45521D01*
X75580Y45520D01*
X75579Y45515D01*
X75577Y45509D01*
X75577Y45508D01*
X75576Y45503D01*
X75576Y45497D01*
X75576Y45496D01*
X75577Y45490D01*
X75578Y45485D01*
X75579Y45484D01*
X75581Y45479D01*
X75584Y45474D01*
X75584Y45473D01*
X75584Y45472D01*
X75588Y45468D01*
X75592Y45464D01*
X75593Y45463D01*
X75603Y45456D01*
X75605Y45455D01*
X75606Y45454D01*
X75630Y45445D01*
X75695Y45380D01*
X75730Y45296D01*
X75730Y45204D01*
X75695Y45120D01*
X75630Y45055D01*
X75606Y45046D01*
X75602Y45043D01*
X75597Y45040D01*
X75596Y45040D01*
X75596Y45039D01*
X75592Y45035D01*
X75588Y45032D01*
X75587Y45031D01*
X75584Y45026D01*
X75581Y45021D01*
X75580Y45020D01*
X75579Y45015D01*
X75577Y45009D01*
X75577Y45008D01*
X75576Y45003D01*
X75576Y44997D01*
X75576Y44996D01*
X75577Y44990D01*
X75578Y44985D01*
X75579Y44984D01*
X75581Y44979D01*
X75584Y44974D01*
X75584Y44973D01*
X75584Y44972D01*
X75588Y44968D01*
X75592Y44964D01*
X75593Y44963D01*
X75603Y44956D01*
X75605Y44955D01*
X75606Y44954D01*
X75630Y44945D01*
X75695Y44880D01*
X75730Y44796D01*
X75730Y44704D01*
X75695Y44620D01*
X75630Y44555D01*
X75546Y44520D01*
X75454Y44520D01*
G37*
%LPD*%
%LPC*%
G36*
X67670Y16518D02*
X67670Y16518D01*
X67521Y16579D01*
X67408Y16693D01*
X67346Y16841D01*
X67346Y17002D01*
X67408Y17150D01*
X67521Y17264D01*
X67670Y17326D01*
X67830Y17326D01*
X67979Y17264D01*
X68092Y17150D01*
X68154Y17002D01*
X68154Y16841D01*
X68092Y16693D01*
X67979Y16579D01*
X67830Y16518D01*
X67670Y16518D01*
G37*
%LPD*%
%LPC*%
G36*
X45670Y16518D02*
X45670Y16518D01*
X45521Y16579D01*
X45408Y16693D01*
X45346Y16841D01*
X45346Y17002D01*
X45408Y17150D01*
X45521Y17264D01*
X45670Y17326D01*
X45830Y17326D01*
X45979Y17264D01*
X46092Y17150D01*
X46154Y17002D01*
X46154Y16841D01*
X46092Y16693D01*
X45979Y16579D01*
X45830Y16518D01*
X45670Y16518D01*
G37*
%LPD*%
%LPC*%
G36*
X43170Y16518D02*
X43170Y16518D01*
X43021Y16579D01*
X42908Y16693D01*
X42846Y16841D01*
X42846Y17002D01*
X42908Y17150D01*
X43021Y17264D01*
X43170Y17326D01*
X43330Y17326D01*
X43479Y17264D01*
X43592Y17150D01*
X43654Y17002D01*
X43654Y16841D01*
X43592Y16693D01*
X43479Y16579D01*
X43330Y16518D01*
X43170Y16518D01*
G37*
%LPD*%
%LPC*%
G36*
X45670Y14746D02*
X45670Y14746D01*
X45521Y14808D01*
X45408Y14921D01*
X45346Y15070D01*
X45346Y15230D01*
X45408Y15379D01*
X45521Y15492D01*
X45670Y15554D01*
X45830Y15554D01*
X45979Y15492D01*
X46092Y15379D01*
X46154Y15230D01*
X46154Y15070D01*
X46092Y14921D01*
X45979Y14808D01*
X45830Y14746D01*
X45670Y14746D01*
G37*
%LPD*%
%LPC*%
G36*
X43170Y14746D02*
X43170Y14746D01*
X43021Y14808D01*
X42908Y14921D01*
X42846Y15070D01*
X42846Y15230D01*
X42908Y15379D01*
X43021Y15492D01*
X43170Y15554D01*
X43330Y15554D01*
X43479Y15492D01*
X43592Y15379D01*
X43654Y15230D01*
X43654Y15070D01*
X43592Y14921D01*
X43479Y14808D01*
X43330Y14746D01*
X43170Y14746D01*
G37*
%LPD*%
%LPC*%
G36*
X67670Y14746D02*
X67670Y14746D01*
X67521Y14808D01*
X67408Y14921D01*
X67346Y15070D01*
X67346Y15230D01*
X67408Y15379D01*
X67521Y15492D01*
X67670Y15554D01*
X67830Y15554D01*
X67979Y15492D01*
X68092Y15379D01*
X68154Y15230D01*
X68154Y15070D01*
X68092Y14921D01*
X67979Y14808D01*
X67830Y14746D01*
X67670Y14746D01*
G37*
%LPD*%
%LPC*%
G36*
X70170Y14746D02*
X70170Y14746D01*
X70021Y14808D01*
X69908Y14921D01*
X69846Y15070D01*
X69846Y15230D01*
X69908Y15379D01*
X70021Y15492D01*
X70170Y15554D01*
X70330Y15554D01*
X70479Y15492D01*
X70592Y15379D01*
X70654Y15230D01*
X70654Y15070D01*
X70592Y14921D01*
X70479Y14808D01*
X70330Y14746D01*
X70170Y14746D01*
G37*
%LPD*%
%LPC*%
G36*
X70170Y16518D02*
X70170Y16518D01*
X70021Y16579D01*
X69908Y16693D01*
X69846Y16841D01*
X69846Y17002D01*
X69908Y17150D01*
X70021Y17264D01*
X70170Y17326D01*
X70330Y17326D01*
X70479Y17264D01*
X70592Y17150D01*
X70654Y17002D01*
X70654Y16841D01*
X70592Y16693D01*
X70479Y16579D01*
X70330Y16518D01*
X70170Y16518D01*
G37*
%LPD*%
%LPC*%
G36*
X45424Y5119D02*
X45424Y5119D01*
X45284Y5177D01*
X45177Y5284D01*
X45119Y5424D01*
X45119Y5576D01*
X45177Y5716D01*
X45284Y5823D01*
X45424Y5881D01*
X45576Y5881D01*
X45716Y5823D01*
X45823Y5716D01*
X45881Y5576D01*
X45881Y5424D01*
X45823Y5284D01*
X45716Y5177D01*
X45576Y5119D01*
X45424Y5119D01*
G37*
%LPD*%
%LPC*%
G36*
X46424Y5119D02*
X46424Y5119D01*
X46284Y5177D01*
X46177Y5284D01*
X46119Y5424D01*
X46119Y5576D01*
X46177Y5716D01*
X46284Y5823D01*
X46424Y5881D01*
X46576Y5881D01*
X46716Y5823D01*
X46823Y5716D01*
X46881Y5576D01*
X46881Y5424D01*
X46823Y5284D01*
X46716Y5177D01*
X46576Y5119D01*
X46424Y5119D01*
G37*
%LPD*%
%LPC*%
G36*
X66924Y3619D02*
X66924Y3619D01*
X66784Y3677D01*
X66677Y3784D01*
X66619Y3924D01*
X66619Y4076D01*
X66677Y4216D01*
X66784Y4323D01*
X66924Y4381D01*
X67076Y4381D01*
X67216Y4323D01*
X67323Y4216D01*
X67381Y4076D01*
X67381Y3924D01*
X67323Y3784D01*
X67216Y3677D01*
X67076Y3619D01*
X66924Y3619D01*
G37*
%LPD*%
%LPC*%
G36*
X67924Y3619D02*
X67924Y3619D01*
X67784Y3677D01*
X67677Y3784D01*
X67619Y3924D01*
X67619Y4076D01*
X67677Y4216D01*
X67784Y4323D01*
X67924Y4381D01*
X68076Y4381D01*
X68216Y4323D01*
X68323Y4216D01*
X68381Y4076D01*
X68381Y3924D01*
X68323Y3784D01*
X68216Y3677D01*
X68076Y3619D01*
X67924Y3619D01*
G37*
%LPD*%
%LPC*%
G36*
X68924Y3619D02*
X68924Y3619D01*
X68784Y3677D01*
X68677Y3784D01*
X68619Y3924D01*
X68619Y4076D01*
X68677Y4216D01*
X68784Y4323D01*
X68924Y4381D01*
X69076Y4381D01*
X69216Y4323D01*
X69323Y4216D01*
X69381Y4076D01*
X69381Y3924D01*
X69323Y3784D01*
X69216Y3677D01*
X69076Y3619D01*
X68924Y3619D01*
G37*
%LPD*%
%LPC*%
G36*
X69924Y3619D02*
X69924Y3619D01*
X69784Y3677D01*
X69677Y3784D01*
X69619Y3924D01*
X69619Y4076D01*
X69677Y4216D01*
X69784Y4323D01*
X69924Y4381D01*
X70076Y4381D01*
X70216Y4323D01*
X70323Y4216D01*
X70381Y4076D01*
X70381Y3924D01*
X70323Y3784D01*
X70216Y3677D01*
X70076Y3619D01*
X69924Y3619D01*
G37*
%LPD*%
%LPC*%
G36*
X70924Y3619D02*
X70924Y3619D01*
X70784Y3677D01*
X70677Y3784D01*
X70619Y3924D01*
X70619Y4076D01*
X70677Y4216D01*
X70784Y4323D01*
X70924Y4381D01*
X71076Y4381D01*
X71216Y4323D01*
X71323Y4216D01*
X71381Y4076D01*
X71381Y3924D01*
X71323Y3784D01*
X71216Y3677D01*
X71076Y3619D01*
X70924Y3619D01*
G37*
%LPD*%
%LPC*%
G36*
X42424Y5119D02*
X42424Y5119D01*
X42284Y5177D01*
X42177Y5284D01*
X42119Y5424D01*
X42119Y5576D01*
X42177Y5716D01*
X42284Y5823D01*
X42424Y5881D01*
X42576Y5881D01*
X42716Y5823D01*
X42823Y5716D01*
X42881Y5576D01*
X42881Y5424D01*
X42823Y5284D01*
X42716Y5177D01*
X42576Y5119D01*
X42424Y5119D01*
G37*
%LPD*%
%LPC*%
G36*
X43424Y5119D02*
X43424Y5119D01*
X43284Y5177D01*
X43177Y5284D01*
X43119Y5424D01*
X43119Y5576D01*
X43177Y5716D01*
X43284Y5823D01*
X43424Y5881D01*
X43576Y5881D01*
X43716Y5823D01*
X43823Y5716D01*
X43881Y5576D01*
X43881Y5424D01*
X43823Y5284D01*
X43716Y5177D01*
X43576Y5119D01*
X43424Y5119D01*
G37*
%LPD*%
%LPC*%
G36*
X44424Y5119D02*
X44424Y5119D01*
X44284Y5177D01*
X44177Y5284D01*
X44119Y5424D01*
X44119Y5576D01*
X44177Y5716D01*
X44284Y5823D01*
X44424Y5881D01*
X44576Y5881D01*
X44716Y5823D01*
X44823Y5716D01*
X44881Y5576D01*
X44881Y5424D01*
X44823Y5284D01*
X44716Y5177D01*
X44576Y5119D01*
X44424Y5119D01*
G37*
%LPD*%
%LPC*%
G36*
X50925Y39124D02*
X50925Y39124D01*
X50787Y39181D01*
X50681Y39287D01*
X50624Y39425D01*
X50624Y39575D01*
X50681Y39713D01*
X50787Y39819D01*
X50925Y39876D01*
X51075Y39876D01*
X51213Y39819D01*
X51319Y39713D01*
X51376Y39575D01*
X51376Y39425D01*
X51319Y39287D01*
X51213Y39181D01*
X51075Y39124D01*
X50925Y39124D01*
G37*
%LPD*%
%LPC*%
G36*
X49925Y39124D02*
X49925Y39124D01*
X49787Y39181D01*
X49681Y39287D01*
X49624Y39425D01*
X49624Y39575D01*
X49681Y39713D01*
X49787Y39819D01*
X49925Y39876D01*
X50075Y39876D01*
X50213Y39819D01*
X50319Y39713D01*
X50376Y39575D01*
X50376Y39425D01*
X50319Y39287D01*
X50213Y39181D01*
X50075Y39124D01*
X49925Y39124D01*
G37*
%LPD*%
%LPC*%
G36*
X48925Y39124D02*
X48925Y39124D01*
X48787Y39181D01*
X48681Y39287D01*
X48624Y39425D01*
X48624Y39575D01*
X48681Y39713D01*
X48787Y39819D01*
X48925Y39876D01*
X49075Y39876D01*
X49213Y39819D01*
X49319Y39713D01*
X49376Y39575D01*
X49376Y39425D01*
X49319Y39287D01*
X49213Y39181D01*
X49075Y39124D01*
X48925Y39124D01*
G37*
%LPD*%
%LPC*%
G36*
X47925Y39124D02*
X47925Y39124D01*
X47787Y39181D01*
X47681Y39287D01*
X47624Y39425D01*
X47624Y39575D01*
X47681Y39713D01*
X47787Y39819D01*
X47925Y39876D01*
X48075Y39876D01*
X48213Y39819D01*
X48319Y39713D01*
X48376Y39575D01*
X48376Y39425D01*
X48319Y39287D01*
X48213Y39181D01*
X48075Y39124D01*
X47925Y39124D01*
G37*
%LPD*%
%LPC*%
G36*
X46925Y39124D02*
X46925Y39124D01*
X46787Y39181D01*
X46681Y39287D01*
X46624Y39425D01*
X46624Y39575D01*
X46681Y39713D01*
X46787Y39819D01*
X46925Y39876D01*
X47075Y39876D01*
X47213Y39819D01*
X47319Y39713D01*
X47376Y39575D01*
X47376Y39425D01*
X47319Y39287D01*
X47213Y39181D01*
X47075Y39124D01*
X46925Y39124D01*
G37*
%LPD*%
%LPC*%
G36*
X45925Y39124D02*
X45925Y39124D01*
X45787Y39181D01*
X45681Y39287D01*
X45624Y39425D01*
X45624Y39575D01*
X45681Y39713D01*
X45787Y39819D01*
X45925Y39876D01*
X46075Y39876D01*
X46213Y39819D01*
X46319Y39713D01*
X46376Y39575D01*
X46376Y39425D01*
X46319Y39287D01*
X46213Y39181D01*
X46075Y39124D01*
X45925Y39124D01*
G37*
%LPD*%
%LPC*%
G36*
X44925Y39124D02*
X44925Y39124D01*
X44787Y39181D01*
X44681Y39287D01*
X44624Y39425D01*
X44624Y39575D01*
X44681Y39713D01*
X44787Y39819D01*
X44925Y39876D01*
X45075Y39876D01*
X45213Y39819D01*
X45319Y39713D01*
X45376Y39575D01*
X45376Y39425D01*
X45319Y39287D01*
X45213Y39181D01*
X45075Y39124D01*
X44925Y39124D01*
G37*
%LPD*%
%LPC*%
G36*
X43925Y39124D02*
X43925Y39124D01*
X43787Y39181D01*
X43681Y39287D01*
X43624Y39425D01*
X43624Y39575D01*
X43681Y39713D01*
X43787Y39819D01*
X43925Y39876D01*
X44075Y39876D01*
X44213Y39819D01*
X44319Y39713D01*
X44376Y39575D01*
X44376Y39425D01*
X44319Y39287D01*
X44213Y39181D01*
X44075Y39124D01*
X43925Y39124D01*
G37*
%LPD*%
%LPC*%
G36*
X42925Y39124D02*
X42925Y39124D01*
X42787Y39181D01*
X42681Y39287D01*
X42624Y39425D01*
X42624Y39575D01*
X42681Y39713D01*
X42787Y39819D01*
X42925Y39876D01*
X43075Y39876D01*
X43213Y39819D01*
X43319Y39713D01*
X43376Y39575D01*
X43376Y39425D01*
X43319Y39287D01*
X43213Y39181D01*
X43075Y39124D01*
X42925Y39124D01*
G37*
%LPD*%
%LPC*%
G36*
X41925Y39124D02*
X41925Y39124D01*
X41787Y39181D01*
X41681Y39287D01*
X41624Y39425D01*
X41624Y39575D01*
X41681Y39713D01*
X41787Y39819D01*
X41925Y39876D01*
X42075Y39876D01*
X42213Y39819D01*
X42319Y39713D01*
X42376Y39575D01*
X42376Y39425D01*
X42319Y39287D01*
X42213Y39181D01*
X42075Y39124D01*
X41925Y39124D01*
G37*
%LPD*%
%LPC*%
G36*
X78441Y30624D02*
X78441Y30624D01*
X78303Y30681D01*
X78197Y30787D01*
X78139Y30925D01*
X78139Y31075D01*
X78197Y31213D01*
X78303Y31319D01*
X78441Y31376D01*
X78591Y31376D01*
X78729Y31319D01*
X78835Y31213D01*
X78892Y31075D01*
X78892Y30925D01*
X78835Y30787D01*
X78729Y30681D01*
X78591Y30624D01*
X78441Y30624D01*
G37*
%LPD*%
%LPC*%
G36*
X79425Y30624D02*
X79425Y30624D01*
X79287Y30681D01*
X79181Y30787D01*
X79124Y30925D01*
X79124Y31075D01*
X79181Y31213D01*
X79287Y31319D01*
X79425Y31376D01*
X79575Y31376D01*
X79713Y31319D01*
X79819Y31213D01*
X79876Y31075D01*
X79876Y30925D01*
X79819Y30787D01*
X79713Y30681D01*
X79575Y30624D01*
X79425Y30624D01*
G37*
%LPD*%
%LPC*%
G36*
X80409Y30624D02*
X80409Y30624D01*
X80271Y30681D01*
X80165Y30787D01*
X80108Y30925D01*
X80108Y31075D01*
X80165Y31213D01*
X80271Y31319D01*
X80409Y31376D01*
X80559Y31376D01*
X80697Y31319D01*
X80803Y31213D01*
X80861Y31075D01*
X80861Y30925D01*
X80803Y30787D01*
X80697Y30681D01*
X80559Y30624D01*
X80409Y30624D01*
G37*
%LPD*%
%LPC*%
G36*
X27941Y31124D02*
X27941Y31124D01*
X27803Y31181D01*
X27697Y31287D01*
X27639Y31425D01*
X27639Y31575D01*
X27697Y31713D01*
X27803Y31819D01*
X27941Y31876D01*
X28091Y31876D01*
X28229Y31819D01*
X28335Y31713D01*
X28392Y31575D01*
X28392Y31425D01*
X28335Y31287D01*
X28229Y31181D01*
X28091Y31124D01*
X27941Y31124D01*
G37*
%LPD*%
%LPC*%
G36*
X28925Y31124D02*
X28925Y31124D01*
X28787Y31181D01*
X28681Y31287D01*
X28624Y31425D01*
X28624Y31575D01*
X28681Y31713D01*
X28787Y31819D01*
X28925Y31876D01*
X29075Y31876D01*
X29213Y31819D01*
X29319Y31713D01*
X29376Y31575D01*
X29376Y31425D01*
X29319Y31287D01*
X29213Y31181D01*
X29075Y31124D01*
X28925Y31124D01*
G37*
%LPD*%
%LPC*%
G36*
X40925Y39124D02*
X40925Y39124D01*
X40787Y39181D01*
X40681Y39287D01*
X40624Y39425D01*
X40624Y39575D01*
X40681Y39713D01*
X40787Y39819D01*
X40925Y39876D01*
X41075Y39876D01*
X41213Y39819D01*
X41319Y39713D01*
X41376Y39575D01*
X41376Y39425D01*
X41319Y39287D01*
X41213Y39181D01*
X41075Y39124D01*
X40925Y39124D01*
G37*
%LPD*%
%LPC*%
G36*
X39925Y39124D02*
X39925Y39124D01*
X39787Y39181D01*
X39681Y39287D01*
X39624Y39425D01*
X39624Y39575D01*
X39681Y39713D01*
X39787Y39819D01*
X39925Y39876D01*
X40075Y39876D01*
X40213Y39819D01*
X40319Y39713D01*
X40376Y39575D01*
X40376Y39425D01*
X40319Y39287D01*
X40213Y39181D01*
X40075Y39124D01*
X39925Y39124D01*
G37*
%LPD*%
%LPC*%
G36*
X52925Y39124D02*
X52925Y39124D01*
X52787Y39181D01*
X52681Y39287D01*
X52624Y39425D01*
X52624Y39575D01*
X52681Y39713D01*
X52787Y39819D01*
X52925Y39876D01*
X53075Y39876D01*
X53213Y39819D01*
X53319Y39713D01*
X53376Y39575D01*
X53376Y39425D01*
X53319Y39287D01*
X53213Y39181D01*
X53075Y39124D01*
X52925Y39124D01*
G37*
%LPD*%
%LPC*%
G36*
X114425Y48624D02*
X114425Y48624D01*
X114287Y48681D01*
X114181Y48787D01*
X114124Y48925D01*
X114124Y49075D01*
X114181Y49213D01*
X114287Y49319D01*
X114425Y49376D01*
X114575Y49376D01*
X114713Y49319D01*
X114819Y49213D01*
X114876Y49075D01*
X114876Y48925D01*
X114819Y48787D01*
X114713Y48681D01*
X114575Y48624D01*
X114425Y48624D01*
G37*
%LPD*%
%LPC*%
G36*
X113441Y48624D02*
X113441Y48624D01*
X113303Y48681D01*
X113197Y48787D01*
X113139Y48925D01*
X113139Y49075D01*
X113197Y49213D01*
X113303Y49319D01*
X113441Y49376D01*
X113591Y49376D01*
X113729Y49319D01*
X113835Y49213D01*
X113892Y49075D01*
X113892Y48925D01*
X113835Y48787D01*
X113729Y48681D01*
X113591Y48624D01*
X113441Y48624D01*
G37*
%LPD*%
%LPC*%
G36*
X115409Y48624D02*
X115409Y48624D01*
X115271Y48681D01*
X115165Y48787D01*
X115108Y48925D01*
X115108Y49075D01*
X115165Y49213D01*
X115271Y49319D01*
X115409Y49376D01*
X115559Y49376D01*
X115697Y49319D01*
X115803Y49213D01*
X115861Y49075D01*
X115861Y48925D01*
X115803Y48787D01*
X115697Y48681D01*
X115559Y48624D01*
X115409Y48624D01*
G37*
%LPD*%
%LPC*%
G36*
X51925Y39124D02*
X51925Y39124D01*
X51787Y39181D01*
X51681Y39287D01*
X51624Y39425D01*
X51624Y39575D01*
X51681Y39713D01*
X51787Y39819D01*
X51925Y39876D01*
X52075Y39876D01*
X52213Y39819D01*
X52319Y39713D01*
X52376Y39575D01*
X52376Y39425D01*
X52319Y39287D01*
X52213Y39181D01*
X52075Y39124D01*
X51925Y39124D01*
G37*
%LPD*%
%LPC*%
G36*
X40431Y11654D02*
X40431Y11654D01*
X40304Y11707D01*
X40207Y11804D01*
X40154Y11931D01*
X40154Y12069D01*
X40207Y12196D01*
X40304Y12293D01*
X40431Y12346D01*
X40569Y12346D01*
X40696Y12293D01*
X40793Y12196D01*
X40846Y12069D01*
X40846Y11931D01*
X40793Y11804D01*
X40696Y11707D01*
X40569Y11654D01*
X40431Y11654D01*
G37*
%LPD*%
%LPC*%
G36*
X56854Y23044D02*
X56854Y23044D01*
X56727Y23097D01*
X56630Y23194D01*
X56577Y23321D01*
X56577Y23459D01*
X56630Y23586D01*
X56727Y23683D01*
X56854Y23736D01*
X56992Y23736D01*
X57119Y23683D01*
X57216Y23586D01*
X57269Y23459D01*
X57269Y23321D01*
X57216Y23194D01*
X57119Y23097D01*
X56992Y23044D01*
X56854Y23044D01*
G37*
%LPD*%
%LPC*%
G36*
X57854Y23044D02*
X57854Y23044D01*
X57727Y23097D01*
X57630Y23194D01*
X57577Y23321D01*
X57577Y23459D01*
X57630Y23586D01*
X57727Y23683D01*
X57854Y23736D01*
X57992Y23736D01*
X58119Y23683D01*
X58216Y23586D01*
X58269Y23459D01*
X58269Y23321D01*
X58216Y23194D01*
X58119Y23097D01*
X57992Y23044D01*
X57854Y23044D01*
G37*
%LPD*%
%LPC*%
G36*
X61854Y23044D02*
X61854Y23044D01*
X61727Y23097D01*
X61630Y23194D01*
X61577Y23321D01*
X61577Y23459D01*
X61630Y23586D01*
X61727Y23683D01*
X61854Y23736D01*
X61992Y23736D01*
X62119Y23683D01*
X62216Y23586D01*
X62269Y23459D01*
X62269Y23321D01*
X62216Y23194D01*
X62119Y23097D01*
X61992Y23044D01*
X61854Y23044D01*
G37*
%LPD*%
%LPC*%
G36*
X60854Y23044D02*
X60854Y23044D01*
X60727Y23097D01*
X60630Y23194D01*
X60577Y23321D01*
X60577Y23459D01*
X60630Y23586D01*
X60727Y23683D01*
X60854Y23736D01*
X60992Y23736D01*
X61119Y23683D01*
X61216Y23586D01*
X61269Y23459D01*
X61269Y23321D01*
X61216Y23194D01*
X61119Y23097D01*
X60992Y23044D01*
X60854Y23044D01*
G37*
%LPD*%
%LPC*%
G36*
X68931Y7654D02*
X68931Y7654D01*
X68804Y7707D01*
X68707Y7804D01*
X68654Y7931D01*
X68654Y8069D01*
X68707Y8196D01*
X68804Y8293D01*
X68931Y8346D01*
X69069Y8346D01*
X69196Y8293D01*
X69293Y8196D01*
X69346Y8069D01*
X69346Y7931D01*
X69293Y7804D01*
X69196Y7707D01*
X69069Y7654D01*
X68931Y7654D01*
G37*
%LPD*%
%LPC*%
G36*
X67931Y7654D02*
X67931Y7654D01*
X67804Y7707D01*
X67707Y7804D01*
X67654Y7931D01*
X67654Y8069D01*
X67707Y8196D01*
X67804Y8293D01*
X67931Y8346D01*
X68069Y8346D01*
X68196Y8293D01*
X68293Y8196D01*
X68346Y8069D01*
X68346Y7931D01*
X68293Y7804D01*
X68196Y7707D01*
X68069Y7654D01*
X67931Y7654D01*
G37*
%LPD*%
%LPC*%
G36*
X45431Y7654D02*
X45431Y7654D01*
X45304Y7707D01*
X45207Y7804D01*
X45154Y7931D01*
X45154Y8069D01*
X45207Y8196D01*
X45304Y8293D01*
X45431Y8346D01*
X45569Y8346D01*
X45696Y8293D01*
X45793Y8196D01*
X45846Y8069D01*
X45846Y7931D01*
X45793Y7804D01*
X45696Y7707D01*
X45569Y7654D01*
X45431Y7654D01*
G37*
%LPD*%
%LPC*%
G36*
X44431Y7654D02*
X44431Y7654D01*
X44304Y7707D01*
X44207Y7804D01*
X44154Y7931D01*
X44154Y8069D01*
X44207Y8196D01*
X44304Y8293D01*
X44431Y8346D01*
X44569Y8346D01*
X44696Y8293D01*
X44793Y8196D01*
X44846Y8069D01*
X44846Y7931D01*
X44793Y7804D01*
X44696Y7707D01*
X44569Y7654D01*
X44431Y7654D01*
G37*
%LPD*%
%LPC*%
G36*
X46854Y33044D02*
X46854Y33044D01*
X46727Y33097D01*
X46630Y33194D01*
X46577Y33321D01*
X46577Y33459D01*
X46630Y33586D01*
X46727Y33683D01*
X46854Y33736D01*
X46992Y33736D01*
X47119Y33683D01*
X47216Y33586D01*
X47269Y33459D01*
X47269Y33321D01*
X47216Y33194D01*
X47119Y33097D01*
X46992Y33044D01*
X46854Y33044D01*
G37*
%LPD*%
%LPC*%
G36*
X43431Y7654D02*
X43431Y7654D01*
X43304Y7707D01*
X43207Y7804D01*
X43154Y7931D01*
X43154Y8069D01*
X43207Y8196D01*
X43304Y8293D01*
X43431Y8346D01*
X43569Y8346D01*
X43696Y8293D01*
X43793Y8196D01*
X43846Y8069D01*
X43846Y7931D01*
X43793Y7804D01*
X43696Y7707D01*
X43569Y7654D01*
X43431Y7654D01*
G37*
%LPD*%
%LPC*%
G36*
X56854Y33044D02*
X56854Y33044D01*
X56727Y33097D01*
X56630Y33194D01*
X56577Y33321D01*
X56577Y33459D01*
X56630Y33586D01*
X56727Y33683D01*
X56854Y33736D01*
X56992Y33736D01*
X57119Y33683D01*
X57216Y33586D01*
X57269Y33459D01*
X57269Y33321D01*
X57216Y33194D01*
X57119Y33097D01*
X56992Y33044D01*
X56854Y33044D01*
G37*
%LPD*%
%LPC*%
G36*
X55854Y33044D02*
X55854Y33044D01*
X55727Y33097D01*
X55630Y33194D01*
X55577Y33321D01*
X55577Y33459D01*
X55630Y33586D01*
X55727Y33683D01*
X55854Y33736D01*
X55992Y33736D01*
X56119Y33683D01*
X56216Y33586D01*
X56269Y33459D01*
X56269Y33321D01*
X56216Y33194D01*
X56119Y33097D01*
X55992Y33044D01*
X55854Y33044D01*
G37*
%LPD*%
%LPC*%
G36*
X61854Y33044D02*
X61854Y33044D01*
X61727Y33097D01*
X61630Y33194D01*
X61577Y33321D01*
X61577Y33459D01*
X61630Y33586D01*
X61727Y33683D01*
X61854Y33736D01*
X61992Y33736D01*
X62119Y33683D01*
X62216Y33586D01*
X62269Y33459D01*
X62269Y33321D01*
X62216Y33194D01*
X62119Y33097D01*
X61992Y33044D01*
X61854Y33044D01*
G37*
%LPD*%
%LPC*%
G36*
X60854Y33044D02*
X60854Y33044D01*
X60727Y33097D01*
X60630Y33194D01*
X60577Y33321D01*
X60577Y33459D01*
X60630Y33586D01*
X60727Y33683D01*
X60854Y33736D01*
X60992Y33736D01*
X61119Y33683D01*
X61216Y33586D01*
X61269Y33459D01*
X61269Y33321D01*
X61216Y33194D01*
X61119Y33097D01*
X60992Y33044D01*
X60854Y33044D01*
G37*
%LPD*%
%LPC*%
G36*
X59854Y33044D02*
X59854Y33044D01*
X59727Y33097D01*
X59630Y33194D01*
X59577Y33321D01*
X59577Y33459D01*
X59630Y33586D01*
X59727Y33683D01*
X59854Y33736D01*
X59992Y33736D01*
X60119Y33683D01*
X60216Y33586D01*
X60269Y33459D01*
X60269Y33321D01*
X60216Y33194D01*
X60119Y33097D01*
X59992Y33044D01*
X59854Y33044D01*
G37*
%LPD*%
%LPC*%
G36*
X59854Y23044D02*
X59854Y23044D01*
X59727Y23097D01*
X59630Y23194D01*
X59577Y23321D01*
X59577Y23459D01*
X59630Y23586D01*
X59727Y23683D01*
X59854Y23736D01*
X59992Y23736D01*
X60119Y23683D01*
X60216Y23586D01*
X60269Y23459D01*
X60269Y23321D01*
X60216Y23194D01*
X60119Y23097D01*
X59992Y23044D01*
X59854Y23044D01*
G37*
%LPD*%
%LPC*%
G36*
X58854Y33044D02*
X58854Y33044D01*
X58727Y33097D01*
X58630Y33194D01*
X58577Y33321D01*
X58577Y33459D01*
X58630Y33586D01*
X58727Y33683D01*
X58854Y33736D01*
X58992Y33736D01*
X59119Y33683D01*
X59216Y33586D01*
X59269Y33459D01*
X59269Y33321D01*
X59216Y33194D01*
X59119Y33097D01*
X58992Y33044D01*
X58854Y33044D01*
G37*
%LPD*%
%LPC*%
G36*
X40431Y10654D02*
X40431Y10654D01*
X40304Y10707D01*
X40207Y10804D01*
X40154Y10931D01*
X40154Y11069D01*
X40207Y11196D01*
X40304Y11293D01*
X40431Y11346D01*
X40569Y11346D01*
X40696Y11293D01*
X40793Y11196D01*
X40846Y11069D01*
X40846Y10931D01*
X40793Y10804D01*
X40696Y10707D01*
X40569Y10654D01*
X40431Y10654D01*
G37*
%LPD*%
%LPC*%
G36*
X57854Y33044D02*
X57854Y33044D01*
X57727Y33097D01*
X57630Y33194D01*
X57577Y33321D01*
X57577Y33459D01*
X57630Y33586D01*
X57727Y33683D01*
X57854Y33736D01*
X57992Y33736D01*
X58119Y33683D01*
X58216Y33586D01*
X58269Y33459D01*
X58269Y33321D01*
X58216Y33194D01*
X58119Y33097D01*
X57992Y33044D01*
X57854Y33044D01*
G37*
%LPD*%
%LPC*%
G36*
X64931Y10654D02*
X64931Y10654D01*
X64804Y10707D01*
X64707Y10804D01*
X64654Y10931D01*
X64654Y11069D01*
X64707Y11196D01*
X64804Y11293D01*
X64931Y11346D01*
X65069Y11346D01*
X65196Y11293D01*
X65293Y11196D01*
X65346Y11069D01*
X65346Y10931D01*
X65293Y10804D01*
X65196Y10707D01*
X65069Y10654D01*
X64931Y10654D01*
G37*
%LPD*%
%LPC*%
G36*
X45854Y33044D02*
X45854Y33044D01*
X45727Y33097D01*
X45630Y33194D01*
X45577Y33321D01*
X45577Y33459D01*
X45630Y33586D01*
X45727Y33683D01*
X45854Y33736D01*
X45992Y33736D01*
X46119Y33683D01*
X46216Y33586D01*
X46269Y33459D01*
X46269Y33321D01*
X46216Y33194D01*
X46119Y33097D01*
X45992Y33044D01*
X45854Y33044D01*
G37*
%LPD*%
%LPC*%
G36*
X44854Y33044D02*
X44854Y33044D01*
X44727Y33097D01*
X44630Y33194D01*
X44577Y33321D01*
X44577Y33459D01*
X44630Y33586D01*
X44727Y33683D01*
X44854Y33736D01*
X44992Y33736D01*
X45119Y33683D01*
X45216Y33586D01*
X45269Y33459D01*
X45269Y33321D01*
X45216Y33194D01*
X45119Y33097D01*
X44992Y33044D01*
X44854Y33044D01*
G37*
%LPD*%
%LPC*%
G36*
X54854Y33044D02*
X54854Y33044D01*
X54727Y33097D01*
X54630Y33194D01*
X54577Y33321D01*
X54577Y33459D01*
X54630Y33586D01*
X54727Y33683D01*
X54854Y33736D01*
X54992Y33736D01*
X55119Y33683D01*
X55216Y33586D01*
X55269Y33459D01*
X55269Y33321D01*
X55216Y33194D01*
X55119Y33097D01*
X54992Y33044D01*
X54854Y33044D01*
G37*
%LPD*%
%LPC*%
G36*
X53854Y33044D02*
X53854Y33044D01*
X53727Y33097D01*
X53630Y33194D01*
X53577Y33321D01*
X53577Y33459D01*
X53630Y33586D01*
X53727Y33683D01*
X53854Y33736D01*
X53992Y33736D01*
X54119Y33683D01*
X54216Y33586D01*
X54269Y33459D01*
X54269Y33321D01*
X54216Y33194D01*
X54119Y33097D01*
X53992Y33044D01*
X53854Y33044D01*
G37*
%LPD*%
%LPC*%
G36*
X52854Y33044D02*
X52854Y33044D01*
X52727Y33097D01*
X52630Y33194D01*
X52577Y33321D01*
X52577Y33459D01*
X52630Y33586D01*
X52727Y33683D01*
X52854Y33736D01*
X52992Y33736D01*
X53119Y33683D01*
X53216Y33586D01*
X53269Y33459D01*
X53269Y33321D01*
X53216Y33194D01*
X53119Y33097D01*
X52992Y33044D01*
X52854Y33044D01*
G37*
%LPD*%
%LPC*%
G36*
X51854Y33044D02*
X51854Y33044D01*
X51727Y33097D01*
X51630Y33194D01*
X51577Y33321D01*
X51577Y33459D01*
X51630Y33586D01*
X51727Y33683D01*
X51854Y33736D01*
X51992Y33736D01*
X52119Y33683D01*
X52216Y33586D01*
X52269Y33459D01*
X52269Y33321D01*
X52216Y33194D01*
X52119Y33097D01*
X51992Y33044D01*
X51854Y33044D01*
G37*
%LPD*%
%LPC*%
G36*
X50854Y33044D02*
X50854Y33044D01*
X50727Y33097D01*
X50630Y33194D01*
X50577Y33321D01*
X50577Y33459D01*
X50630Y33586D01*
X50727Y33683D01*
X50854Y33736D01*
X50992Y33736D01*
X51119Y33683D01*
X51216Y33586D01*
X51269Y33459D01*
X51269Y33321D01*
X51216Y33194D01*
X51119Y33097D01*
X50992Y33044D01*
X50854Y33044D01*
G37*
%LPD*%
%LPC*%
G36*
X49854Y33044D02*
X49854Y33044D01*
X49727Y33097D01*
X49630Y33194D01*
X49577Y33321D01*
X49577Y33459D01*
X49630Y33586D01*
X49727Y33683D01*
X49854Y33736D01*
X49992Y33736D01*
X50119Y33683D01*
X50216Y33586D01*
X50269Y33459D01*
X50269Y33321D01*
X50216Y33194D01*
X50119Y33097D01*
X49992Y33044D01*
X49854Y33044D01*
G37*
%LPD*%
%LPC*%
G36*
X48854Y33044D02*
X48854Y33044D01*
X48727Y33097D01*
X48630Y33194D01*
X48577Y33321D01*
X48577Y33459D01*
X48630Y33586D01*
X48727Y33683D01*
X48854Y33736D01*
X48992Y33736D01*
X49119Y33683D01*
X49216Y33586D01*
X49269Y33459D01*
X49269Y33321D01*
X49216Y33194D01*
X49119Y33097D01*
X48992Y33044D01*
X48854Y33044D01*
G37*
%LPD*%
%LPC*%
G36*
X47854Y33044D02*
X47854Y33044D01*
X47727Y33097D01*
X47630Y33194D01*
X47577Y33321D01*
X47577Y33459D01*
X47630Y33586D01*
X47727Y33683D01*
X47854Y33736D01*
X47992Y33736D01*
X48119Y33683D01*
X48216Y33586D01*
X48269Y33459D01*
X48269Y33321D01*
X48216Y33194D01*
X48119Y33097D01*
X47992Y33044D01*
X47854Y33044D01*
G37*
%LPD*%
%LPC*%
G36*
X44854Y22044D02*
X44854Y22044D01*
X44727Y22097D01*
X44630Y22194D01*
X44577Y22321D01*
X44577Y22459D01*
X44630Y22586D01*
X44727Y22683D01*
X44854Y22736D01*
X44992Y22736D01*
X45119Y22683D01*
X45216Y22586D01*
X45269Y22459D01*
X45269Y22321D01*
X45216Y22194D01*
X45119Y22097D01*
X44992Y22044D01*
X44854Y22044D01*
G37*
%LPD*%
%LPC*%
G36*
X64931Y11654D02*
X64931Y11654D01*
X64804Y11707D01*
X64707Y11804D01*
X64654Y11931D01*
X64654Y12069D01*
X64707Y12196D01*
X64804Y12293D01*
X64931Y12346D01*
X65069Y12346D01*
X65196Y12293D01*
X65293Y12196D01*
X65346Y12069D01*
X65346Y11931D01*
X65293Y11804D01*
X65196Y11707D01*
X65069Y11654D01*
X64931Y11654D01*
G37*
%LPD*%
%LPC*%
G36*
X69931Y7654D02*
X69931Y7654D01*
X69804Y7707D01*
X69707Y7804D01*
X69654Y7931D01*
X69654Y8069D01*
X69707Y8196D01*
X69804Y8293D01*
X69931Y8346D01*
X70069Y8346D01*
X70196Y8293D01*
X70293Y8196D01*
X70346Y8069D01*
X70346Y7931D01*
X70293Y7804D01*
X70196Y7707D01*
X70069Y7654D01*
X69931Y7654D01*
G37*
%LPD*%
%LPC*%
G36*
X61854Y32044D02*
X61854Y32044D01*
X61727Y32097D01*
X61630Y32194D01*
X61577Y32321D01*
X61577Y32459D01*
X61630Y32586D01*
X61727Y32683D01*
X61854Y32736D01*
X61992Y32736D01*
X62119Y32683D01*
X62216Y32586D01*
X62269Y32459D01*
X62269Y32321D01*
X62216Y32194D01*
X62119Y32097D01*
X61992Y32044D01*
X61854Y32044D01*
G37*
%LPD*%
%LPC*%
G36*
X60854Y32044D02*
X60854Y32044D01*
X60727Y32097D01*
X60630Y32194D01*
X60577Y32321D01*
X60577Y32459D01*
X60630Y32586D01*
X60727Y32683D01*
X60854Y32736D01*
X60992Y32736D01*
X61119Y32683D01*
X61216Y32586D01*
X61269Y32459D01*
X61269Y32321D01*
X61216Y32194D01*
X61119Y32097D01*
X60992Y32044D01*
X60854Y32044D01*
G37*
%LPD*%
%LPC*%
G36*
X59854Y32044D02*
X59854Y32044D01*
X59727Y32097D01*
X59630Y32194D01*
X59577Y32321D01*
X59577Y32459D01*
X59630Y32586D01*
X59727Y32683D01*
X59854Y32736D01*
X59992Y32736D01*
X60119Y32683D01*
X60216Y32586D01*
X60269Y32459D01*
X60269Y32321D01*
X60216Y32194D01*
X60119Y32097D01*
X59992Y32044D01*
X59854Y32044D01*
G37*
%LPD*%
%LPC*%
G36*
X40431Y12654D02*
X40431Y12654D01*
X40304Y12707D01*
X40207Y12804D01*
X40154Y12931D01*
X40154Y13069D01*
X40207Y13196D01*
X40304Y13293D01*
X40431Y13346D01*
X40569Y13346D01*
X40696Y13293D01*
X40793Y13196D01*
X40846Y13069D01*
X40846Y12931D01*
X40793Y12804D01*
X40696Y12707D01*
X40569Y12654D01*
X40431Y12654D01*
G37*
%LPD*%
%LPC*%
G36*
X64931Y12654D02*
X64931Y12654D01*
X64804Y12707D01*
X64707Y12804D01*
X64654Y12931D01*
X64654Y13069D01*
X64707Y13196D01*
X64804Y13293D01*
X64931Y13346D01*
X65069Y13346D01*
X65196Y13293D01*
X65293Y13196D01*
X65346Y13069D01*
X65346Y12931D01*
X65293Y12804D01*
X65196Y12707D01*
X65069Y12654D01*
X64931Y12654D01*
G37*
%LPD*%
%LPC*%
G36*
X58854Y32044D02*
X58854Y32044D01*
X58727Y32097D01*
X58630Y32194D01*
X58577Y32321D01*
X58577Y32459D01*
X58630Y32586D01*
X58727Y32683D01*
X58854Y32736D01*
X58992Y32736D01*
X59119Y32683D01*
X59216Y32586D01*
X59269Y32459D01*
X59269Y32321D01*
X59216Y32194D01*
X59119Y32097D01*
X58992Y32044D01*
X58854Y32044D01*
G37*
%LPD*%
%LPC*%
G36*
X57854Y32044D02*
X57854Y32044D01*
X57727Y32097D01*
X57630Y32194D01*
X57577Y32321D01*
X57577Y32459D01*
X57630Y32586D01*
X57727Y32683D01*
X57854Y32736D01*
X57992Y32736D01*
X58119Y32683D01*
X58216Y32586D01*
X58269Y32459D01*
X58269Y32321D01*
X58216Y32194D01*
X58119Y32097D01*
X57992Y32044D01*
X57854Y32044D01*
G37*
%LPD*%
%LPC*%
G36*
X56854Y32044D02*
X56854Y32044D01*
X56727Y32097D01*
X56630Y32194D01*
X56577Y32321D01*
X56577Y32459D01*
X56630Y32586D01*
X56727Y32683D01*
X56854Y32736D01*
X56992Y32736D01*
X57119Y32683D01*
X57216Y32586D01*
X57269Y32459D01*
X57269Y32321D01*
X57216Y32194D01*
X57119Y32097D01*
X56992Y32044D01*
X56854Y32044D01*
G37*
%LPD*%
%LPC*%
G36*
X55854Y32044D02*
X55854Y32044D01*
X55727Y32097D01*
X55630Y32194D01*
X55577Y32321D01*
X55577Y32459D01*
X55630Y32586D01*
X55727Y32683D01*
X55854Y32736D01*
X55992Y32736D01*
X56119Y32683D01*
X56216Y32586D01*
X56269Y32459D01*
X56269Y32321D01*
X56216Y32194D01*
X56119Y32097D01*
X55992Y32044D01*
X55854Y32044D01*
G37*
%LPD*%
%LPC*%
G36*
X53854Y32044D02*
X53854Y32044D01*
X53727Y32097D01*
X53630Y32194D01*
X53577Y32321D01*
X53577Y32459D01*
X53630Y32586D01*
X53727Y32683D01*
X53854Y32736D01*
X53992Y32736D01*
X54119Y32683D01*
X54216Y32586D01*
X54269Y32459D01*
X54269Y32321D01*
X54216Y32194D01*
X54119Y32097D01*
X53992Y32044D01*
X53854Y32044D01*
G37*
%LPD*%
%LPC*%
G36*
X52854Y32044D02*
X52854Y32044D01*
X52727Y32097D01*
X52630Y32194D01*
X52577Y32321D01*
X52577Y32459D01*
X52630Y32586D01*
X52727Y32683D01*
X52854Y32736D01*
X52992Y32736D01*
X53119Y32683D01*
X53216Y32586D01*
X53269Y32459D01*
X53269Y32321D01*
X53216Y32194D01*
X53119Y32097D01*
X52992Y32044D01*
X52854Y32044D01*
G37*
%LPD*%
%LPC*%
G36*
X50854Y32044D02*
X50854Y32044D01*
X50727Y32097D01*
X50630Y32194D01*
X50577Y32321D01*
X50577Y32459D01*
X50630Y32586D01*
X50727Y32683D01*
X50854Y32736D01*
X50992Y32736D01*
X51119Y32683D01*
X51216Y32586D01*
X51269Y32459D01*
X51269Y32321D01*
X51216Y32194D01*
X51119Y32097D01*
X50992Y32044D01*
X50854Y32044D01*
G37*
%LPD*%
%LPC*%
G36*
X49854Y32044D02*
X49854Y32044D01*
X49727Y32097D01*
X49630Y32194D01*
X49577Y32321D01*
X49577Y32459D01*
X49630Y32586D01*
X49727Y32683D01*
X49854Y32736D01*
X49992Y32736D01*
X50119Y32683D01*
X50216Y32586D01*
X50269Y32459D01*
X50269Y32321D01*
X50216Y32194D01*
X50119Y32097D01*
X49992Y32044D01*
X49854Y32044D01*
G37*
%LPD*%
%LPC*%
G36*
X48854Y32044D02*
X48854Y32044D01*
X48727Y32097D01*
X48630Y32194D01*
X48577Y32321D01*
X48577Y32459D01*
X48630Y32586D01*
X48727Y32683D01*
X48854Y32736D01*
X48992Y32736D01*
X49119Y32683D01*
X49216Y32586D01*
X49269Y32459D01*
X49269Y32321D01*
X49216Y32194D01*
X49119Y32097D01*
X48992Y32044D01*
X48854Y32044D01*
G37*
%LPD*%
%LPC*%
G36*
X47854Y32044D02*
X47854Y32044D01*
X47727Y32097D01*
X47630Y32194D01*
X47577Y32321D01*
X47577Y32459D01*
X47630Y32586D01*
X47727Y32683D01*
X47854Y32736D01*
X47992Y32736D01*
X48119Y32683D01*
X48216Y32586D01*
X48269Y32459D01*
X48269Y32321D01*
X48216Y32194D01*
X48119Y32097D01*
X47992Y32044D01*
X47854Y32044D01*
G37*
%LPD*%
%LPC*%
G36*
X46854Y32044D02*
X46854Y32044D01*
X46727Y32097D01*
X46630Y32194D01*
X46577Y32321D01*
X46577Y32459D01*
X46630Y32586D01*
X46727Y32683D01*
X46854Y32736D01*
X46992Y32736D01*
X47119Y32683D01*
X47216Y32586D01*
X47269Y32459D01*
X47269Y32321D01*
X47216Y32194D01*
X47119Y32097D01*
X46992Y32044D01*
X46854Y32044D01*
G37*
%LPD*%
%LPC*%
G36*
X45854Y32044D02*
X45854Y32044D01*
X45727Y32097D01*
X45630Y32194D01*
X45577Y32321D01*
X45577Y32459D01*
X45630Y32586D01*
X45727Y32683D01*
X45854Y32736D01*
X45992Y32736D01*
X46119Y32683D01*
X46216Y32586D01*
X46269Y32459D01*
X46269Y32321D01*
X46216Y32194D01*
X46119Y32097D01*
X45992Y32044D01*
X45854Y32044D01*
G37*
%LPD*%
%LPC*%
G36*
X44854Y32044D02*
X44854Y32044D01*
X44727Y32097D01*
X44630Y32194D01*
X44577Y32321D01*
X44577Y32459D01*
X44630Y32586D01*
X44727Y32683D01*
X44854Y32736D01*
X44992Y32736D01*
X45119Y32683D01*
X45216Y32586D01*
X45269Y32459D01*
X45269Y32321D01*
X45216Y32194D01*
X45119Y32097D01*
X44992Y32044D01*
X44854Y32044D01*
G37*
%LPD*%
%LPC*%
G36*
X58854Y23044D02*
X58854Y23044D01*
X58727Y23097D01*
X58630Y23194D01*
X58577Y23321D01*
X58577Y23459D01*
X58630Y23586D01*
X58727Y23683D01*
X58854Y23736D01*
X58992Y23736D01*
X59119Y23683D01*
X59216Y23586D01*
X59269Y23459D01*
X59269Y23321D01*
X59216Y23194D01*
X59119Y23097D01*
X58992Y23044D01*
X58854Y23044D01*
G37*
%LPD*%
%LPC*%
G36*
X45854Y22044D02*
X45854Y22044D01*
X45727Y22097D01*
X45630Y22194D01*
X45577Y22321D01*
X45577Y22459D01*
X45630Y22586D01*
X45727Y22683D01*
X45854Y22736D01*
X45992Y22736D01*
X46119Y22683D01*
X46216Y22586D01*
X46269Y22459D01*
X46269Y22321D01*
X46216Y22194D01*
X46119Y22097D01*
X45992Y22044D01*
X45854Y22044D01*
G37*
%LPD*%
%LPC*%
G36*
X46854Y22044D02*
X46854Y22044D01*
X46727Y22097D01*
X46630Y22194D01*
X46577Y22321D01*
X46577Y22459D01*
X46630Y22586D01*
X46727Y22683D01*
X46854Y22736D01*
X46992Y22736D01*
X47119Y22683D01*
X47216Y22586D01*
X47269Y22459D01*
X47269Y22321D01*
X47216Y22194D01*
X47119Y22097D01*
X46992Y22044D01*
X46854Y22044D01*
G37*
%LPD*%
%LPC*%
G36*
X47854Y22044D02*
X47854Y22044D01*
X47727Y22097D01*
X47630Y22194D01*
X47577Y22321D01*
X47577Y22459D01*
X47630Y22586D01*
X47727Y22683D01*
X47854Y22736D01*
X47992Y22736D01*
X48119Y22683D01*
X48216Y22586D01*
X48269Y22459D01*
X48269Y22321D01*
X48216Y22194D01*
X48119Y22097D01*
X47992Y22044D01*
X47854Y22044D01*
G37*
%LPD*%
%LPC*%
G36*
X48854Y22044D02*
X48854Y22044D01*
X48727Y22097D01*
X48630Y22194D01*
X48577Y22321D01*
X48577Y22459D01*
X48630Y22586D01*
X48727Y22683D01*
X48854Y22736D01*
X48992Y22736D01*
X49119Y22683D01*
X49216Y22586D01*
X49269Y22459D01*
X49269Y22321D01*
X49216Y22194D01*
X49119Y22097D01*
X48992Y22044D01*
X48854Y22044D01*
G37*
%LPD*%
%LPC*%
G36*
X49854Y22044D02*
X49854Y22044D01*
X49727Y22097D01*
X49630Y22194D01*
X49577Y22321D01*
X49577Y22459D01*
X49630Y22586D01*
X49727Y22683D01*
X49854Y22736D01*
X49992Y22736D01*
X50119Y22683D01*
X50216Y22586D01*
X50269Y22459D01*
X50269Y22321D01*
X50216Y22194D01*
X50119Y22097D01*
X49992Y22044D01*
X49854Y22044D01*
G37*
%LPD*%
%LPC*%
G36*
X50854Y22044D02*
X50854Y22044D01*
X50727Y22097D01*
X50630Y22194D01*
X50577Y22321D01*
X50577Y22459D01*
X50630Y22586D01*
X50727Y22683D01*
X50854Y22736D01*
X50992Y22736D01*
X51119Y22683D01*
X51216Y22586D01*
X51269Y22459D01*
X51269Y22321D01*
X51216Y22194D01*
X51119Y22097D01*
X50992Y22044D01*
X50854Y22044D01*
G37*
%LPD*%
%LPC*%
G36*
X51854Y22044D02*
X51854Y22044D01*
X51727Y22097D01*
X51630Y22194D01*
X51577Y22321D01*
X51577Y22459D01*
X51630Y22586D01*
X51727Y22683D01*
X51854Y22736D01*
X51992Y22736D01*
X52119Y22683D01*
X52216Y22586D01*
X52269Y22459D01*
X52269Y22321D01*
X52216Y22194D01*
X52119Y22097D01*
X51992Y22044D01*
X51854Y22044D01*
G37*
%LPD*%
%LPC*%
G36*
X52854Y22044D02*
X52854Y22044D01*
X52727Y22097D01*
X52630Y22194D01*
X52577Y22321D01*
X52577Y22459D01*
X52630Y22586D01*
X52727Y22683D01*
X52854Y22736D01*
X52992Y22736D01*
X53119Y22683D01*
X53216Y22586D01*
X53269Y22459D01*
X53269Y22321D01*
X53216Y22194D01*
X53119Y22097D01*
X52992Y22044D01*
X52854Y22044D01*
G37*
%LPD*%
%LPC*%
G36*
X53854Y22044D02*
X53854Y22044D01*
X53727Y22097D01*
X53630Y22194D01*
X53577Y22321D01*
X53577Y22459D01*
X53630Y22586D01*
X53727Y22683D01*
X53854Y22736D01*
X53992Y22736D01*
X54119Y22683D01*
X54216Y22586D01*
X54269Y22459D01*
X54269Y22321D01*
X54216Y22194D01*
X54119Y22097D01*
X53992Y22044D01*
X53854Y22044D01*
G37*
%LPD*%
%LPC*%
G36*
X54854Y22044D02*
X54854Y22044D01*
X54727Y22097D01*
X54630Y22194D01*
X54577Y22321D01*
X54577Y22459D01*
X54630Y22586D01*
X54727Y22683D01*
X54854Y22736D01*
X54992Y22736D01*
X55119Y22683D01*
X55216Y22586D01*
X55269Y22459D01*
X55269Y22321D01*
X55216Y22194D01*
X55119Y22097D01*
X54992Y22044D01*
X54854Y22044D01*
G37*
%LPD*%
%LPC*%
G36*
X55854Y22044D02*
X55854Y22044D01*
X55727Y22097D01*
X55630Y22194D01*
X55577Y22321D01*
X55577Y22459D01*
X55630Y22586D01*
X55727Y22683D01*
X55854Y22736D01*
X55992Y22736D01*
X56119Y22683D01*
X56216Y22586D01*
X56269Y22459D01*
X56269Y22321D01*
X56216Y22194D01*
X56119Y22097D01*
X55992Y22044D01*
X55854Y22044D01*
G37*
%LPD*%
%LPC*%
G36*
X56854Y22044D02*
X56854Y22044D01*
X56727Y22097D01*
X56630Y22194D01*
X56577Y22321D01*
X56577Y22459D01*
X56630Y22586D01*
X56727Y22683D01*
X56854Y22736D01*
X56992Y22736D01*
X57119Y22683D01*
X57216Y22586D01*
X57269Y22459D01*
X57269Y22321D01*
X57216Y22194D01*
X57119Y22097D01*
X56992Y22044D01*
X56854Y22044D01*
G37*
%LPD*%
%LPC*%
G36*
X57854Y22044D02*
X57854Y22044D01*
X57727Y22097D01*
X57630Y22194D01*
X57577Y22321D01*
X57577Y22459D01*
X57630Y22586D01*
X57727Y22683D01*
X57854Y22736D01*
X57992Y22736D01*
X58119Y22683D01*
X58216Y22586D01*
X58269Y22459D01*
X58269Y22321D01*
X58216Y22194D01*
X58119Y22097D01*
X57992Y22044D01*
X57854Y22044D01*
G37*
%LPD*%
%LPC*%
G36*
X58854Y22044D02*
X58854Y22044D01*
X58727Y22097D01*
X58630Y22194D01*
X58577Y22321D01*
X58577Y22459D01*
X58630Y22586D01*
X58727Y22683D01*
X58854Y22736D01*
X58992Y22736D01*
X59119Y22683D01*
X59216Y22586D01*
X59269Y22459D01*
X59269Y22321D01*
X59216Y22194D01*
X59119Y22097D01*
X58992Y22044D01*
X58854Y22044D01*
G37*
%LPD*%
%LPC*%
G36*
X59854Y22044D02*
X59854Y22044D01*
X59727Y22097D01*
X59630Y22194D01*
X59577Y22321D01*
X59577Y22459D01*
X59630Y22586D01*
X59727Y22683D01*
X59854Y22736D01*
X59992Y22736D01*
X60119Y22683D01*
X60216Y22586D01*
X60269Y22459D01*
X60269Y22321D01*
X60216Y22194D01*
X60119Y22097D01*
X59992Y22044D01*
X59854Y22044D01*
G37*
%LPD*%
%LPC*%
G36*
X60854Y22044D02*
X60854Y22044D01*
X60727Y22097D01*
X60630Y22194D01*
X60577Y22321D01*
X60577Y22459D01*
X60630Y22586D01*
X60727Y22683D01*
X60854Y22736D01*
X60992Y22736D01*
X61119Y22683D01*
X61216Y22586D01*
X61269Y22459D01*
X61269Y22321D01*
X61216Y22194D01*
X61119Y22097D01*
X60992Y22044D01*
X60854Y22044D01*
G37*
%LPD*%
%LPC*%
G36*
X61854Y22044D02*
X61854Y22044D01*
X61727Y22097D01*
X61630Y22194D01*
X61577Y22321D01*
X61577Y22459D01*
X61630Y22586D01*
X61727Y22683D01*
X61854Y22736D01*
X61992Y22736D01*
X62119Y22683D01*
X62216Y22586D01*
X62269Y22459D01*
X62269Y22321D01*
X62216Y22194D01*
X62119Y22097D01*
X61992Y22044D01*
X61854Y22044D01*
G37*
%LPD*%
%LPC*%
G36*
X44854Y23044D02*
X44854Y23044D01*
X44727Y23097D01*
X44630Y23194D01*
X44577Y23321D01*
X44577Y23459D01*
X44630Y23586D01*
X44727Y23683D01*
X44854Y23736D01*
X44992Y23736D01*
X45119Y23683D01*
X45216Y23586D01*
X45269Y23459D01*
X45269Y23321D01*
X45216Y23194D01*
X45119Y23097D01*
X44992Y23044D01*
X44854Y23044D01*
G37*
%LPD*%
%LPC*%
G36*
X45854Y23044D02*
X45854Y23044D01*
X45727Y23097D01*
X45630Y23194D01*
X45577Y23321D01*
X45577Y23459D01*
X45630Y23586D01*
X45727Y23683D01*
X45854Y23736D01*
X45992Y23736D01*
X46119Y23683D01*
X46216Y23586D01*
X46269Y23459D01*
X46269Y23321D01*
X46216Y23194D01*
X46119Y23097D01*
X45992Y23044D01*
X45854Y23044D01*
G37*
%LPD*%
%LPC*%
G36*
X46854Y23044D02*
X46854Y23044D01*
X46727Y23097D01*
X46630Y23194D01*
X46577Y23321D01*
X46577Y23459D01*
X46630Y23586D01*
X46727Y23683D01*
X46854Y23736D01*
X46992Y23736D01*
X47119Y23683D01*
X47216Y23586D01*
X47269Y23459D01*
X47269Y23321D01*
X47216Y23194D01*
X47119Y23097D01*
X46992Y23044D01*
X46854Y23044D01*
G37*
%LPD*%
%LPC*%
G36*
X47854Y23044D02*
X47854Y23044D01*
X47727Y23097D01*
X47630Y23194D01*
X47577Y23321D01*
X47577Y23459D01*
X47630Y23586D01*
X47727Y23683D01*
X47854Y23736D01*
X47992Y23736D01*
X48119Y23683D01*
X48216Y23586D01*
X48269Y23459D01*
X48269Y23321D01*
X48216Y23194D01*
X48119Y23097D01*
X47992Y23044D01*
X47854Y23044D01*
G37*
%LPD*%
%LPC*%
G36*
X48854Y23044D02*
X48854Y23044D01*
X48727Y23097D01*
X48630Y23194D01*
X48577Y23321D01*
X48577Y23459D01*
X48630Y23586D01*
X48727Y23683D01*
X48854Y23736D01*
X48992Y23736D01*
X49119Y23683D01*
X49216Y23586D01*
X49269Y23459D01*
X49269Y23321D01*
X49216Y23194D01*
X49119Y23097D01*
X48992Y23044D01*
X48854Y23044D01*
G37*
%LPD*%
%LPC*%
G36*
X49854Y23044D02*
X49854Y23044D01*
X49727Y23097D01*
X49630Y23194D01*
X49577Y23321D01*
X49577Y23459D01*
X49630Y23586D01*
X49727Y23683D01*
X49854Y23736D01*
X49992Y23736D01*
X50119Y23683D01*
X50216Y23586D01*
X50269Y23459D01*
X50269Y23321D01*
X50216Y23194D01*
X50119Y23097D01*
X49992Y23044D01*
X49854Y23044D01*
G37*
%LPD*%
%LPC*%
G36*
X50854Y23044D02*
X50854Y23044D01*
X50727Y23097D01*
X50630Y23194D01*
X50577Y23321D01*
X50577Y23459D01*
X50630Y23586D01*
X50727Y23683D01*
X50854Y23736D01*
X50992Y23736D01*
X51119Y23683D01*
X51216Y23586D01*
X51269Y23459D01*
X51269Y23321D01*
X51216Y23194D01*
X51119Y23097D01*
X50992Y23044D01*
X50854Y23044D01*
G37*
%LPD*%
%LPC*%
G36*
X52854Y23044D02*
X52854Y23044D01*
X52727Y23097D01*
X52630Y23194D01*
X52577Y23321D01*
X52577Y23459D01*
X52630Y23586D01*
X52727Y23683D01*
X52854Y23736D01*
X52992Y23736D01*
X53119Y23683D01*
X53216Y23586D01*
X53269Y23459D01*
X53269Y23321D01*
X53216Y23194D01*
X53119Y23097D01*
X52992Y23044D01*
X52854Y23044D01*
G37*
%LPD*%
%LPC*%
G36*
X53854Y23044D02*
X53854Y23044D01*
X53727Y23097D01*
X53630Y23194D01*
X53577Y23321D01*
X53577Y23459D01*
X53630Y23586D01*
X53727Y23683D01*
X53854Y23736D01*
X53992Y23736D01*
X54119Y23683D01*
X54216Y23586D01*
X54269Y23459D01*
X54269Y23321D01*
X54216Y23194D01*
X54119Y23097D01*
X53992Y23044D01*
X53854Y23044D01*
G37*
%LPD*%
%LPC*%
G36*
X55854Y23044D02*
X55854Y23044D01*
X55727Y23097D01*
X55630Y23194D01*
X55577Y23321D01*
X55577Y23459D01*
X55630Y23586D01*
X55727Y23683D01*
X55854Y23736D01*
X55992Y23736D01*
X56119Y23683D01*
X56216Y23586D01*
X56269Y23459D01*
X56269Y23321D01*
X56216Y23194D01*
X56119Y23097D01*
X55992Y23044D01*
X55854Y23044D01*
G37*
%LPD*%
%LPC*%
G36*
X38954Y37020D02*
X38954Y37020D01*
X38870Y37055D01*
X38805Y37120D01*
X38770Y37204D01*
X38770Y37296D01*
X38805Y37380D01*
X38870Y37445D01*
X38894Y37454D01*
X38898Y37457D01*
X38903Y37460D01*
X38904Y37460D01*
X38904Y37461D01*
X38908Y37465D01*
X38912Y37468D01*
X38913Y37469D01*
X38916Y37474D01*
X38919Y37479D01*
X38920Y37480D01*
X38921Y37485D01*
X38923Y37491D01*
X38923Y37492D01*
X38924Y37497D01*
X38924Y37503D01*
X38924Y37504D01*
X38923Y37510D01*
X38922Y37515D01*
X38921Y37516D01*
X38919Y37521D01*
X38916Y37526D01*
X38916Y37527D01*
X38916Y37528D01*
X38912Y37532D01*
X38908Y37536D01*
X38907Y37537D01*
X38897Y37544D01*
X38895Y37545D01*
X38894Y37546D01*
X38870Y37555D01*
X38805Y37620D01*
X38770Y37704D01*
X38770Y37796D01*
X38805Y37880D01*
X38870Y37945D01*
X38954Y37980D01*
X39046Y37980D01*
X39130Y37945D01*
X39195Y37880D01*
X39230Y37796D01*
X39230Y37704D01*
X39195Y37620D01*
X39130Y37555D01*
X39106Y37546D01*
X39102Y37543D01*
X39097Y37540D01*
X39096Y37540D01*
X39096Y37539D01*
X39092Y37535D01*
X39088Y37532D01*
X39087Y37531D01*
X39084Y37526D01*
X39081Y37521D01*
X39080Y37520D01*
X39079Y37515D01*
X39077Y37509D01*
X39077Y37508D01*
X39076Y37503D01*
X39076Y37497D01*
X39076Y37496D01*
X39077Y37490D01*
X39078Y37485D01*
X39079Y37484D01*
X39081Y37479D01*
X39084Y37474D01*
X39084Y37473D01*
X39084Y37472D01*
X39088Y37468D01*
X39092Y37464D01*
X39093Y37463D01*
X39103Y37456D01*
X39105Y37455D01*
X39106Y37454D01*
X39130Y37445D01*
X39195Y37380D01*
X39230Y37296D01*
X39230Y37204D01*
X39195Y37120D01*
X39130Y37055D01*
X39046Y37020D01*
X38954Y37020D01*
G37*
%LPD*%
%LPC*%
G36*
X6935Y56675D02*
X6935Y56675D01*
X6816Y56725D01*
X6725Y56816D01*
X6675Y56935D01*
X6675Y57065D01*
X6725Y57184D01*
X6816Y57275D01*
X6935Y57325D01*
X7065Y57325D01*
X7184Y57275D01*
X7275Y57184D01*
X7325Y57065D01*
X7325Y56935D01*
X7275Y56816D01*
X7184Y56725D01*
X7065Y56675D01*
X6935Y56675D01*
G37*
%LPD*%
%LPC*%
G36*
X18935Y29675D02*
X18935Y29675D01*
X18816Y29725D01*
X18725Y29816D01*
X18675Y29935D01*
X18675Y30065D01*
X18725Y30184D01*
X18816Y30275D01*
X18935Y30325D01*
X19065Y30325D01*
X19184Y30275D01*
X19275Y30184D01*
X19325Y30065D01*
X19325Y29935D01*
X19275Y29816D01*
X19184Y29725D01*
X19065Y29675D01*
X18935Y29675D01*
G37*
%LPD*%
%LPC*%
G36*
X98435Y9175D02*
X98435Y9175D01*
X98316Y9225D01*
X98225Y9316D01*
X98175Y9435D01*
X98175Y9565D01*
X98225Y9684D01*
X98316Y9775D01*
X98435Y9825D01*
X98565Y9825D01*
X98684Y9775D01*
X98775Y9684D01*
X98825Y9565D01*
X98825Y9435D01*
X98775Y9316D01*
X98684Y9225D01*
X98565Y9175D01*
X98435Y9175D01*
G37*
%LPD*%
%LPC*%
G36*
X98435Y14175D02*
X98435Y14175D01*
X98316Y14225D01*
X98225Y14316D01*
X98175Y14435D01*
X98175Y14565D01*
X98225Y14684D01*
X98316Y14775D01*
X98435Y14825D01*
X98565Y14825D01*
X98684Y14775D01*
X98775Y14684D01*
X98825Y14565D01*
X98825Y14435D01*
X98775Y14316D01*
X98684Y14225D01*
X98565Y14175D01*
X98435Y14175D01*
G37*
%LPD*%
%LPC*%
G36*
X98435Y30175D02*
X98435Y30175D01*
X98316Y30225D01*
X98225Y30316D01*
X98175Y30435D01*
X98175Y30565D01*
X98225Y30684D01*
X98316Y30775D01*
X98435Y30825D01*
X98565Y30825D01*
X98684Y30775D01*
X98775Y30684D01*
X98825Y30565D01*
X98825Y30435D01*
X98775Y30316D01*
X98684Y30225D01*
X98565Y30175D01*
X98435Y30175D01*
G37*
%LPD*%
%LPC*%
G36*
X98435Y28175D02*
X98435Y28175D01*
X98316Y28225D01*
X98225Y28316D01*
X98175Y28435D01*
X98175Y28565D01*
X98225Y28684D01*
X98316Y28775D01*
X98435Y28825D01*
X98565Y28825D01*
X98684Y28775D01*
X98775Y28684D01*
X98825Y28565D01*
X98825Y28435D01*
X98775Y28316D01*
X98684Y28225D01*
X98565Y28175D01*
X98435Y28175D01*
G37*
%LPD*%
%LPC*%
G36*
X6935Y19675D02*
X6935Y19675D01*
X6816Y19725D01*
X6725Y19816D01*
X6675Y19935D01*
X6675Y20065D01*
X6725Y20184D01*
X6816Y20275D01*
X6935Y20325D01*
X7065Y20325D01*
X7184Y20275D01*
X7275Y20184D01*
X7325Y20065D01*
X7325Y19935D01*
X7275Y19816D01*
X7184Y19725D01*
X7065Y19675D01*
X6935Y19675D01*
G37*
%LPD*%
%LPC*%
G36*
X98435Y22175D02*
X98435Y22175D01*
X98316Y22225D01*
X98225Y22316D01*
X98175Y22435D01*
X98175Y22565D01*
X98225Y22684D01*
X98316Y22775D01*
X98435Y22825D01*
X98565Y22825D01*
X98684Y22775D01*
X98775Y22684D01*
X98825Y22565D01*
X98825Y22435D01*
X98775Y22316D01*
X98684Y22225D01*
X98565Y22175D01*
X98435Y22175D01*
G37*
%LPD*%
%LPC*%
G36*
X98435Y10175D02*
X98435Y10175D01*
X98316Y10225D01*
X98225Y10316D01*
X98175Y10435D01*
X98175Y10565D01*
X98225Y10684D01*
X98316Y10775D01*
X98435Y10825D01*
X98565Y10825D01*
X98684Y10775D01*
X98775Y10684D01*
X98825Y10565D01*
X98825Y10435D01*
X98775Y10316D01*
X98684Y10225D01*
X98565Y10175D01*
X98435Y10175D01*
G37*
%LPD*%
%LPC*%
G36*
X98435Y25175D02*
X98435Y25175D01*
X98316Y25225D01*
X98225Y25316D01*
X98175Y25435D01*
X98175Y25565D01*
X98225Y25684D01*
X98316Y25775D01*
X98435Y25825D01*
X98565Y25825D01*
X98684Y25775D01*
X98775Y25684D01*
X98825Y25565D01*
X98825Y25435D01*
X98775Y25316D01*
X98684Y25225D01*
X98565Y25175D01*
X98435Y25175D01*
G37*
%LPD*%
%LPC*%
G36*
X18435Y54675D02*
X18435Y54675D01*
X18316Y54725D01*
X18225Y54816D01*
X18175Y54935D01*
X18175Y55065D01*
X18225Y55184D01*
X18316Y55275D01*
X18435Y55325D01*
X18565Y55325D01*
X18684Y55275D01*
X18775Y55184D01*
X18825Y55065D01*
X18825Y54935D01*
X18775Y54816D01*
X18684Y54725D01*
X18565Y54675D01*
X18435Y54675D01*
G37*
%LPD*%
%LPC*%
G36*
X6935Y54675D02*
X6935Y54675D01*
X6816Y54725D01*
X6725Y54816D01*
X6675Y54935D01*
X6675Y55065D01*
X6725Y55184D01*
X6816Y55275D01*
X6935Y55325D01*
X7065Y55325D01*
X7184Y55275D01*
X7275Y55184D01*
X7325Y55065D01*
X7325Y54935D01*
X7275Y54816D01*
X7184Y54725D01*
X7065Y54675D01*
X6935Y54675D01*
G37*
%LPD*%
%LPC*%
G36*
X93935Y52675D02*
X93935Y52675D01*
X93816Y52725D01*
X93725Y52816D01*
X93675Y52935D01*
X93675Y53065D01*
X93725Y53184D01*
X93816Y53275D01*
X93935Y53325D01*
X94065Y53325D01*
X94184Y53275D01*
X94275Y53184D01*
X94325Y53065D01*
X94325Y52935D01*
X94275Y52816D01*
X94184Y52725D01*
X94065Y52675D01*
X93935Y52675D01*
G37*
%LPD*%
%LPC*%
G36*
X98435Y31175D02*
X98435Y31175D01*
X98316Y31225D01*
X98225Y31316D01*
X98175Y31435D01*
X98175Y31565D01*
X98225Y31684D01*
X98316Y31775D01*
X98435Y31825D01*
X98565Y31825D01*
X98684Y31775D01*
X98775Y31684D01*
X98825Y31565D01*
X98825Y31435D01*
X98775Y31316D01*
X98684Y31225D01*
X98565Y31175D01*
X98435Y31175D01*
G37*
%LPD*%
%LPC*%
G36*
X98435Y24175D02*
X98435Y24175D01*
X98316Y24225D01*
X98225Y24316D01*
X98175Y24435D01*
X98175Y24565D01*
X98225Y24684D01*
X98316Y24775D01*
X98435Y24825D01*
X98565Y24825D01*
X98684Y24775D01*
X98775Y24684D01*
X98825Y24565D01*
X98825Y24435D01*
X98775Y24316D01*
X98684Y24225D01*
X98565Y24175D01*
X98435Y24175D01*
G37*
%LPD*%
%LPC*%
G36*
X98435Y26175D02*
X98435Y26175D01*
X98316Y26225D01*
X98225Y26316D01*
X98175Y26435D01*
X98175Y26565D01*
X98225Y26684D01*
X98316Y26775D01*
X98435Y26825D01*
X98565Y26825D01*
X98684Y26775D01*
X98775Y26684D01*
X98825Y26565D01*
X98825Y26435D01*
X98775Y26316D01*
X98684Y26225D01*
X98565Y26175D01*
X98435Y26175D01*
G37*
%LPD*%
%LPC*%
G36*
X98435Y23175D02*
X98435Y23175D01*
X98316Y23225D01*
X98225Y23316D01*
X98175Y23435D01*
X98175Y23565D01*
X98225Y23684D01*
X98316Y23775D01*
X98435Y23825D01*
X98565Y23825D01*
X98684Y23775D01*
X98775Y23684D01*
X98825Y23565D01*
X98825Y23435D01*
X98775Y23316D01*
X98684Y23225D01*
X98565Y23175D01*
X98435Y23175D01*
G37*
%LPD*%
%LPC*%
G36*
X98435Y11175D02*
X98435Y11175D01*
X98316Y11225D01*
X98225Y11316D01*
X98175Y11435D01*
X98175Y11565D01*
X98225Y11684D01*
X98316Y11775D01*
X98435Y11825D01*
X98565Y11825D01*
X98684Y11775D01*
X98775Y11684D01*
X98825Y11565D01*
X98825Y11435D01*
X98775Y11316D01*
X98684Y11225D01*
X98565Y11175D01*
X98435Y11175D01*
G37*
%LPD*%
%LPC*%
G36*
X98435Y15175D02*
X98435Y15175D01*
X98316Y15225D01*
X98225Y15316D01*
X98175Y15435D01*
X98175Y15565D01*
X98225Y15684D01*
X98316Y15775D01*
X98435Y15825D01*
X98565Y15825D01*
X98684Y15775D01*
X98775Y15684D01*
X98825Y15565D01*
X98825Y15435D01*
X98775Y15316D01*
X98684Y15225D01*
X98565Y15175D01*
X98435Y15175D01*
G37*
%LPD*%
%LPC*%
G36*
X118335Y40675D02*
X118335Y40675D01*
X118216Y40725D01*
X118125Y40816D01*
X118075Y40935D01*
X118075Y41065D01*
X118125Y41184D01*
X118216Y41275D01*
X118335Y41325D01*
X118465Y41325D01*
X118584Y41275D01*
X118675Y41184D01*
X118725Y41065D01*
X118725Y40935D01*
X118675Y40816D01*
X118584Y40725D01*
X118465Y40675D01*
X118335Y40675D01*
G37*
%LPD*%
%LPC*%
G36*
X118335Y42675D02*
X118335Y42675D01*
X118216Y42725D01*
X118125Y42816D01*
X118075Y42935D01*
X118075Y43065D01*
X118125Y43184D01*
X118216Y43275D01*
X118335Y43325D01*
X118465Y43325D01*
X118584Y43275D01*
X118675Y43184D01*
X118725Y43065D01*
X118725Y42935D01*
X118675Y42816D01*
X118584Y42725D01*
X118465Y42675D01*
X118335Y42675D01*
G37*
%LPD*%
%LPC*%
G36*
X108935Y40675D02*
X108935Y40675D01*
X108816Y40725D01*
X108725Y40816D01*
X108675Y40935D01*
X108675Y41065D01*
X108725Y41184D01*
X108816Y41275D01*
X108935Y41325D01*
X109065Y41325D01*
X109184Y41275D01*
X109275Y41184D01*
X109325Y41065D01*
X109325Y40935D01*
X109275Y40816D01*
X109184Y40725D01*
X109065Y40675D01*
X108935Y40675D01*
G37*
%LPD*%
%LPC*%
G36*
X93935Y50675D02*
X93935Y50675D01*
X93816Y50725D01*
X93725Y50816D01*
X93675Y50935D01*
X93675Y51065D01*
X93725Y51184D01*
X93816Y51275D01*
X93935Y51325D01*
X94065Y51325D01*
X94184Y51275D01*
X94275Y51184D01*
X94325Y51065D01*
X94325Y50935D01*
X94275Y50816D01*
X94184Y50725D01*
X94065Y50675D01*
X93935Y50675D01*
G37*
%LPD*%
%LPC*%
G36*
X98935Y40675D02*
X98935Y40675D01*
X98816Y40725D01*
X98725Y40816D01*
X98675Y40935D01*
X98675Y41065D01*
X98725Y41184D01*
X98816Y41275D01*
X98935Y41325D01*
X99065Y41325D01*
X99184Y41275D01*
X99275Y41184D01*
X99325Y41065D01*
X99325Y40935D01*
X99275Y40816D01*
X99184Y40725D01*
X99065Y40675D01*
X98935Y40675D01*
G37*
%LPD*%
%LPC*%
G36*
X18935Y48675D02*
X18935Y48675D01*
X18816Y48725D01*
X18725Y48816D01*
X18675Y48935D01*
X18675Y49065D01*
X18725Y49184D01*
X18816Y49275D01*
X18935Y49325D01*
X19065Y49325D01*
X19184Y49275D01*
X19275Y49184D01*
X19325Y49065D01*
X19325Y48935D01*
X19275Y48816D01*
X19184Y48725D01*
X19065Y48675D01*
X18935Y48675D01*
G37*
%LPD*%
%LPC*%
G36*
X6935Y48675D02*
X6935Y48675D01*
X6816Y48725D01*
X6725Y48816D01*
X6675Y48935D01*
X6675Y49065D01*
X6725Y49184D01*
X6816Y49275D01*
X6935Y49325D01*
X7065Y49325D01*
X7184Y49275D01*
X7275Y49184D01*
X7325Y49065D01*
X7325Y48935D01*
X7275Y48816D01*
X7184Y48725D01*
X7065Y48675D01*
X6935Y48675D01*
G37*
%LPD*%
%LPC*%
G36*
X88935Y40675D02*
X88935Y40675D01*
X88816Y40725D01*
X88725Y40816D01*
X88675Y40935D01*
X88675Y41065D01*
X88725Y41184D01*
X88816Y41275D01*
X88935Y41325D01*
X89065Y41325D01*
X89184Y41275D01*
X89275Y41184D01*
X89325Y41065D01*
X89325Y40935D01*
X89275Y40816D01*
X89184Y40725D01*
X89065Y40675D01*
X88935Y40675D01*
G37*
%LPD*%
%LPC*%
G36*
X98435Y12175D02*
X98435Y12175D01*
X98316Y12225D01*
X98225Y12316D01*
X98175Y12435D01*
X98175Y12565D01*
X98225Y12684D01*
X98316Y12775D01*
X98435Y12825D01*
X98565Y12825D01*
X98684Y12775D01*
X98775Y12684D01*
X98825Y12565D01*
X98825Y12435D01*
X98775Y12316D01*
X98684Y12225D01*
X98565Y12175D01*
X98435Y12175D01*
G37*
%LPD*%
%LPC*%
G36*
X18935Y40675D02*
X18935Y40675D01*
X18816Y40725D01*
X18725Y40816D01*
X18675Y40935D01*
X18675Y41065D01*
X18725Y41184D01*
X18816Y41275D01*
X18935Y41325D01*
X19065Y41325D01*
X19184Y41275D01*
X19275Y41184D01*
X19325Y41065D01*
X19325Y40935D01*
X19275Y40816D01*
X19184Y40725D01*
X19065Y40675D01*
X18935Y40675D01*
G37*
%LPD*%
%LPC*%
G36*
X6935Y40675D02*
X6935Y40675D01*
X6816Y40725D01*
X6725Y40816D01*
X6675Y40935D01*
X6675Y41065D01*
X6725Y41184D01*
X6816Y41275D01*
X6935Y41325D01*
X7065Y41325D01*
X7184Y41275D01*
X7275Y41184D01*
X7325Y41065D01*
X7325Y40935D01*
X7275Y40816D01*
X7184Y40725D01*
X7065Y40675D01*
X6935Y40675D01*
G37*
%LPD*%
%LPC*%
G36*
X18935Y31675D02*
X18935Y31675D01*
X18816Y31725D01*
X18725Y31816D01*
X18675Y31935D01*
X18675Y32065D01*
X18725Y32184D01*
X18816Y32275D01*
X18935Y32325D01*
X19065Y32325D01*
X19184Y32275D01*
X19275Y32184D01*
X19325Y32065D01*
X19325Y31935D01*
X19275Y31816D01*
X19184Y31725D01*
X19065Y31675D01*
X18935Y31675D01*
G37*
%LPD*%
%LPC*%
G36*
X18935Y46675D02*
X18935Y46675D01*
X18816Y46725D01*
X18725Y46816D01*
X18675Y46935D01*
X18675Y47065D01*
X18725Y47184D01*
X18816Y47275D01*
X18935Y47325D01*
X19065Y47325D01*
X19184Y47275D01*
X19275Y47184D01*
X19325Y47065D01*
X19325Y46935D01*
X19275Y46816D01*
X19184Y46725D01*
X19065Y46675D01*
X18935Y46675D01*
G37*
%LPD*%
%LPC*%
G36*
X6935Y46675D02*
X6935Y46675D01*
X6816Y46725D01*
X6725Y46816D01*
X6675Y46935D01*
X6675Y47065D01*
X6725Y47184D01*
X6816Y47275D01*
X6935Y47325D01*
X7065Y47325D01*
X7184Y47275D01*
X7275Y47184D01*
X7325Y47065D01*
X7325Y46935D01*
X7275Y46816D01*
X7184Y46725D01*
X7065Y46675D01*
X6935Y46675D01*
G37*
%LPD*%
%LPC*%
G36*
X6935Y31675D02*
X6935Y31675D01*
X6816Y31725D01*
X6725Y31816D01*
X6675Y31935D01*
X6675Y32065D01*
X6725Y32184D01*
X6816Y32275D01*
X6935Y32325D01*
X7065Y32325D01*
X7184Y32275D01*
X7275Y32184D01*
X7325Y32065D01*
X7325Y31935D01*
X7275Y31816D01*
X7184Y31725D01*
X7065Y31675D01*
X6935Y31675D01*
G37*
%LPD*%
%LPC*%
G36*
X98435Y8175D02*
X98435Y8175D01*
X98316Y8225D01*
X98225Y8316D01*
X98175Y8435D01*
X98175Y8565D01*
X98225Y8684D01*
X98316Y8775D01*
X98435Y8825D01*
X98565Y8825D01*
X98684Y8775D01*
X98775Y8684D01*
X98825Y8565D01*
X98825Y8435D01*
X98775Y8316D01*
X98684Y8225D01*
X98565Y8175D01*
X98435Y8175D01*
G37*
%LPD*%
%LPC*%
G36*
X18435Y56675D02*
X18435Y56675D01*
X18316Y56725D01*
X18225Y56816D01*
X18175Y56935D01*
X18175Y57065D01*
X18225Y57184D01*
X18316Y57275D01*
X18435Y57325D01*
X18565Y57325D01*
X18684Y57275D01*
X18775Y57184D01*
X18825Y57065D01*
X18825Y56935D01*
X18775Y56816D01*
X18684Y56725D01*
X18565Y56675D01*
X18435Y56675D01*
G37*
%LPD*%
%LPC*%
G36*
X98435Y16175D02*
X98435Y16175D01*
X98316Y16225D01*
X98225Y16316D01*
X98175Y16435D01*
X98175Y16565D01*
X98225Y16684D01*
X98316Y16775D01*
X98435Y16825D01*
X98565Y16825D01*
X98684Y16775D01*
X98775Y16684D01*
X98825Y16565D01*
X98825Y16435D01*
X98775Y16316D01*
X98684Y16225D01*
X98565Y16175D01*
X98435Y16175D01*
G37*
%LPD*%
%LPC*%
G36*
X6935Y21675D02*
X6935Y21675D01*
X6816Y21725D01*
X6725Y21816D01*
X6675Y21935D01*
X6675Y22065D01*
X6725Y22184D01*
X6816Y22275D01*
X6935Y22325D01*
X7065Y22325D01*
X7184Y22275D01*
X7275Y22184D01*
X7325Y22065D01*
X7325Y21935D01*
X7275Y21816D01*
X7184Y21725D01*
X7065Y21675D01*
X6935Y21675D01*
G37*
%LPD*%
%LPC*%
G36*
X18935Y21675D02*
X18935Y21675D01*
X18816Y21725D01*
X18725Y21816D01*
X18675Y21935D01*
X18675Y22065D01*
X18725Y22184D01*
X18816Y22275D01*
X18935Y22325D01*
X19065Y22325D01*
X19184Y22275D01*
X19275Y22184D01*
X19325Y22065D01*
X19325Y21935D01*
X19275Y21816D01*
X19184Y21725D01*
X19065Y21675D01*
X18935Y21675D01*
G37*
%LPD*%
%LPC*%
G36*
X98435Y27175D02*
X98435Y27175D01*
X98316Y27225D01*
X98225Y27316D01*
X98175Y27435D01*
X98175Y27565D01*
X98225Y27684D01*
X98316Y27775D01*
X98435Y27825D01*
X98565Y27825D01*
X98684Y27775D01*
X98775Y27684D01*
X98825Y27565D01*
X98825Y27435D01*
X98775Y27316D01*
X98684Y27225D01*
X98565Y27175D01*
X98435Y27175D01*
G37*
%LPD*%
%LPC*%
G36*
X98435Y7175D02*
X98435Y7175D01*
X98316Y7225D01*
X98225Y7316D01*
X98175Y7435D01*
X98175Y7565D01*
X98225Y7684D01*
X98316Y7775D01*
X98435Y7825D01*
X98565Y7825D01*
X98684Y7775D01*
X98775Y7684D01*
X98825Y7565D01*
X98825Y7435D01*
X98775Y7316D01*
X98684Y7225D01*
X98565Y7175D01*
X98435Y7175D01*
G37*
%LPD*%
%LPC*%
G36*
X108935Y42675D02*
X108935Y42675D01*
X108816Y42725D01*
X108725Y42816D01*
X108675Y42935D01*
X108675Y43065D01*
X108725Y43184D01*
X108816Y43275D01*
X108935Y43325D01*
X109065Y43325D01*
X109184Y43275D01*
X109275Y43184D01*
X109325Y43065D01*
X109325Y42935D01*
X109275Y42816D01*
X109184Y42725D01*
X109065Y42675D01*
X108935Y42675D01*
G37*
%LPD*%
%LPC*%
G36*
X98935Y42675D02*
X98935Y42675D01*
X98816Y42725D01*
X98725Y42816D01*
X98675Y42935D01*
X98675Y43065D01*
X98725Y43184D01*
X98816Y43275D01*
X98935Y43325D01*
X99065Y43325D01*
X99184Y43275D01*
X99275Y43184D01*
X99325Y43065D01*
X99325Y42935D01*
X99275Y42816D01*
X99184Y42725D01*
X99065Y42675D01*
X98935Y42675D01*
G37*
%LPD*%
%LPC*%
G36*
X88935Y42675D02*
X88935Y42675D01*
X88816Y42725D01*
X88725Y42816D01*
X88675Y42935D01*
X88675Y43065D01*
X88725Y43184D01*
X88816Y43275D01*
X88935Y43325D01*
X89065Y43325D01*
X89184Y43275D01*
X89275Y43184D01*
X89325Y43065D01*
X89325Y42935D01*
X89275Y42816D01*
X89184Y42725D01*
X89065Y42675D01*
X88935Y42675D01*
G37*
%LPD*%
%LPC*%
G36*
X98435Y29175D02*
X98435Y29175D01*
X98316Y29225D01*
X98225Y29316D01*
X98175Y29435D01*
X98175Y29565D01*
X98225Y29684D01*
X98316Y29775D01*
X98435Y29825D01*
X98565Y29825D01*
X98684Y29775D01*
X98775Y29684D01*
X98825Y29565D01*
X98825Y29435D01*
X98775Y29316D01*
X98684Y29225D01*
X98565Y29175D01*
X98435Y29175D01*
G37*
%LPD*%
%LPC*%
G36*
X6935Y38675D02*
X6935Y38675D01*
X6816Y38725D01*
X6725Y38816D01*
X6675Y38935D01*
X6675Y39065D01*
X6725Y39184D01*
X6816Y39275D01*
X6935Y39325D01*
X7065Y39325D01*
X7184Y39275D01*
X7275Y39184D01*
X7325Y39065D01*
X7325Y38935D01*
X7275Y38816D01*
X7184Y38725D01*
X7065Y38675D01*
X6935Y38675D01*
G37*
%LPD*%
%LPC*%
G36*
X18935Y38675D02*
X18935Y38675D01*
X18816Y38725D01*
X18725Y38816D01*
X18675Y38935D01*
X18675Y39065D01*
X18725Y39184D01*
X18816Y39275D01*
X18935Y39325D01*
X19065Y39325D01*
X19184Y39275D01*
X19275Y39184D01*
X19325Y39065D01*
X19325Y38935D01*
X19275Y38816D01*
X19184Y38725D01*
X19065Y38675D01*
X18935Y38675D01*
G37*
%LPD*%
%LPC*%
G36*
X98435Y13175D02*
X98435Y13175D01*
X98316Y13225D01*
X98225Y13316D01*
X98175Y13435D01*
X98175Y13565D01*
X98225Y13684D01*
X98316Y13775D01*
X98435Y13825D01*
X98565Y13825D01*
X98684Y13775D01*
X98775Y13684D01*
X98825Y13565D01*
X98825Y13435D01*
X98775Y13316D01*
X98684Y13225D01*
X98565Y13175D01*
X98435Y13175D01*
G37*
%LPD*%
%LPC*%
G36*
X6935Y29675D02*
X6935Y29675D01*
X6816Y29725D01*
X6725Y29816D01*
X6675Y29935D01*
X6675Y30065D01*
X6725Y30184D01*
X6816Y30275D01*
X6935Y30325D01*
X7065Y30325D01*
X7184Y30275D01*
X7275Y30184D01*
X7325Y30065D01*
X7325Y29935D01*
X7275Y29816D01*
X7184Y29725D01*
X7065Y29675D01*
X6935Y29675D01*
G37*
%LPD*%
%LPC*%
G36*
X18935Y19675D02*
X18935Y19675D01*
X18816Y19725D01*
X18725Y19816D01*
X18675Y19935D01*
X18675Y20065D01*
X18725Y20184D01*
X18816Y20275D01*
X18935Y20325D01*
X19065Y20325D01*
X19184Y20275D01*
X19275Y20184D01*
X19325Y20065D01*
X19325Y19935D01*
X19275Y19816D01*
X19184Y19725D01*
X19065Y19675D01*
X18935Y19675D01*
G37*
%LPD*%
%LPC*%
G36*
X90436Y11679D02*
X90436Y11679D01*
X90318Y11728D01*
X90228Y11818D01*
X90179Y11936D01*
X90179Y12064D01*
X90228Y12182D01*
X90318Y12272D01*
X90436Y12321D01*
X90564Y12321D01*
X90682Y12272D01*
X90772Y12182D01*
X90821Y12064D01*
X90821Y11936D01*
X90772Y11818D01*
X90682Y11728D01*
X90564Y11679D01*
X90436Y11679D01*
G37*
%LPD*%
%LPC*%
G36*
X90436Y28429D02*
X90436Y28429D01*
X90318Y28478D01*
X90228Y28568D01*
X90179Y28686D01*
X90179Y28814D01*
X90228Y28932D01*
X90318Y29022D01*
X90436Y29071D01*
X90564Y29071D01*
X90682Y29022D01*
X90772Y28932D01*
X90821Y28814D01*
X90821Y28686D01*
X90772Y28568D01*
X90682Y28478D01*
X90564Y28429D01*
X90436Y28429D01*
G37*
%LPD*%
%LPC*%
G36*
X87436Y28429D02*
X87436Y28429D01*
X87318Y28478D01*
X87228Y28568D01*
X87179Y28686D01*
X87179Y28814D01*
X87228Y28932D01*
X87318Y29022D01*
X87436Y29071D01*
X87564Y29071D01*
X87682Y29022D01*
X87772Y28932D01*
X87821Y28814D01*
X87821Y28686D01*
X87772Y28568D01*
X87682Y28478D01*
X87564Y28429D01*
X87436Y28429D01*
G37*
%LPD*%
%LPC*%
G36*
X87436Y9679D02*
X87436Y9679D01*
X87318Y9728D01*
X87228Y9818D01*
X87179Y9936D01*
X87179Y10064D01*
X87228Y10182D01*
X87318Y10272D01*
X87436Y10321D01*
X87564Y10321D01*
X87682Y10272D01*
X87772Y10182D01*
X87821Y10064D01*
X87821Y9936D01*
X87772Y9818D01*
X87682Y9728D01*
X87564Y9679D01*
X87436Y9679D01*
G37*
%LPD*%
%LPC*%
G36*
X90436Y9679D02*
X90436Y9679D01*
X90318Y9728D01*
X90228Y9818D01*
X90179Y9936D01*
X90179Y10064D01*
X90228Y10182D01*
X90318Y10272D01*
X90436Y10321D01*
X90564Y10321D01*
X90682Y10272D01*
X90772Y10182D01*
X90821Y10064D01*
X90821Y9936D01*
X90772Y9818D01*
X90682Y9728D01*
X90564Y9679D01*
X90436Y9679D01*
G37*
%LPD*%
%LPC*%
G36*
X87436Y10679D02*
X87436Y10679D01*
X87318Y10728D01*
X87228Y10818D01*
X87179Y10936D01*
X87179Y11064D01*
X87228Y11182D01*
X87318Y11272D01*
X87436Y11321D01*
X87564Y11321D01*
X87682Y11272D01*
X87772Y11182D01*
X87821Y11064D01*
X87821Y10936D01*
X87772Y10818D01*
X87682Y10728D01*
X87564Y10679D01*
X87436Y10679D01*
G37*
%LPD*%
%LPC*%
G36*
X90436Y26429D02*
X90436Y26429D01*
X90318Y26478D01*
X90228Y26568D01*
X90179Y26686D01*
X90179Y26814D01*
X90228Y26932D01*
X90318Y27022D01*
X90436Y27071D01*
X90564Y27071D01*
X90682Y27022D01*
X90772Y26932D01*
X90821Y26814D01*
X90821Y26686D01*
X90772Y26568D01*
X90682Y26478D01*
X90564Y26429D01*
X90436Y26429D01*
G37*
%LPD*%
%LPC*%
G36*
X87436Y23429D02*
X87436Y23429D01*
X87318Y23478D01*
X87228Y23568D01*
X87179Y23686D01*
X87179Y23814D01*
X87228Y23932D01*
X87318Y24022D01*
X87436Y24071D01*
X87564Y24071D01*
X87682Y24022D01*
X87772Y23932D01*
X87821Y23814D01*
X87821Y23686D01*
X87772Y23568D01*
X87682Y23478D01*
X87564Y23429D01*
X87436Y23429D01*
G37*
%LPD*%
%LPC*%
G36*
X90436Y10679D02*
X90436Y10679D01*
X90318Y10728D01*
X90228Y10818D01*
X90179Y10936D01*
X90179Y11064D01*
X90228Y11182D01*
X90318Y11272D01*
X90436Y11321D01*
X90564Y11321D01*
X90682Y11272D01*
X90772Y11182D01*
X90821Y11064D01*
X90821Y10936D01*
X90772Y10818D01*
X90682Y10728D01*
X90564Y10679D01*
X90436Y10679D01*
G37*
%LPD*%
%LPC*%
G36*
X87436Y17679D02*
X87436Y17679D01*
X87318Y17728D01*
X87228Y17818D01*
X87179Y17936D01*
X87179Y18064D01*
X87228Y18182D01*
X87318Y18272D01*
X87436Y18321D01*
X87564Y18321D01*
X87682Y18272D01*
X87772Y18182D01*
X87821Y18064D01*
X87821Y17936D01*
X87772Y17818D01*
X87682Y17728D01*
X87564Y17679D01*
X87436Y17679D01*
G37*
%LPD*%
%LPC*%
G36*
X87436Y11679D02*
X87436Y11679D01*
X87318Y11728D01*
X87228Y11818D01*
X87179Y11936D01*
X87179Y12064D01*
X87228Y12182D01*
X87318Y12272D01*
X87436Y12321D01*
X87564Y12321D01*
X87682Y12272D01*
X87772Y12182D01*
X87821Y12064D01*
X87821Y11936D01*
X87772Y11818D01*
X87682Y11728D01*
X87564Y11679D01*
X87436Y11679D01*
G37*
%LPD*%
%LPC*%
G36*
X90436Y23429D02*
X90436Y23429D01*
X90318Y23478D01*
X90228Y23568D01*
X90179Y23686D01*
X90179Y23814D01*
X90228Y23932D01*
X90318Y24022D01*
X90436Y24071D01*
X90564Y24071D01*
X90682Y24022D01*
X90772Y23932D01*
X90821Y23814D01*
X90821Y23686D01*
X90772Y23568D01*
X90682Y23478D01*
X90564Y23429D01*
X90436Y23429D01*
G37*
%LPD*%
%LPC*%
G36*
X90436Y17679D02*
X90436Y17679D01*
X90318Y17728D01*
X90228Y17818D01*
X90179Y17936D01*
X90179Y18064D01*
X90228Y18182D01*
X90318Y18272D01*
X90436Y18321D01*
X90564Y18321D01*
X90682Y18272D01*
X90772Y18182D01*
X90821Y18064D01*
X90821Y17936D01*
X90772Y17818D01*
X90682Y17728D01*
X90564Y17679D01*
X90436Y17679D01*
G37*
%LPD*%
%LPC*%
G36*
X90436Y22429D02*
X90436Y22429D01*
X90318Y22478D01*
X90228Y22568D01*
X90179Y22686D01*
X90179Y22814D01*
X90228Y22932D01*
X90318Y23022D01*
X90436Y23071D01*
X90564Y23071D01*
X90682Y23022D01*
X90772Y22932D01*
X90821Y22814D01*
X90821Y22686D01*
X90772Y22568D01*
X90682Y22478D01*
X90564Y22429D01*
X90436Y22429D01*
G37*
%LPD*%
%LPC*%
G36*
X90436Y7679D02*
X90436Y7679D01*
X90318Y7728D01*
X90228Y7818D01*
X90179Y7936D01*
X90179Y8064D01*
X90228Y8182D01*
X90318Y8272D01*
X90436Y8321D01*
X90564Y8321D01*
X90682Y8272D01*
X90772Y8182D01*
X90821Y8064D01*
X90821Y7936D01*
X90772Y7818D01*
X90682Y7728D01*
X90564Y7679D01*
X90436Y7679D01*
G37*
%LPD*%
%LPC*%
G36*
X87436Y7679D02*
X87436Y7679D01*
X87318Y7728D01*
X87228Y7818D01*
X87179Y7936D01*
X87179Y8064D01*
X87228Y8182D01*
X87318Y8272D01*
X87436Y8321D01*
X87564Y8321D01*
X87682Y8272D01*
X87772Y8182D01*
X87821Y8064D01*
X87821Y7936D01*
X87772Y7818D01*
X87682Y7728D01*
X87564Y7679D01*
X87436Y7679D01*
G37*
%LPD*%
%LPC*%
G36*
X87436Y12679D02*
X87436Y12679D01*
X87318Y12728D01*
X87228Y12818D01*
X87179Y12936D01*
X87179Y13064D01*
X87228Y13182D01*
X87318Y13272D01*
X87436Y13321D01*
X87564Y13321D01*
X87682Y13272D01*
X87772Y13182D01*
X87821Y13064D01*
X87821Y12936D01*
X87772Y12818D01*
X87682Y12728D01*
X87564Y12679D01*
X87436Y12679D01*
G37*
%LPD*%
%LPC*%
G36*
X90436Y12679D02*
X90436Y12679D01*
X90318Y12728D01*
X90228Y12818D01*
X90179Y12936D01*
X90179Y13064D01*
X90228Y13182D01*
X90318Y13272D01*
X90436Y13321D01*
X90564Y13321D01*
X90682Y13272D01*
X90772Y13182D01*
X90821Y13064D01*
X90821Y12936D01*
X90772Y12818D01*
X90682Y12728D01*
X90564Y12679D01*
X90436Y12679D01*
G37*
%LPD*%
%LPC*%
G36*
X90436Y32429D02*
X90436Y32429D01*
X90318Y32478D01*
X90228Y32568D01*
X90179Y32686D01*
X90179Y32814D01*
X90228Y32932D01*
X90318Y33022D01*
X90436Y33071D01*
X90564Y33071D01*
X90682Y33022D01*
X90772Y32932D01*
X90821Y32814D01*
X90821Y32686D01*
X90772Y32568D01*
X90682Y32478D01*
X90564Y32429D01*
X90436Y32429D01*
G37*
%LPD*%
%LPC*%
G36*
X90436Y33429D02*
X90436Y33429D01*
X90318Y33478D01*
X90228Y33568D01*
X90179Y33686D01*
X90179Y33814D01*
X90228Y33932D01*
X90318Y34022D01*
X90436Y34071D01*
X90564Y34071D01*
X90682Y34022D01*
X90772Y33932D01*
X90821Y33814D01*
X90821Y33686D01*
X90772Y33568D01*
X90682Y33478D01*
X90564Y33429D01*
X90436Y33429D01*
G37*
%LPD*%
%LPC*%
G36*
X90436Y31429D02*
X90436Y31429D01*
X90318Y31478D01*
X90228Y31568D01*
X90179Y31686D01*
X90179Y31814D01*
X90228Y31932D01*
X90318Y32022D01*
X90436Y32071D01*
X90564Y32071D01*
X90682Y32022D01*
X90772Y31932D01*
X90821Y31814D01*
X90821Y31686D01*
X90772Y31568D01*
X90682Y31478D01*
X90564Y31429D01*
X90436Y31429D01*
G37*
%LPD*%
%LPC*%
G36*
X87436Y29429D02*
X87436Y29429D01*
X87318Y29478D01*
X87228Y29568D01*
X87179Y29686D01*
X87179Y29814D01*
X87228Y29932D01*
X87318Y30022D01*
X87436Y30071D01*
X87564Y30071D01*
X87682Y30022D01*
X87772Y29932D01*
X87821Y29814D01*
X87821Y29686D01*
X87772Y29568D01*
X87682Y29478D01*
X87564Y29429D01*
X87436Y29429D01*
G37*
%LPD*%
%LPC*%
G36*
X90436Y6679D02*
X90436Y6679D01*
X90318Y6728D01*
X90228Y6818D01*
X90179Y6936D01*
X90179Y7064D01*
X90228Y7182D01*
X90318Y7272D01*
X90436Y7321D01*
X90564Y7321D01*
X90682Y7272D01*
X90772Y7182D01*
X90821Y7064D01*
X90821Y6936D01*
X90772Y6818D01*
X90682Y6728D01*
X90564Y6679D01*
X90436Y6679D01*
G37*
%LPD*%
%LPC*%
G36*
X87436Y20429D02*
X87436Y20429D01*
X87318Y20478D01*
X87228Y20568D01*
X87179Y20686D01*
X87179Y20814D01*
X87228Y20932D01*
X87318Y21022D01*
X87436Y21071D01*
X87564Y21071D01*
X87682Y21022D01*
X87772Y20932D01*
X87821Y20814D01*
X87821Y20686D01*
X87772Y20568D01*
X87682Y20478D01*
X87564Y20429D01*
X87436Y20429D01*
G37*
%LPD*%
%LPC*%
G36*
X90436Y5679D02*
X90436Y5679D01*
X90318Y5728D01*
X90228Y5818D01*
X90179Y5936D01*
X90179Y6064D01*
X90228Y6182D01*
X90318Y6272D01*
X90436Y6321D01*
X90564Y6321D01*
X90682Y6272D01*
X90772Y6182D01*
X90821Y6064D01*
X90821Y5936D01*
X90772Y5818D01*
X90682Y5728D01*
X90564Y5679D01*
X90436Y5679D01*
G37*
%LPD*%
%LPC*%
G36*
X87436Y5679D02*
X87436Y5679D01*
X87318Y5728D01*
X87228Y5818D01*
X87179Y5936D01*
X87179Y6064D01*
X87228Y6182D01*
X87318Y6272D01*
X87436Y6321D01*
X87564Y6321D01*
X87682Y6272D01*
X87772Y6182D01*
X87821Y6064D01*
X87821Y5936D01*
X87772Y5818D01*
X87682Y5728D01*
X87564Y5679D01*
X87436Y5679D01*
G37*
%LPD*%
%LPC*%
G36*
X87436Y31429D02*
X87436Y31429D01*
X87318Y31478D01*
X87228Y31568D01*
X87179Y31686D01*
X87179Y31814D01*
X87228Y31932D01*
X87318Y32022D01*
X87436Y32071D01*
X87564Y32071D01*
X87682Y32022D01*
X87772Y31932D01*
X87821Y31814D01*
X87821Y31686D01*
X87772Y31568D01*
X87682Y31478D01*
X87564Y31429D01*
X87436Y31429D01*
G37*
%LPD*%
%LPC*%
G36*
X90436Y4679D02*
X90436Y4679D01*
X90318Y4728D01*
X90228Y4818D01*
X90179Y4936D01*
X90179Y5064D01*
X90228Y5182D01*
X90318Y5272D01*
X90436Y5321D01*
X90564Y5321D01*
X90682Y5272D01*
X90772Y5182D01*
X90821Y5064D01*
X90821Y4936D01*
X90772Y4818D01*
X90682Y4728D01*
X90564Y4679D01*
X90436Y4679D01*
G37*
%LPD*%
%LPC*%
G36*
X90436Y20429D02*
X90436Y20429D01*
X90318Y20478D01*
X90228Y20568D01*
X90179Y20686D01*
X90179Y20814D01*
X90228Y20932D01*
X90318Y21022D01*
X90436Y21071D01*
X90564Y21071D01*
X90682Y21022D01*
X90772Y20932D01*
X90821Y20814D01*
X90821Y20686D01*
X90772Y20568D01*
X90682Y20478D01*
X90564Y20429D01*
X90436Y20429D01*
G37*
%LPD*%
%LPC*%
G36*
X87436Y13679D02*
X87436Y13679D01*
X87318Y13728D01*
X87228Y13818D01*
X87179Y13936D01*
X87179Y14064D01*
X87228Y14182D01*
X87318Y14272D01*
X87436Y14321D01*
X87564Y14321D01*
X87682Y14272D01*
X87772Y14182D01*
X87821Y14064D01*
X87821Y13936D01*
X87772Y13818D01*
X87682Y13728D01*
X87564Y13679D01*
X87436Y13679D01*
G37*
%LPD*%
%LPC*%
G36*
X90436Y13679D02*
X90436Y13679D01*
X90318Y13728D01*
X90228Y13818D01*
X90179Y13936D01*
X90179Y14064D01*
X90228Y14182D01*
X90318Y14272D01*
X90436Y14321D01*
X90564Y14321D01*
X90682Y14272D01*
X90772Y14182D01*
X90821Y14064D01*
X90821Y13936D01*
X90772Y13818D01*
X90682Y13728D01*
X90564Y13679D01*
X90436Y13679D01*
G37*
%LPD*%
%LPC*%
G36*
X87436Y4679D02*
X87436Y4679D01*
X87318Y4728D01*
X87228Y4818D01*
X87179Y4936D01*
X87179Y5064D01*
X87228Y5182D01*
X87318Y5272D01*
X87436Y5321D01*
X87564Y5321D01*
X87682Y5272D01*
X87772Y5182D01*
X87821Y5064D01*
X87821Y4936D01*
X87772Y4818D01*
X87682Y4728D01*
X87564Y4679D01*
X87436Y4679D01*
G37*
%LPD*%
%LPC*%
G36*
X90436Y24429D02*
X90436Y24429D01*
X90318Y24478D01*
X90228Y24568D01*
X90179Y24686D01*
X90179Y24814D01*
X90228Y24932D01*
X90318Y25022D01*
X90436Y25071D01*
X90564Y25071D01*
X90682Y25022D01*
X90772Y24932D01*
X90821Y24814D01*
X90821Y24686D01*
X90772Y24568D01*
X90682Y24478D01*
X90564Y24429D01*
X90436Y24429D01*
G37*
%LPD*%
%LPC*%
G36*
X87436Y32429D02*
X87436Y32429D01*
X87318Y32478D01*
X87228Y32568D01*
X87179Y32686D01*
X87179Y32814D01*
X87228Y32932D01*
X87318Y33022D01*
X87436Y33071D01*
X87564Y33071D01*
X87682Y33022D01*
X87772Y32932D01*
X87821Y32814D01*
X87821Y32686D01*
X87772Y32568D01*
X87682Y32478D01*
X87564Y32429D01*
X87436Y32429D01*
G37*
%LPD*%
%LPC*%
G36*
X87436Y14679D02*
X87436Y14679D01*
X87318Y14728D01*
X87228Y14818D01*
X87179Y14936D01*
X87179Y15064D01*
X87228Y15182D01*
X87318Y15272D01*
X87436Y15321D01*
X87564Y15321D01*
X87682Y15272D01*
X87772Y15182D01*
X87821Y15064D01*
X87821Y14936D01*
X87772Y14818D01*
X87682Y14728D01*
X87564Y14679D01*
X87436Y14679D01*
G37*
%LPD*%
%LPC*%
G36*
X90436Y14679D02*
X90436Y14679D01*
X90318Y14728D01*
X90228Y14818D01*
X90179Y14936D01*
X90179Y15064D01*
X90228Y15182D01*
X90318Y15272D01*
X90436Y15321D01*
X90564Y15321D01*
X90682Y15272D01*
X90772Y15182D01*
X90821Y15064D01*
X90821Y14936D01*
X90772Y14818D01*
X90682Y14728D01*
X90564Y14679D01*
X90436Y14679D01*
G37*
%LPD*%
%LPC*%
G36*
X87436Y27429D02*
X87436Y27429D01*
X87318Y27478D01*
X87228Y27568D01*
X87179Y27686D01*
X87179Y27814D01*
X87228Y27932D01*
X87318Y28022D01*
X87436Y28071D01*
X87564Y28071D01*
X87682Y28022D01*
X87772Y27932D01*
X87821Y27814D01*
X87821Y27686D01*
X87772Y27568D01*
X87682Y27478D01*
X87564Y27429D01*
X87436Y27429D01*
G37*
%LPD*%
%LPC*%
G36*
X90436Y27429D02*
X90436Y27429D01*
X90318Y27478D01*
X90228Y27568D01*
X90179Y27686D01*
X90179Y27814D01*
X90228Y27932D01*
X90318Y28022D01*
X90436Y28071D01*
X90564Y28071D01*
X90682Y28022D01*
X90772Y27932D01*
X90821Y27814D01*
X90821Y27686D01*
X90772Y27568D01*
X90682Y27478D01*
X90564Y27429D01*
X90436Y27429D01*
G37*
%LPD*%
%LPC*%
G36*
X90436Y29429D02*
X90436Y29429D01*
X90318Y29478D01*
X90228Y29568D01*
X90179Y29686D01*
X90179Y29814D01*
X90228Y29932D01*
X90318Y30022D01*
X90436Y30071D01*
X90564Y30071D01*
X90682Y30022D01*
X90772Y29932D01*
X90821Y29814D01*
X90821Y29686D01*
X90772Y29568D01*
X90682Y29478D01*
X90564Y29429D01*
X90436Y29429D01*
G37*
%LPD*%
%LPC*%
G36*
X87436Y15679D02*
X87436Y15679D01*
X87318Y15728D01*
X87228Y15818D01*
X87179Y15936D01*
X87179Y16064D01*
X87228Y16182D01*
X87318Y16272D01*
X87436Y16321D01*
X87564Y16321D01*
X87682Y16272D01*
X87772Y16182D01*
X87821Y16064D01*
X87821Y15936D01*
X87772Y15818D01*
X87682Y15728D01*
X87564Y15679D01*
X87436Y15679D01*
G37*
%LPD*%
%LPC*%
G36*
X90436Y15679D02*
X90436Y15679D01*
X90318Y15728D01*
X90228Y15818D01*
X90179Y15936D01*
X90179Y16064D01*
X90228Y16182D01*
X90318Y16272D01*
X90436Y16321D01*
X90564Y16321D01*
X90682Y16272D01*
X90772Y16182D01*
X90821Y16064D01*
X90821Y15936D01*
X90772Y15818D01*
X90682Y15728D01*
X90564Y15679D01*
X90436Y15679D01*
G37*
%LPD*%
%LPC*%
G36*
X87436Y21429D02*
X87436Y21429D01*
X87318Y21478D01*
X87228Y21568D01*
X87179Y21686D01*
X87179Y21814D01*
X87228Y21932D01*
X87318Y22022D01*
X87436Y22071D01*
X87564Y22071D01*
X87682Y22022D01*
X87772Y21932D01*
X87821Y21814D01*
X87821Y21686D01*
X87772Y21568D01*
X87682Y21478D01*
X87564Y21429D01*
X87436Y21429D01*
G37*
%LPD*%
%LPC*%
G36*
X87436Y16679D02*
X87436Y16679D01*
X87318Y16728D01*
X87228Y16818D01*
X87179Y16936D01*
X87179Y17064D01*
X87228Y17182D01*
X87318Y17272D01*
X87436Y17321D01*
X87564Y17321D01*
X87682Y17272D01*
X87772Y17182D01*
X87821Y17064D01*
X87821Y16936D01*
X87772Y16818D01*
X87682Y16728D01*
X87564Y16679D01*
X87436Y16679D01*
G37*
%LPD*%
%LPC*%
G36*
X90436Y16679D02*
X90436Y16679D01*
X90318Y16728D01*
X90228Y16818D01*
X90179Y16936D01*
X90179Y17064D01*
X90228Y17182D01*
X90318Y17272D01*
X90436Y17321D01*
X90564Y17321D01*
X90682Y17272D01*
X90772Y17182D01*
X90821Y17064D01*
X90821Y16936D01*
X90772Y16818D01*
X90682Y16728D01*
X90564Y16679D01*
X90436Y16679D01*
G37*
%LPD*%
%LPC*%
G36*
X87436Y26429D02*
X87436Y26429D01*
X87318Y26478D01*
X87228Y26568D01*
X87179Y26686D01*
X87179Y26814D01*
X87228Y26932D01*
X87318Y27022D01*
X87436Y27071D01*
X87564Y27071D01*
X87682Y27022D01*
X87772Y26932D01*
X87821Y26814D01*
X87821Y26686D01*
X87772Y26568D01*
X87682Y26478D01*
X87564Y26429D01*
X87436Y26429D01*
G37*
%LPD*%
%LPC*%
G36*
X90436Y25429D02*
X90436Y25429D01*
X90318Y25478D01*
X90228Y25568D01*
X90179Y25686D01*
X90179Y25814D01*
X90228Y25932D01*
X90318Y26022D01*
X90436Y26071D01*
X90564Y26071D01*
X90682Y26022D01*
X90772Y25932D01*
X90821Y25814D01*
X90821Y25686D01*
X90772Y25568D01*
X90682Y25478D01*
X90564Y25429D01*
X90436Y25429D01*
G37*
%LPD*%
%LPC*%
G36*
X90436Y21429D02*
X90436Y21429D01*
X90318Y21478D01*
X90228Y21568D01*
X90179Y21686D01*
X90179Y21814D01*
X90228Y21932D01*
X90318Y22022D01*
X90436Y22071D01*
X90564Y22071D01*
X90682Y22022D01*
X90772Y21932D01*
X90821Y21814D01*
X90821Y21686D01*
X90772Y21568D01*
X90682Y21478D01*
X90564Y21429D01*
X90436Y21429D01*
G37*
%LPD*%
%LPC*%
G36*
X90436Y8679D02*
X90436Y8679D01*
X90318Y8728D01*
X90228Y8818D01*
X90179Y8936D01*
X90179Y9064D01*
X90228Y9182D01*
X90318Y9272D01*
X90436Y9321D01*
X90564Y9321D01*
X90682Y9272D01*
X90772Y9182D01*
X90821Y9064D01*
X90821Y8936D01*
X90772Y8818D01*
X90682Y8728D01*
X90564Y8679D01*
X90436Y8679D01*
G37*
%LPD*%
%LPC*%
G36*
X87436Y6679D02*
X87436Y6679D01*
X87318Y6728D01*
X87228Y6818D01*
X87179Y6936D01*
X87179Y7064D01*
X87228Y7182D01*
X87318Y7272D01*
X87436Y7321D01*
X87564Y7321D01*
X87682Y7272D01*
X87772Y7182D01*
X87821Y7064D01*
X87821Y6936D01*
X87772Y6818D01*
X87682Y6728D01*
X87564Y6679D01*
X87436Y6679D01*
G37*
%LPD*%
%LPC*%
G36*
X87436Y25429D02*
X87436Y25429D01*
X87318Y25478D01*
X87228Y25568D01*
X87179Y25686D01*
X87179Y25814D01*
X87228Y25932D01*
X87318Y26022D01*
X87436Y26071D01*
X87564Y26071D01*
X87682Y26022D01*
X87772Y25932D01*
X87821Y25814D01*
X87821Y25686D01*
X87772Y25568D01*
X87682Y25478D01*
X87564Y25429D01*
X87436Y25429D01*
G37*
%LPD*%
%LPC*%
G36*
X87436Y33429D02*
X87436Y33429D01*
X87318Y33478D01*
X87228Y33568D01*
X87179Y33686D01*
X87179Y33814D01*
X87228Y33932D01*
X87318Y34022D01*
X87436Y34071D01*
X87564Y34071D01*
X87682Y34022D01*
X87772Y33932D01*
X87821Y33814D01*
X87821Y33686D01*
X87772Y33568D01*
X87682Y33478D01*
X87564Y33429D01*
X87436Y33429D01*
G37*
%LPD*%
%LPC*%
G36*
X87436Y22429D02*
X87436Y22429D01*
X87318Y22478D01*
X87228Y22568D01*
X87179Y22686D01*
X87179Y22814D01*
X87228Y22932D01*
X87318Y23022D01*
X87436Y23071D01*
X87564Y23071D01*
X87682Y23022D01*
X87772Y22932D01*
X87821Y22814D01*
X87821Y22686D01*
X87772Y22568D01*
X87682Y22478D01*
X87564Y22429D01*
X87436Y22429D01*
G37*
%LPD*%
%LPC*%
G36*
X90436Y30429D02*
X90436Y30429D01*
X90318Y30478D01*
X90228Y30568D01*
X90179Y30686D01*
X90179Y30814D01*
X90228Y30932D01*
X90318Y31022D01*
X90436Y31071D01*
X90564Y31071D01*
X90682Y31022D01*
X90772Y30932D01*
X90821Y30814D01*
X90821Y30686D01*
X90772Y30568D01*
X90682Y30478D01*
X90564Y30429D01*
X90436Y30429D01*
G37*
%LPD*%
%LPC*%
G36*
X87436Y30429D02*
X87436Y30429D01*
X87318Y30478D01*
X87228Y30568D01*
X87179Y30686D01*
X87179Y30814D01*
X87228Y30932D01*
X87318Y31022D01*
X87436Y31071D01*
X87564Y31071D01*
X87682Y31022D01*
X87772Y30932D01*
X87821Y30814D01*
X87821Y30686D01*
X87772Y30568D01*
X87682Y30478D01*
X87564Y30429D01*
X87436Y30429D01*
G37*
%LPD*%
%LPC*%
G36*
X75954Y45770D02*
X75954Y45770D01*
X75870Y45805D01*
X75799Y45877D01*
X75797Y45878D01*
X75795Y45880D01*
X75792Y45882D01*
X75789Y45884D01*
X75786Y45885D01*
X75784Y45887D01*
X75781Y45888D01*
X75781Y45889D01*
X75783Y45892D01*
X75783Y45895D01*
X75784Y45898D01*
X75784Y45901D01*
X75785Y45904D01*
X75785Y45907D01*
X75785Y45910D01*
X75785Y45912D01*
X75785Y45917D01*
X75782Y45925D01*
X75782Y45927D01*
X75770Y45954D01*
X75770Y46046D01*
X75805Y46130D01*
X75870Y46195D01*
X75954Y46230D01*
X76046Y46230D01*
X76130Y46195D01*
X76195Y46130D01*
X76230Y46046D01*
X76230Y45954D01*
X76195Y45870D01*
X76130Y45805D01*
X76046Y45770D01*
X75954Y45770D01*
G37*
%LPD*%
%LPC*%
G36*
X26204Y43570D02*
X26204Y43570D01*
X26120Y43605D01*
X26055Y43670D01*
X26020Y43754D01*
X26020Y43846D01*
X26055Y43930D01*
X26120Y43995D01*
X26204Y44030D01*
X26296Y44030D01*
X26380Y43995D01*
X26445Y43930D01*
X26480Y43846D01*
X26480Y43754D01*
X26445Y43670D01*
X26380Y43605D01*
X26296Y43570D01*
X26204Y43570D01*
G37*
%LPD*%
%LPC*%
G36*
X78454Y38520D02*
X78454Y38520D01*
X78370Y38555D01*
X78305Y38620D01*
X78270Y38704D01*
X78270Y38796D01*
X78305Y38880D01*
X78370Y38945D01*
X78454Y38980D01*
X78546Y38980D01*
X78630Y38945D01*
X78695Y38880D01*
X78730Y38796D01*
X78730Y38704D01*
X78695Y38620D01*
X78630Y38555D01*
X78546Y38520D01*
X78454Y38520D01*
G37*
%LPD*%
%LPC*%
G36*
X80204Y47520D02*
X80204Y47520D01*
X80120Y47555D01*
X80055Y47620D01*
X80020Y47704D01*
X80020Y47796D01*
X80055Y47880D01*
X80120Y47945D01*
X80204Y47980D01*
X80296Y47980D01*
X80380Y47945D01*
X80445Y47880D01*
X80480Y47796D01*
X80480Y47704D01*
X80445Y47620D01*
X80380Y47555D01*
X80296Y47520D01*
X80204Y47520D01*
G37*
%LPD*%
%LPC*%
G36*
X68954Y46020D02*
X68954Y46020D01*
X68870Y46055D01*
X68805Y46120D01*
X68770Y46204D01*
X68770Y46296D01*
X68805Y46380D01*
X68870Y46445D01*
X68954Y46480D01*
X69046Y46480D01*
X69130Y46445D01*
X69195Y46380D01*
X69230Y46296D01*
X69230Y46204D01*
X69195Y46120D01*
X69130Y46055D01*
X69046Y46020D01*
X68954Y46020D01*
G37*
%LPD*%
%LPC*%
G36*
X72704Y22520D02*
X72704Y22520D01*
X72620Y22555D01*
X72555Y22620D01*
X72520Y22704D01*
X72520Y22796D01*
X72555Y22880D01*
X72620Y22945D01*
X72704Y22980D01*
X72796Y22980D01*
X72880Y22945D01*
X72945Y22880D01*
X72980Y22796D01*
X72980Y22704D01*
X72945Y22620D01*
X72880Y22555D01*
X72796Y22520D01*
X72704Y22520D01*
G37*
%LPD*%
%LPC*%
G36*
X36704Y43570D02*
X36704Y43570D01*
X36620Y43605D01*
X36555Y43670D01*
X36520Y43754D01*
X36520Y43846D01*
X36555Y43930D01*
X36620Y43995D01*
X36704Y44030D01*
X36796Y44030D01*
X36880Y43995D01*
X36945Y43930D01*
X36980Y43846D01*
X36980Y43754D01*
X36945Y43670D01*
X36880Y43605D01*
X36796Y43570D01*
X36704Y43570D01*
G37*
%LPD*%
%LPC*%
G36*
X26204Y42970D02*
X26204Y42970D01*
X26120Y43005D01*
X26055Y43070D01*
X26020Y43154D01*
X26020Y43246D01*
X26055Y43330D01*
X26120Y43395D01*
X26204Y43430D01*
X26296Y43430D01*
X26380Y43395D01*
X26445Y43330D01*
X26480Y43246D01*
X26480Y43154D01*
X26445Y43070D01*
X26380Y43005D01*
X26296Y42970D01*
X26204Y42970D01*
G37*
%LPD*%
%LPC*%
G36*
X43954Y34270D02*
X43954Y34270D01*
X43870Y34305D01*
X43805Y34370D01*
X43770Y34454D01*
X43770Y34546D01*
X43805Y34630D01*
X43870Y34695D01*
X43954Y34730D01*
X44046Y34730D01*
X44130Y34695D01*
X44195Y34630D01*
X44230Y34546D01*
X44230Y34454D01*
X44195Y34370D01*
X44130Y34305D01*
X44046Y34270D01*
X43954Y34270D01*
G37*
%LPD*%
%LPC*%
G36*
X36854Y42820D02*
X36854Y42820D01*
X36770Y42855D01*
X36705Y42920D01*
X36670Y43004D01*
X36670Y43096D01*
X36705Y43180D01*
X36770Y43245D01*
X36854Y43280D01*
X36946Y43280D01*
X37030Y43245D01*
X37095Y43180D01*
X37130Y43096D01*
X37130Y43004D01*
X37095Y42920D01*
X37030Y42855D01*
X36946Y42820D01*
X36854Y42820D01*
G37*
%LPD*%
%LPC*%
G36*
X77454Y13020D02*
X77454Y13020D01*
X77370Y13055D01*
X77305Y13120D01*
X77270Y13204D01*
X77270Y13296D01*
X77305Y13380D01*
X77370Y13445D01*
X77454Y13480D01*
X77546Y13480D01*
X77630Y13445D01*
X77695Y13380D01*
X77730Y13296D01*
X77730Y13204D01*
X77695Y13120D01*
X77630Y13055D01*
X77546Y13020D01*
X77454Y13020D01*
G37*
%LPD*%
%LPC*%
G36*
X77454Y14270D02*
X77454Y14270D01*
X77370Y14305D01*
X77305Y14370D01*
X77270Y14454D01*
X77270Y14546D01*
X77305Y14630D01*
X77370Y14695D01*
X77454Y14730D01*
X77546Y14730D01*
X77630Y14695D01*
X77695Y14630D01*
X77730Y14546D01*
X77730Y14454D01*
X77695Y14370D01*
X77630Y14305D01*
X77546Y14270D01*
X77454Y14270D01*
G37*
%LPD*%
%LPC*%
G36*
X58454Y27970D02*
X58454Y27970D01*
X58370Y28005D01*
X58305Y28070D01*
X58270Y28154D01*
X58270Y28246D01*
X58305Y28330D01*
X58370Y28395D01*
X58454Y28430D01*
X58546Y28430D01*
X58630Y28395D01*
X58695Y28330D01*
X58730Y28246D01*
X58730Y28154D01*
X58695Y28070D01*
X58630Y28005D01*
X58546Y27970D01*
X58454Y27970D01*
G37*
%LPD*%
%LPC*%
G36*
X59654Y27670D02*
X59654Y27670D01*
X59570Y27705D01*
X59505Y27770D01*
X59470Y27854D01*
X59470Y27946D01*
X59505Y28030D01*
X59570Y28095D01*
X59654Y28130D01*
X59746Y28130D01*
X59830Y28095D01*
X59895Y28030D01*
X59930Y27946D01*
X59930Y27854D01*
X59895Y27770D01*
X59830Y27705D01*
X59746Y27670D01*
X59654Y27670D01*
G37*
%LPD*%
%LPC*%
G36*
X23204Y15020D02*
X23204Y15020D01*
X23120Y15055D01*
X23055Y15120D01*
X23020Y15204D01*
X23020Y15296D01*
X23055Y15380D01*
X23120Y15445D01*
X23204Y15480D01*
X23296Y15480D01*
X23380Y15445D01*
X23445Y15380D01*
X23480Y15296D01*
X23480Y15204D01*
X23445Y15120D01*
X23380Y15055D01*
X23296Y15020D01*
X23204Y15020D01*
G37*
%LPD*%
%LPC*%
G36*
X72954Y21520D02*
X72954Y21520D01*
X72870Y21555D01*
X72805Y21620D01*
X72770Y21704D01*
X72770Y21796D01*
X72805Y21880D01*
X72870Y21945D01*
X72954Y21980D01*
X73046Y21980D01*
X73130Y21945D01*
X73195Y21880D01*
X73230Y21796D01*
X73230Y21704D01*
X73195Y21620D01*
X73130Y21555D01*
X73046Y21520D01*
X72954Y21520D01*
G37*
%LPD*%
%LPC*%
G36*
X74204Y20020D02*
X74204Y20020D01*
X74120Y20055D01*
X74055Y20120D01*
X74020Y20204D01*
X74020Y20296D01*
X74055Y20380D01*
X74120Y20445D01*
X74204Y20480D01*
X74296Y20480D01*
X74380Y20445D01*
X74445Y20380D01*
X74480Y20296D01*
X74480Y20204D01*
X74445Y20120D01*
X74380Y20055D01*
X74296Y20020D01*
X74204Y20020D01*
G37*
%LPD*%
%LPC*%
G36*
X24954Y16020D02*
X24954Y16020D01*
X24870Y16055D01*
X24805Y16120D01*
X24770Y16204D01*
X24770Y16296D01*
X24805Y16380D01*
X24870Y16445D01*
X24954Y16480D01*
X25046Y16480D01*
X25130Y16445D01*
X25195Y16380D01*
X25230Y16296D01*
X25230Y16204D01*
X25195Y16120D01*
X25130Y16055D01*
X25046Y16020D01*
X24954Y16020D01*
G37*
%LPD*%
%LPC*%
G36*
X82454Y7020D02*
X82454Y7020D01*
X82370Y7055D01*
X82305Y7120D01*
X82270Y7204D01*
X82270Y7296D01*
X82305Y7380D01*
X82370Y7445D01*
X82454Y7480D01*
X82546Y7480D01*
X82630Y7445D01*
X82695Y7380D01*
X82730Y7296D01*
X82730Y7204D01*
X82695Y7120D01*
X82630Y7055D01*
X82546Y7020D01*
X82454Y7020D01*
G37*
%LPD*%
%LPC*%
G36*
X53504Y28720D02*
X53504Y28720D01*
X53420Y28755D01*
X53355Y28820D01*
X53320Y28904D01*
X53320Y28996D01*
X53355Y29080D01*
X53420Y29145D01*
X53504Y29180D01*
X53596Y29180D01*
X53680Y29145D01*
X53745Y29080D01*
X53780Y28996D01*
X53780Y28904D01*
X53745Y28820D01*
X53680Y28755D01*
X53596Y28720D01*
X53504Y28720D01*
G37*
%LPD*%
%LPC*%
G36*
X59054Y28720D02*
X59054Y28720D01*
X58970Y28755D01*
X58905Y28820D01*
X58870Y28904D01*
X58870Y28996D01*
X58905Y29080D01*
X58970Y29145D01*
X59054Y29180D01*
X59146Y29180D01*
X59230Y29145D01*
X59295Y29080D01*
X59330Y28996D01*
X59330Y28904D01*
X59295Y28820D01*
X59230Y28755D01*
X59146Y28720D01*
X59054Y28720D01*
G37*
%LPD*%
%LPC*%
G36*
X61704Y27520D02*
X61704Y27520D01*
X61620Y27555D01*
X61555Y27620D01*
X61520Y27704D01*
X61520Y27796D01*
X61555Y27880D01*
X61620Y27945D01*
X61704Y27980D01*
X61796Y27980D01*
X61880Y27945D01*
X61945Y27880D01*
X61980Y27796D01*
X61980Y27704D01*
X61945Y27620D01*
X61880Y27555D01*
X61796Y27520D01*
X61704Y27520D01*
G37*
%LPD*%
%LPC*%
G36*
X21454Y25770D02*
X21454Y25770D01*
X21370Y25805D01*
X21305Y25870D01*
X21270Y25954D01*
X21270Y26046D01*
X21305Y26130D01*
X21370Y26195D01*
X21454Y26230D01*
X21546Y26230D01*
X21630Y26195D01*
X21695Y26130D01*
X21730Y26046D01*
X21730Y25954D01*
X21695Y25870D01*
X21630Y25805D01*
X21546Y25770D01*
X21454Y25770D01*
G37*
%LPD*%
%LPC*%
G36*
X53204Y24020D02*
X53204Y24020D01*
X53120Y24055D01*
X53055Y24120D01*
X53020Y24204D01*
X53020Y24296D01*
X53055Y24380D01*
X53120Y24445D01*
X53204Y24480D01*
X53296Y24480D01*
X53380Y24445D01*
X53445Y24380D01*
X53480Y24296D01*
X53480Y24204D01*
X53445Y24120D01*
X53380Y24055D01*
X53296Y24020D01*
X53204Y24020D01*
G37*
%LPD*%
%LPC*%
G36*
X22954Y33020D02*
X22954Y33020D01*
X22870Y33055D01*
X22805Y33120D01*
X22770Y33204D01*
X22770Y33296D01*
X22805Y33380D01*
X22870Y33445D01*
X22954Y33480D01*
X23046Y33480D01*
X23130Y33445D01*
X23195Y33380D01*
X23230Y33296D01*
X23230Y33204D01*
X23195Y33120D01*
X23130Y33055D01*
X23046Y33020D01*
X22954Y33020D01*
G37*
%LPD*%
%LPC*%
G36*
X74204Y24520D02*
X74204Y24520D01*
X74120Y24555D01*
X74055Y24620D01*
X74020Y24704D01*
X74020Y24796D01*
X74055Y24880D01*
X74120Y24945D01*
X74204Y24980D01*
X74296Y24980D01*
X74380Y24945D01*
X74445Y24880D01*
X74480Y24796D01*
X74480Y24704D01*
X74445Y24620D01*
X74380Y24555D01*
X74296Y24520D01*
X74204Y24520D01*
G37*
%LPD*%
%LPC*%
G36*
X67706Y50779D02*
X67706Y50779D01*
X67625Y50813D01*
X67563Y50875D01*
X67529Y50956D01*
X67529Y51044D01*
X67563Y51125D01*
X67625Y51187D01*
X67706Y51221D01*
X67794Y51221D01*
X67875Y51187D01*
X67937Y51125D01*
X67971Y51044D01*
X67971Y50956D01*
X67937Y50875D01*
X67875Y50813D01*
X67794Y50779D01*
X67706Y50779D01*
G37*
%LPD*%
%LPC*%
G36*
X54706Y45229D02*
X54706Y45229D01*
X54625Y45263D01*
X54563Y45325D01*
X54529Y45406D01*
X54529Y45494D01*
X54563Y45575D01*
X54625Y45637D01*
X54706Y45671D01*
X54794Y45671D01*
X54875Y45637D01*
X54937Y45575D01*
X54971Y45494D01*
X54971Y45406D01*
X54937Y45325D01*
X54875Y45263D01*
X54794Y45229D01*
X54706Y45229D01*
G37*
%LPD*%
%LPC*%
G36*
X3456Y43779D02*
X3456Y43779D01*
X3375Y43813D01*
X3313Y43875D01*
X3279Y43956D01*
X3279Y44044D01*
X3313Y44125D01*
X3375Y44187D01*
X3456Y44221D01*
X3544Y44221D01*
X3625Y44187D01*
X3687Y44125D01*
X3721Y44044D01*
X3721Y43956D01*
X3687Y43875D01*
X3625Y43813D01*
X3544Y43779D01*
X3456Y43779D01*
G37*
%LPD*%
%LPC*%
G36*
X6456Y2279D02*
X6456Y2279D01*
X6375Y2313D01*
X6313Y2375D01*
X6279Y2456D01*
X6279Y2544D01*
X6313Y2625D01*
X6375Y2687D01*
X6456Y2721D01*
X6544Y2721D01*
X6625Y2687D01*
X6687Y2625D01*
X6721Y2544D01*
X6721Y2456D01*
X6687Y2375D01*
X6625Y2313D01*
X6544Y2279D01*
X6456Y2279D01*
G37*
%LPD*%
%LPC*%
G36*
X15706Y43279D02*
X15706Y43279D01*
X15625Y43313D01*
X15563Y43375D01*
X15529Y43456D01*
X15529Y43544D01*
X15563Y43625D01*
X15625Y43687D01*
X15706Y43721D01*
X15794Y43721D01*
X15875Y43687D01*
X15937Y43625D01*
X15971Y43544D01*
X15971Y43456D01*
X15937Y43375D01*
X15875Y43313D01*
X15794Y43279D01*
X15706Y43279D01*
G37*
%LPD*%
%LPC*%
G36*
X90706Y56779D02*
X90706Y56779D01*
X90625Y56813D01*
X90563Y56875D01*
X90529Y56956D01*
X90529Y57044D01*
X90563Y57125D01*
X90625Y57187D01*
X90706Y57221D01*
X90794Y57221D01*
X90875Y57187D01*
X90937Y57125D01*
X90971Y57044D01*
X90971Y56956D01*
X90937Y56875D01*
X90875Y56813D01*
X90794Y56779D01*
X90706Y56779D01*
G37*
%LPD*%
%LPC*%
G36*
X55956Y26529D02*
X55956Y26529D01*
X55875Y26563D01*
X55813Y26625D01*
X55779Y26706D01*
X55779Y26794D01*
X55813Y26875D01*
X55875Y26937D01*
X55956Y26971D01*
X56044Y26971D01*
X56125Y26937D01*
X56187Y26875D01*
X56221Y26794D01*
X56221Y26706D01*
X56187Y26625D01*
X56125Y26563D01*
X56044Y26529D01*
X55956Y26529D01*
G37*
%LPD*%
%LPC*%
G36*
X118606Y38279D02*
X118606Y38279D01*
X118525Y38313D01*
X118463Y38375D01*
X118429Y38456D01*
X118429Y38544D01*
X118463Y38625D01*
X118525Y38687D01*
X118606Y38721D01*
X118694Y38721D01*
X118775Y38687D01*
X118837Y38625D01*
X118871Y38544D01*
X118871Y38456D01*
X118837Y38375D01*
X118775Y38313D01*
X118694Y38279D01*
X118606Y38279D01*
G37*
%LPD*%
%LPC*%
G36*
X16206Y16279D02*
X16206Y16279D01*
X16125Y16313D01*
X16063Y16375D01*
X16029Y16456D01*
X16029Y16544D01*
X16063Y16625D01*
X16125Y16687D01*
X16206Y16721D01*
X16294Y16721D01*
X16375Y16687D01*
X16437Y16625D01*
X16471Y16544D01*
X16471Y16456D01*
X16437Y16375D01*
X16375Y16313D01*
X16294Y16279D01*
X16206Y16279D01*
G37*
%LPD*%
%LPC*%
G36*
X91206Y38779D02*
X91206Y38779D01*
X91125Y38813D01*
X91063Y38875D01*
X91029Y38956D01*
X91029Y39044D01*
X91063Y39125D01*
X91125Y39187D01*
X91206Y39221D01*
X91294Y39221D01*
X91375Y39187D01*
X91437Y39125D01*
X91471Y39044D01*
X91471Y38956D01*
X91437Y38875D01*
X91375Y38813D01*
X91294Y38779D01*
X91206Y38779D01*
G37*
%LPD*%
%LPC*%
G36*
X100706Y38779D02*
X100706Y38779D01*
X100625Y38813D01*
X100563Y38875D01*
X100529Y38956D01*
X100529Y39044D01*
X100563Y39125D01*
X100625Y39187D01*
X100706Y39221D01*
X100794Y39221D01*
X100875Y39187D01*
X100937Y39125D01*
X100971Y39044D01*
X100971Y38956D01*
X100937Y38875D01*
X100875Y38813D01*
X100794Y38779D01*
X100706Y38779D01*
G37*
%LPD*%
%LPC*%
G36*
X3456Y16779D02*
X3456Y16779D01*
X3375Y16813D01*
X3313Y16875D01*
X3279Y16956D01*
X3279Y17044D01*
X3313Y17125D01*
X3375Y17187D01*
X3456Y17221D01*
X3544Y17221D01*
X3625Y17187D01*
X3687Y17125D01*
X3721Y17044D01*
X3721Y16956D01*
X3687Y16875D01*
X3625Y16813D01*
X3544Y16779D01*
X3456Y16779D01*
G37*
%LPD*%
%LPC*%
G36*
X15706Y35279D02*
X15706Y35279D01*
X15625Y35313D01*
X15563Y35375D01*
X15529Y35456D01*
X15529Y35544D01*
X15563Y35625D01*
X15625Y35687D01*
X15706Y35721D01*
X15794Y35721D01*
X15875Y35687D01*
X15937Y35625D01*
X15971Y35544D01*
X15971Y35456D01*
X15937Y35375D01*
X15875Y35313D01*
X15794Y35279D01*
X15706Y35279D01*
G37*
%LPD*%
%LPC*%
G36*
X111206Y38779D02*
X111206Y38779D01*
X111125Y38813D01*
X111063Y38875D01*
X111029Y38956D01*
X111029Y39044D01*
X111063Y39125D01*
X111125Y39187D01*
X111206Y39221D01*
X111294Y39221D01*
X111375Y39187D01*
X111437Y39125D01*
X111471Y39044D01*
X111471Y38956D01*
X111437Y38875D01*
X111375Y38813D01*
X111294Y38779D01*
X111206Y38779D01*
G37*
%LPD*%
%LPC*%
G36*
X3206Y52279D02*
X3206Y52279D01*
X3125Y52313D01*
X3063Y52375D01*
X3029Y52456D01*
X3029Y52544D01*
X3063Y52625D01*
X3125Y52687D01*
X3206Y52721D01*
X3294Y52721D01*
X3375Y52687D01*
X3437Y52625D01*
X3471Y52544D01*
X3471Y52456D01*
X3437Y52375D01*
X3375Y52313D01*
X3294Y52279D01*
X3206Y52279D01*
G37*
%LPD*%
%LPC*%
G36*
X15706Y25279D02*
X15706Y25279D01*
X15625Y25313D01*
X15563Y25375D01*
X15529Y25456D01*
X15529Y25544D01*
X15563Y25625D01*
X15625Y25687D01*
X15706Y25721D01*
X15794Y25721D01*
X15875Y25687D01*
X15937Y25625D01*
X15971Y25544D01*
X15971Y25456D01*
X15937Y25375D01*
X15875Y25313D01*
X15794Y25279D01*
X15706Y25279D01*
G37*
%LPD*%
%LPC*%
G36*
X3456Y35779D02*
X3456Y35779D01*
X3375Y35813D01*
X3313Y35875D01*
X3279Y35956D01*
X3279Y36044D01*
X3313Y36125D01*
X3375Y36187D01*
X3456Y36221D01*
X3544Y36221D01*
X3625Y36187D01*
X3687Y36125D01*
X3721Y36044D01*
X3721Y35956D01*
X3687Y35875D01*
X3625Y35813D01*
X3544Y35779D01*
X3456Y35779D01*
G37*
%LPD*%
%LPC*%
G36*
X3456Y25779D02*
X3456Y25779D01*
X3375Y25813D01*
X3313Y25875D01*
X3279Y25956D01*
X3279Y26044D01*
X3313Y26125D01*
X3375Y26187D01*
X3456Y26221D01*
X3544Y26221D01*
X3625Y26187D01*
X3687Y26125D01*
X3721Y26044D01*
X3721Y25956D01*
X3687Y25875D01*
X3625Y25813D01*
X3544Y25779D01*
X3456Y25779D01*
G37*
%LPD*%
%LPC*%
G36*
X97706Y51779D02*
X97706Y51779D01*
X97625Y51813D01*
X97563Y51875D01*
X97529Y51956D01*
X97529Y52044D01*
X97563Y52125D01*
X97625Y52187D01*
X97706Y52221D01*
X97794Y52221D01*
X97875Y52187D01*
X97937Y52125D01*
X97971Y52044D01*
X97971Y51956D01*
X97937Y51875D01*
X97875Y51813D01*
X97794Y51779D01*
X97706Y51779D01*
G37*
%LPD*%
%LPC*%
G36*
X50956Y29029D02*
X50956Y29029D01*
X50875Y29063D01*
X50813Y29125D01*
X50779Y29206D01*
X50779Y29294D01*
X50813Y29375D01*
X50875Y29437D01*
X50956Y29471D01*
X51044Y29471D01*
X51125Y29437D01*
X51187Y29375D01*
X51221Y29294D01*
X51221Y29206D01*
X51187Y29125D01*
X51125Y29063D01*
X51044Y29029D01*
X50956Y29029D01*
G37*
%LPD*%
%LPC*%
G36*
X15706Y51279D02*
X15706Y51279D01*
X15625Y51313D01*
X15563Y51375D01*
X15529Y51456D01*
X15529Y51544D01*
X15563Y51625D01*
X15625Y51687D01*
X15706Y51721D01*
X15794Y51721D01*
X15875Y51687D01*
X15937Y51625D01*
X15971Y51544D01*
X15971Y51456D01*
X15937Y51375D01*
X15875Y51313D01*
X15794Y51279D01*
X15706Y51279D01*
G37*
%LPD*%
%LPC*%
G36*
X24306Y2279D02*
X24306Y2279D01*
X24225Y2313D01*
X24163Y2375D01*
X24129Y2456D01*
X24129Y2544D01*
X24163Y2625D01*
X24225Y2687D01*
X24306Y2721D01*
X24394Y2721D01*
X24475Y2687D01*
X24537Y2625D01*
X24571Y2544D01*
X24571Y2456D01*
X24537Y2375D01*
X24475Y2313D01*
X24394Y2279D01*
X24306Y2279D01*
G37*
%LPD*%
%LPC*%
G36*
X15706Y2279D02*
X15706Y2279D01*
X15625Y2313D01*
X15563Y2375D01*
X15529Y2456D01*
X15529Y2544D01*
X15563Y2625D01*
X15625Y2687D01*
X15706Y2721D01*
X15794Y2721D01*
X15875Y2687D01*
X15937Y2625D01*
X15971Y2544D01*
X15971Y2456D01*
X15937Y2375D01*
X15875Y2313D01*
X15794Y2279D01*
X15706Y2279D01*
G37*
%LPD*%
%LPC*%
G36*
X25347Y8510D02*
X25347Y8510D01*
X25274Y8533D01*
X25206Y8568D01*
X25144Y8613D01*
X25089Y8667D01*
X25044Y8729D01*
X25010Y8797D01*
X24986Y8870D01*
X24984Y8885D01*
X25361Y8885D01*
X25361Y8507D01*
X25347Y8510D01*
G37*
%LPD*%
%LPC*%
G36*
X16347Y8510D02*
X16347Y8510D01*
X16274Y8533D01*
X16206Y8568D01*
X16144Y8613D01*
X16089Y8667D01*
X16044Y8729D01*
X16010Y8797D01*
X15986Y8870D01*
X15984Y8885D01*
X16361Y8885D01*
X16361Y8507D01*
X16347Y8510D01*
G37*
%LPD*%
%LPC*%
G36*
X77347Y51510D02*
X77347Y51510D01*
X77274Y51533D01*
X77206Y51568D01*
X77144Y51613D01*
X77089Y51667D01*
X77044Y51729D01*
X77010Y51797D01*
X76986Y51870D01*
X76984Y51885D01*
X77361Y51885D01*
X77361Y51507D01*
X77347Y51510D01*
G37*
%LPD*%
%LPC*%
G36*
X7347Y8510D02*
X7347Y8510D01*
X7274Y8533D01*
X7206Y8568D01*
X7144Y8613D01*
X7089Y8667D01*
X7044Y8729D01*
X7010Y8797D01*
X6986Y8870D01*
X6984Y8885D01*
X7361Y8885D01*
X7361Y8507D01*
X7347Y8510D01*
G37*
%LPD*%
%LPC*%
G36*
X24984Y9084D02*
X24984Y9084D01*
X24986Y9098D01*
X25010Y9171D01*
X25044Y9239D01*
X25089Y9301D01*
X25144Y9355D01*
X25206Y9400D01*
X25274Y9435D01*
X25347Y9459D01*
X25361Y9461D01*
X25361Y9084D01*
X24984Y9084D01*
G37*
%LPD*%
%LPC*%
G36*
X6984Y9084D02*
X6984Y9084D01*
X6986Y9098D01*
X7010Y9171D01*
X7044Y9239D01*
X7089Y9301D01*
X7144Y9355D01*
X7206Y9400D01*
X7274Y9435D01*
X7347Y9459D01*
X7361Y9461D01*
X7361Y9084D01*
X6984Y9084D01*
G37*
%LPD*%
%LPC*%
G36*
X77560Y51885D02*
X77560Y51885D01*
X77938Y51885D01*
X77935Y51870D01*
X77912Y51797D01*
X77877Y51729D01*
X77832Y51667D01*
X77778Y51613D01*
X77716Y51568D01*
X77647Y51533D01*
X77575Y51510D01*
X77560Y51507D01*
X77560Y51885D01*
G37*
%LPD*%
%LPC*%
G36*
X7560Y8885D02*
X7560Y8885D01*
X7938Y8885D01*
X7935Y8870D01*
X7912Y8797D01*
X7877Y8729D01*
X7832Y8667D01*
X7778Y8613D01*
X7716Y8568D01*
X7647Y8533D01*
X7575Y8510D01*
X7560Y8507D01*
X7560Y8885D01*
G37*
%LPD*%
%LPC*%
G36*
X76984Y52084D02*
X76984Y52084D01*
X76986Y52098D01*
X77010Y52171D01*
X77044Y52239D01*
X77089Y52301D01*
X77144Y52355D01*
X77206Y52400D01*
X77274Y52435D01*
X77347Y52459D01*
X77361Y52461D01*
X77361Y52084D01*
X76984Y52084D01*
G37*
%LPD*%
%LPC*%
G36*
X25560Y8885D02*
X25560Y8885D01*
X25938Y8885D01*
X25935Y8870D01*
X25912Y8797D01*
X25877Y8729D01*
X25832Y8667D01*
X25778Y8613D01*
X25716Y8568D01*
X25647Y8533D01*
X25575Y8510D01*
X25560Y8507D01*
X25560Y8885D01*
G37*
%LPD*%
%LPC*%
G36*
X16560Y8885D02*
X16560Y8885D01*
X16938Y8885D01*
X16935Y8870D01*
X16912Y8797D01*
X16877Y8729D01*
X16832Y8667D01*
X16778Y8613D01*
X16716Y8568D01*
X16647Y8533D01*
X16575Y8510D01*
X16560Y8507D01*
X16560Y8885D01*
G37*
%LPD*%
%LPC*%
G36*
X15984Y9084D02*
X15984Y9084D01*
X15986Y9098D01*
X16010Y9171D01*
X16044Y9239D01*
X16089Y9301D01*
X16144Y9355D01*
X16206Y9400D01*
X16274Y9435D01*
X16347Y9459D01*
X16361Y9461D01*
X16361Y9084D01*
X15984Y9084D01*
G37*
%LPD*%
%LPC*%
G36*
X77560Y52084D02*
X77560Y52084D01*
X77560Y52461D01*
X77575Y52459D01*
X77647Y52435D01*
X77716Y52400D01*
X77778Y52355D01*
X77832Y52301D01*
X77877Y52239D01*
X77912Y52171D01*
X77935Y52098D01*
X77938Y52084D01*
X77560Y52084D01*
G37*
%LPD*%
%LPC*%
G36*
X7560Y9084D02*
X7560Y9084D01*
X7560Y9461D01*
X7575Y9459D01*
X7647Y9435D01*
X7716Y9400D01*
X7778Y9355D01*
X7832Y9301D01*
X7877Y9239D01*
X7912Y9171D01*
X7935Y9098D01*
X7938Y9084D01*
X7560Y9084D01*
G37*
%LPD*%
%LPC*%
G36*
X16560Y9084D02*
X16560Y9084D01*
X16560Y9461D01*
X16575Y9459D01*
X16647Y9435D01*
X16716Y9400D01*
X16778Y9355D01*
X16832Y9301D01*
X16877Y9239D01*
X16912Y9171D01*
X16935Y9098D01*
X16938Y9084D01*
X16560Y9084D01*
G37*
%LPD*%
%LPC*%
G36*
X25560Y9084D02*
X25560Y9084D01*
X25560Y9461D01*
X25575Y9459D01*
X25647Y9435D01*
X25716Y9400D01*
X25778Y9355D01*
X25832Y9301D01*
X25877Y9239D01*
X25912Y9171D01*
X25935Y9098D01*
X25938Y9084D01*
X25560Y9084D01*
G37*
%LPD*%
%LPC*%
G36*
X53856Y39151D02*
X53856Y39151D01*
X53803Y39178D01*
X53755Y39213D01*
X53713Y39255D01*
X53678Y39303D01*
X53651Y39356D01*
X53636Y39402D01*
X53902Y39402D01*
X53902Y39136D01*
X53856Y39151D01*
G37*
%LPD*%
%LPC*%
G36*
X54098Y39402D02*
X54098Y39402D01*
X54364Y39402D01*
X54349Y39356D01*
X54322Y39303D01*
X54287Y39255D01*
X54245Y39213D01*
X54197Y39178D01*
X54144Y39151D01*
X54098Y39136D01*
X54098Y39402D01*
G37*
%LPD*%
%LPC*%
G36*
X39098Y39598D02*
X39098Y39598D01*
X39098Y39864D01*
X39144Y39849D01*
X39197Y39822D01*
X39245Y39787D01*
X39287Y39745D01*
X39322Y39697D01*
X39349Y39644D01*
X39364Y39598D01*
X39098Y39598D01*
G37*
%LPD*%
%LPC*%
G36*
X38636Y39598D02*
X38636Y39598D01*
X38651Y39644D01*
X38678Y39697D01*
X38713Y39745D01*
X38755Y39787D01*
X38803Y39822D01*
X38856Y39849D01*
X38902Y39864D01*
X38902Y39598D01*
X38636Y39598D01*
G37*
%LPD*%
%LPC*%
G36*
X30082Y31598D02*
X30082Y31598D01*
X30082Y31864D01*
X30129Y31849D01*
X30181Y31822D01*
X30229Y31787D01*
X30271Y31745D01*
X30306Y31697D01*
X30333Y31644D01*
X30348Y31598D01*
X30082Y31598D01*
G37*
%LPD*%
%LPC*%
G36*
X54098Y39598D02*
X54098Y39598D01*
X54098Y39864D01*
X54144Y39849D01*
X54197Y39822D01*
X54245Y39787D01*
X54287Y39745D01*
X54322Y39697D01*
X54349Y39644D01*
X54364Y39598D01*
X54098Y39598D01*
G37*
%LPD*%
%LPC*%
G36*
X53636Y39598D02*
X53636Y39598D01*
X53651Y39644D01*
X53678Y39697D01*
X53713Y39745D01*
X53755Y39787D01*
X53803Y39822D01*
X53856Y39849D01*
X53902Y39864D01*
X53902Y39598D01*
X53636Y39598D01*
G37*
%LPD*%
%LPC*%
G36*
X38856Y39151D02*
X38856Y39151D01*
X38803Y39178D01*
X38755Y39213D01*
X38713Y39255D01*
X38678Y39303D01*
X38651Y39356D01*
X38636Y39402D01*
X38902Y39402D01*
X38902Y39136D01*
X38856Y39151D01*
G37*
%LPD*%
%LPC*%
G36*
X39098Y39402D02*
X39098Y39402D01*
X39364Y39402D01*
X39349Y39356D01*
X39322Y39303D01*
X39287Y39255D01*
X39245Y39213D01*
X39197Y39178D01*
X39144Y39151D01*
X39098Y39136D01*
X39098Y39402D01*
G37*
%LPD*%
%LPC*%
G36*
X29840Y31151D02*
X29840Y31151D01*
X29787Y31178D01*
X29739Y31213D01*
X29697Y31255D01*
X29662Y31303D01*
X29635Y31356D01*
X29620Y31402D01*
X29887Y31402D01*
X29887Y31136D01*
X29840Y31151D01*
G37*
%LPD*%
%LPC*%
G36*
X30082Y31402D02*
X30082Y31402D01*
X30348Y31402D01*
X30333Y31356D01*
X30306Y31303D01*
X30271Y31255D01*
X30229Y31213D01*
X30181Y31178D01*
X30129Y31151D01*
X30082Y31136D01*
X30082Y31402D01*
G37*
%LPD*%
%LPC*%
G36*
X29620Y31598D02*
X29620Y31598D01*
X29635Y31644D01*
X29662Y31697D01*
X29697Y31745D01*
X29739Y31787D01*
X29787Y31822D01*
X29840Y31849D01*
X29887Y31864D01*
X29887Y31598D01*
X29620Y31598D01*
G37*
%LPD*%
%LPC*%
G36*
X52010Y32303D02*
X52010Y32303D01*
X52258Y32303D01*
X52256Y32289D01*
X52230Y32226D01*
X52192Y32169D01*
X52144Y32121D01*
X52087Y32083D01*
X52024Y32057D01*
X52010Y32054D01*
X52010Y32303D01*
G37*
%LPD*%
%LPC*%
G36*
X54822Y32057D02*
X54822Y32057D01*
X54759Y32083D01*
X54703Y32121D01*
X54655Y32169D01*
X54617Y32226D01*
X54591Y32289D01*
X54588Y32303D01*
X54836Y32303D01*
X54836Y32054D01*
X54822Y32057D01*
G37*
%LPD*%
%LPC*%
G36*
X55010Y32303D02*
X55010Y32303D01*
X55258Y32303D01*
X55256Y32289D01*
X55230Y32226D01*
X55192Y32169D01*
X55144Y32121D01*
X55087Y32083D01*
X55024Y32057D01*
X55010Y32054D01*
X55010Y32303D01*
G37*
%LPD*%
%LPC*%
G36*
X52010Y32477D02*
X52010Y32477D01*
X52010Y32725D01*
X52024Y32722D01*
X52087Y32696D01*
X52144Y32658D01*
X52192Y32610D01*
X52230Y32554D01*
X52256Y32491D01*
X52258Y32477D01*
X52010Y32477D01*
G37*
%LPD*%
%LPC*%
G36*
X51588Y32477D02*
X51588Y32477D01*
X51591Y32491D01*
X51617Y32554D01*
X51655Y32610D01*
X51703Y32658D01*
X51759Y32696D01*
X51822Y32722D01*
X51836Y32725D01*
X51836Y32477D01*
X51588Y32477D01*
G37*
%LPD*%
%LPC*%
G36*
X55010Y32477D02*
X55010Y32477D01*
X55010Y32725D01*
X55024Y32722D01*
X55087Y32696D01*
X55144Y32658D01*
X55192Y32610D01*
X55230Y32554D01*
X55256Y32491D01*
X55258Y32477D01*
X55010Y32477D01*
G37*
%LPD*%
%LPC*%
G36*
X54588Y32477D02*
X54588Y32477D01*
X54591Y32491D01*
X54617Y32554D01*
X54655Y32610D01*
X54703Y32658D01*
X54759Y32696D01*
X54822Y32722D01*
X54836Y32725D01*
X54836Y32477D01*
X54588Y32477D01*
G37*
%LPD*%
%LPC*%
G36*
X51588Y23477D02*
X51588Y23477D01*
X51591Y23491D01*
X51617Y23554D01*
X51655Y23610D01*
X51703Y23658D01*
X51759Y23696D01*
X51822Y23722D01*
X51836Y23725D01*
X51836Y23477D01*
X51588Y23477D01*
G37*
%LPD*%
%LPC*%
G36*
X52010Y23477D02*
X52010Y23477D01*
X52010Y23725D01*
X52024Y23722D01*
X52087Y23696D01*
X52144Y23658D01*
X52192Y23610D01*
X52230Y23554D01*
X52256Y23491D01*
X52258Y23477D01*
X52010Y23477D01*
G37*
%LPD*%
%LPC*%
G36*
X54588Y23477D02*
X54588Y23477D01*
X54591Y23491D01*
X54617Y23554D01*
X54655Y23610D01*
X54703Y23658D01*
X54759Y23696D01*
X54822Y23722D01*
X54836Y23725D01*
X54836Y23477D01*
X54588Y23477D01*
G37*
%LPD*%
%LPC*%
G36*
X55010Y23477D02*
X55010Y23477D01*
X55010Y23725D01*
X55024Y23722D01*
X55087Y23696D01*
X55144Y23658D01*
X55192Y23610D01*
X55230Y23554D01*
X55256Y23491D01*
X55258Y23477D01*
X55010Y23477D01*
G37*
%LPD*%
%LPC*%
G36*
X55010Y23303D02*
X55010Y23303D01*
X55258Y23303D01*
X55256Y23289D01*
X55230Y23226D01*
X55192Y23169D01*
X55144Y23121D01*
X55087Y23083D01*
X55024Y23057D01*
X55010Y23054D01*
X55010Y23303D01*
G37*
%LPD*%
%LPC*%
G36*
X54822Y23057D02*
X54822Y23057D01*
X54759Y23083D01*
X54703Y23121D01*
X54655Y23169D01*
X54617Y23226D01*
X54591Y23289D01*
X54588Y23303D01*
X54836Y23303D01*
X54836Y23054D01*
X54822Y23057D01*
G37*
%LPD*%
%LPC*%
G36*
X52010Y23303D02*
X52010Y23303D01*
X52258Y23303D01*
X52256Y23289D01*
X52230Y23226D01*
X52192Y23169D01*
X52144Y23121D01*
X52087Y23083D01*
X52024Y23057D01*
X52010Y23054D01*
X52010Y23303D01*
G37*
%LPD*%
%LPC*%
G36*
X51822Y23057D02*
X51822Y23057D01*
X51759Y23083D01*
X51703Y23121D01*
X51655Y23169D01*
X51617Y23226D01*
X51591Y23289D01*
X51588Y23303D01*
X51836Y23303D01*
X51836Y23054D01*
X51822Y23057D01*
G37*
%LPD*%
%LPC*%
G36*
X51822Y32057D02*
X51822Y32057D01*
X51759Y32083D01*
X51703Y32121D01*
X51655Y32169D01*
X51617Y32226D01*
X51591Y32289D01*
X51588Y32303D01*
X51836Y32303D01*
X51836Y32054D01*
X51822Y32057D01*
G37*
%LPD*%
%LPC*%
G36*
X101579Y14421D02*
X101579Y14421D01*
X101815Y14421D01*
X101812Y14405D01*
X101788Y14346D01*
X101752Y14293D01*
X101707Y14248D01*
X101654Y14212D01*
X101595Y14188D01*
X101579Y14185D01*
X101579Y14421D01*
G37*
%LPD*%
%LPC*%
G36*
X101405Y14188D02*
X101405Y14188D01*
X101346Y14212D01*
X101293Y14248D01*
X101248Y14293D01*
X101212Y14346D01*
X101188Y14405D01*
X101185Y14421D01*
X101421Y14421D01*
X101421Y14185D01*
X101405Y14188D01*
G37*
%LPD*%
%LPC*%
G36*
X7079Y39921D02*
X7079Y39921D01*
X7315Y39921D01*
X7312Y39905D01*
X7288Y39846D01*
X7252Y39793D01*
X7207Y39748D01*
X7154Y39712D01*
X7095Y39688D01*
X7079Y39685D01*
X7079Y39921D01*
G37*
%LPD*%
%LPC*%
G36*
X18905Y39688D02*
X18905Y39688D01*
X18846Y39712D01*
X18793Y39748D01*
X18748Y39793D01*
X18712Y39846D01*
X18688Y39905D01*
X18685Y39921D01*
X18921Y39921D01*
X18921Y39685D01*
X18905Y39688D01*
G37*
%LPD*%
%LPC*%
G36*
X19079Y39921D02*
X19079Y39921D01*
X19315Y39921D01*
X19312Y39905D01*
X19288Y39846D01*
X19252Y39793D01*
X19207Y39748D01*
X19154Y39712D01*
X19095Y39688D01*
X19079Y39685D01*
X19079Y39921D01*
G37*
%LPD*%
%LPC*%
G36*
X101185Y16579D02*
X101185Y16579D01*
X101188Y16595D01*
X101212Y16654D01*
X101248Y16707D01*
X101293Y16752D01*
X101346Y16788D01*
X101405Y16812D01*
X101421Y16815D01*
X101421Y16579D01*
X101185Y16579D01*
G37*
%LPD*%
%LPC*%
G36*
X101579Y16579D02*
X101579Y16579D01*
X101579Y16815D01*
X101595Y16812D01*
X101654Y16788D01*
X101707Y16752D01*
X101752Y16707D01*
X101788Y16654D01*
X101812Y16595D01*
X101815Y16579D01*
X101579Y16579D01*
G37*
%LPD*%
%LPC*%
G36*
X19079Y40079D02*
X19079Y40079D01*
X19079Y40315D01*
X19095Y40312D01*
X19154Y40288D01*
X19207Y40252D01*
X19252Y40207D01*
X19288Y40154D01*
X19312Y40095D01*
X19315Y40079D01*
X19079Y40079D01*
G37*
%LPD*%
%LPC*%
G36*
X18685Y40079D02*
X18685Y40079D01*
X18688Y40095D01*
X18712Y40154D01*
X18748Y40207D01*
X18793Y40252D01*
X18846Y40288D01*
X18905Y40312D01*
X18921Y40315D01*
X18921Y40079D01*
X18685Y40079D01*
G37*
%LPD*%
%LPC*%
G36*
X101579Y16421D02*
X101579Y16421D01*
X101815Y16421D01*
X101812Y16405D01*
X101788Y16346D01*
X101752Y16293D01*
X101707Y16248D01*
X101654Y16212D01*
X101595Y16188D01*
X101579Y16185D01*
X101579Y16421D01*
G37*
%LPD*%
%LPC*%
G36*
X101405Y16188D02*
X101405Y16188D01*
X101346Y16212D01*
X101293Y16248D01*
X101248Y16293D01*
X101212Y16346D01*
X101188Y16405D01*
X101185Y16421D01*
X101421Y16421D01*
X101421Y16185D01*
X101405Y16188D01*
G37*
%LPD*%
%LPC*%
G36*
X7079Y40079D02*
X7079Y40079D01*
X7079Y40315D01*
X7095Y40312D01*
X7154Y40288D01*
X7207Y40252D01*
X7252Y40207D01*
X7288Y40154D01*
X7312Y40095D01*
X7315Y40079D01*
X7079Y40079D01*
G37*
%LPD*%
%LPC*%
G36*
X6685Y40079D02*
X6685Y40079D01*
X6688Y40095D01*
X6712Y40154D01*
X6748Y40207D01*
X6793Y40252D01*
X6846Y40288D01*
X6905Y40312D01*
X6921Y40315D01*
X6921Y40079D01*
X6685Y40079D01*
G37*
%LPD*%
%LPC*%
G36*
X98905Y41688D02*
X98905Y41688D01*
X98846Y41712D01*
X98793Y41748D01*
X98748Y41793D01*
X98712Y41846D01*
X98688Y41905D01*
X98685Y41921D01*
X98921Y41921D01*
X98921Y41685D01*
X98905Y41688D01*
G37*
%LPD*%
%LPC*%
G36*
X101579Y15579D02*
X101579Y15579D01*
X101579Y15815D01*
X101595Y15812D01*
X101654Y15788D01*
X101707Y15752D01*
X101752Y15707D01*
X101788Y15654D01*
X101812Y15595D01*
X101815Y15579D01*
X101579Y15579D01*
G37*
%LPD*%
%LPC*%
G36*
X101185Y15579D02*
X101185Y15579D01*
X101188Y15595D01*
X101212Y15654D01*
X101248Y15707D01*
X101293Y15752D01*
X101346Y15788D01*
X101405Y15812D01*
X101421Y15815D01*
X101421Y15579D01*
X101185Y15579D01*
G37*
%LPD*%
%LPC*%
G36*
X99079Y41921D02*
X99079Y41921D01*
X99315Y41921D01*
X99312Y41905D01*
X99288Y41846D01*
X99252Y41793D01*
X99207Y41748D01*
X99154Y41712D01*
X99095Y41688D01*
X99079Y41685D01*
X99079Y41921D01*
G37*
%LPD*%
%LPC*%
G36*
X108905Y41688D02*
X108905Y41688D01*
X108846Y41712D01*
X108793Y41748D01*
X108748Y41793D01*
X108712Y41846D01*
X108688Y41905D01*
X108685Y41921D01*
X108921Y41921D01*
X108921Y41685D01*
X108905Y41688D01*
G37*
%LPD*%
%LPC*%
G36*
X109079Y41921D02*
X109079Y41921D01*
X109315Y41921D01*
X109312Y41905D01*
X109288Y41846D01*
X109252Y41793D01*
X109207Y41748D01*
X109154Y41712D01*
X109095Y41688D01*
X109079Y41685D01*
X109079Y41921D01*
G37*
%LPD*%
%LPC*%
G36*
X101185Y26579D02*
X101185Y26579D01*
X101188Y26595D01*
X101212Y26654D01*
X101248Y26707D01*
X101293Y26752D01*
X101346Y26788D01*
X101405Y26812D01*
X101421Y26815D01*
X101421Y26579D01*
X101185Y26579D01*
G37*
%LPD*%
%LPC*%
G36*
X118305Y41688D02*
X118305Y41688D01*
X118246Y41712D01*
X118193Y41748D01*
X118148Y41793D01*
X118112Y41846D01*
X118088Y41905D01*
X118085Y41921D01*
X118321Y41921D01*
X118321Y41685D01*
X118305Y41688D01*
G37*
%LPD*%
%LPC*%
G36*
X101579Y15421D02*
X101579Y15421D01*
X101815Y15421D01*
X101812Y15405D01*
X101788Y15346D01*
X101752Y15293D01*
X101707Y15248D01*
X101654Y15212D01*
X101595Y15188D01*
X101579Y15185D01*
X101579Y15421D01*
G37*
%LPD*%
%LPC*%
G36*
X101405Y15188D02*
X101405Y15188D01*
X101346Y15212D01*
X101293Y15248D01*
X101248Y15293D01*
X101212Y15346D01*
X101188Y15405D01*
X101185Y15421D01*
X101421Y15421D01*
X101421Y15185D01*
X101405Y15188D01*
G37*
%LPD*%
%LPC*%
G36*
X118479Y41921D02*
X118479Y41921D01*
X118715Y41921D01*
X118712Y41905D01*
X118688Y41846D01*
X118652Y41793D01*
X118607Y41748D01*
X118554Y41712D01*
X118495Y41688D01*
X118479Y41685D01*
X118479Y41921D01*
G37*
%LPD*%
%LPC*%
G36*
X88905Y41688D02*
X88905Y41688D01*
X88846Y41712D01*
X88793Y41748D01*
X88748Y41793D01*
X88712Y41846D01*
X88688Y41905D01*
X88685Y41921D01*
X88921Y41921D01*
X88921Y41685D01*
X88905Y41688D01*
G37*
%LPD*%
%LPC*%
G36*
X89079Y41921D02*
X89079Y41921D01*
X89315Y41921D01*
X89312Y41905D01*
X89288Y41846D01*
X89252Y41793D01*
X89207Y41748D01*
X89154Y41712D01*
X89095Y41688D01*
X89079Y41685D01*
X89079Y41921D01*
G37*
%LPD*%
%LPC*%
G36*
X101405Y28188D02*
X101405Y28188D01*
X101346Y28212D01*
X101293Y28248D01*
X101248Y28293D01*
X101212Y28346D01*
X101188Y28405D01*
X101185Y28421D01*
X101421Y28421D01*
X101421Y28185D01*
X101405Y28188D01*
G37*
%LPD*%
%LPC*%
G36*
X101579Y28421D02*
X101579Y28421D01*
X101815Y28421D01*
X101812Y28405D01*
X101788Y28346D01*
X101752Y28293D01*
X101707Y28248D01*
X101654Y28212D01*
X101595Y28188D01*
X101579Y28185D01*
X101579Y28421D01*
G37*
%LPD*%
%LPC*%
G36*
X118085Y42079D02*
X118085Y42079D01*
X118088Y42095D01*
X118112Y42154D01*
X118148Y42207D01*
X118193Y42252D01*
X118246Y42288D01*
X118305Y42312D01*
X118321Y42315D01*
X118321Y42079D01*
X118085Y42079D01*
G37*
%LPD*%
%LPC*%
G36*
X108685Y42079D02*
X108685Y42079D01*
X108688Y42095D01*
X108712Y42154D01*
X108748Y42207D01*
X108793Y42252D01*
X108846Y42288D01*
X108905Y42312D01*
X108921Y42315D01*
X108921Y42079D01*
X108685Y42079D01*
G37*
%LPD*%
%LPC*%
G36*
X101579Y14579D02*
X101579Y14579D01*
X101579Y14815D01*
X101595Y14812D01*
X101654Y14788D01*
X101707Y14752D01*
X101752Y14707D01*
X101788Y14654D01*
X101812Y14595D01*
X101815Y14579D01*
X101579Y14579D01*
G37*
%LPD*%
%LPC*%
G36*
X101185Y14579D02*
X101185Y14579D01*
X101188Y14595D01*
X101212Y14654D01*
X101248Y14707D01*
X101293Y14752D01*
X101346Y14788D01*
X101405Y14812D01*
X101421Y14815D01*
X101421Y14579D01*
X101185Y14579D01*
G37*
%LPD*%
%LPC*%
G36*
X98685Y42079D02*
X98685Y42079D01*
X98688Y42095D01*
X98712Y42154D01*
X98748Y42207D01*
X98793Y42252D01*
X98846Y42288D01*
X98905Y42312D01*
X98921Y42315D01*
X98921Y42079D01*
X98685Y42079D01*
G37*
%LPD*%
%LPC*%
G36*
X88685Y42079D02*
X88685Y42079D01*
X88688Y42095D01*
X88712Y42154D01*
X88748Y42207D01*
X88793Y42252D01*
X88846Y42288D01*
X88905Y42312D01*
X88921Y42315D01*
X88921Y42079D01*
X88685Y42079D01*
G37*
%LPD*%
%LPC*%
G36*
X99079Y42079D02*
X99079Y42079D01*
X99079Y42315D01*
X99095Y42312D01*
X99154Y42288D01*
X99207Y42252D01*
X99252Y42207D01*
X99288Y42154D01*
X99312Y42095D01*
X99315Y42079D01*
X99079Y42079D01*
G37*
%LPD*%
%LPC*%
G36*
X89079Y42079D02*
X89079Y42079D01*
X89079Y42315D01*
X89095Y42312D01*
X89154Y42288D01*
X89207Y42252D01*
X89252Y42207D01*
X89288Y42154D01*
X89312Y42095D01*
X89315Y42079D01*
X89079Y42079D01*
G37*
%LPD*%
%LPC*%
G36*
X101185Y13579D02*
X101185Y13579D01*
X101188Y13595D01*
X101212Y13654D01*
X101248Y13707D01*
X101293Y13752D01*
X101346Y13788D01*
X101405Y13812D01*
X101421Y13815D01*
X101421Y13579D01*
X101185Y13579D01*
G37*
%LPD*%
%LPC*%
G36*
X101579Y13579D02*
X101579Y13579D01*
X101579Y13815D01*
X101595Y13812D01*
X101654Y13788D01*
X101707Y13752D01*
X101752Y13707D01*
X101788Y13654D01*
X101812Y13595D01*
X101815Y13579D01*
X101579Y13579D01*
G37*
%LPD*%
%LPC*%
G36*
X109079Y42079D02*
X109079Y42079D01*
X109079Y42315D01*
X109095Y42312D01*
X109154Y42288D01*
X109207Y42252D01*
X109252Y42207D01*
X109288Y42154D01*
X109312Y42095D01*
X109315Y42079D01*
X109079Y42079D01*
G37*
%LPD*%
%LPC*%
G36*
X101579Y13421D02*
X101579Y13421D01*
X101815Y13421D01*
X101812Y13405D01*
X101788Y13346D01*
X101752Y13293D01*
X101707Y13248D01*
X101654Y13212D01*
X101595Y13188D01*
X101579Y13185D01*
X101579Y13421D01*
G37*
%LPD*%
%LPC*%
G36*
X101405Y13188D02*
X101405Y13188D01*
X101346Y13212D01*
X101293Y13248D01*
X101248Y13293D01*
X101212Y13346D01*
X101188Y13405D01*
X101185Y13421D01*
X101421Y13421D01*
X101421Y13185D01*
X101405Y13188D01*
G37*
%LPD*%
%LPC*%
G36*
X6905Y47688D02*
X6905Y47688D01*
X6846Y47712D01*
X6793Y47748D01*
X6748Y47793D01*
X6712Y47846D01*
X6688Y47905D01*
X6685Y47921D01*
X6921Y47921D01*
X6921Y47685D01*
X6905Y47688D01*
G37*
%LPD*%
%LPC*%
G36*
X7079Y47921D02*
X7079Y47921D01*
X7315Y47921D01*
X7312Y47905D01*
X7288Y47846D01*
X7252Y47793D01*
X7207Y47748D01*
X7154Y47712D01*
X7095Y47688D01*
X7079Y47685D01*
X7079Y47921D01*
G37*
%LPD*%
%LPC*%
G36*
X18905Y47688D02*
X18905Y47688D01*
X18846Y47712D01*
X18793Y47748D01*
X18748Y47793D01*
X18712Y47846D01*
X18688Y47905D01*
X18685Y47921D01*
X18921Y47921D01*
X18921Y47685D01*
X18905Y47688D01*
G37*
%LPD*%
%LPC*%
G36*
X19079Y47921D02*
X19079Y47921D01*
X19315Y47921D01*
X19312Y47905D01*
X19288Y47846D01*
X19252Y47793D01*
X19207Y47748D01*
X19154Y47712D01*
X19095Y47688D01*
X19079Y47685D01*
X19079Y47921D01*
G37*
%LPD*%
%LPC*%
G36*
X18685Y48079D02*
X18685Y48079D01*
X18688Y48095D01*
X18712Y48154D01*
X18748Y48207D01*
X18793Y48252D01*
X18846Y48288D01*
X18905Y48312D01*
X18921Y48315D01*
X18921Y48079D01*
X18685Y48079D01*
G37*
%LPD*%
%LPC*%
G36*
X101579Y12579D02*
X101579Y12579D01*
X101579Y12815D01*
X101595Y12812D01*
X101654Y12788D01*
X101707Y12752D01*
X101752Y12707D01*
X101788Y12654D01*
X101812Y12595D01*
X101815Y12579D01*
X101579Y12579D01*
G37*
%LPD*%
%LPC*%
G36*
X101185Y12579D02*
X101185Y12579D01*
X101188Y12595D01*
X101212Y12654D01*
X101248Y12707D01*
X101293Y12752D01*
X101346Y12788D01*
X101405Y12812D01*
X101421Y12815D01*
X101421Y12579D01*
X101185Y12579D01*
G37*
%LPD*%
%LPC*%
G36*
X101579Y12421D02*
X101579Y12421D01*
X101815Y12421D01*
X101812Y12405D01*
X101788Y12346D01*
X101752Y12293D01*
X101707Y12248D01*
X101654Y12212D01*
X101595Y12188D01*
X101579Y12185D01*
X101579Y12421D01*
G37*
%LPD*%
%LPC*%
G36*
X101405Y12188D02*
X101405Y12188D01*
X101346Y12212D01*
X101293Y12248D01*
X101248Y12293D01*
X101212Y12346D01*
X101188Y12405D01*
X101185Y12421D01*
X101421Y12421D01*
X101421Y12185D01*
X101405Y12188D01*
G37*
%LPD*%
%LPC*%
G36*
X6685Y48079D02*
X6685Y48079D01*
X6688Y48095D01*
X6712Y48154D01*
X6748Y48207D01*
X6793Y48252D01*
X6846Y48288D01*
X6905Y48312D01*
X6921Y48315D01*
X6921Y48079D01*
X6685Y48079D01*
G37*
%LPD*%
%LPC*%
G36*
X7079Y48079D02*
X7079Y48079D01*
X7079Y48315D01*
X7095Y48312D01*
X7154Y48288D01*
X7207Y48252D01*
X7252Y48207D01*
X7288Y48154D01*
X7312Y48095D01*
X7315Y48079D01*
X7079Y48079D01*
G37*
%LPD*%
%LPC*%
G36*
X19079Y48079D02*
X19079Y48079D01*
X19079Y48315D01*
X19095Y48312D01*
X19154Y48288D01*
X19207Y48252D01*
X19252Y48207D01*
X19288Y48154D01*
X19312Y48095D01*
X19315Y48079D01*
X19079Y48079D01*
G37*
%LPD*%
%LPC*%
G36*
X93905Y51688D02*
X93905Y51688D01*
X93846Y51712D01*
X93793Y51748D01*
X93748Y51793D01*
X93712Y51846D01*
X93688Y51905D01*
X93685Y51921D01*
X93921Y51921D01*
X93921Y51685D01*
X93905Y51688D01*
G37*
%LPD*%
%LPC*%
G36*
X94079Y51921D02*
X94079Y51921D01*
X94315Y51921D01*
X94312Y51905D01*
X94288Y51846D01*
X94252Y51793D01*
X94207Y51748D01*
X94154Y51712D01*
X94095Y51688D01*
X94079Y51685D01*
X94079Y51921D01*
G37*
%LPD*%
%LPC*%
G36*
X101579Y11579D02*
X101579Y11579D01*
X101579Y11815D01*
X101595Y11812D01*
X101654Y11788D01*
X101707Y11752D01*
X101752Y11707D01*
X101788Y11654D01*
X101812Y11595D01*
X101815Y11579D01*
X101579Y11579D01*
G37*
%LPD*%
%LPC*%
G36*
X101185Y11579D02*
X101185Y11579D01*
X101188Y11595D01*
X101212Y11654D01*
X101248Y11707D01*
X101293Y11752D01*
X101346Y11788D01*
X101405Y11812D01*
X101421Y11815D01*
X101421Y11579D01*
X101185Y11579D01*
G37*
%LPD*%
%LPC*%
G36*
X101579Y11421D02*
X101579Y11421D01*
X101815Y11421D01*
X101812Y11405D01*
X101788Y11346D01*
X101752Y11293D01*
X101707Y11248D01*
X101654Y11212D01*
X101595Y11188D01*
X101579Y11185D01*
X101579Y11421D01*
G37*
%LPD*%
%LPC*%
G36*
X101405Y11188D02*
X101405Y11188D01*
X101346Y11212D01*
X101293Y11248D01*
X101248Y11293D01*
X101212Y11346D01*
X101188Y11405D01*
X101185Y11421D01*
X101421Y11421D01*
X101421Y11185D01*
X101405Y11188D01*
G37*
%LPD*%
%LPC*%
G36*
X94079Y52079D02*
X94079Y52079D01*
X94079Y52315D01*
X94095Y52312D01*
X94154Y52288D01*
X94207Y52252D01*
X94252Y52207D01*
X94288Y52154D01*
X94312Y52095D01*
X94315Y52079D01*
X94079Y52079D01*
G37*
%LPD*%
%LPC*%
G36*
X93685Y52079D02*
X93685Y52079D01*
X93688Y52095D01*
X93712Y52154D01*
X93748Y52207D01*
X93793Y52252D01*
X93846Y52288D01*
X93905Y52312D01*
X93921Y52315D01*
X93921Y52079D01*
X93685Y52079D01*
G37*
%LPD*%
%LPC*%
G36*
X6905Y55688D02*
X6905Y55688D01*
X6846Y55712D01*
X6793Y55748D01*
X6748Y55793D01*
X6712Y55846D01*
X6688Y55905D01*
X6685Y55921D01*
X6921Y55921D01*
X6921Y55685D01*
X6905Y55688D01*
G37*
%LPD*%
%LPC*%
G36*
X7079Y55921D02*
X7079Y55921D01*
X7315Y55921D01*
X7312Y55905D01*
X7288Y55846D01*
X7252Y55793D01*
X7207Y55748D01*
X7154Y55712D01*
X7095Y55688D01*
X7079Y55685D01*
X7079Y55921D01*
G37*
%LPD*%
%LPC*%
G36*
X101185Y10579D02*
X101185Y10579D01*
X101188Y10595D01*
X101212Y10654D01*
X101248Y10707D01*
X101293Y10752D01*
X101346Y10788D01*
X101405Y10812D01*
X101421Y10815D01*
X101421Y10579D01*
X101185Y10579D01*
G37*
%LPD*%
%LPC*%
G36*
X101579Y10579D02*
X101579Y10579D01*
X101579Y10815D01*
X101595Y10812D01*
X101654Y10788D01*
X101707Y10752D01*
X101752Y10707D01*
X101788Y10654D01*
X101812Y10595D01*
X101815Y10579D01*
X101579Y10579D01*
G37*
%LPD*%
%LPC*%
G36*
X101185Y28579D02*
X101185Y28579D01*
X101188Y28595D01*
X101212Y28654D01*
X101248Y28707D01*
X101293Y28752D01*
X101346Y28788D01*
X101405Y28812D01*
X101421Y28815D01*
X101421Y28579D01*
X101185Y28579D01*
G37*
%LPD*%
%LPC*%
G36*
X101579Y10421D02*
X101579Y10421D01*
X101815Y10421D01*
X101812Y10405D01*
X101788Y10346D01*
X101752Y10293D01*
X101707Y10248D01*
X101654Y10212D01*
X101595Y10188D01*
X101579Y10185D01*
X101579Y10421D01*
G37*
%LPD*%
%LPC*%
G36*
X101405Y10188D02*
X101405Y10188D01*
X101346Y10212D01*
X101293Y10248D01*
X101248Y10293D01*
X101212Y10346D01*
X101188Y10405D01*
X101185Y10421D01*
X101421Y10421D01*
X101421Y10185D01*
X101405Y10188D01*
G37*
%LPD*%
%LPC*%
G36*
X18405Y55688D02*
X18405Y55688D01*
X18346Y55712D01*
X18293Y55748D01*
X18248Y55793D01*
X18212Y55846D01*
X18188Y55905D01*
X18185Y55921D01*
X18421Y55921D01*
X18421Y55685D01*
X18405Y55688D01*
G37*
%LPD*%
%LPC*%
G36*
X18579Y55921D02*
X18579Y55921D01*
X18815Y55921D01*
X18812Y55905D01*
X18788Y55846D01*
X18752Y55793D01*
X18707Y55748D01*
X18654Y55712D01*
X18595Y55688D01*
X18579Y55685D01*
X18579Y55921D01*
G37*
%LPD*%
%LPC*%
G36*
X101579Y28579D02*
X101579Y28579D01*
X101579Y28815D01*
X101595Y28812D01*
X101654Y28788D01*
X101707Y28752D01*
X101752Y28707D01*
X101788Y28654D01*
X101812Y28595D01*
X101815Y28579D01*
X101579Y28579D01*
G37*
%LPD*%
%LPC*%
G36*
X18579Y56079D02*
X18579Y56079D01*
X18579Y56315D01*
X18595Y56312D01*
X18654Y56288D01*
X18707Y56252D01*
X18752Y56207D01*
X18788Y56154D01*
X18812Y56095D01*
X18815Y56079D01*
X18579Y56079D01*
G37*
%LPD*%
%LPC*%
G36*
X18185Y56079D02*
X18185Y56079D01*
X18188Y56095D01*
X18212Y56154D01*
X18248Y56207D01*
X18293Y56252D01*
X18346Y56288D01*
X18405Y56312D01*
X18421Y56315D01*
X18421Y56079D01*
X18185Y56079D01*
G37*
%LPD*%
%LPC*%
G36*
X7079Y56079D02*
X7079Y56079D01*
X7079Y56315D01*
X7095Y56312D01*
X7154Y56288D01*
X7207Y56252D01*
X7252Y56207D01*
X7288Y56154D01*
X7312Y56095D01*
X7315Y56079D01*
X7079Y56079D01*
G37*
%LPD*%
%LPC*%
G36*
X6685Y56079D02*
X6685Y56079D01*
X6688Y56095D01*
X6712Y56154D01*
X6748Y56207D01*
X6793Y56252D01*
X6846Y56288D01*
X6905Y56312D01*
X6921Y56315D01*
X6921Y56079D01*
X6685Y56079D01*
G37*
%LPD*%
%LPC*%
G36*
X101579Y9579D02*
X101579Y9579D01*
X101579Y9815D01*
X101595Y9812D01*
X101654Y9788D01*
X101707Y9752D01*
X101752Y9707D01*
X101788Y9654D01*
X101812Y9595D01*
X101815Y9579D01*
X101579Y9579D01*
G37*
%LPD*%
%LPC*%
G36*
X101185Y9579D02*
X101185Y9579D01*
X101188Y9595D01*
X101212Y9654D01*
X101248Y9707D01*
X101293Y9752D01*
X101346Y9788D01*
X101405Y9812D01*
X101421Y9815D01*
X101421Y9579D01*
X101185Y9579D01*
G37*
%LPD*%
%LPC*%
G36*
X101579Y23579D02*
X101579Y23579D01*
X101579Y23815D01*
X101595Y23812D01*
X101654Y23788D01*
X101707Y23752D01*
X101752Y23707D01*
X101788Y23654D01*
X101812Y23595D01*
X101815Y23579D01*
X101579Y23579D01*
G37*
%LPD*%
%LPC*%
G36*
X101185Y23579D02*
X101185Y23579D01*
X101188Y23595D01*
X101212Y23654D01*
X101248Y23707D01*
X101293Y23752D01*
X101346Y23788D01*
X101405Y23812D01*
X101421Y23815D01*
X101421Y23579D01*
X101185Y23579D01*
G37*
%LPD*%
%LPC*%
G36*
X101405Y29188D02*
X101405Y29188D01*
X101346Y29212D01*
X101293Y29248D01*
X101248Y29293D01*
X101212Y29346D01*
X101188Y29405D01*
X101185Y29421D01*
X101421Y29421D01*
X101421Y29185D01*
X101405Y29188D01*
G37*
%LPD*%
%LPC*%
G36*
X101405Y24188D02*
X101405Y24188D01*
X101346Y24212D01*
X101293Y24248D01*
X101248Y24293D01*
X101212Y24346D01*
X101188Y24405D01*
X101185Y24421D01*
X101421Y24421D01*
X101421Y24185D01*
X101405Y24188D01*
G37*
%LPD*%
%LPC*%
G36*
X101579Y24421D02*
X101579Y24421D01*
X101815Y24421D01*
X101812Y24405D01*
X101788Y24346D01*
X101752Y24293D01*
X101707Y24248D01*
X101654Y24212D01*
X101595Y24188D01*
X101579Y24185D01*
X101579Y24421D01*
G37*
%LPD*%
%LPC*%
G36*
X101185Y27579D02*
X101185Y27579D01*
X101188Y27595D01*
X101212Y27654D01*
X101248Y27707D01*
X101293Y27752D01*
X101346Y27788D01*
X101405Y27812D01*
X101421Y27815D01*
X101421Y27579D01*
X101185Y27579D01*
G37*
%LPD*%
%LPC*%
G36*
X101185Y24579D02*
X101185Y24579D01*
X101188Y24595D01*
X101212Y24654D01*
X101248Y24707D01*
X101293Y24752D01*
X101346Y24788D01*
X101405Y24812D01*
X101421Y24815D01*
X101421Y24579D01*
X101185Y24579D01*
G37*
%LPD*%
%LPC*%
G36*
X101579Y9421D02*
X101579Y9421D01*
X101815Y9421D01*
X101812Y9405D01*
X101788Y9346D01*
X101752Y9293D01*
X101707Y9248D01*
X101654Y9212D01*
X101595Y9188D01*
X101579Y9185D01*
X101579Y9421D01*
G37*
%LPD*%
%LPC*%
G36*
X101405Y9188D02*
X101405Y9188D01*
X101346Y9212D01*
X101293Y9248D01*
X101248Y9293D01*
X101212Y9346D01*
X101188Y9405D01*
X101185Y9421D01*
X101421Y9421D01*
X101421Y9185D01*
X101405Y9188D01*
G37*
%LPD*%
%LPC*%
G36*
X101579Y24579D02*
X101579Y24579D01*
X101579Y24815D01*
X101595Y24812D01*
X101654Y24788D01*
X101707Y24752D01*
X101752Y24707D01*
X101788Y24654D01*
X101812Y24595D01*
X101815Y24579D01*
X101579Y24579D01*
G37*
%LPD*%
%LPC*%
G36*
X101405Y25188D02*
X101405Y25188D01*
X101346Y25212D01*
X101293Y25248D01*
X101248Y25293D01*
X101212Y25346D01*
X101188Y25405D01*
X101185Y25421D01*
X101421Y25421D01*
X101421Y25185D01*
X101405Y25188D01*
G37*
%LPD*%
%LPC*%
G36*
X101579Y25421D02*
X101579Y25421D01*
X101815Y25421D01*
X101812Y25405D01*
X101788Y25346D01*
X101752Y25293D01*
X101707Y25248D01*
X101654Y25212D01*
X101595Y25188D01*
X101579Y25185D01*
X101579Y25421D01*
G37*
%LPD*%
%LPC*%
G36*
X6685Y21079D02*
X6685Y21079D01*
X6688Y21095D01*
X6712Y21154D01*
X6748Y21207D01*
X6793Y21252D01*
X6846Y21288D01*
X6905Y21312D01*
X6921Y21315D01*
X6921Y21079D01*
X6685Y21079D01*
G37*
%LPD*%
%LPC*%
G36*
X18685Y21079D02*
X18685Y21079D01*
X18688Y21095D01*
X18712Y21154D01*
X18748Y21207D01*
X18793Y21252D01*
X18846Y21288D01*
X18905Y21312D01*
X18921Y21315D01*
X18921Y21079D01*
X18685Y21079D01*
G37*
%LPD*%
%LPC*%
G36*
X7079Y21079D02*
X7079Y21079D01*
X7079Y21315D01*
X7095Y21312D01*
X7154Y21288D01*
X7207Y21252D01*
X7252Y21207D01*
X7288Y21154D01*
X7312Y21095D01*
X7315Y21079D01*
X7079Y21079D01*
G37*
%LPD*%
%LPC*%
G36*
X101579Y8579D02*
X101579Y8579D01*
X101579Y8815D01*
X101595Y8812D01*
X101654Y8788D01*
X101707Y8752D01*
X101752Y8707D01*
X101788Y8654D01*
X101812Y8595D01*
X101815Y8579D01*
X101579Y8579D01*
G37*
%LPD*%
%LPC*%
G36*
X101185Y8579D02*
X101185Y8579D01*
X101188Y8595D01*
X101212Y8654D01*
X101248Y8707D01*
X101293Y8752D01*
X101346Y8788D01*
X101405Y8812D01*
X101421Y8815D01*
X101421Y8579D01*
X101185Y8579D01*
G37*
%LPD*%
%LPC*%
G36*
X101579Y8421D02*
X101579Y8421D01*
X101815Y8421D01*
X101812Y8405D01*
X101788Y8346D01*
X101752Y8293D01*
X101707Y8248D01*
X101654Y8212D01*
X101595Y8188D01*
X101579Y8185D01*
X101579Y8421D01*
G37*
%LPD*%
%LPC*%
G36*
X101405Y8188D02*
X101405Y8188D01*
X101346Y8212D01*
X101293Y8248D01*
X101248Y8293D01*
X101212Y8346D01*
X101188Y8405D01*
X101185Y8421D01*
X101421Y8421D01*
X101421Y8185D01*
X101405Y8188D01*
G37*
%LPD*%
%LPC*%
G36*
X19079Y21079D02*
X19079Y21079D01*
X19079Y21315D01*
X19095Y21312D01*
X19154Y21288D01*
X19207Y21252D01*
X19252Y21207D01*
X19288Y21154D01*
X19312Y21095D01*
X19315Y21079D01*
X19079Y21079D01*
G37*
%LPD*%
%LPC*%
G36*
X101579Y23421D02*
X101579Y23421D01*
X101815Y23421D01*
X101812Y23405D01*
X101788Y23346D01*
X101752Y23293D01*
X101707Y23248D01*
X101654Y23212D01*
X101595Y23188D01*
X101579Y23185D01*
X101579Y23421D01*
G37*
%LPD*%
%LPC*%
G36*
X101405Y23188D02*
X101405Y23188D01*
X101346Y23212D01*
X101293Y23248D01*
X101248Y23293D01*
X101212Y23346D01*
X101188Y23405D01*
X101185Y23421D01*
X101421Y23421D01*
X101421Y23185D01*
X101405Y23188D01*
G37*
%LPD*%
%LPC*%
G36*
X19079Y20921D02*
X19079Y20921D01*
X19315Y20921D01*
X19312Y20905D01*
X19288Y20846D01*
X19252Y20793D01*
X19207Y20748D01*
X19154Y20712D01*
X19095Y20688D01*
X19079Y20685D01*
X19079Y20921D01*
G37*
%LPD*%
%LPC*%
G36*
X18905Y20688D02*
X18905Y20688D01*
X18846Y20712D01*
X18793Y20748D01*
X18748Y20793D01*
X18712Y20846D01*
X18688Y20905D01*
X18685Y20921D01*
X18921Y20921D01*
X18921Y20685D01*
X18905Y20688D01*
G37*
%LPD*%
%LPC*%
G36*
X7079Y20921D02*
X7079Y20921D01*
X7315Y20921D01*
X7312Y20905D01*
X7288Y20846D01*
X7252Y20793D01*
X7207Y20748D01*
X7154Y20712D01*
X7095Y20688D01*
X7079Y20685D01*
X7079Y20921D01*
G37*
%LPD*%
%LPC*%
G36*
X6905Y20688D02*
X6905Y20688D01*
X6846Y20712D01*
X6793Y20748D01*
X6748Y20793D01*
X6712Y20846D01*
X6688Y20905D01*
X6685Y20921D01*
X6921Y20921D01*
X6921Y20685D01*
X6905Y20688D01*
G37*
%LPD*%
%LPC*%
G36*
X101579Y25579D02*
X101579Y25579D01*
X101579Y25815D01*
X101595Y25812D01*
X101654Y25788D01*
X101707Y25752D01*
X101752Y25707D01*
X101788Y25654D01*
X101812Y25595D01*
X101815Y25579D01*
X101579Y25579D01*
G37*
%LPD*%
%LPC*%
G36*
X101185Y25579D02*
X101185Y25579D01*
X101188Y25595D01*
X101212Y25654D01*
X101248Y25707D01*
X101293Y25752D01*
X101346Y25788D01*
X101405Y25812D01*
X101421Y25815D01*
X101421Y25579D01*
X101185Y25579D01*
G37*
%LPD*%
%LPC*%
G36*
X101185Y7579D02*
X101185Y7579D01*
X101188Y7595D01*
X101212Y7654D01*
X101248Y7707D01*
X101293Y7752D01*
X101346Y7788D01*
X101405Y7812D01*
X101421Y7815D01*
X101421Y7579D01*
X101185Y7579D01*
G37*
%LPD*%
%LPC*%
G36*
X101579Y7579D02*
X101579Y7579D01*
X101579Y7815D01*
X101595Y7812D01*
X101654Y7788D01*
X101707Y7752D01*
X101752Y7707D01*
X101788Y7654D01*
X101812Y7595D01*
X101815Y7579D01*
X101579Y7579D01*
G37*
%LPD*%
%LPC*%
G36*
X101579Y29421D02*
X101579Y29421D01*
X101815Y29421D01*
X101812Y29405D01*
X101788Y29346D01*
X101752Y29293D01*
X101707Y29248D01*
X101654Y29212D01*
X101595Y29188D01*
X101579Y29185D01*
X101579Y29421D01*
G37*
%LPD*%
%LPC*%
G36*
X101405Y26188D02*
X101405Y26188D01*
X101346Y26212D01*
X101293Y26248D01*
X101248Y26293D01*
X101212Y26346D01*
X101188Y26405D01*
X101185Y26421D01*
X101421Y26421D01*
X101421Y26185D01*
X101405Y26188D01*
G37*
%LPD*%
%LPC*%
G36*
X101579Y29579D02*
X101579Y29579D01*
X101579Y29815D01*
X101595Y29812D01*
X101654Y29788D01*
X101707Y29752D01*
X101752Y29707D01*
X101788Y29654D01*
X101812Y29595D01*
X101815Y29579D01*
X101579Y29579D01*
G37*
%LPD*%
%LPC*%
G36*
X101185Y29579D02*
X101185Y29579D01*
X101188Y29595D01*
X101212Y29654D01*
X101248Y29707D01*
X101293Y29752D01*
X101346Y29788D01*
X101405Y29812D01*
X101421Y29815D01*
X101421Y29579D01*
X101185Y29579D01*
G37*
%LPD*%
%LPC*%
G36*
X101579Y26421D02*
X101579Y26421D01*
X101815Y26421D01*
X101812Y26405D01*
X101788Y26346D01*
X101752Y26293D01*
X101707Y26248D01*
X101654Y26212D01*
X101595Y26188D01*
X101579Y26185D01*
X101579Y26421D01*
G37*
%LPD*%
%LPC*%
G36*
X101579Y22579D02*
X101579Y22579D01*
X101579Y22815D01*
X101595Y22812D01*
X101654Y22788D01*
X101707Y22752D01*
X101752Y22707D01*
X101788Y22654D01*
X101812Y22595D01*
X101815Y22579D01*
X101579Y22579D01*
G37*
%LPD*%
%LPC*%
G36*
X101185Y22579D02*
X101185Y22579D01*
X101188Y22595D01*
X101212Y22654D01*
X101248Y22707D01*
X101293Y22752D01*
X101346Y22788D01*
X101405Y22812D01*
X101421Y22815D01*
X101421Y22579D01*
X101185Y22579D01*
G37*
%LPD*%
%LPC*%
G36*
X101579Y7421D02*
X101579Y7421D01*
X101815Y7421D01*
X101812Y7405D01*
X101788Y7346D01*
X101752Y7293D01*
X101707Y7248D01*
X101654Y7212D01*
X101595Y7188D01*
X101579Y7185D01*
X101579Y7421D01*
G37*
%LPD*%
%LPC*%
G36*
X101405Y7188D02*
X101405Y7188D01*
X101346Y7212D01*
X101293Y7248D01*
X101248Y7293D01*
X101212Y7346D01*
X101188Y7405D01*
X101185Y7421D01*
X101421Y7421D01*
X101421Y7185D01*
X101405Y7188D01*
G37*
%LPD*%
%LPC*%
G36*
X101579Y26579D02*
X101579Y26579D01*
X101579Y26815D01*
X101595Y26812D01*
X101654Y26788D01*
X101707Y26752D01*
X101752Y26707D01*
X101788Y26654D01*
X101812Y26595D01*
X101815Y26579D01*
X101579Y26579D01*
G37*
%LPD*%
%LPC*%
G36*
X101579Y30579D02*
X101579Y30579D01*
X101579Y30815D01*
X101595Y30812D01*
X101654Y30788D01*
X101707Y30752D01*
X101752Y30707D01*
X101788Y30654D01*
X101812Y30595D01*
X101815Y30579D01*
X101579Y30579D01*
G37*
%LPD*%
%LPC*%
G36*
X101185Y30579D02*
X101185Y30579D01*
X101188Y30595D01*
X101212Y30654D01*
X101248Y30707D01*
X101293Y30752D01*
X101346Y30788D01*
X101405Y30812D01*
X101421Y30815D01*
X101421Y30579D01*
X101185Y30579D01*
G37*
%LPD*%
%LPC*%
G36*
X18905Y30688D02*
X18905Y30688D01*
X18846Y30712D01*
X18793Y30748D01*
X18748Y30793D01*
X18712Y30846D01*
X18688Y30905D01*
X18685Y30921D01*
X18921Y30921D01*
X18921Y30685D01*
X18905Y30688D01*
G37*
%LPD*%
%LPC*%
G36*
X19079Y30921D02*
X19079Y30921D01*
X19315Y30921D01*
X19312Y30905D01*
X19288Y30846D01*
X19252Y30793D01*
X19207Y30748D01*
X19154Y30712D01*
X19095Y30688D01*
X19079Y30685D01*
X19079Y30921D01*
G37*
%LPD*%
%LPC*%
G36*
X6905Y30688D02*
X6905Y30688D01*
X6846Y30712D01*
X6793Y30748D01*
X6748Y30793D01*
X6712Y30846D01*
X6688Y30905D01*
X6685Y30921D01*
X6921Y30921D01*
X6921Y30685D01*
X6905Y30688D01*
G37*
%LPD*%
%LPC*%
G36*
X7079Y30921D02*
X7079Y30921D01*
X7315Y30921D01*
X7312Y30905D01*
X7288Y30846D01*
X7252Y30793D01*
X7207Y30748D01*
X7154Y30712D01*
X7095Y30688D01*
X7079Y30685D01*
X7079Y30921D01*
G37*
%LPD*%
%LPC*%
G36*
X19079Y31079D02*
X19079Y31079D01*
X19079Y31315D01*
X19095Y31312D01*
X19154Y31288D01*
X19207Y31252D01*
X19252Y31207D01*
X19288Y31154D01*
X19312Y31095D01*
X19315Y31079D01*
X19079Y31079D01*
G37*
%LPD*%
%LPC*%
G36*
X18685Y31079D02*
X18685Y31079D01*
X18688Y31095D01*
X18712Y31154D01*
X18748Y31207D01*
X18793Y31252D01*
X18846Y31288D01*
X18905Y31312D01*
X18921Y31315D01*
X18921Y31079D01*
X18685Y31079D01*
G37*
%LPD*%
%LPC*%
G36*
X7079Y31079D02*
X7079Y31079D01*
X7079Y31315D01*
X7095Y31312D01*
X7154Y31288D01*
X7207Y31252D01*
X7252Y31207D01*
X7288Y31154D01*
X7312Y31095D01*
X7315Y31079D01*
X7079Y31079D01*
G37*
%LPD*%
%LPC*%
G36*
X6685Y31079D02*
X6685Y31079D01*
X6688Y31095D01*
X6712Y31154D01*
X6748Y31207D01*
X6793Y31252D01*
X6846Y31288D01*
X6905Y31312D01*
X6921Y31315D01*
X6921Y31079D01*
X6685Y31079D01*
G37*
%LPD*%
%LPC*%
G36*
X118479Y42079D02*
X118479Y42079D01*
X118479Y42315D01*
X118495Y42312D01*
X118554Y42288D01*
X118607Y42252D01*
X118652Y42207D01*
X118688Y42154D01*
X118712Y42095D01*
X118715Y42079D01*
X118479Y42079D01*
G37*
%LPD*%
%LPC*%
G36*
X101579Y27421D02*
X101579Y27421D01*
X101815Y27421D01*
X101812Y27405D01*
X101788Y27346D01*
X101752Y27293D01*
X101707Y27248D01*
X101654Y27212D01*
X101595Y27188D01*
X101579Y27185D01*
X101579Y27421D01*
G37*
%LPD*%
%LPC*%
G36*
X101405Y31188D02*
X101405Y31188D01*
X101346Y31212D01*
X101293Y31248D01*
X101248Y31293D01*
X101212Y31346D01*
X101188Y31405D01*
X101185Y31421D01*
X101421Y31421D01*
X101421Y31185D01*
X101405Y31188D01*
G37*
%LPD*%
%LPC*%
G36*
X101579Y31421D02*
X101579Y31421D01*
X101815Y31421D01*
X101812Y31405D01*
X101788Y31346D01*
X101752Y31293D01*
X101707Y31248D01*
X101654Y31212D01*
X101595Y31188D01*
X101579Y31185D01*
X101579Y31421D01*
G37*
%LPD*%
%LPC*%
G36*
X101185Y31579D02*
X101185Y31579D01*
X101188Y31595D01*
X101212Y31654D01*
X101248Y31707D01*
X101293Y31752D01*
X101346Y31788D01*
X101405Y31812D01*
X101421Y31815D01*
X101421Y31579D01*
X101185Y31579D01*
G37*
%LPD*%
%LPC*%
G36*
X101579Y31579D02*
X101579Y31579D01*
X101579Y31815D01*
X101595Y31812D01*
X101654Y31788D01*
X101707Y31752D01*
X101752Y31707D01*
X101788Y31654D01*
X101812Y31595D01*
X101815Y31579D01*
X101579Y31579D01*
G37*
%LPD*%
%LPC*%
G36*
X101405Y27188D02*
X101405Y27188D01*
X101346Y27212D01*
X101293Y27248D01*
X101248Y27293D01*
X101212Y27346D01*
X101188Y27405D01*
X101185Y27421D01*
X101421Y27421D01*
X101421Y27185D01*
X101405Y27188D01*
G37*
%LPD*%
%LPC*%
G36*
X101579Y22421D02*
X101579Y22421D01*
X101815Y22421D01*
X101812Y22405D01*
X101788Y22346D01*
X101752Y22293D01*
X101707Y22248D01*
X101654Y22212D01*
X101595Y22188D01*
X101579Y22185D01*
X101579Y22421D01*
G37*
%LPD*%
%LPC*%
G36*
X101405Y30188D02*
X101405Y30188D01*
X101346Y30212D01*
X101293Y30248D01*
X101248Y30293D01*
X101212Y30346D01*
X101188Y30405D01*
X101185Y30421D01*
X101421Y30421D01*
X101421Y30185D01*
X101405Y30188D01*
G37*
%LPD*%
%LPC*%
G36*
X101405Y22188D02*
X101405Y22188D01*
X101346Y22212D01*
X101293Y22248D01*
X101248Y22293D01*
X101212Y22346D01*
X101188Y22405D01*
X101185Y22421D01*
X101421Y22421D01*
X101421Y22185D01*
X101405Y22188D01*
G37*
%LPD*%
%LPC*%
G36*
X101579Y27579D02*
X101579Y27579D01*
X101579Y27815D01*
X101595Y27812D01*
X101654Y27788D01*
X101707Y27752D01*
X101752Y27707D01*
X101788Y27654D01*
X101812Y27595D01*
X101815Y27579D01*
X101579Y27579D01*
G37*
%LPD*%
%LPC*%
G36*
X6905Y39688D02*
X6905Y39688D01*
X6846Y39712D01*
X6793Y39748D01*
X6748Y39793D01*
X6712Y39846D01*
X6688Y39905D01*
X6685Y39921D01*
X6921Y39921D01*
X6921Y39685D01*
X6905Y39688D01*
G37*
%LPD*%
%LPC*%
G36*
X101579Y30421D02*
X101579Y30421D01*
X101815Y30421D01*
X101812Y30405D01*
X101788Y30346D01*
X101752Y30293D01*
X101707Y30248D01*
X101654Y30212D01*
X101595Y30188D01*
X101579Y30185D01*
X101579Y30421D01*
G37*
%LPD*%
%LPC*%
G36*
X87188Y24828D02*
X87188Y24828D01*
X87191Y24844D01*
X87215Y24902D01*
X87250Y24955D01*
X87295Y25000D01*
X87348Y25035D01*
X87406Y25059D01*
X87422Y25062D01*
X87422Y24828D01*
X87188Y24828D01*
G37*
%LPD*%
%LPC*%
G36*
X87578Y24828D02*
X87578Y24828D01*
X87578Y25062D01*
X87594Y25059D01*
X87652Y25035D01*
X87705Y25000D01*
X87750Y24955D01*
X87785Y24902D01*
X87809Y24844D01*
X87812Y24828D01*
X87578Y24828D01*
G37*
%LPD*%
%LPC*%
G36*
X87406Y24441D02*
X87406Y24441D01*
X87348Y24465D01*
X87295Y24500D01*
X87250Y24545D01*
X87215Y24598D01*
X87191Y24656D01*
X87188Y24672D01*
X87422Y24672D01*
X87422Y24438D01*
X87406Y24441D01*
G37*
%LPD*%
%LPC*%
G36*
X87578Y24672D02*
X87578Y24672D01*
X87812Y24672D01*
X87809Y24656D01*
X87785Y24598D01*
X87750Y24545D01*
X87705Y24500D01*
X87652Y24465D01*
X87594Y24441D01*
X87578Y24438D01*
X87578Y24672D01*
G37*
%LPD*%
%LPC*%
G36*
X87578Y9078D02*
X87578Y9078D01*
X87578Y9312D01*
X87594Y9309D01*
X87652Y9285D01*
X87705Y9250D01*
X87750Y9205D01*
X87785Y9152D01*
X87809Y9094D01*
X87812Y9078D01*
X87578Y9078D01*
G37*
%LPD*%
%LPC*%
G36*
X87188Y9078D02*
X87188Y9078D01*
X87191Y9094D01*
X87215Y9152D01*
X87250Y9205D01*
X87295Y9250D01*
X87348Y9285D01*
X87406Y9309D01*
X87422Y9312D01*
X87422Y9078D01*
X87188Y9078D01*
G37*
%LPD*%
%LPC*%
G36*
X87406Y8691D02*
X87406Y8691D01*
X87348Y8715D01*
X87295Y8750D01*
X87250Y8795D01*
X87215Y8848D01*
X87191Y8906D01*
X87188Y8922D01*
X87422Y8922D01*
X87422Y8688D01*
X87406Y8691D01*
G37*
%LPD*%
%LPC*%
G36*
X87578Y8922D02*
X87578Y8922D01*
X87812Y8922D01*
X87809Y8906D01*
X87785Y8848D01*
X87750Y8795D01*
X87705Y8750D01*
X87652Y8715D01*
X87594Y8691D01*
X87578Y8688D01*
X87578Y8922D01*
G37*
%LPD*%
%LPC*%
G36*
X16460Y8983D02*
X16460Y8983D01*
X16460Y8985D01*
X16461Y8985D01*
X16461Y8983D01*
X16460Y8983D01*
G37*
%LPD*%
%LPC*%
G36*
X7460Y8983D02*
X7460Y8983D01*
X7460Y8985D01*
X7461Y8985D01*
X7461Y8983D01*
X7460Y8983D01*
G37*
%LPD*%
%LPC*%
G36*
X25460Y8983D02*
X25460Y8983D01*
X25460Y8985D01*
X25461Y8985D01*
X25461Y8983D01*
X25460Y8983D01*
G37*
%LPD*%
%LPC*%
G36*
X77460Y51983D02*
X77460Y51983D01*
X77460Y51985D01*
X77461Y51985D01*
X77461Y51983D01*
X77460Y51983D01*
G37*
%LPD*%
D10*
X61923Y22390D03*
X61923Y23390D03*
X60923Y22390D03*
X60923Y23390D03*
X59923Y22390D03*
X59923Y23390D03*
X58923Y22390D03*
X58923Y23390D03*
X57923Y22390D03*
X57923Y23390D03*
X56923Y22390D03*
X56923Y23390D03*
X55923Y22390D03*
X55923Y23390D03*
X54923Y22390D03*
X54923Y23390D03*
X53923Y22390D03*
X53923Y23390D03*
X52923Y22390D03*
X52923Y23390D03*
X51923Y22390D03*
X51923Y23390D03*
X50923Y22390D03*
X50923Y23390D03*
X49923Y22390D03*
X49923Y23390D03*
X48923Y22390D03*
X48923Y23390D03*
X47923Y22390D03*
X47923Y23390D03*
X46923Y22390D03*
X46923Y23390D03*
X45923Y22390D03*
X45923Y23390D03*
X44923Y22390D03*
X44923Y23390D03*
X61923Y32390D03*
X61923Y33390D03*
X60923Y32390D03*
X60923Y33390D03*
X59923Y32390D03*
X59923Y33390D03*
X58923Y32390D03*
X58923Y33390D03*
X57923Y32390D03*
X57923Y33390D03*
X56923Y32390D03*
X56923Y33390D03*
X55923Y32390D03*
X55923Y33390D03*
X54923Y32390D03*
X54923Y33390D03*
X53923Y32390D03*
X53923Y33390D03*
X52923Y32390D03*
X52923Y33390D03*
X51923Y32390D03*
X51923Y33390D03*
X50923Y32390D03*
X50923Y33390D03*
X49923Y32390D03*
X49923Y33390D03*
X48923Y32390D03*
X48923Y33390D03*
X47923Y32390D03*
X47923Y33390D03*
X46923Y32390D03*
X46923Y33390D03*
X45923Y32390D03*
X45923Y33390D03*
X44923Y32390D03*
X44923Y33390D03*
D11*
X77461Y51984D03*
X77461Y50016D03*
X72539Y50016D03*
X72539Y51984D03*
D12*
X78516Y31000D03*
X79500Y31000D03*
X80484Y31000D03*
D13*
X43250Y16922D03*
X45750Y16922D03*
X43250Y15150D03*
X45750Y15150D03*
D10*
X43500Y8000D03*
X44500Y8000D03*
X45500Y8000D03*
D14*
X41500Y14625D03*
X41500Y9375D03*
X47500Y9375D03*
X47500Y14625D03*
D10*
X40500Y13000D03*
X40500Y12000D03*
X40500Y11000D03*
D15*
X46500Y5500D03*
X45500Y5500D03*
X44500Y5500D03*
X43500Y5500D03*
X42500Y5500D03*
D12*
X39000Y39500D03*
X40000Y39500D03*
X41000Y39500D03*
X42000Y39500D03*
X43000Y39500D03*
X44000Y39500D03*
X45000Y39500D03*
X46000Y39500D03*
X47000Y39500D03*
X48000Y39500D03*
X49000Y39500D03*
X50000Y39500D03*
X51000Y39500D03*
X52000Y39500D03*
X53000Y39500D03*
X54000Y39500D03*
D16*
X113500Y9823D03*
X113500Y30177D03*
D11*
X111285Y2776D03*
X112762Y2776D03*
X114238Y2776D03*
X115715Y2776D03*
X112762Y37224D03*
X114238Y37224D03*
D17*
X87500Y18000D03*
X87500Y17000D03*
X87500Y16000D03*
X87500Y15000D03*
X87500Y14000D03*
X87500Y13000D03*
X87500Y12000D03*
X87500Y11000D03*
X87500Y10000D03*
X87500Y9000D03*
X87500Y8000D03*
X87500Y7000D03*
X87500Y6000D03*
X87500Y5000D03*
X90500Y18000D03*
X90500Y17000D03*
X90500Y16000D03*
X90500Y15000D03*
X90500Y14000D03*
X90500Y13000D03*
X90500Y12000D03*
X90500Y11000D03*
X90500Y10000D03*
X90500Y9000D03*
X90500Y8000D03*
X90500Y7000D03*
X90500Y6000D03*
X90500Y5000D03*
D18*
X98500Y16500D03*
X98500Y15500D03*
X98500Y10500D03*
X98500Y9500D03*
X98500Y14500D03*
X98500Y13500D03*
X98500Y11500D03*
X98500Y12500D03*
X98500Y8500D03*
X98500Y7500D03*
X101500Y7500D03*
X101500Y8500D03*
X101500Y9500D03*
X101500Y10500D03*
X101500Y11500D03*
X101500Y12500D03*
X101500Y13500D03*
X101500Y14500D03*
X101500Y15500D03*
X101500Y16500D03*
D12*
X113516Y49000D03*
X114500Y49000D03*
X115484Y49000D03*
D18*
X7000Y55000D03*
X7000Y56000D03*
X7000Y57000D03*
D19*
X5000Y55000D03*
X5000Y57000D03*
D18*
X18500Y55000D03*
X18500Y56000D03*
X18500Y57000D03*
D19*
X16500Y55000D03*
X16500Y57000D03*
D18*
X7000Y47000D03*
X7000Y48000D03*
X7000Y49000D03*
D19*
X5000Y47000D03*
X5000Y49000D03*
D18*
X19000Y47000D03*
X19000Y48000D03*
X19000Y49000D03*
D19*
X17000Y47000D03*
X17000Y49000D03*
D18*
X7000Y39000D03*
X7000Y40000D03*
X7000Y41000D03*
D19*
X5000Y39000D03*
X5000Y41000D03*
D18*
X19000Y39000D03*
X19000Y40000D03*
X19000Y41000D03*
D19*
X17000Y39000D03*
X17000Y41000D03*
D18*
X7000Y30000D03*
X7000Y31000D03*
X7000Y32000D03*
D19*
X5000Y30000D03*
X5000Y32000D03*
D18*
X19000Y30000D03*
X19000Y31000D03*
X19000Y32000D03*
D19*
X17000Y30000D03*
X17000Y32000D03*
D18*
X7000Y20000D03*
X7000Y21000D03*
X7000Y22000D03*
D19*
X5000Y20000D03*
X5000Y22000D03*
D18*
X19000Y20000D03*
X19000Y21000D03*
X19000Y22000D03*
D19*
X17000Y20000D03*
X17000Y22000D03*
D18*
X94000Y51000D03*
X94000Y52000D03*
X94000Y53000D03*
D19*
X92000Y51000D03*
X92000Y53000D03*
D18*
X89000Y41000D03*
X89000Y42000D03*
X89000Y43000D03*
D19*
X87000Y41000D03*
X87000Y43000D03*
D18*
X99000Y41000D03*
X99000Y42000D03*
X99000Y43000D03*
D19*
X97000Y41000D03*
X97000Y43000D03*
D18*
X109000Y41000D03*
X109000Y42000D03*
X109000Y43000D03*
D19*
X107000Y41000D03*
X107000Y43000D03*
D18*
X118400Y41000D03*
X118400Y42000D03*
X118400Y43000D03*
D19*
X116400Y41000D03*
X116400Y43000D03*
D11*
X7461Y8984D03*
X7461Y7016D03*
X2539Y7016D03*
X2539Y8984D03*
X16461Y8984D03*
X16461Y7016D03*
X11539Y7016D03*
X11539Y8984D03*
X25461Y8984D03*
X25461Y7016D03*
X20539Y7016D03*
X20539Y8984D03*
D12*
X28016Y31500D03*
X29000Y31500D03*
X29984Y31500D03*
D13*
X67750Y16922D03*
X70250Y16922D03*
X67750Y15150D03*
X70250Y15150D03*
D10*
X68000Y8000D03*
X69000Y8000D03*
X70000Y8000D03*
D14*
X66000Y14625D03*
X66000Y9375D03*
X72000Y9375D03*
X72000Y14625D03*
D10*
X65000Y13000D03*
X65000Y12000D03*
X65000Y11000D03*
D15*
X67000Y4000D03*
X68000Y4000D03*
X69000Y4000D03*
X70000Y4000D03*
X71000Y4000D03*
D17*
X87500Y33750D03*
X87500Y32750D03*
X87500Y31750D03*
X87500Y30750D03*
X87500Y29750D03*
X87500Y28750D03*
X87500Y27750D03*
X87500Y26750D03*
X87500Y25750D03*
X87500Y24750D03*
X87500Y23750D03*
X87500Y22750D03*
X87500Y21750D03*
X87500Y20750D03*
X90500Y33750D03*
X90500Y32750D03*
X90500Y31750D03*
X90500Y30750D03*
X90500Y29750D03*
X90500Y28750D03*
X90500Y27750D03*
X90500Y26750D03*
X90500Y25750D03*
X90500Y24750D03*
X90500Y23750D03*
X90500Y22750D03*
X90500Y21750D03*
X90500Y20750D03*
D18*
X98500Y31500D03*
X98500Y30500D03*
X98500Y25500D03*
X98500Y24500D03*
X98500Y29500D03*
X98500Y28500D03*
X98500Y26500D03*
X98500Y27500D03*
X98500Y23500D03*
X98500Y22500D03*
X101500Y22500D03*
X101500Y23500D03*
X101500Y24500D03*
X101500Y25500D03*
X101500Y26500D03*
X101500Y27500D03*
X101500Y28500D03*
X101500Y29500D03*
X101500Y30500D03*
X101500Y31500D03*
D20*
X1500Y1500D03*
X1500Y58500D03*
X118500Y58500D03*
X118500Y1500D03*
D21*
X27000Y9000D03*
X6000Y4050D03*
X17850Y9000D03*
X8550Y9000D03*
X8100Y21000D03*
X20250Y21000D03*
X8400Y31050D03*
X20700Y30900D03*
X7950Y40050D03*
X20250Y39900D03*
X8100Y48000D03*
X20250Y48000D03*
X7950Y56250D03*
X19650Y55950D03*
X63750Y51000D03*
X78600Y52500D03*
X93300Y57000D03*
X95100Y52350D03*
X118600Y42450D03*
X109950Y42450D03*
X99900Y42450D03*
X89850Y42450D03*
X103050Y7500D03*
X103050Y8400D03*
X102900Y9450D03*
X102900Y10500D03*
X102900Y11400D03*
X102900Y12600D03*
X102900Y13500D03*
X102750Y14550D03*
X102750Y15450D03*
X102750Y16500D03*
X103050Y22500D03*
X103050Y23400D03*
X103050Y24450D03*
X103050Y25500D03*
X103050Y26550D03*
X103050Y27450D03*
X102900Y28500D03*
X103050Y29400D03*
X103050Y30450D03*
X103050Y31500D03*
D22*
X39000Y37750D03*
D21*
X67750Y51000D03*
X16250Y16500D03*
X3500Y17000D03*
X3500Y26000D03*
X3500Y36000D03*
X3500Y44000D03*
X3250Y52500D03*
X15750Y51500D03*
X15750Y43500D03*
X15750Y35500D03*
X15750Y25500D03*
X6500Y2500D03*
X15750Y2500D03*
X24350Y2500D03*
X97750Y52000D03*
X90750Y57000D03*
X111250Y39000D03*
X118650Y38500D03*
X100750Y39000D03*
X91250Y39000D03*
X56000Y26750D03*
X51000Y29250D03*
D22*
X39000Y37250D03*
X44000Y34500D03*
X26250Y43200D03*
X36900Y43050D03*
X58500Y28200D03*
X59700Y27900D03*
X36750Y43800D03*
X26250Y43800D03*
X23000Y33250D03*
X21500Y26000D03*
D21*
X54750Y45450D03*
D22*
X76000Y46000D03*
X75500Y45750D03*
X75500Y45250D03*
X75500Y44750D03*
X61750Y27750D03*
X23250Y15250D03*
X25000Y16250D03*
X53250Y24250D03*
X69000Y46250D03*
X78500Y38750D03*
X80250Y47750D03*
X74250Y20250D03*
X74250Y24750D03*
X82500Y7250D03*
X77500Y13250D03*
X77500Y14500D03*
X72750Y22750D03*
X59100Y28950D03*
X53550Y28950D03*
X73000Y21750D03*
M02*
