G04 EAGLE Gerber RS-274X export*
G75*
%MOIN*%
%FSLAX34Y34*%
%LPD*%
%INTop Copper*%
%IPPOS*%
%AMOC8*
5,1,8,0,0,1.08239X$1,22.5*%
G01*
%ADD10R,0.060000X0.060000*%
%ADD11P,0.064943X8X202.500000*%
%ADD12C,0.077165*%
%ADD13C,0.055118*%
%ADD14C,0.070000*%
%ADD15C,0.070000*%
%ADD16C,0.100000*%
%ADD17C,0.056000*%
%ADD18C,0.076000*%
%ADD19C,0.110236*%
%ADD20C,0.044094*%
%ADD21C,0.044800*%
%ADD22R,0.031496X0.031496*%
%ADD23R,0.037400X0.040600*%
%ADD24C,0.175000*%
%ADD25C,0.040000*%
%ADD26R,0.024000X0.020000*%
%ADD27C,0.010000*%
%ADD28C,0.024000*%
%ADD29C,0.025780*%

G36*
X119899Y59855D02*
X119899Y59855D01*
X119898Y59860D01*
X119898Y59861D01*
X119898Y59862D01*
X119896Y59867D01*
X119894Y59872D01*
X119894Y59873D01*
X119893Y59874D01*
X119890Y59878D01*
X119887Y59882D01*
X119886Y59883D01*
X119886Y59884D01*
X119882Y59887D01*
X119878Y59890D01*
X119877Y59891D01*
X119876Y59892D01*
X119872Y59894D01*
X119867Y59896D01*
X119866Y59896D01*
X119865Y59897D01*
X119853Y59899D01*
X119851Y59899D01*
X119850Y59899D01*
X150Y59899D01*
X145Y59899D01*
X140Y59898D01*
X139Y59898D01*
X138Y59898D01*
X133Y59896D01*
X128Y59894D01*
X127Y59894D01*
X126Y59893D01*
X122Y59890D01*
X118Y59887D01*
X117Y59886D01*
X116Y59886D01*
X113Y59882D01*
X110Y59878D01*
X109Y59877D01*
X108Y59876D01*
X106Y59872D01*
X104Y59867D01*
X104Y59866D01*
X103Y59865D01*
X101Y59853D01*
X101Y59851D01*
X101Y59850D01*
X101Y150D01*
X101Y145D01*
X102Y140D01*
X102Y139D01*
X102Y138D01*
X104Y133D01*
X106Y128D01*
X106Y127D01*
X107Y126D01*
X110Y122D01*
X113Y118D01*
X114Y117D01*
X114Y116D01*
X118Y113D01*
X122Y110D01*
X123Y109D01*
X124Y108D01*
X128Y106D01*
X133Y104D01*
X134Y104D01*
X135Y103D01*
X147Y101D01*
X149Y101D01*
X150Y101D01*
X119850Y101D01*
X119855Y101D01*
X119860Y102D01*
X119861Y102D01*
X119862Y102D01*
X119867Y104D01*
X119872Y106D01*
X119873Y106D01*
X119874Y107D01*
X119878Y110D01*
X119882Y113D01*
X119883Y114D01*
X119884Y114D01*
X119887Y118D01*
X119890Y122D01*
X119891Y123D01*
X119892Y124D01*
X119894Y128D01*
X119896Y133D01*
X119896Y134D01*
X119897Y135D01*
X119899Y147D01*
X119899Y149D01*
X119899Y150D01*
X119899Y59850D01*
X119899Y59855D01*
G37*
%LPC*%
G36*
X3000Y56951D02*
X3000Y56951D01*
X3005Y56951D01*
X3010Y56952D01*
X3011Y56952D01*
X3012Y56952D01*
X3017Y56954D01*
X3022Y56956D01*
X3023Y56956D01*
X3024Y56957D01*
X3028Y56960D01*
X3032Y56963D01*
X3033Y56964D01*
X3034Y56964D01*
X3037Y56968D01*
X3040Y56972D01*
X3041Y56973D01*
X3042Y56974D01*
X3044Y56978D01*
X3046Y56983D01*
X3046Y56984D01*
X3047Y56985D01*
X3049Y56997D01*
X3049Y56999D01*
X3049Y57000D01*
X3049Y58951D01*
X116951Y58951D01*
X116951Y57000D01*
X116951Y56995D01*
X116952Y56990D01*
X116952Y56989D01*
X116952Y56988D01*
X116954Y56983D01*
X116956Y56978D01*
X116956Y56977D01*
X116957Y56976D01*
X116960Y56972D01*
X116963Y56968D01*
X116964Y56967D01*
X116964Y56966D01*
X116968Y56963D01*
X116972Y56960D01*
X116973Y56959D01*
X116974Y56958D01*
X116978Y56956D01*
X116983Y56954D01*
X116984Y56954D01*
X116985Y56953D01*
X116997Y56951D01*
X116999Y56951D01*
X117000Y56951D01*
X118951Y56951D01*
X118951Y3049D01*
X117000Y3049D01*
X116995Y3049D01*
X116990Y3048D01*
X116989Y3048D01*
X116988Y3048D01*
X116983Y3046D01*
X116978Y3044D01*
X116977Y3044D01*
X116976Y3043D01*
X116972Y3040D01*
X116968Y3037D01*
X116967Y3036D01*
X116966Y3036D01*
X116963Y3032D01*
X116960Y3028D01*
X116959Y3027D01*
X116958Y3026D01*
X116956Y3022D01*
X116954Y3017D01*
X116954Y3016D01*
X116953Y3015D01*
X116951Y3003D01*
X116951Y3001D01*
X116951Y3000D01*
X116951Y1049D01*
X3049Y1049D01*
X3049Y3000D01*
X3049Y3005D01*
X3048Y3010D01*
X3048Y3011D01*
X3048Y3012D01*
X3046Y3017D01*
X3044Y3022D01*
X3044Y3023D01*
X3043Y3024D01*
X3040Y3028D01*
X3037Y3032D01*
X3036Y3033D01*
X3036Y3034D01*
X3032Y3037D01*
X3028Y3040D01*
X3027Y3041D01*
X3026Y3042D01*
X3022Y3044D01*
X3017Y3046D01*
X3016Y3046D01*
X3015Y3047D01*
X3003Y3049D01*
X3001Y3049D01*
X3000Y3049D01*
X1049Y3049D01*
X1049Y56951D01*
X3000Y56951D01*
G37*
%LPD*%
%LPC*%
G36*
X529Y58599D02*
X529Y58599D01*
X537Y58664D01*
X561Y58771D01*
X597Y58874D01*
X645Y58973D01*
X703Y59066D01*
X771Y59151D01*
X849Y59229D01*
X934Y59297D01*
X1027Y59355D01*
X1126Y59403D01*
X1229Y59439D01*
X1336Y59463D01*
X1401Y59471D01*
X1401Y58599D01*
X529Y58599D01*
G37*
%LPD*%
%LPC*%
G36*
X1599Y58599D02*
X1599Y58599D01*
X1599Y59471D01*
X1664Y59463D01*
X1771Y59439D01*
X1874Y59403D01*
X1973Y59355D01*
X2066Y59297D01*
X2151Y59229D01*
X2229Y59151D01*
X2297Y59066D01*
X2355Y58973D01*
X2403Y58874D01*
X2439Y58771D01*
X2463Y58664D01*
X2471Y58599D01*
X1599Y58599D01*
G37*
%LPD*%
%LPC*%
G36*
X117529Y58599D02*
X117529Y58599D01*
X117537Y58664D01*
X117561Y58771D01*
X117597Y58874D01*
X117645Y58973D01*
X117703Y59066D01*
X117771Y59151D01*
X117849Y59229D01*
X117934Y59297D01*
X118027Y59355D01*
X118126Y59403D01*
X118229Y59439D01*
X118336Y59463D01*
X118401Y59471D01*
X118401Y58599D01*
X117529Y58599D01*
G37*
%LPD*%
%LPC*%
G36*
X118599Y58599D02*
X118599Y58599D01*
X118599Y59471D01*
X118664Y59463D01*
X118771Y59439D01*
X118874Y59403D01*
X118973Y59355D01*
X119066Y59297D01*
X119151Y59229D01*
X119229Y59151D01*
X119297Y59066D01*
X119355Y58973D01*
X119403Y58874D01*
X119439Y58771D01*
X119463Y58664D01*
X119471Y58599D01*
X118599Y58599D01*
G37*
%LPD*%
%LPC*%
G36*
X118599Y58401D02*
X118599Y58401D01*
X119471Y58401D01*
X119463Y58336D01*
X119439Y58229D01*
X119403Y58126D01*
X119355Y58027D01*
X119297Y57934D01*
X119229Y57849D01*
X119151Y57771D01*
X119066Y57703D01*
X118973Y57645D01*
X118874Y57597D01*
X118771Y57561D01*
X118664Y57537D01*
X118599Y57529D01*
X118599Y58401D01*
G37*
%LPD*%
%LPC*%
G36*
X118336Y57537D02*
X118336Y57537D01*
X118229Y57561D01*
X118126Y57597D01*
X118027Y57645D01*
X117934Y57703D01*
X117849Y57771D01*
X117771Y57849D01*
X117703Y57934D01*
X117645Y58027D01*
X117597Y58126D01*
X117561Y58229D01*
X117537Y58336D01*
X117529Y58401D01*
X118401Y58401D01*
X118401Y57529D01*
X118336Y57537D01*
G37*
%LPD*%
%LPC*%
G36*
X1599Y58401D02*
X1599Y58401D01*
X2471Y58401D01*
X2463Y58336D01*
X2439Y58229D01*
X2403Y58126D01*
X2355Y58027D01*
X2297Y57934D01*
X2229Y57849D01*
X2151Y57771D01*
X2066Y57703D01*
X1973Y57645D01*
X1874Y57597D01*
X1771Y57561D01*
X1664Y57537D01*
X1599Y57529D01*
X1599Y58401D01*
G37*
%LPD*%
%LPC*%
G36*
X1336Y57537D02*
X1336Y57537D01*
X1229Y57561D01*
X1126Y57597D01*
X1027Y57645D01*
X934Y57703D01*
X849Y57771D01*
X771Y57849D01*
X703Y57934D01*
X645Y58027D01*
X597Y58126D01*
X561Y58229D01*
X537Y58336D01*
X529Y58401D01*
X1401Y58401D01*
X1401Y57529D01*
X1336Y57537D01*
G37*
%LPD*%
%LPC*%
G36*
X1599Y1599D02*
X1599Y1599D01*
X1599Y2471D01*
X1664Y2463D01*
X1771Y2439D01*
X1874Y2403D01*
X1973Y2355D01*
X2066Y2297D01*
X2151Y2229D01*
X2229Y2151D01*
X2297Y2066D01*
X2355Y1973D01*
X2403Y1874D01*
X2439Y1771D01*
X2463Y1664D01*
X2471Y1599D01*
X1599Y1599D01*
G37*
%LPD*%
%LPC*%
G36*
X118599Y1599D02*
X118599Y1599D01*
X118599Y2471D01*
X118664Y2463D01*
X118771Y2439D01*
X118874Y2403D01*
X118973Y2355D01*
X119066Y2297D01*
X119151Y2229D01*
X119229Y2151D01*
X119297Y2066D01*
X119355Y1973D01*
X119403Y1874D01*
X119439Y1771D01*
X119463Y1664D01*
X119471Y1599D01*
X118599Y1599D01*
G37*
%LPD*%
%LPC*%
G36*
X529Y1599D02*
X529Y1599D01*
X537Y1664D01*
X561Y1771D01*
X597Y1874D01*
X645Y1973D01*
X703Y2066D01*
X771Y2151D01*
X849Y2229D01*
X934Y2297D01*
X1027Y2355D01*
X1126Y2403D01*
X1229Y2439D01*
X1336Y2463D01*
X1401Y2471D01*
X1401Y1599D01*
X529Y1599D01*
G37*
%LPD*%
%LPC*%
G36*
X117529Y1599D02*
X117529Y1599D01*
X117537Y1664D01*
X117561Y1771D01*
X117597Y1874D01*
X117645Y1973D01*
X117703Y2066D01*
X117771Y2151D01*
X117849Y2229D01*
X117934Y2297D01*
X118027Y2355D01*
X118126Y2403D01*
X118229Y2439D01*
X118336Y2463D01*
X118401Y2471D01*
X118401Y1599D01*
X117529Y1599D01*
G37*
%LPD*%
%LPC*%
G36*
X118599Y1401D02*
X118599Y1401D01*
X119471Y1401D01*
X119463Y1336D01*
X119439Y1229D01*
X119403Y1126D01*
X119355Y1027D01*
X119297Y934D01*
X119229Y849D01*
X119151Y771D01*
X119066Y703D01*
X118973Y645D01*
X118874Y597D01*
X118771Y561D01*
X118664Y537D01*
X118599Y529D01*
X118599Y1401D01*
G37*
%LPD*%
%LPC*%
G36*
X118336Y537D02*
X118336Y537D01*
X118229Y561D01*
X118126Y597D01*
X118027Y645D01*
X117934Y703D01*
X117849Y771D01*
X117771Y849D01*
X117703Y934D01*
X117645Y1027D01*
X117597Y1126D01*
X117561Y1229D01*
X117537Y1336D01*
X117529Y1401D01*
X118401Y1401D01*
X118401Y529D01*
X118336Y537D01*
G37*
%LPD*%
%LPC*%
G36*
X1599Y1401D02*
X1599Y1401D01*
X2471Y1401D01*
X2463Y1336D01*
X2439Y1229D01*
X2403Y1126D01*
X2355Y1027D01*
X2297Y934D01*
X2229Y849D01*
X2151Y771D01*
X2066Y703D01*
X1973Y645D01*
X1874Y597D01*
X1771Y561D01*
X1664Y537D01*
X1599Y529D01*
X1599Y1401D01*
G37*
%LPD*%
%LPC*%
G36*
X1336Y537D02*
X1336Y537D01*
X1229Y561D01*
X1126Y597D01*
X1027Y645D01*
X934Y703D01*
X849Y771D01*
X771Y849D01*
X703Y934D01*
X645Y1027D01*
X597Y1126D01*
X561Y1229D01*
X537Y1336D01*
X529Y1401D01*
X1401Y1401D01*
X1401Y529D01*
X1336Y537D01*
G37*
%LPD*%
%LPC*%
G36*
X118499Y58499D02*
X118499Y58499D01*
X118499Y58501D01*
X118501Y58501D01*
X118501Y58499D01*
X118499Y58499D01*
G37*
%LPD*%
%LPC*%
G36*
X1499Y58499D02*
X1499Y58499D01*
X1499Y58501D01*
X1501Y58501D01*
X1501Y58499D01*
X1499Y58499D01*
G37*
%LPD*%
%LPC*%
G36*
X118499Y1499D02*
X118499Y1499D01*
X118499Y1501D01*
X118501Y1501D01*
X118501Y1499D01*
X118499Y1499D01*
G37*
%LPD*%
%LPC*%
G36*
X1499Y1499D02*
X1499Y1499D01*
X1499Y1501D01*
X1501Y1501D01*
X1501Y1499D01*
X1499Y1499D01*
G37*
%LPD*%
D10*
X61923Y22390D03*
D11*
X61923Y23390D03*
X60923Y22390D03*
X60923Y23390D03*
X59923Y22390D03*
X59923Y23390D03*
X58923Y22390D03*
X58923Y23390D03*
X57923Y22390D03*
X57923Y23390D03*
X56923Y22390D03*
X56923Y23390D03*
X55923Y22390D03*
X55923Y23390D03*
X54923Y22390D03*
X54923Y23390D03*
X53923Y22390D03*
X53923Y23390D03*
X52923Y22390D03*
X52923Y23390D03*
X51923Y22390D03*
X51923Y23390D03*
X50923Y22390D03*
X50923Y23390D03*
X49923Y22390D03*
X49923Y23390D03*
X48923Y22390D03*
X48923Y23390D03*
X47923Y22390D03*
X47923Y23390D03*
X46923Y22390D03*
X46923Y23390D03*
X45923Y22390D03*
X45923Y23390D03*
X44923Y22390D03*
X44923Y23390D03*
D10*
X61923Y32390D03*
D11*
X61923Y33390D03*
X60923Y32390D03*
X60923Y33390D03*
X59923Y32390D03*
X59923Y33390D03*
X58923Y32390D03*
X58923Y33390D03*
X57923Y32390D03*
X57923Y33390D03*
X56923Y32390D03*
X56923Y33390D03*
X55923Y32390D03*
X55923Y33390D03*
X54923Y32390D03*
X54923Y33390D03*
X53923Y32390D03*
X53923Y33390D03*
X52923Y32390D03*
X52923Y33390D03*
X51923Y32390D03*
X51923Y33390D03*
X50923Y32390D03*
X50923Y33390D03*
X49923Y32390D03*
X49923Y33390D03*
X48923Y32390D03*
X48923Y33390D03*
X47923Y32390D03*
X47923Y33390D03*
X46923Y32390D03*
X46923Y33390D03*
X45923Y32390D03*
X45923Y33390D03*
X44923Y32390D03*
X44923Y33390D03*
D12*
X77461Y51984D03*
X77461Y50016D03*
X72539Y50016D03*
X72539Y51984D03*
D13*
X78516Y31000D03*
X79500Y31000D03*
X80484Y31000D03*
D14*
X43600Y16922D02*
X42900Y16922D01*
X45400Y16922D02*
X46100Y16922D01*
X43600Y15150D02*
X42900Y15150D01*
X45400Y15150D02*
X46100Y15150D01*
D15*
X43500Y8000D03*
X44500Y8000D03*
X45500Y8000D03*
D16*
X41500Y14625D03*
X41500Y9375D03*
X47500Y9375D03*
X47500Y14625D03*
D15*
X40500Y13000D03*
X40500Y12000D03*
X40500Y11000D03*
D17*
X46500Y5780D02*
X46500Y5220D01*
X45500Y5220D02*
X45500Y5780D01*
X44500Y5780D02*
X44500Y5220D01*
X43500Y5220D02*
X43500Y5780D01*
X42500Y5780D02*
X42500Y5220D01*
D18*
X39000Y39120D02*
X39000Y39880D01*
X40000Y39880D02*
X40000Y39120D01*
X41000Y39120D02*
X41000Y39880D01*
X42000Y39880D02*
X42000Y39120D01*
X43000Y39120D02*
X43000Y39880D01*
X44000Y39880D02*
X44000Y39120D01*
X45000Y39120D02*
X45000Y39880D01*
X46000Y39880D02*
X46000Y39120D01*
X47000Y39120D02*
X47000Y39880D01*
X48000Y39880D02*
X48000Y39120D01*
X49000Y39120D02*
X49000Y39880D01*
X50000Y39880D02*
X50000Y39120D01*
X51000Y39120D02*
X51000Y39880D01*
X52000Y39880D02*
X52000Y39120D01*
X53000Y39120D02*
X53000Y39880D01*
X54000Y39880D02*
X54000Y39120D01*
D19*
X113500Y9823D03*
X113500Y30177D03*
D12*
X111285Y2776D03*
X112762Y2776D03*
X114238Y2776D03*
X115715Y2776D03*
X112762Y37224D03*
X114238Y37224D03*
D20*
X87720Y18000D02*
X87280Y18000D01*
X87280Y17000D02*
X87720Y17000D01*
X87720Y16000D02*
X87280Y16000D01*
X87280Y15000D02*
X87720Y15000D01*
X87720Y14000D02*
X87280Y14000D01*
X87280Y13000D02*
X87720Y13000D01*
X87720Y12000D02*
X87280Y12000D01*
X87280Y11000D02*
X87720Y11000D01*
X87720Y10000D02*
X87280Y10000D01*
X87280Y9000D02*
X87720Y9000D01*
X87720Y8000D02*
X87280Y8000D01*
X87280Y7000D02*
X87720Y7000D01*
X87720Y6000D02*
X87280Y6000D01*
X87280Y5000D02*
X87720Y5000D01*
X90280Y18000D02*
X90720Y18000D01*
X90720Y17000D02*
X90280Y17000D01*
X90280Y16000D02*
X90720Y16000D01*
X90720Y15000D02*
X90280Y15000D01*
X90280Y14000D02*
X90720Y14000D01*
X90720Y13000D02*
X90280Y13000D01*
X90280Y12000D02*
X90720Y12000D01*
X90720Y11000D02*
X90280Y11000D01*
X90280Y10000D02*
X90720Y10000D01*
X90720Y9000D02*
X90280Y9000D01*
X90280Y8000D02*
X90720Y8000D01*
X90720Y7000D02*
X90280Y7000D01*
X90280Y6000D02*
X90720Y6000D01*
X90720Y5000D02*
X90280Y5000D01*
D21*
X98276Y16500D02*
X98724Y16500D01*
X98724Y15500D02*
X98276Y15500D01*
X98276Y10500D02*
X98724Y10500D01*
X98724Y9500D02*
X98276Y9500D01*
X98276Y14500D02*
X98724Y14500D01*
X98724Y13500D02*
X98276Y13500D01*
X98276Y11500D02*
X98724Y11500D01*
X98724Y12500D02*
X98276Y12500D01*
X98276Y8500D02*
X98724Y8500D01*
X98724Y7500D02*
X98276Y7500D01*
X101276Y7500D02*
X101724Y7500D01*
X101724Y8500D02*
X101276Y8500D01*
X101276Y9500D02*
X101724Y9500D01*
X101724Y10500D02*
X101276Y10500D01*
X101276Y11500D02*
X101724Y11500D01*
X101724Y12500D02*
X101276Y12500D01*
X101276Y13500D02*
X101724Y13500D01*
X101724Y14500D02*
X101276Y14500D01*
X101276Y15500D02*
X101724Y15500D01*
X101724Y16500D02*
X101276Y16500D01*
D13*
X113516Y49000D03*
X114500Y49000D03*
X115484Y49000D03*
D22*
X65295Y51000D03*
X64705Y51000D03*
D21*
X7224Y55000D02*
X6776Y55000D01*
X6776Y56000D02*
X7224Y56000D01*
X7224Y57000D02*
X6776Y57000D01*
D15*
X5000Y55000D03*
X5000Y57000D03*
D21*
X18276Y55000D02*
X18724Y55000D01*
X18724Y56000D02*
X18276Y56000D01*
X18276Y57000D02*
X18724Y57000D01*
D15*
X16500Y55000D03*
X16500Y57000D03*
D22*
X91705Y57000D03*
X92295Y57000D03*
D23*
X4815Y52500D03*
X4185Y52500D03*
X17315Y51500D03*
X16685Y51500D03*
D21*
X7224Y47000D02*
X6776Y47000D01*
X6776Y48000D02*
X7224Y48000D01*
X7224Y49000D02*
X6776Y49000D01*
D15*
X5000Y47000D03*
X5000Y49000D03*
D23*
X5315Y44000D03*
X4685Y44000D03*
D21*
X18776Y47000D02*
X19224Y47000D01*
X19224Y48000D02*
X18776Y48000D01*
X18776Y49000D02*
X19224Y49000D01*
D15*
X17000Y47000D03*
X17000Y49000D03*
D23*
X17315Y43500D03*
X16685Y43500D03*
D21*
X7224Y39000D02*
X6776Y39000D01*
X6776Y40000D02*
X7224Y40000D01*
X7224Y41000D02*
X6776Y41000D01*
D15*
X5000Y39000D03*
X5000Y41000D03*
D23*
X5315Y36000D03*
X4685Y36000D03*
D21*
X18776Y39000D02*
X19224Y39000D01*
X19224Y40000D02*
X18776Y40000D01*
X18776Y41000D02*
X19224Y41000D01*
D15*
X17000Y39000D03*
X17000Y41000D03*
D23*
X17315Y35500D03*
X16685Y35500D03*
D21*
X7224Y30000D02*
X6776Y30000D01*
X6776Y31000D02*
X7224Y31000D01*
X7224Y32000D02*
X6776Y32000D01*
D15*
X5000Y30000D03*
X5000Y32000D03*
D23*
X5315Y26000D03*
X4685Y26000D03*
D21*
X18776Y30000D02*
X19224Y30000D01*
X19224Y31000D02*
X18776Y31000D01*
X18776Y32000D02*
X19224Y32000D01*
D15*
X17000Y30000D03*
X17000Y32000D03*
D23*
X17315Y25500D03*
X16685Y25500D03*
D21*
X7224Y20000D02*
X6776Y20000D01*
X6776Y21000D02*
X7224Y21000D01*
X7224Y22000D02*
X6776Y22000D01*
D15*
X5000Y20000D03*
X5000Y22000D03*
D23*
X5315Y17000D03*
X4685Y17000D03*
D21*
X18776Y20000D02*
X19224Y20000D01*
X19224Y21000D02*
X18776Y21000D01*
X18776Y22000D02*
X19224Y22000D01*
D15*
X17000Y20000D03*
X17000Y22000D03*
D23*
X17815Y16500D03*
X17185Y16500D03*
D21*
X93776Y51000D02*
X94224Y51000D01*
X94224Y52000D02*
X93776Y52000D01*
X93776Y53000D02*
X94224Y53000D01*
D15*
X92000Y51000D03*
X92000Y53000D03*
D23*
X96185Y52000D03*
X96815Y52000D03*
D21*
X89224Y41000D02*
X88776Y41000D01*
X88776Y42000D02*
X89224Y42000D01*
X89224Y43000D02*
X88776Y43000D01*
D15*
X87000Y41000D03*
X87000Y43000D03*
D23*
X89685Y39000D03*
X90315Y39000D03*
D21*
X98776Y41000D02*
X99224Y41000D01*
X99224Y42000D02*
X98776Y42000D01*
X98776Y43000D02*
X99224Y43000D01*
D15*
X97000Y41000D03*
X97000Y43000D03*
D23*
X99185Y39000D03*
X99815Y39000D03*
D21*
X108776Y41000D02*
X109224Y41000D01*
X109224Y42000D02*
X108776Y42000D01*
X108776Y43000D02*
X109224Y43000D01*
D15*
X107000Y41000D03*
X107000Y43000D03*
D23*
X109685Y39000D03*
X110315Y39000D03*
D21*
X118176Y41000D02*
X118624Y41000D01*
X118624Y42000D02*
X118176Y42000D01*
X118176Y43000D02*
X118624Y43000D01*
D15*
X116400Y41000D03*
X116400Y43000D03*
D23*
X117585Y37750D03*
X118215Y37750D03*
X68685Y51000D03*
X69315Y51000D03*
D12*
X7461Y8984D03*
X7461Y7016D03*
X2539Y7016D03*
X2539Y8984D03*
D23*
X5315Y2500D03*
X4685Y2500D03*
D12*
X16461Y8984D03*
X16461Y7016D03*
X11539Y7016D03*
X11539Y8984D03*
D23*
X14315Y2500D03*
X13685Y2500D03*
D12*
X25461Y8984D03*
X25461Y7016D03*
X20539Y7016D03*
X20539Y8984D03*
D23*
X23315Y2500D03*
X22685Y2500D03*
D13*
X28016Y31500D03*
X29000Y31500D03*
X29984Y31500D03*
D14*
X67400Y16922D02*
X68100Y16922D01*
X69900Y16922D02*
X70600Y16922D01*
X68100Y15150D02*
X67400Y15150D01*
X69900Y15150D02*
X70600Y15150D01*
D15*
X68000Y8000D03*
X69000Y8000D03*
X70000Y8000D03*
D16*
X66000Y14625D03*
X66000Y9375D03*
X72000Y9375D03*
X72000Y14625D03*
D15*
X65000Y13000D03*
X65000Y12000D03*
X65000Y11000D03*
D17*
X67000Y4280D02*
X67000Y3720D01*
X68000Y3720D02*
X68000Y4280D01*
X69000Y4280D02*
X69000Y3720D01*
X70000Y3720D02*
X70000Y4280D01*
X71000Y4280D02*
X71000Y3720D01*
D20*
X87280Y33750D02*
X87720Y33750D01*
X87720Y32750D02*
X87280Y32750D01*
X87280Y31750D02*
X87720Y31750D01*
X87720Y30750D02*
X87280Y30750D01*
X87280Y29750D02*
X87720Y29750D01*
X87720Y28750D02*
X87280Y28750D01*
X87280Y27750D02*
X87720Y27750D01*
X87720Y26750D02*
X87280Y26750D01*
X87280Y25750D02*
X87720Y25750D01*
X87720Y24750D02*
X87280Y24750D01*
X87280Y23750D02*
X87720Y23750D01*
X87720Y22750D02*
X87280Y22750D01*
X87280Y21750D02*
X87720Y21750D01*
X87720Y20750D02*
X87280Y20750D01*
X90280Y33750D02*
X90720Y33750D01*
X90720Y32750D02*
X90280Y32750D01*
X90280Y31750D02*
X90720Y31750D01*
X90720Y30750D02*
X90280Y30750D01*
X90280Y29750D02*
X90720Y29750D01*
X90720Y28750D02*
X90280Y28750D01*
X90280Y27750D02*
X90720Y27750D01*
X90720Y26750D02*
X90280Y26750D01*
X90280Y25750D02*
X90720Y25750D01*
X90720Y24750D02*
X90280Y24750D01*
X90280Y23750D02*
X90720Y23750D01*
X90720Y22750D02*
X90280Y22750D01*
X90280Y21750D02*
X90720Y21750D01*
X90720Y20750D02*
X90280Y20750D01*
D21*
X98276Y31500D02*
X98724Y31500D01*
X98724Y30500D02*
X98276Y30500D01*
X98276Y25500D02*
X98724Y25500D01*
X98724Y24500D02*
X98276Y24500D01*
X98276Y29500D02*
X98724Y29500D01*
X98724Y28500D02*
X98276Y28500D01*
X98276Y26500D02*
X98724Y26500D01*
X98724Y27500D02*
X98276Y27500D01*
X98276Y23500D02*
X98724Y23500D01*
X98724Y22500D02*
X98276Y22500D01*
X101276Y22500D02*
X101724Y22500D01*
X101724Y23500D02*
X101276Y23500D01*
X101276Y24500D02*
X101724Y24500D01*
X101724Y25500D02*
X101276Y25500D01*
X101276Y26500D02*
X101724Y26500D01*
X101724Y27500D02*
X101276Y27500D01*
X101276Y28500D02*
X101724Y28500D01*
X101724Y29500D02*
X101276Y29500D01*
X101276Y30500D02*
X101724Y30500D01*
X101724Y31500D02*
X101276Y31500D01*
D24*
X1500Y1500D03*
X1500Y58500D03*
X118500Y58500D03*
X118500Y1500D03*
D25*
X1750Y3750D03*
X117750Y3750D03*
X118000Y56000D03*
D23*
X7085Y4100D03*
X7715Y4100D03*
D26*
X10430Y1600D03*
X10870Y1600D03*
D27*
X25461Y8984D02*
X25476Y9000D01*
X27000Y9000D01*
D28*
X27000Y9000D03*
D27*
X7085Y4100D02*
X6050Y4100D01*
X6000Y4050D01*
D28*
X6000Y4050D03*
D27*
X16461Y8984D02*
X16476Y9000D01*
X17850Y9000D01*
D28*
X17850Y9000D03*
D27*
X7476Y9000D02*
X7461Y8984D01*
X7476Y9000D02*
X8550Y9000D01*
D28*
X8550Y9000D03*
D27*
X8100Y21000D02*
X7000Y21000D01*
D28*
X8100Y21000D03*
D27*
X19000Y21000D02*
X20250Y21000D01*
D28*
X20250Y21000D03*
D27*
X8350Y31000D02*
X7000Y31000D01*
X8350Y31000D02*
X8400Y31050D01*
D28*
X8400Y31050D03*
D27*
X19000Y31000D02*
X19100Y30900D01*
X20700Y30900D01*
D28*
X20700Y30900D03*
D27*
X7050Y40050D02*
X7000Y40000D01*
X7050Y40050D02*
X7950Y40050D01*
D28*
X7950Y40050D03*
D27*
X19000Y40000D02*
X20150Y40000D01*
X20250Y39900D01*
D28*
X20250Y39900D03*
D27*
X8100Y48000D02*
X7000Y48000D01*
D28*
X8100Y48000D03*
D27*
X19000Y48000D02*
X20250Y48000D01*
D28*
X20250Y48000D03*
D27*
X7700Y56000D02*
X7000Y56000D01*
X7700Y56000D02*
X7950Y56250D01*
D28*
X7950Y56250D03*
D27*
X18500Y56000D02*
X19600Y56000D01*
X19650Y55950D01*
D28*
X19650Y55950D03*
D27*
X63750Y51000D02*
X64705Y51000D01*
D28*
X63750Y51000D03*
D27*
X77461Y51984D02*
X78084Y51984D01*
X78600Y52500D01*
D28*
X78600Y52500D03*
D27*
X92295Y57000D02*
X93300Y57000D01*
D28*
X93300Y57000D03*
D27*
X94000Y52000D02*
X94750Y52000D01*
X95100Y52350D01*
D28*
X95100Y52350D03*
D27*
X118400Y42000D02*
X118600Y42200D01*
X118600Y42450D01*
D28*
X118600Y42450D03*
D27*
X109450Y42450D02*
X109000Y42000D01*
X109450Y42450D02*
X109950Y42450D01*
D28*
X109950Y42450D03*
D27*
X99450Y42450D02*
X99000Y42000D01*
X99450Y42450D02*
X99900Y42450D01*
D28*
X99900Y42450D03*
D27*
X89450Y42450D02*
X89000Y42000D01*
X89450Y42450D02*
X89850Y42450D01*
D28*
X89850Y42450D03*
D27*
X101500Y31500D02*
X103050Y31500D01*
X103000Y30500D02*
X101500Y30500D01*
X103000Y30500D02*
X103050Y30450D01*
X102950Y29500D02*
X101500Y29500D01*
X102950Y29500D02*
X103050Y29400D01*
X102900Y28500D02*
X101500Y28500D01*
X101500Y27500D02*
X103000Y27500D01*
X103050Y27450D01*
X103000Y26500D02*
X101500Y26500D01*
X103000Y26500D02*
X103050Y26550D01*
X103050Y25500D02*
X101500Y25500D01*
X101500Y24500D02*
X103000Y24500D01*
X103050Y24450D01*
X102950Y23500D02*
X101500Y23500D01*
X102950Y23500D02*
X103050Y23400D01*
X103050Y22500D02*
X101500Y22500D01*
X101500Y16500D02*
X102750Y16500D01*
X102700Y15500D02*
X101500Y15500D01*
X102700Y15500D02*
X102750Y15450D01*
X102700Y14500D02*
X101500Y14500D01*
X102700Y14500D02*
X102750Y14550D01*
X102900Y13500D02*
X101500Y13500D01*
X101500Y12500D02*
X102800Y12500D01*
X102900Y12600D01*
X102800Y11500D02*
X101500Y11500D01*
X102800Y11500D02*
X102900Y11400D01*
X102900Y10500D02*
X101500Y10500D01*
X101500Y9500D02*
X102850Y9500D01*
X102900Y9450D01*
X102950Y8500D02*
X101500Y8500D01*
X102950Y8500D02*
X103050Y8400D01*
X103050Y7500D02*
X101500Y7500D01*
D28*
X103050Y7500D03*
X103050Y8400D03*
X102900Y9450D03*
X102900Y10500D03*
X102900Y11400D03*
X102900Y12600D03*
X102900Y13500D03*
X102750Y14550D03*
X102750Y15450D03*
X102750Y16500D03*
X103050Y22500D03*
X103050Y23400D03*
X103050Y24450D03*
X103050Y25500D03*
X103050Y26550D03*
X103050Y27450D03*
X102900Y28500D03*
X103050Y29400D03*
X103050Y30450D03*
X103050Y31500D03*
D27*
X43250Y16922D02*
X43250Y16900D01*
X6000Y52500D02*
X4815Y52500D01*
X6000Y52500D02*
X7000Y53500D01*
X7000Y55000D01*
X7000Y53500D02*
X8500Y55000D01*
X8500Y57250D01*
X9750Y58500D01*
X23250Y58500D01*
D29*
X39000Y37750D03*
D27*
X35500Y37750D01*
X35250Y46500D02*
X23250Y58500D01*
X35250Y38000D02*
X35500Y37750D01*
X35250Y38000D02*
X35250Y46500D01*
X67750Y51000D02*
X68685Y51000D01*
D28*
X67750Y51000D03*
D27*
X17185Y16500D02*
X16250Y16500D01*
D28*
X16250Y16500D03*
D27*
X4685Y17000D02*
X3500Y17000D01*
D28*
X3500Y17000D03*
D27*
X3500Y26000D02*
X4685Y26000D01*
D28*
X3500Y26000D03*
D27*
X3500Y36000D02*
X4685Y36000D01*
D28*
X3500Y36000D03*
D27*
X3500Y44000D02*
X4685Y44000D01*
D28*
X3500Y44000D03*
D27*
X3250Y52500D02*
X4185Y52500D01*
D28*
X3250Y52500D03*
D27*
X15750Y51500D02*
X16685Y51500D01*
D28*
X15750Y51500D03*
D27*
X15750Y43500D02*
X16685Y43500D01*
D28*
X15750Y43500D03*
D27*
X15750Y35500D02*
X16685Y35500D01*
D28*
X15750Y35500D03*
D27*
X15750Y25500D02*
X16685Y25500D01*
D28*
X15750Y25500D03*
D27*
X6500Y2500D02*
X5315Y2500D01*
D28*
X6500Y2500D03*
D27*
X14315Y2500D02*
X15750Y2500D01*
D28*
X15750Y2500D03*
D27*
X23315Y2500D02*
X24350Y2500D01*
D28*
X24350Y2500D03*
D27*
X96815Y52000D02*
X97750Y52000D01*
D28*
X97750Y52000D03*
D27*
X91705Y57000D02*
X90750Y57000D01*
D28*
X90750Y57000D03*
D27*
X110315Y39000D02*
X111250Y39000D01*
D28*
X111250Y39000D03*
D27*
X118650Y38500D02*
X118650Y38000D01*
X118400Y37750D01*
X118215Y37750D01*
D28*
X118650Y38500D03*
D27*
X100750Y39000D02*
X99815Y39000D01*
D28*
X100750Y39000D03*
D27*
X91250Y39000D02*
X90315Y39000D01*
D28*
X91250Y39000D03*
D27*
X56000Y26750D02*
X55923Y26750D01*
X55923Y23390D01*
D28*
X56000Y26750D03*
D27*
X51000Y32313D02*
X50923Y32390D01*
X51000Y32313D02*
X51000Y29250D01*
D28*
X51000Y29250D03*
D27*
X65295Y51000D02*
X67750Y51000D01*
X18500Y51750D02*
X18250Y51500D01*
X17315Y51500D01*
X18500Y51750D02*
X18500Y55000D01*
X35000Y46000D02*
X35000Y37500D01*
D29*
X39000Y37250D03*
D27*
X35250Y37250D01*
X29500Y51500D02*
X18250Y51500D01*
X29500Y51500D02*
X35000Y46000D01*
D29*
X44000Y34500D03*
D27*
X46813Y34500D01*
X47923Y33390D01*
X35250Y37250D02*
X35000Y37500D01*
X6750Y44000D02*
X5315Y44000D01*
X7500Y44750D02*
X7500Y46500D01*
X7000Y47000D01*
X7500Y44750D02*
X6750Y44000D01*
X14000Y44000D01*
X15500Y42500D01*
X25550Y42500D01*
X26250Y43200D01*
D29*
X26250Y43200D03*
X36900Y43050D03*
D27*
X64650Y43050D01*
X70200Y37500D01*
X70200Y36750D01*
X61800Y28350D02*
X58650Y28350D01*
X58500Y28200D01*
D29*
X58500Y28200D03*
D27*
X61800Y28350D02*
X70200Y36750D01*
X18250Y43500D02*
X17315Y43500D01*
X18250Y43500D02*
X19000Y44250D01*
X19000Y47000D01*
X18250Y43500D02*
X20750Y43500D01*
D29*
X59700Y27900D03*
D27*
X59850Y28050D01*
X62250Y28050D01*
X70950Y36750D01*
X70950Y37950D01*
X65400Y43500D01*
X37050Y43500D02*
X36750Y43800D01*
D29*
X36750Y43800D03*
D27*
X37050Y43500D02*
X65400Y43500D01*
D29*
X26250Y43800D03*
D27*
X21050Y43800D01*
X20750Y43500D01*
X6000Y36000D02*
X5315Y36000D01*
X6000Y36000D02*
X6125Y36125D01*
X7000Y37000D01*
X7000Y39000D01*
X6125Y36125D02*
X11125Y36125D01*
X14000Y33250D02*
X23000Y33250D01*
X14000Y33250D02*
X11125Y36125D01*
D29*
X23000Y33250D03*
D27*
X18250Y35500D02*
X17315Y35500D01*
X18250Y35500D02*
X19000Y36250D01*
X19000Y39000D01*
X18250Y35500D02*
X20000Y35500D01*
X21750Y33750D01*
X27839Y31074D02*
X28426Y31074D01*
X27839Y31074D02*
X25164Y33750D01*
X50888Y28980D02*
X51112Y28980D01*
X51132Y29000D01*
X52750Y29000D01*
X50888Y28980D02*
X50368Y29500D01*
X52750Y29000D02*
X53923Y30173D01*
X53923Y32390D01*
X25164Y33750D02*
X21750Y33750D01*
X28426Y31074D02*
X30000Y29500D01*
X50368Y29500D01*
X6000Y26000D02*
X5315Y26000D01*
X6000Y26000D02*
X7000Y27000D01*
X7000Y30000D01*
X7000Y27000D02*
X10000Y24000D01*
X10000Y23750D01*
X44250Y23750D02*
X44500Y24000D01*
X45313Y24000D02*
X45923Y23390D01*
X44250Y23750D02*
X10000Y23750D01*
X44500Y24000D02*
X45313Y24000D01*
X18000Y25500D02*
X17315Y25500D01*
X18000Y25500D02*
X18500Y26000D01*
X19000Y26500D01*
X19000Y30000D01*
D29*
X21500Y26000D03*
D27*
X18500Y26000D01*
X6250Y17000D02*
X5315Y17000D01*
X6250Y17000D02*
X7000Y17750D01*
X7000Y20000D01*
X7000Y17750D02*
X7250Y17750D01*
X9500Y20000D02*
X9500Y22750D01*
X10000Y23250D01*
X9500Y20000D02*
X7250Y17750D01*
X40750Y23250D02*
X42750Y21250D01*
X43783Y21250D01*
X44923Y22390D01*
X40750Y23250D02*
X10000Y23250D01*
X17815Y16500D02*
X18250Y16500D01*
X19000Y17250D01*
X19000Y20000D01*
X20250Y18500D02*
X19000Y17250D01*
X43033Y18500D02*
X46923Y22390D01*
X43033Y18500D02*
X20250Y18500D01*
X95185Y51000D02*
X96185Y52000D01*
X95185Y51000D02*
X94000Y51000D01*
X95185Y51000D02*
X93235Y49050D01*
X83100Y49050D01*
X76800Y55350D01*
X63900Y55350D01*
X54750Y46200D02*
X54750Y45450D01*
D28*
X54750Y45450D03*
D27*
X54750Y46200D02*
X63900Y55350D01*
X89000Y39685D02*
X89685Y39000D01*
X89000Y39685D02*
X89000Y40000D01*
X89000Y41000D01*
X89000Y40000D02*
X87500Y38500D01*
X84500Y38500D02*
X77000Y46000D01*
X84500Y38500D02*
X87500Y38500D01*
X77000Y46000D02*
X76000Y46000D01*
D29*
X76000Y46000D03*
D27*
X99185Y40000D02*
X99185Y39000D01*
X99185Y40000D02*
X99185Y40815D01*
X99000Y41000D01*
X99185Y40000D02*
X97435Y38250D01*
X84250Y38250D01*
X76750Y45750D01*
D29*
X75500Y45750D03*
D27*
X76144Y45750D02*
X76750Y45750D01*
X76144Y45750D02*
X76116Y45721D01*
X75884Y45721D01*
X75856Y45750D01*
X75500Y45750D01*
X109685Y40000D02*
X109685Y39000D01*
X109685Y40000D02*
X109685Y40315D01*
X109000Y41000D01*
X109685Y40000D02*
X107685Y38000D01*
X84000Y38000D01*
X76750Y45250D01*
X75500Y45250D01*
D29*
X75500Y45250D03*
D27*
X117585Y39185D02*
X117585Y37750D01*
X118085Y39685D02*
X118085Y40685D01*
X118400Y41000D01*
X112540Y37760D02*
X112530Y37750D01*
X112540Y37760D02*
X116160Y37760D01*
X117585Y39185D02*
X118085Y39685D01*
X117585Y39185D02*
X116160Y37760D01*
X112530Y37750D02*
X83750Y37750D01*
X76750Y44750D02*
X75500Y44750D01*
D29*
X75500Y44750D03*
D27*
X76750Y44750D02*
X83750Y37750D01*
X70299Y51984D02*
X69315Y51000D01*
X70299Y51984D02*
X71500Y51984D01*
X72539Y51984D01*
X71500Y51984D02*
X69000Y49484D01*
X69000Y49000D01*
X68250Y48250D02*
X68250Y46000D01*
X68250Y45750D01*
X68250Y48250D02*
X69000Y49000D01*
X71500Y45250D02*
X72250Y44500D01*
X72250Y37500D01*
X62500Y27750D02*
X61750Y27750D01*
D29*
X61750Y27750D03*
D27*
X68750Y45250D02*
X71500Y45250D01*
X72250Y37500D02*
X62500Y27750D01*
X68750Y45250D02*
X68250Y45750D01*
X4685Y2500D02*
X4000Y2500D01*
X1750Y4750D01*
X1750Y8195D02*
X1778Y8222D01*
X2539Y8984D01*
X1750Y8195D02*
X1750Y4750D01*
X1778Y8222D02*
X1778Y11028D01*
X20000Y12000D02*
X23250Y15250D01*
X2750Y12000D02*
X1778Y11028D01*
X2750Y12000D02*
X20000Y12000D01*
D29*
X23250Y15250D03*
D27*
X13685Y2500D02*
X12750Y2500D01*
X10750Y4500D01*
X10750Y8250D01*
X11484Y8984D01*
X11539Y8984D01*
X10750Y8250D02*
X10750Y10500D01*
X11500Y11250D01*
X20000Y11250D01*
D29*
X25000Y16250D03*
D27*
X20000Y11250D01*
X21250Y2500D02*
X22685Y2500D01*
X21250Y2500D02*
X19500Y4250D01*
X19500Y8000D01*
X20484Y8984D01*
X20539Y8984D01*
X19500Y8000D02*
X19500Y10000D01*
X24500Y15000D01*
X37500Y15500D02*
X37500Y17000D01*
X37500Y15500D02*
X37000Y15000D01*
X24500Y15000D01*
X38750Y18250D02*
X44500Y18250D01*
X47473Y23576D02*
X47500Y23603D01*
X47500Y24000D01*
X47473Y21223D02*
X44500Y18250D01*
X47473Y21223D02*
X47473Y23576D01*
X47500Y24000D02*
X47750Y24250D01*
X53250Y24250D01*
D29*
X53250Y24250D03*
D27*
X38750Y18250D02*
X37500Y17000D01*
X79500Y28750D02*
X79500Y31000D01*
X61737Y23840D02*
X61473Y23576D01*
X49287Y22390D02*
X48923Y22390D01*
X49287Y22390D02*
X49737Y22840D01*
X61737Y23840D02*
X74590Y23840D01*
X61473Y23576D02*
X61473Y23303D01*
X61010Y22840D01*
X49737Y22840D01*
X74590Y23840D02*
X79500Y28750D01*
X114500Y48500D02*
X114500Y49000D01*
X114500Y48500D02*
X112550Y46550D01*
D29*
X69000Y46250D03*
D27*
X69300Y46550D02*
X112550Y46550D01*
X69300Y46550D02*
X69000Y46250D01*
X53923Y22390D02*
X53923Y6577D01*
X54000Y6500D01*
X53000Y5500D01*
X46500Y5500D01*
X54000Y6500D02*
X56500Y4000D01*
X67000Y4000D01*
X53923Y23390D02*
X53923Y25923D01*
X55250Y27250D01*
X66096Y26653D02*
X66628Y26653D01*
X66096Y26653D02*
X65499Y27250D01*
X66628Y26653D02*
X66725Y26750D01*
X74266Y26750D02*
X78516Y31000D01*
X65499Y27250D02*
X55250Y27250D01*
X66725Y26750D02*
X74266Y26750D01*
X112266Y47750D02*
X113516Y49000D01*
X111537Y4000D02*
X112762Y2776D01*
X72250Y2750D02*
X71000Y4000D01*
X72250Y2750D02*
X108750Y2750D01*
X72250Y2750D02*
X72250Y2250D01*
X71500Y1500D01*
X46750Y1500D01*
X46500Y1750D01*
X45750Y1750D01*
X42500Y5000D01*
X42500Y5500D01*
X78516Y31000D02*
X78516Y38734D01*
X78500Y38750D01*
D29*
X78500Y38750D03*
X80250Y47750D03*
D27*
X112266Y47750D01*
X71000Y5500D02*
X71000Y4000D01*
X71000Y5500D02*
X74250Y8750D01*
X74250Y20250D01*
D29*
X74250Y20250D03*
X74250Y24750D03*
D27*
X74250Y26734D01*
X74266Y26750D01*
X108750Y2750D02*
X110000Y4000D01*
X111537Y4000D01*
D29*
X82500Y7250D03*
D27*
X75250Y14500D01*
X75250Y21250D01*
X64063Y21250D02*
X61923Y23390D01*
X64063Y21250D02*
X75250Y21250D01*
X41000Y37250D02*
X41000Y39500D01*
X34000Y30250D02*
X29750Y30250D01*
X29000Y31000D01*
X29000Y31500D01*
X34000Y30250D02*
X41000Y37250D01*
X42000Y38000D02*
X42000Y39500D01*
X42000Y38000D02*
X45000Y35000D01*
X48923Y34327D02*
X48923Y33390D01*
X48250Y35000D02*
X45000Y35000D01*
X48250Y35000D02*
X48923Y34327D01*
X44000Y38000D02*
X44000Y39500D01*
X44000Y38000D02*
X46750Y35250D01*
X50250Y35250D02*
X50923Y34577D01*
X50923Y33390D01*
X50250Y35250D02*
X46750Y35250D01*
X45000Y38000D02*
X45000Y39500D01*
X45000Y38000D02*
X47500Y35500D01*
X51000Y35500D02*
X51923Y34577D01*
X51923Y33390D01*
X51000Y35500D02*
X47500Y35500D01*
X46000Y38000D02*
X46000Y39500D01*
X46000Y38000D02*
X48250Y35750D01*
X51750Y35750D02*
X52923Y34577D01*
X52923Y33390D01*
X51750Y35750D02*
X48250Y35750D01*
X47000Y38000D02*
X47000Y39500D01*
X53250Y36000D02*
X54000Y35250D01*
X54000Y33467D01*
X53923Y33390D01*
X49000Y36000D02*
X47000Y38000D01*
X49000Y36000D02*
X53250Y36000D01*
X48000Y38000D02*
X48000Y39500D01*
X48000Y38000D02*
X49750Y36250D01*
X57923Y35577D02*
X57923Y33390D01*
X57250Y36250D02*
X49750Y36250D01*
X57250Y36250D02*
X57923Y35577D01*
X49000Y38250D02*
X49000Y39500D01*
X49000Y38250D02*
X50750Y36500D01*
X58500Y36500D02*
X59000Y36000D01*
X59000Y33467D01*
X58923Y33390D01*
X58500Y36500D02*
X50750Y36500D01*
X50000Y38250D02*
X50000Y39500D01*
X50000Y38250D02*
X51500Y36750D01*
X59250Y36750D02*
X60000Y36000D01*
X60000Y33467D01*
X59923Y33390D01*
X59250Y36750D02*
X51500Y36750D01*
X51000Y38250D02*
X51000Y39500D01*
X51000Y38250D02*
X52000Y37250D01*
X60000Y37250D01*
X61000Y36250D01*
X61000Y33467D01*
X60923Y33390D01*
X52000Y38250D02*
X52000Y39500D01*
X52000Y38250D02*
X52750Y37500D01*
X60750Y37500D02*
X62000Y36250D01*
X62000Y33467D01*
X61923Y33390D01*
X60750Y37500D02*
X52750Y37500D01*
X72650Y9150D02*
X72650Y9106D01*
X84750Y6000D02*
X87500Y6000D01*
D29*
X77500Y13250D03*
D27*
X84750Y6000D01*
X85000Y7000D02*
X87500Y7000D01*
D29*
X77500Y14500D03*
D27*
X85000Y7000D01*
X90500Y12000D02*
X90750Y12250D01*
X96250Y12250D02*
X98500Y14500D01*
X96250Y12250D02*
X90750Y12250D01*
X90750Y11250D02*
X90500Y11000D01*
X96250Y11250D02*
X98500Y13500D01*
X96250Y11250D02*
X90750Y11250D01*
X87500Y18000D02*
X87000Y18500D01*
X87000Y18750D01*
X87250Y19000D01*
X95000Y19000D02*
X98500Y15500D01*
X95000Y19000D02*
X87250Y19000D01*
X90500Y20750D02*
X92250Y22500D01*
X98500Y22500D01*
X87500Y33750D02*
X87250Y34000D01*
X87250Y34500D01*
X87500Y34750D01*
X96500Y34750D01*
X97250Y34000D01*
X97250Y31000D02*
X97750Y30500D01*
X98500Y30500D01*
X97250Y31000D02*
X97250Y34000D01*
X97000Y35250D02*
X87500Y35250D01*
X86500Y34250D01*
X86500Y33250D01*
X87000Y32750D01*
X87500Y32750D01*
X98500Y33750D02*
X98500Y31500D01*
X98500Y33750D02*
X97000Y35250D01*
X87500Y22750D02*
X72750Y22750D01*
D29*
X72750Y22750D03*
X59100Y28950D03*
D27*
X53550Y28950D01*
D29*
X53550Y28950D03*
D27*
X73000Y21750D02*
X87500Y21750D01*
D29*
X73000Y21750D03*
D27*
X10430Y1600D02*
X3200Y1600D01*
X2700Y1100D01*
X1900Y1100D01*
X1500Y1500D01*
X10870Y1600D02*
X11510Y2240D01*
X9650Y4100D01*
X7715Y4100D01*
X86250Y18500D02*
X86750Y18000D01*
X86250Y18500D02*
X86250Y19000D01*
X86500Y19250D01*
X95750Y19250D02*
X98500Y16500D01*
X95750Y19250D02*
X86500Y19250D01*
X86750Y18000D02*
X86750Y17500D01*
X87250Y17000D01*
X87500Y17000D01*
X98500Y7500D02*
X96000Y5000D01*
X90500Y5000D01*
X90500Y6000D02*
X90750Y6250D01*
X96250Y6250D02*
X98500Y8500D01*
X96250Y6250D02*
X90750Y6250D01*
X90500Y7000D02*
X90750Y7250D01*
X96250Y7250D02*
X98500Y9500D01*
X96250Y7250D02*
X90750Y7250D01*
X90500Y8000D02*
X90750Y8250D01*
X96250Y8250D02*
X98500Y10500D01*
X96250Y8250D02*
X90750Y8250D01*
X90500Y9000D02*
X90750Y9250D01*
X96250Y9250D02*
X98500Y11500D01*
X96250Y9250D02*
X90750Y9250D01*
X90500Y10000D02*
X96000Y10000D01*
X98500Y12500D01*
X90500Y27750D02*
X92250Y29500D01*
X98500Y29500D01*
X92250Y27500D02*
X90500Y25750D01*
X92250Y27500D02*
X98500Y27500D01*
X92250Y28500D02*
X90500Y26750D01*
X92250Y28500D02*
X98500Y28500D01*
X92250Y26500D02*
X90500Y24750D01*
X92250Y26500D02*
X98500Y26500D01*
X92250Y25500D02*
X90500Y23750D01*
X92250Y25500D02*
X98500Y25500D01*
X92250Y24500D02*
X90500Y22750D01*
X92250Y24500D02*
X98500Y24500D01*
X92250Y23500D02*
X90500Y21750D01*
X92250Y23500D02*
X98500Y23500D01*
M02*
