G04 EAGLE Gerber RS-274X export*
G75*
%MOIN*%
%FSLAX34Y34*%
%LPD*%
%IN*%
%IPPOS*%
%AMOC8*
5,1,8,0,0,1.08239X$1,22.5*%
G01*
%ADD10C,0.010000*%


D10*
X0Y0D02*
X120000Y0D01*
X120000Y60000D01*
X0Y60000D01*
X0Y0D01*
X31630Y-16021D02*
X31627Y-16062D01*
X31622Y-16103D01*
X31614Y-16143D01*
X31603Y-16183D01*
X31590Y-16222D01*
X31574Y-16260D01*
X31556Y-16297D01*
X31535Y-16333D01*
X31512Y-16367D01*
X31487Y-16400D01*
X31460Y-16431D01*
X31431Y-16460D01*
X31400Y-16487D01*
X31367Y-16512D01*
X31333Y-16535D01*
X31297Y-16556D01*
X31260Y-16574D01*
X31222Y-16590D01*
X31183Y-16603D01*
X31143Y-16614D01*
X31103Y-16622D01*
X31062Y-16627D01*
X31021Y-16630D01*
X30979Y-16630D01*
X30938Y-16627D01*
X30897Y-16622D01*
X30857Y-16614D01*
X30817Y-16603D01*
X30778Y-16590D01*
X30740Y-16574D01*
X30703Y-16556D01*
X30667Y-16535D01*
X30633Y-16512D01*
X30600Y-16487D01*
X30569Y-16460D01*
X30540Y-16431D01*
X30513Y-16400D01*
X30488Y-16367D01*
X30465Y-16333D01*
X30444Y-16297D01*
X30426Y-16260D01*
X30410Y-16222D01*
X30397Y-16183D01*
X30386Y-16143D01*
X30378Y-16103D01*
X30373Y-16062D01*
X30370Y-16021D01*
X30370Y-15979D01*
X30373Y-15938D01*
X30378Y-15897D01*
X30386Y-15857D01*
X30397Y-15817D01*
X30410Y-15778D01*
X30426Y-15740D01*
X30444Y-15703D01*
X30465Y-15667D01*
X30488Y-15633D01*
X30513Y-15600D01*
X30540Y-15569D01*
X30569Y-15540D01*
X30600Y-15513D01*
X30633Y-15488D01*
X30667Y-15465D01*
X30703Y-15444D01*
X30740Y-15426D01*
X30778Y-15410D01*
X30817Y-15397D01*
X30857Y-15386D01*
X30897Y-15378D01*
X30938Y-15373D01*
X30979Y-15370D01*
X31021Y-15370D01*
X31062Y-15373D01*
X31103Y-15378D01*
X31143Y-15386D01*
X31183Y-15397D01*
X31222Y-15410D01*
X31260Y-15426D01*
X31297Y-15444D01*
X31333Y-15465D01*
X31367Y-15488D01*
X31400Y-15513D01*
X31431Y-15540D01*
X31460Y-15569D01*
X31487Y-15600D01*
X31512Y-15633D01*
X31535Y-15667D01*
X31556Y-15703D01*
X31574Y-15740D01*
X31590Y-15778D01*
X31603Y-15817D01*
X31614Y-15857D01*
X31622Y-15897D01*
X31627Y-15938D01*
X31630Y-15979D01*
X31630Y-16021D01*
X31630Y-4021D02*
X31627Y-4062D01*
X31622Y-4103D01*
X31614Y-4143D01*
X31603Y-4183D01*
X31590Y-4222D01*
X31574Y-4260D01*
X31556Y-4297D01*
X31535Y-4333D01*
X31512Y-4367D01*
X31487Y-4400D01*
X31460Y-4431D01*
X31431Y-4460D01*
X31400Y-4487D01*
X31367Y-4512D01*
X31333Y-4535D01*
X31297Y-4556D01*
X31260Y-4574D01*
X31222Y-4590D01*
X31183Y-4603D01*
X31143Y-4614D01*
X31103Y-4622D01*
X31062Y-4627D01*
X31021Y-4630D01*
X30979Y-4630D01*
X30938Y-4627D01*
X30897Y-4622D01*
X30857Y-4614D01*
X30817Y-4603D01*
X30778Y-4590D01*
X30740Y-4574D01*
X30703Y-4556D01*
X30667Y-4535D01*
X30633Y-4512D01*
X30600Y-4487D01*
X30569Y-4460D01*
X30540Y-4431D01*
X30513Y-4400D01*
X30488Y-4367D01*
X30465Y-4333D01*
X30444Y-4297D01*
X30426Y-4260D01*
X30410Y-4222D01*
X30397Y-4183D01*
X30386Y-4143D01*
X30378Y-4103D01*
X30373Y-4062D01*
X30370Y-4021D01*
X30370Y-3979D01*
X30373Y-3938D01*
X30378Y-3897D01*
X30386Y-3857D01*
X30397Y-3817D01*
X30410Y-3778D01*
X30426Y-3740D01*
X30444Y-3703D01*
X30465Y-3667D01*
X30488Y-3633D01*
X30513Y-3600D01*
X30540Y-3569D01*
X30569Y-3540D01*
X30600Y-3513D01*
X30633Y-3488D01*
X30667Y-3465D01*
X30703Y-3444D01*
X30740Y-3426D01*
X30778Y-3410D01*
X30817Y-3397D01*
X30857Y-3386D01*
X30897Y-3378D01*
X30938Y-3373D01*
X30979Y-3370D01*
X31021Y-3370D01*
X31062Y-3373D01*
X31103Y-3378D01*
X31143Y-3386D01*
X31183Y-3397D01*
X31222Y-3410D01*
X31260Y-3426D01*
X31297Y-3444D01*
X31333Y-3465D01*
X31367Y-3488D01*
X31400Y-3513D01*
X31431Y-3540D01*
X31460Y-3569D01*
X31487Y-3600D01*
X31512Y-3633D01*
X31535Y-3667D01*
X31556Y-3703D01*
X31574Y-3740D01*
X31590Y-3778D01*
X31603Y-3817D01*
X31614Y-3857D01*
X31622Y-3897D01*
X31627Y-3938D01*
X31630Y-3979D01*
X31630Y-4021D01*
X43630Y-4021D02*
X43627Y-4062D01*
X43622Y-4103D01*
X43614Y-4143D01*
X43603Y-4183D01*
X43590Y-4222D01*
X43574Y-4260D01*
X43556Y-4297D01*
X43535Y-4333D01*
X43512Y-4367D01*
X43487Y-4400D01*
X43460Y-4431D01*
X43431Y-4460D01*
X43400Y-4487D01*
X43367Y-4512D01*
X43333Y-4535D01*
X43297Y-4556D01*
X43260Y-4574D01*
X43222Y-4590D01*
X43183Y-4603D01*
X43143Y-4614D01*
X43103Y-4622D01*
X43062Y-4627D01*
X43021Y-4630D01*
X42979Y-4630D01*
X42938Y-4627D01*
X42897Y-4622D01*
X42857Y-4614D01*
X42817Y-4603D01*
X42778Y-4590D01*
X42740Y-4574D01*
X42703Y-4556D01*
X42667Y-4535D01*
X42633Y-4512D01*
X42600Y-4487D01*
X42569Y-4460D01*
X42540Y-4431D01*
X42513Y-4400D01*
X42488Y-4367D01*
X42465Y-4333D01*
X42444Y-4297D01*
X42426Y-4260D01*
X42410Y-4222D01*
X42397Y-4183D01*
X42386Y-4143D01*
X42378Y-4103D01*
X42373Y-4062D01*
X42370Y-4021D01*
X42370Y-3979D01*
X42373Y-3938D01*
X42378Y-3897D01*
X42386Y-3857D01*
X42397Y-3817D01*
X42410Y-3778D01*
X42426Y-3740D01*
X42444Y-3703D01*
X42465Y-3667D01*
X42488Y-3633D01*
X42513Y-3600D01*
X42540Y-3569D01*
X42569Y-3540D01*
X42600Y-3513D01*
X42633Y-3488D01*
X42667Y-3465D01*
X42703Y-3444D01*
X42740Y-3426D01*
X42778Y-3410D01*
X42817Y-3397D01*
X42857Y-3386D01*
X42897Y-3378D01*
X42938Y-3373D01*
X42979Y-3370D01*
X43021Y-3370D01*
X43062Y-3373D01*
X43103Y-3378D01*
X43143Y-3386D01*
X43183Y-3397D01*
X43222Y-3410D01*
X43260Y-3426D01*
X43297Y-3444D01*
X43333Y-3465D01*
X43367Y-3488D01*
X43400Y-3513D01*
X43431Y-3540D01*
X43460Y-3569D01*
X43487Y-3600D01*
X43512Y-3633D01*
X43535Y-3667D01*
X43556Y-3703D01*
X43574Y-3740D01*
X43590Y-3778D01*
X43603Y-3817D01*
X43614Y-3857D01*
X43622Y-3897D01*
X43627Y-3938D01*
X43630Y-3979D01*
X43630Y-4021D01*
X43630Y-16021D02*
X43627Y-16062D01*
X43622Y-16103D01*
X43614Y-16143D01*
X43603Y-16183D01*
X43590Y-16222D01*
X43574Y-16260D01*
X43556Y-16297D01*
X43535Y-16333D01*
X43512Y-16367D01*
X43487Y-16400D01*
X43460Y-16431D01*
X43431Y-16460D01*
X43400Y-16487D01*
X43367Y-16512D01*
X43333Y-16535D01*
X43297Y-16556D01*
X43260Y-16574D01*
X43222Y-16590D01*
X43183Y-16603D01*
X43143Y-16614D01*
X43103Y-16622D01*
X43062Y-16627D01*
X43021Y-16630D01*
X42979Y-16630D01*
X42938Y-16627D01*
X42897Y-16622D01*
X42857Y-16614D01*
X42817Y-16603D01*
X42778Y-16590D01*
X42740Y-16574D01*
X42703Y-16556D01*
X42667Y-16535D01*
X42633Y-16512D01*
X42600Y-16487D01*
X42569Y-16460D01*
X42540Y-16431D01*
X42513Y-16400D01*
X42488Y-16367D01*
X42465Y-16333D01*
X42444Y-16297D01*
X42426Y-16260D01*
X42410Y-16222D01*
X42397Y-16183D01*
X42386Y-16143D01*
X42378Y-16103D01*
X42373Y-16062D01*
X42370Y-16021D01*
X42370Y-15979D01*
X42373Y-15938D01*
X42378Y-15897D01*
X42386Y-15857D01*
X42397Y-15817D01*
X42410Y-15778D01*
X42426Y-15740D01*
X42444Y-15703D01*
X42465Y-15667D01*
X42488Y-15633D01*
X42513Y-15600D01*
X42540Y-15569D01*
X42569Y-15540D01*
X42600Y-15513D01*
X42633Y-15488D01*
X42667Y-15465D01*
X42703Y-15444D01*
X42740Y-15426D01*
X42778Y-15410D01*
X42817Y-15397D01*
X42857Y-15386D01*
X42897Y-15378D01*
X42938Y-15373D01*
X42979Y-15370D01*
X43021Y-15370D01*
X43062Y-15373D01*
X43103Y-15378D01*
X43143Y-15386D01*
X43183Y-15397D01*
X43222Y-15410D01*
X43260Y-15426D01*
X43297Y-15444D01*
X43333Y-15465D01*
X43367Y-15488D01*
X43400Y-15513D01*
X43431Y-15540D01*
X43460Y-15569D01*
X43487Y-15600D01*
X43512Y-15633D01*
X43535Y-15667D01*
X43556Y-15703D01*
X43574Y-15740D01*
X43590Y-15778D01*
X43603Y-15817D01*
X43614Y-15857D01*
X43622Y-15897D01*
X43627Y-15938D01*
X43630Y-15979D01*
X43630Y-16021D01*
X78024Y33737D02*
X78021Y33698D01*
X78015Y33660D01*
X78006Y33622D01*
X77994Y33585D01*
X77979Y33550D01*
X77961Y33515D01*
X77941Y33482D01*
X77918Y33451D01*
X77893Y33422D01*
X77866Y33394D01*
X77836Y33369D01*
X77805Y33346D01*
X77772Y33326D01*
X77738Y33309D01*
X77702Y33294D01*
X77665Y33282D01*
X77628Y33273D01*
X77589Y33267D01*
X77551Y33264D01*
X77512Y33264D01*
X77474Y33267D01*
X77435Y33273D01*
X77398Y33282D01*
X77361Y33294D01*
X77325Y33309D01*
X77291Y33326D01*
X77258Y33346D01*
X77227Y33369D01*
X77197Y33394D01*
X77170Y33422D01*
X77145Y33451D01*
X77122Y33482D01*
X77102Y33515D01*
X77084Y33550D01*
X77069Y33585D01*
X77057Y33622D01*
X77048Y33660D01*
X77042Y33698D01*
X77039Y33737D01*
X77039Y33775D01*
X77042Y33814D01*
X77048Y33852D01*
X77057Y33890D01*
X77069Y33926D01*
X77084Y33962D01*
X77102Y33997D01*
X77122Y34030D01*
X77145Y34061D01*
X77170Y34090D01*
X77197Y34118D01*
X77227Y34143D01*
X77258Y34165D01*
X77291Y34186D01*
X77325Y34203D01*
X77361Y34218D01*
X77398Y34230D01*
X77435Y34239D01*
X77474Y34245D01*
X77512Y34248D01*
X77551Y34248D01*
X77589Y34245D01*
X77628Y34239D01*
X77665Y34230D01*
X77702Y34218D01*
X77738Y34203D01*
X77772Y34186D01*
X77805Y34165D01*
X77836Y34143D01*
X77866Y34118D01*
X77893Y34090D01*
X77918Y34061D01*
X77941Y34030D01*
X77961Y33997D01*
X77979Y33962D01*
X77994Y33926D01*
X78006Y33890D01*
X78015Y33852D01*
X78021Y33814D01*
X78024Y33775D01*
X78024Y33737D01*
X81961Y33737D02*
X81958Y33698D01*
X81952Y33660D01*
X81943Y33622D01*
X81931Y33585D01*
X81916Y33550D01*
X81898Y33515D01*
X81878Y33482D01*
X81855Y33451D01*
X81830Y33422D01*
X81803Y33394D01*
X81773Y33369D01*
X81742Y33346D01*
X81709Y33326D01*
X81675Y33309D01*
X81639Y33294D01*
X81602Y33282D01*
X81565Y33273D01*
X81526Y33267D01*
X81488Y33264D01*
X81449Y33264D01*
X81411Y33267D01*
X81372Y33273D01*
X81335Y33282D01*
X81298Y33294D01*
X81262Y33309D01*
X81228Y33326D01*
X81195Y33346D01*
X81164Y33369D01*
X81134Y33394D01*
X81107Y33422D01*
X81082Y33451D01*
X81059Y33482D01*
X81039Y33515D01*
X81021Y33550D01*
X81006Y33585D01*
X80994Y33622D01*
X80985Y33660D01*
X80979Y33698D01*
X80976Y33737D01*
X80976Y33775D01*
X80979Y33814D01*
X80985Y33852D01*
X80994Y33890D01*
X81006Y33926D01*
X81021Y33962D01*
X81039Y33997D01*
X81059Y34030D01*
X81082Y34061D01*
X81107Y34090D01*
X81134Y34118D01*
X81164Y34143D01*
X81195Y34165D01*
X81228Y34186D01*
X81262Y34203D01*
X81298Y34218D01*
X81335Y34230D01*
X81372Y34239D01*
X81411Y34245D01*
X81449Y34248D01*
X81488Y34248D01*
X81526Y34245D01*
X81565Y34239D01*
X81602Y34230D01*
X81639Y34218D01*
X81675Y34203D01*
X81709Y34186D01*
X81742Y34165D01*
X81773Y34143D01*
X81803Y34118D01*
X81830Y34090D01*
X81855Y34061D01*
X81878Y34030D01*
X81898Y33997D01*
X81916Y33962D01*
X81931Y33926D01*
X81943Y33890D01*
X81952Y33852D01*
X81958Y33814D01*
X81961Y33775D01*
X81961Y33737D01*
X37327Y39481D02*
X37324Y39442D01*
X37318Y39404D01*
X37309Y39366D01*
X37297Y39330D01*
X37282Y39294D01*
X37264Y39259D01*
X37244Y39226D01*
X37221Y39195D01*
X37196Y39166D01*
X37169Y39138D01*
X37140Y39113D01*
X37108Y39090D01*
X37075Y39070D01*
X37041Y39053D01*
X37005Y39038D01*
X36968Y39026D01*
X36931Y39017D01*
X36893Y39011D01*
X36854Y39008D01*
X36815Y39008D01*
X36777Y39011D01*
X36739Y39017D01*
X36701Y39026D01*
X36664Y39038D01*
X36628Y39053D01*
X36594Y39070D01*
X36561Y39090D01*
X36530Y39113D01*
X36500Y39138D01*
X36473Y39166D01*
X36448Y39195D01*
X36425Y39226D01*
X36405Y39259D01*
X36387Y39294D01*
X36373Y39330D01*
X36361Y39366D01*
X36352Y39404D01*
X36346Y39442D01*
X36343Y39481D01*
X36343Y39519D01*
X36346Y39558D01*
X36352Y39596D01*
X36361Y39634D01*
X36373Y39670D01*
X36387Y39706D01*
X36405Y39741D01*
X36425Y39774D01*
X36448Y39805D01*
X36473Y39834D01*
X36500Y39862D01*
X36530Y39887D01*
X36561Y39910D01*
X36594Y39930D01*
X36628Y39947D01*
X36664Y39962D01*
X36701Y39974D01*
X36739Y39983D01*
X36777Y39989D01*
X36815Y39992D01*
X36854Y39992D01*
X36893Y39989D01*
X36931Y39983D01*
X36968Y39974D01*
X37005Y39962D01*
X37041Y39947D01*
X37075Y39930D01*
X37108Y39910D01*
X37140Y39887D01*
X37169Y39862D01*
X37196Y39834D01*
X37221Y39805D01*
X37244Y39774D01*
X37264Y39741D01*
X37282Y39706D01*
X37297Y39670D01*
X37309Y39634D01*
X37318Y39596D01*
X37324Y39558D01*
X37327Y39519D01*
X37327Y39481D01*
X66854Y39481D02*
X66851Y39442D01*
X66845Y39404D01*
X66836Y39366D01*
X66824Y39330D01*
X66809Y39294D01*
X66792Y39259D01*
X66772Y39226D01*
X66749Y39195D01*
X66724Y39166D01*
X66697Y39138D01*
X66667Y39113D01*
X66636Y39090D01*
X66603Y39070D01*
X66568Y39053D01*
X66533Y39038D01*
X66496Y39026D01*
X66458Y39017D01*
X66420Y39011D01*
X66382Y39008D01*
X66343Y39008D01*
X66304Y39011D01*
X66266Y39017D01*
X66229Y39026D01*
X66192Y39038D01*
X66156Y39053D01*
X66122Y39070D01*
X66089Y39090D01*
X66057Y39113D01*
X66028Y39138D01*
X66001Y39166D01*
X65975Y39195D01*
X65953Y39226D01*
X65932Y39259D01*
X65915Y39294D01*
X65900Y39330D01*
X65888Y39366D01*
X65879Y39404D01*
X65873Y39442D01*
X65870Y39481D01*
X65870Y39519D01*
X65873Y39558D01*
X65879Y39596D01*
X65888Y39634D01*
X65900Y39670D01*
X65915Y39706D01*
X65932Y39741D01*
X65953Y39774D01*
X65975Y39805D01*
X66001Y39834D01*
X66028Y39862D01*
X66057Y39887D01*
X66089Y39910D01*
X66122Y39930D01*
X66156Y39947D01*
X66192Y39962D01*
X66229Y39974D01*
X66266Y39983D01*
X66304Y39989D01*
X66343Y39992D01*
X66382Y39992D01*
X66420Y39989D01*
X66458Y39983D01*
X66496Y39974D01*
X66533Y39962D01*
X66568Y39947D01*
X66603Y39930D01*
X66636Y39910D01*
X66667Y39887D01*
X66697Y39862D01*
X66724Y39834D01*
X66749Y39805D01*
X66772Y39774D01*
X66792Y39741D01*
X66809Y39706D01*
X66824Y39670D01*
X66836Y39634D01*
X66845Y39596D01*
X66851Y39558D01*
X66854Y39519D01*
X66854Y39481D01*
X37327Y27276D02*
X37324Y27237D01*
X37318Y27199D01*
X37309Y27162D01*
X37297Y27125D01*
X37282Y27089D01*
X37264Y27055D01*
X37244Y27022D01*
X37221Y26990D01*
X37196Y26961D01*
X37169Y26934D01*
X37140Y26909D01*
X37108Y26886D01*
X37075Y26866D01*
X37041Y26848D01*
X37005Y26833D01*
X36968Y26821D01*
X36931Y26812D01*
X36893Y26806D01*
X36854Y26803D01*
X36815Y26803D01*
X36777Y26806D01*
X36739Y26812D01*
X36701Y26821D01*
X36664Y26833D01*
X36628Y26848D01*
X36594Y26866D01*
X36561Y26886D01*
X36530Y26909D01*
X36500Y26934D01*
X36473Y26961D01*
X36448Y26990D01*
X36425Y27022D01*
X36405Y27055D01*
X36387Y27089D01*
X36373Y27125D01*
X36361Y27162D01*
X36352Y27199D01*
X36346Y27237D01*
X36343Y27276D01*
X36343Y27315D01*
X36346Y27353D01*
X36352Y27391D01*
X36361Y27429D01*
X36373Y27466D01*
X36387Y27501D01*
X36405Y27536D01*
X36425Y27569D01*
X36448Y27600D01*
X36473Y27630D01*
X36500Y27657D01*
X36530Y27682D01*
X36561Y27705D01*
X36594Y27725D01*
X36628Y27743D01*
X36664Y27757D01*
X36701Y27769D01*
X36739Y27778D01*
X36777Y27784D01*
X36815Y27787D01*
X36854Y27787D01*
X36893Y27784D01*
X36931Y27778D01*
X36968Y27769D01*
X37005Y27757D01*
X37041Y27743D01*
X37075Y27725D01*
X37108Y27705D01*
X37140Y27682D01*
X37169Y27657D01*
X37196Y27630D01*
X37221Y27600D01*
X37244Y27569D01*
X37264Y27536D01*
X37282Y27501D01*
X37297Y27466D01*
X37309Y27429D01*
X37318Y27391D01*
X37324Y27353D01*
X37327Y27315D01*
X37327Y27276D01*
X66854Y27276D02*
X66851Y27237D01*
X66845Y27199D01*
X66836Y27162D01*
X66824Y27125D01*
X66809Y27089D01*
X66792Y27055D01*
X66772Y27022D01*
X66749Y26990D01*
X66724Y26961D01*
X66697Y26934D01*
X66667Y26909D01*
X66636Y26886D01*
X66603Y26866D01*
X66568Y26848D01*
X66533Y26833D01*
X66496Y26821D01*
X66458Y26812D01*
X66420Y26806D01*
X66382Y26803D01*
X66343Y26803D01*
X66304Y26806D01*
X66266Y26812D01*
X66229Y26821D01*
X66192Y26833D01*
X66156Y26848D01*
X66122Y26866D01*
X66089Y26886D01*
X66057Y26909D01*
X66028Y26934D01*
X66001Y26961D01*
X65975Y26990D01*
X65953Y27022D01*
X65932Y27055D01*
X65915Y27089D01*
X65900Y27125D01*
X65888Y27162D01*
X65879Y27199D01*
X65873Y27237D01*
X65870Y27276D01*
X65870Y27315D01*
X65873Y27353D01*
X65879Y27391D01*
X65888Y27429D01*
X65900Y27466D01*
X65915Y27501D01*
X65932Y27536D01*
X65953Y27569D01*
X65975Y27600D01*
X66001Y27630D01*
X66028Y27657D01*
X66057Y27682D01*
X66089Y27705D01*
X66122Y27725D01*
X66156Y27743D01*
X66192Y27757D01*
X66229Y27769D01*
X66266Y27778D01*
X66304Y27784D01*
X66343Y27787D01*
X66382Y27787D01*
X66420Y27784D01*
X66458Y27778D01*
X66496Y27769D01*
X66533Y27757D01*
X66568Y27743D01*
X66603Y27725D01*
X66636Y27705D01*
X66667Y27682D01*
X66697Y27657D01*
X66724Y27630D01*
X66749Y27600D01*
X66772Y27569D01*
X66792Y27536D01*
X66809Y27501D01*
X66824Y27466D01*
X66836Y27429D01*
X66845Y27391D01*
X66851Y27353D01*
X66854Y27315D01*
X66854Y27276D01*
X113024Y51737D02*
X113021Y51698D01*
X113015Y51660D01*
X113006Y51622D01*
X112994Y51585D01*
X112979Y51550D01*
X112961Y51515D01*
X112941Y51482D01*
X112918Y51451D01*
X112893Y51422D01*
X112866Y51394D01*
X112836Y51369D01*
X112805Y51346D01*
X112772Y51326D01*
X112738Y51309D01*
X112702Y51294D01*
X112665Y51282D01*
X112628Y51273D01*
X112589Y51267D01*
X112551Y51264D01*
X112512Y51264D01*
X112474Y51267D01*
X112435Y51273D01*
X112398Y51282D01*
X112361Y51294D01*
X112325Y51309D01*
X112291Y51326D01*
X112258Y51346D01*
X112227Y51369D01*
X112197Y51394D01*
X112170Y51422D01*
X112145Y51451D01*
X112122Y51482D01*
X112102Y51515D01*
X112084Y51550D01*
X112069Y51585D01*
X112057Y51622D01*
X112048Y51660D01*
X112042Y51698D01*
X112039Y51737D01*
X112039Y51775D01*
X112042Y51814D01*
X112048Y51852D01*
X112057Y51890D01*
X112069Y51926D01*
X112084Y51962D01*
X112102Y51997D01*
X112122Y52030D01*
X112145Y52061D01*
X112170Y52090D01*
X112197Y52118D01*
X112227Y52143D01*
X112258Y52165D01*
X112291Y52186D01*
X112325Y52203D01*
X112361Y52218D01*
X112398Y52230D01*
X112435Y52239D01*
X112474Y52245D01*
X112512Y52248D01*
X112551Y52248D01*
X112589Y52245D01*
X112628Y52239D01*
X112665Y52230D01*
X112702Y52218D01*
X112738Y52203D01*
X112772Y52186D01*
X112805Y52165D01*
X112836Y52143D01*
X112866Y52118D01*
X112893Y52090D01*
X112918Y52061D01*
X112941Y52030D01*
X112961Y51997D01*
X112979Y51962D01*
X112994Y51926D01*
X113006Y51890D01*
X113015Y51852D01*
X113021Y51814D01*
X113024Y51775D01*
X113024Y51737D01*
X116961Y51737D02*
X116958Y51698D01*
X116952Y51660D01*
X116943Y51622D01*
X116931Y51585D01*
X116916Y51550D01*
X116898Y51515D01*
X116878Y51482D01*
X116855Y51451D01*
X116830Y51422D01*
X116803Y51394D01*
X116773Y51369D01*
X116742Y51346D01*
X116709Y51326D01*
X116675Y51309D01*
X116639Y51294D01*
X116602Y51282D01*
X116565Y51273D01*
X116526Y51267D01*
X116488Y51264D01*
X116449Y51264D01*
X116411Y51267D01*
X116372Y51273D01*
X116335Y51282D01*
X116298Y51294D01*
X116262Y51309D01*
X116228Y51326D01*
X116195Y51346D01*
X116164Y51369D01*
X116134Y51394D01*
X116107Y51422D01*
X116082Y51451D01*
X116059Y51482D01*
X116039Y51515D01*
X116021Y51550D01*
X116006Y51585D01*
X115994Y51622D01*
X115985Y51660D01*
X115979Y51698D01*
X115976Y51737D01*
X115976Y51775D01*
X115979Y51814D01*
X115985Y51852D01*
X115994Y51890D01*
X116006Y51926D01*
X116021Y51962D01*
X116039Y51997D01*
X116059Y52030D01*
X116082Y52061D01*
X116107Y52090D01*
X116134Y52118D01*
X116164Y52143D01*
X116195Y52165D01*
X116228Y52186D01*
X116262Y52203D01*
X116298Y52218D01*
X116335Y52230D01*
X116372Y52239D01*
X116411Y52245D01*
X116449Y52248D01*
X116488Y52248D01*
X116526Y52245D01*
X116565Y52239D01*
X116602Y52230D01*
X116639Y52218D01*
X116675Y52203D01*
X116709Y52186D01*
X116742Y52165D01*
X116773Y52143D01*
X116803Y52118D01*
X116830Y52090D01*
X116855Y52061D01*
X116878Y52030D01*
X116898Y51997D01*
X116916Y51962D01*
X116931Y51926D01*
X116943Y51890D01*
X116952Y51852D01*
X116958Y51814D01*
X116961Y51775D01*
X116961Y51737D01*
X27524Y34237D02*
X27521Y34198D01*
X27515Y34160D01*
X27506Y34122D01*
X27494Y34085D01*
X27479Y34050D01*
X27461Y34015D01*
X27441Y33982D01*
X27418Y33951D01*
X27393Y33922D01*
X27366Y33894D01*
X27336Y33869D01*
X27305Y33846D01*
X27272Y33826D01*
X27238Y33809D01*
X27202Y33794D01*
X27165Y33782D01*
X27128Y33773D01*
X27089Y33767D01*
X27051Y33764D01*
X27012Y33764D01*
X26974Y33767D01*
X26935Y33773D01*
X26898Y33782D01*
X26861Y33794D01*
X26825Y33809D01*
X26791Y33826D01*
X26758Y33846D01*
X26727Y33869D01*
X26697Y33894D01*
X26670Y33922D01*
X26645Y33951D01*
X26622Y33982D01*
X26602Y34015D01*
X26584Y34050D01*
X26569Y34085D01*
X26557Y34122D01*
X26548Y34160D01*
X26542Y34198D01*
X26539Y34237D01*
X26539Y34275D01*
X26542Y34314D01*
X26548Y34352D01*
X26557Y34390D01*
X26569Y34426D01*
X26584Y34462D01*
X26602Y34497D01*
X26622Y34530D01*
X26645Y34561D01*
X26670Y34590D01*
X26697Y34618D01*
X26727Y34643D01*
X26758Y34665D01*
X26791Y34686D01*
X26825Y34703D01*
X26861Y34718D01*
X26898Y34730D01*
X26935Y34739D01*
X26974Y34745D01*
X27012Y34748D01*
X27051Y34748D01*
X27089Y34745D01*
X27128Y34739D01*
X27165Y34730D01*
X27202Y34718D01*
X27238Y34703D01*
X27272Y34686D01*
X27305Y34665D01*
X27336Y34643D01*
X27366Y34618D01*
X27393Y34590D01*
X27418Y34561D01*
X27441Y34530D01*
X27461Y34497D01*
X27479Y34462D01*
X27494Y34426D01*
X27506Y34390D01*
X27515Y34352D01*
X27521Y34314D01*
X27524Y34275D01*
X27524Y34237D01*
X31461Y34237D02*
X31458Y34198D01*
X31452Y34160D01*
X31443Y34122D01*
X31431Y34085D01*
X31416Y34050D01*
X31398Y34015D01*
X31378Y33982D01*
X31355Y33951D01*
X31330Y33922D01*
X31303Y33894D01*
X31273Y33869D01*
X31242Y33846D01*
X31209Y33826D01*
X31175Y33809D01*
X31139Y33794D01*
X31102Y33782D01*
X31065Y33773D01*
X31026Y33767D01*
X30988Y33764D01*
X30949Y33764D01*
X30911Y33767D01*
X30872Y33773D01*
X30835Y33782D01*
X30798Y33794D01*
X30762Y33809D01*
X30728Y33826D01*
X30695Y33846D01*
X30664Y33869D01*
X30634Y33894D01*
X30607Y33922D01*
X30582Y33951D01*
X30559Y33982D01*
X30539Y34015D01*
X30521Y34050D01*
X30506Y34085D01*
X30494Y34122D01*
X30485Y34160D01*
X30479Y34198D01*
X30476Y34237D01*
X30476Y34275D01*
X30479Y34314D01*
X30485Y34352D01*
X30494Y34390D01*
X30506Y34426D01*
X30521Y34462D01*
X30539Y34497D01*
X30559Y34530D01*
X30582Y34561D01*
X30607Y34590D01*
X30634Y34618D01*
X30664Y34643D01*
X30695Y34665D01*
X30728Y34686D01*
X30762Y34703D01*
X30798Y34718D01*
X30835Y34730D01*
X30872Y34739D01*
X30911Y34745D01*
X30949Y34748D01*
X30988Y34748D01*
X31026Y34745D01*
X31065Y34739D01*
X31102Y34730D01*
X31139Y34718D01*
X31175Y34703D01*
X31209Y34686D01*
X31242Y34665D01*
X31273Y34643D01*
X31303Y34618D01*
X31330Y34590D01*
X31355Y34561D01*
X31378Y34530D01*
X31398Y34497D01*
X31416Y34462D01*
X31431Y34426D01*
X31443Y34390D01*
X31452Y34352D01*
X31458Y34314D01*
X31461Y34275D01*
X31461Y34237D01*
M02*
