G04 EAGLE Gerber RS-274X export*
G75*
%MOIN*%
%FSLAX34Y34*%
%LPD*%
%INSilkscreen Bottom*%
%IPPOS*%
%AMOC8*
5,1,8,0,0,1.08239X$1,22.5*%
G01*
%ADD10C,0.010000*%
%ADD11C,0.006000*%
%ADD12C,0.005000*%
%ADD13C,0.004000*%
%ADD14C,0.008000*%


D10*
X46583Y34730D02*
X60363Y34730D01*
X60487Y34728D01*
X60610Y34722D01*
X60734Y34713D01*
X60856Y34699D01*
X60979Y34682D01*
X61101Y34660D01*
X61222Y34635D01*
X61342Y34606D01*
X61461Y34574D01*
X61580Y34537D01*
X61697Y34497D01*
X61812Y34454D01*
X61927Y34406D01*
X62039Y34355D01*
X62150Y34301D01*
X62260Y34243D01*
X62367Y34182D01*
X62473Y34117D01*
X62576Y34049D01*
X62677Y33978D01*
X62776Y33904D01*
X62873Y33827D01*
X62967Y33746D01*
X63058Y33663D01*
X63147Y33577D01*
X63233Y33488D01*
X63316Y33397D01*
X63397Y33303D01*
X63474Y33206D01*
X63548Y33107D01*
X63619Y33006D01*
X63687Y32903D01*
X63752Y32797D01*
X63813Y32690D01*
X63871Y32580D01*
X63925Y32469D01*
X63976Y32357D01*
X64024Y32242D01*
X64067Y32127D01*
X64107Y32010D01*
X64144Y31891D01*
X64176Y31772D01*
X64205Y31652D01*
X64230Y31531D01*
X64252Y31409D01*
X64269Y31286D01*
X64283Y31164D01*
X64292Y31040D01*
X64298Y30917D01*
X64300Y30793D01*
X64300Y24887D01*
X64298Y24763D01*
X64292Y24640D01*
X64283Y24516D01*
X64269Y24394D01*
X64252Y24271D01*
X64230Y24149D01*
X64205Y24028D01*
X64176Y23908D01*
X64144Y23789D01*
X64107Y23670D01*
X64067Y23553D01*
X64024Y23438D01*
X63976Y23323D01*
X63925Y23211D01*
X63871Y23100D01*
X63813Y22990D01*
X63752Y22883D01*
X63687Y22777D01*
X63619Y22674D01*
X63548Y22573D01*
X63474Y22474D01*
X63397Y22377D01*
X63316Y22283D01*
X63233Y22192D01*
X63147Y22103D01*
X63058Y22017D01*
X62967Y21934D01*
X62873Y21853D01*
X62776Y21776D01*
X62677Y21702D01*
X62576Y21631D01*
X62473Y21563D01*
X62367Y21498D01*
X62260Y21437D01*
X62150Y21379D01*
X62039Y21325D01*
X61927Y21274D01*
X61812Y21226D01*
X61697Y21183D01*
X61580Y21143D01*
X61461Y21106D01*
X61342Y21074D01*
X61222Y21045D01*
X61101Y21020D01*
X60979Y20998D01*
X60856Y20981D01*
X60734Y20967D01*
X60610Y20958D01*
X60487Y20952D01*
X60363Y20950D01*
X46583Y20950D01*
X46459Y20952D01*
X46336Y20958D01*
X46212Y20967D01*
X46090Y20981D01*
X45967Y20998D01*
X45845Y21020D01*
X45724Y21045D01*
X45604Y21074D01*
X45485Y21106D01*
X45366Y21143D01*
X45249Y21183D01*
X45134Y21226D01*
X45019Y21274D01*
X44907Y21325D01*
X44796Y21379D01*
X44686Y21437D01*
X44579Y21498D01*
X44473Y21563D01*
X44370Y21631D01*
X44269Y21702D01*
X44170Y21776D01*
X44073Y21853D01*
X43979Y21934D01*
X43888Y22017D01*
X43799Y22103D01*
X43713Y22192D01*
X43630Y22283D01*
X43549Y22377D01*
X43472Y22474D01*
X43398Y22573D01*
X43327Y22674D01*
X43259Y22777D01*
X43194Y22883D01*
X43133Y22990D01*
X43075Y23100D01*
X43021Y23211D01*
X42970Y23323D01*
X42922Y23438D01*
X42879Y23553D01*
X42839Y23670D01*
X42802Y23789D01*
X42770Y23908D01*
X42741Y24028D01*
X42716Y24149D01*
X42694Y24271D01*
X42677Y24394D01*
X42663Y24516D01*
X42654Y24640D01*
X42648Y24763D01*
X42646Y24887D01*
X42646Y30793D01*
X42648Y30917D01*
X42654Y31040D01*
X42663Y31164D01*
X42677Y31286D01*
X42694Y31409D01*
X42716Y31531D01*
X42741Y31652D01*
X42770Y31772D01*
X42802Y31891D01*
X42839Y32010D01*
X42879Y32127D01*
X42922Y32242D01*
X42970Y32357D01*
X43021Y32469D01*
X43075Y32580D01*
X43133Y32690D01*
X43194Y32797D01*
X43259Y32903D01*
X43327Y33006D01*
X43398Y33107D01*
X43472Y33206D01*
X43549Y33303D01*
X43630Y33397D01*
X43713Y33488D01*
X43799Y33577D01*
X43888Y33663D01*
X43979Y33746D01*
X44073Y33827D01*
X44170Y33904D01*
X44269Y33978D01*
X44370Y34049D01*
X44473Y34117D01*
X44579Y34182D01*
X44686Y34243D01*
X44796Y34301D01*
X44907Y34355D01*
X45019Y34406D01*
X45134Y34454D01*
X45249Y34497D01*
X45366Y34537D01*
X45485Y34574D01*
X45604Y34606D01*
X45724Y34635D01*
X45845Y34660D01*
X45967Y34682D01*
X46090Y34699D01*
X46212Y34713D01*
X46336Y34722D01*
X46459Y34728D01*
X46583Y34730D01*
D11*
X55720Y28220D02*
X55720Y27780D01*
X55720Y28220D02*
X55598Y28220D01*
X55577Y28218D01*
X55556Y28213D01*
X55537Y28204D01*
X55520Y28191D01*
X55505Y28176D01*
X55492Y28159D01*
X55483Y28140D01*
X55478Y28119D01*
X55476Y28098D01*
X55478Y28077D01*
X55483Y28056D01*
X55492Y28037D01*
X55505Y28020D01*
X55520Y28005D01*
X55537Y27992D01*
X55556Y27983D01*
X55577Y27978D01*
X55598Y27976D01*
X55720Y27976D01*
X55299Y27976D02*
X55299Y27878D01*
X55299Y27976D02*
X55297Y27994D01*
X55292Y28011D01*
X55284Y28028D01*
X55273Y28042D01*
X55260Y28054D01*
X55245Y28064D01*
X55228Y28070D01*
X55210Y28074D01*
X55192Y28074D01*
X55174Y28070D01*
X55157Y28064D01*
X55142Y28054D01*
X55129Y28042D01*
X55118Y28028D01*
X55110Y28011D01*
X55105Y27994D01*
X55103Y27976D01*
X55103Y27878D01*
X55105Y27860D01*
X55110Y27843D01*
X55118Y27826D01*
X55129Y27812D01*
X55142Y27800D01*
X55157Y27790D01*
X55174Y27784D01*
X55192Y27780D01*
X55210Y27780D01*
X55228Y27784D01*
X55245Y27790D01*
X55260Y27800D01*
X55273Y27812D01*
X55284Y27826D01*
X55292Y27843D01*
X55297Y27860D01*
X55299Y27878D01*
X54835Y27780D02*
X54737Y27780D01*
X54835Y27780D02*
X54851Y27782D01*
X54867Y27787D01*
X54881Y27796D01*
X54892Y27807D01*
X54901Y27821D01*
X54906Y27837D01*
X54908Y27853D01*
X54908Y28000D01*
X54906Y28016D01*
X54901Y28032D01*
X54892Y28046D01*
X54881Y28057D01*
X54867Y28066D01*
X54851Y28071D01*
X54835Y28073D01*
X54737Y28073D01*
X54542Y28220D02*
X54542Y27780D01*
X54542Y27927D02*
X54347Y28073D01*
X54457Y27988D02*
X54347Y27780D01*
X54101Y27780D02*
X53978Y27780D01*
X54101Y27780D02*
X54117Y27782D01*
X54133Y27787D01*
X54147Y27796D01*
X54158Y27807D01*
X54167Y27821D01*
X54172Y27837D01*
X54174Y27853D01*
X54174Y27976D01*
X54172Y27994D01*
X54167Y28011D01*
X54159Y28028D01*
X54148Y28042D01*
X54135Y28054D01*
X54120Y28064D01*
X54103Y28070D01*
X54085Y28074D01*
X54067Y28074D01*
X54049Y28070D01*
X54032Y28064D01*
X54017Y28054D01*
X54004Y28042D01*
X53993Y28028D01*
X53985Y28011D01*
X53980Y27994D01*
X53978Y27976D01*
X53978Y27927D01*
X54174Y27927D01*
X53824Y28073D02*
X53677Y28073D01*
X53775Y28220D02*
X53775Y27853D01*
X53773Y27837D01*
X53768Y27821D01*
X53759Y27807D01*
X53748Y27796D01*
X53734Y27787D01*
X53718Y27782D01*
X53702Y27780D01*
X53677Y27780D01*
X53470Y28024D02*
X53348Y28024D01*
X53327Y28022D01*
X53306Y28017D01*
X53287Y28008D01*
X53270Y27995D01*
X53255Y27980D01*
X53242Y27963D01*
X53233Y27944D01*
X53228Y27923D01*
X53226Y27902D01*
X53228Y27881D01*
X53233Y27860D01*
X53242Y27841D01*
X53255Y27824D01*
X53270Y27809D01*
X53287Y27796D01*
X53306Y27787D01*
X53327Y27782D01*
X53348Y27780D01*
X53470Y27780D01*
X53470Y28220D01*
X53348Y28220D01*
X53330Y28218D01*
X53313Y28213D01*
X53296Y28205D01*
X53282Y28194D01*
X53270Y28181D01*
X53260Y28166D01*
X53254Y28149D01*
X53250Y28131D01*
X53250Y28113D01*
X53254Y28095D01*
X53260Y28078D01*
X53270Y28063D01*
X53282Y28050D01*
X53296Y28039D01*
X53313Y28031D01*
X53330Y28026D01*
X53348Y28024D01*
X52976Y27780D02*
X52853Y27780D01*
X52976Y27780D02*
X52992Y27782D01*
X53008Y27787D01*
X53022Y27796D01*
X53033Y27807D01*
X53042Y27821D01*
X53047Y27837D01*
X53049Y27853D01*
X53049Y27976D01*
X53047Y27994D01*
X53042Y28011D01*
X53034Y28028D01*
X53023Y28042D01*
X53010Y28054D01*
X52995Y28064D01*
X52978Y28070D01*
X52960Y28074D01*
X52942Y28074D01*
X52924Y28070D01*
X52907Y28064D01*
X52892Y28054D01*
X52879Y28042D01*
X52868Y28028D01*
X52860Y28011D01*
X52855Y27994D01*
X52853Y27976D01*
X52853Y27927D01*
X53049Y27927D01*
X52576Y27951D02*
X52466Y27951D01*
X52576Y27952D02*
X52594Y27950D01*
X52611Y27945D01*
X52627Y27936D01*
X52640Y27924D01*
X52650Y27909D01*
X52658Y27893D01*
X52662Y27875D01*
X52662Y27857D01*
X52658Y27839D01*
X52650Y27823D01*
X52640Y27808D01*
X52627Y27796D01*
X52611Y27787D01*
X52594Y27782D01*
X52576Y27780D01*
X52466Y27780D01*
X52466Y28000D01*
X52467Y28000D02*
X52469Y28016D01*
X52474Y28032D01*
X52483Y28046D01*
X52494Y28057D01*
X52508Y28066D01*
X52524Y28071D01*
X52540Y28073D01*
X52637Y28073D01*
X52183Y27780D02*
X52061Y27780D01*
X52183Y27780D02*
X52199Y27782D01*
X52215Y27787D01*
X52229Y27796D01*
X52240Y27807D01*
X52249Y27821D01*
X52254Y27837D01*
X52256Y27853D01*
X52257Y27853D02*
X52257Y28000D01*
X52256Y28000D02*
X52254Y28016D01*
X52249Y28032D01*
X52240Y28046D01*
X52229Y28057D01*
X52215Y28066D01*
X52199Y28071D01*
X52183Y28073D01*
X52061Y28073D01*
X52061Y27707D01*
X52062Y27707D02*
X52064Y27691D01*
X52069Y27675D01*
X52078Y27661D01*
X52089Y27650D01*
X52103Y27641D01*
X52119Y27636D01*
X52135Y27634D01*
X52135Y27633D02*
X52232Y27633D01*
X51845Y27853D02*
X51845Y28220D01*
X51845Y27853D02*
X51843Y27837D01*
X51838Y27821D01*
X51829Y27807D01*
X51818Y27796D01*
X51804Y27787D01*
X51788Y27782D01*
X51772Y27780D01*
X51536Y27780D02*
X51413Y27780D01*
X51536Y27780D02*
X51552Y27782D01*
X51568Y27787D01*
X51582Y27796D01*
X51593Y27807D01*
X51602Y27821D01*
X51607Y27837D01*
X51609Y27853D01*
X51609Y27976D01*
X51607Y27994D01*
X51602Y28011D01*
X51594Y28028D01*
X51583Y28042D01*
X51570Y28054D01*
X51555Y28064D01*
X51538Y28070D01*
X51520Y28074D01*
X51502Y28074D01*
X51484Y28070D01*
X51467Y28064D01*
X51452Y28054D01*
X51439Y28042D01*
X51428Y28028D01*
X51420Y28011D01*
X51415Y27994D01*
X51413Y27976D01*
X51413Y27927D01*
X51609Y27927D01*
X63280Y27041D02*
X63573Y27041D01*
X63573Y27261D01*
X63571Y27277D01*
X63566Y27293D01*
X63557Y27307D01*
X63546Y27318D01*
X63532Y27327D01*
X63516Y27332D01*
X63500Y27334D01*
X63500Y27335D02*
X63280Y27335D01*
X63280Y27188D02*
X63573Y27188D01*
X63573Y27548D02*
X63280Y27548D01*
X63696Y27536D02*
X63720Y27536D01*
X63720Y27560D01*
X63696Y27560D01*
X63696Y27536D01*
X63280Y27809D02*
X63280Y27907D01*
X63280Y27809D02*
X63282Y27793D01*
X63287Y27777D01*
X63296Y27763D01*
X63307Y27752D01*
X63321Y27743D01*
X63337Y27738D01*
X63353Y27736D01*
X63500Y27736D01*
X63516Y27738D01*
X63532Y27743D01*
X63546Y27752D01*
X63557Y27763D01*
X63566Y27777D01*
X63571Y27793D01*
X63573Y27809D01*
X63573Y27907D01*
X63573Y28099D02*
X63280Y28099D01*
X63573Y28099D02*
X63573Y28245D01*
X63524Y28245D01*
X63476Y28395D02*
X63378Y28395D01*
X63476Y28395D02*
X63494Y28397D01*
X63511Y28402D01*
X63528Y28410D01*
X63542Y28421D01*
X63554Y28434D01*
X63564Y28449D01*
X63570Y28466D01*
X63574Y28484D01*
X63574Y28502D01*
X63570Y28520D01*
X63564Y28537D01*
X63554Y28552D01*
X63542Y28565D01*
X63528Y28576D01*
X63511Y28584D01*
X63494Y28589D01*
X63476Y28591D01*
X63378Y28591D01*
X63360Y28589D01*
X63343Y28584D01*
X63326Y28576D01*
X63312Y28565D01*
X63300Y28552D01*
X63290Y28537D01*
X63284Y28520D01*
X63280Y28502D01*
X63280Y28484D01*
X63284Y28466D01*
X63290Y28449D01*
X63300Y28434D01*
X63312Y28421D01*
X63326Y28410D01*
X63343Y28402D01*
X63360Y28397D01*
X63378Y28395D01*
X63402Y28806D02*
X63720Y28806D01*
X63402Y28806D02*
X63381Y28808D01*
X63360Y28813D01*
X63341Y28822D01*
X63324Y28835D01*
X63309Y28850D01*
X63296Y28867D01*
X63287Y28886D01*
X63282Y28907D01*
X63280Y28928D01*
X63282Y28949D01*
X63287Y28970D01*
X63296Y28989D01*
X63309Y29006D01*
X63324Y29021D01*
X63341Y29034D01*
X63360Y29043D01*
X63381Y29048D01*
X63402Y29050D01*
X63720Y29050D01*
X63280Y29402D02*
X63281Y29419D01*
X63286Y29436D01*
X63293Y29451D01*
X63303Y29465D01*
X63315Y29477D01*
X63329Y29487D01*
X63344Y29494D01*
X63361Y29499D01*
X63378Y29500D01*
X63280Y29402D02*
X63282Y29375D01*
X63287Y29348D01*
X63296Y29322D01*
X63308Y29298D01*
X63323Y29275D01*
X63341Y29255D01*
X63622Y29268D02*
X63639Y29269D01*
X63656Y29274D01*
X63671Y29281D01*
X63685Y29291D01*
X63697Y29303D01*
X63707Y29317D01*
X63714Y29332D01*
X63719Y29349D01*
X63720Y29366D01*
X63718Y29389D01*
X63714Y29413D01*
X63707Y29435D01*
X63696Y29456D01*
X63683Y29476D01*
X63537Y29317D02*
X63547Y29303D01*
X63559Y29291D01*
X63573Y29281D01*
X63588Y29274D01*
X63605Y29269D01*
X63622Y29268D01*
X63463Y29451D02*
X63453Y29465D01*
X63441Y29477D01*
X63427Y29487D01*
X63412Y29494D01*
X63395Y29499D01*
X63378Y29500D01*
X63463Y29451D02*
X63537Y29317D01*
X63524Y29714D02*
X63524Y29836D01*
X63522Y29857D01*
X63517Y29878D01*
X63508Y29897D01*
X63495Y29914D01*
X63480Y29929D01*
X63463Y29942D01*
X63444Y29951D01*
X63423Y29956D01*
X63402Y29958D01*
X63381Y29956D01*
X63360Y29951D01*
X63341Y29942D01*
X63324Y29929D01*
X63309Y29914D01*
X63296Y29897D01*
X63287Y29878D01*
X63282Y29857D01*
X63280Y29836D01*
X63280Y29714D01*
X63720Y29714D01*
X63720Y29836D01*
X63718Y29854D01*
X63713Y29871D01*
X63705Y29888D01*
X63694Y29902D01*
X63681Y29914D01*
X63666Y29924D01*
X63649Y29930D01*
X63631Y29934D01*
X63613Y29934D01*
X63595Y29930D01*
X63578Y29924D01*
X63563Y29914D01*
X63550Y29902D01*
X63539Y29888D01*
X63531Y29871D01*
X63526Y29854D01*
X63524Y29836D01*
X43573Y26786D02*
X43280Y26786D01*
X43573Y26786D02*
X43573Y27006D01*
X43571Y27022D01*
X43566Y27038D01*
X43557Y27052D01*
X43546Y27063D01*
X43532Y27072D01*
X43516Y27077D01*
X43500Y27079D01*
X43280Y27079D01*
X43280Y26932D02*
X43573Y26932D01*
X43573Y27292D02*
X43280Y27292D01*
X43696Y27280D02*
X43720Y27280D01*
X43720Y27304D01*
X43696Y27304D01*
X43696Y27280D01*
X43280Y27553D02*
X43280Y27651D01*
X43280Y27553D02*
X43282Y27537D01*
X43287Y27521D01*
X43296Y27507D01*
X43307Y27496D01*
X43321Y27487D01*
X43337Y27482D01*
X43353Y27480D01*
X43500Y27480D01*
X43516Y27482D01*
X43532Y27487D01*
X43546Y27496D01*
X43557Y27507D01*
X43566Y27521D01*
X43571Y27537D01*
X43573Y27553D01*
X43573Y27651D01*
X43573Y27843D02*
X43280Y27843D01*
X43573Y27843D02*
X43573Y27989D01*
X43524Y27989D01*
X43476Y28139D02*
X43378Y28139D01*
X43476Y28139D02*
X43494Y28141D01*
X43511Y28146D01*
X43528Y28154D01*
X43542Y28165D01*
X43554Y28178D01*
X43564Y28193D01*
X43570Y28210D01*
X43574Y28228D01*
X43574Y28246D01*
X43570Y28264D01*
X43564Y28281D01*
X43554Y28296D01*
X43542Y28309D01*
X43528Y28320D01*
X43511Y28328D01*
X43494Y28333D01*
X43476Y28335D01*
X43378Y28335D01*
X43360Y28333D01*
X43343Y28328D01*
X43326Y28320D01*
X43312Y28309D01*
X43300Y28296D01*
X43290Y28281D01*
X43284Y28264D01*
X43280Y28246D01*
X43280Y28228D01*
X43284Y28210D01*
X43290Y28193D01*
X43300Y28178D01*
X43312Y28165D01*
X43326Y28154D01*
X43343Y28146D01*
X43360Y28141D01*
X43378Y28139D01*
X43280Y28667D02*
X43281Y28684D01*
X43286Y28701D01*
X43293Y28716D01*
X43303Y28730D01*
X43315Y28742D01*
X43329Y28752D01*
X43344Y28759D01*
X43361Y28764D01*
X43378Y28765D01*
X43280Y28667D02*
X43282Y28640D01*
X43287Y28613D01*
X43296Y28587D01*
X43308Y28563D01*
X43323Y28540D01*
X43341Y28520D01*
X43622Y28532D02*
X43639Y28533D01*
X43656Y28538D01*
X43671Y28545D01*
X43685Y28555D01*
X43697Y28567D01*
X43707Y28581D01*
X43714Y28596D01*
X43719Y28613D01*
X43720Y28630D01*
X43718Y28653D01*
X43714Y28677D01*
X43707Y28699D01*
X43696Y28720D01*
X43683Y28740D01*
X43537Y28582D02*
X43547Y28568D01*
X43559Y28556D01*
X43573Y28546D01*
X43588Y28539D01*
X43605Y28534D01*
X43622Y28533D01*
X43463Y28715D02*
X43453Y28729D01*
X43441Y28741D01*
X43427Y28751D01*
X43412Y28758D01*
X43395Y28763D01*
X43378Y28764D01*
X43463Y28716D02*
X43537Y28581D01*
X43720Y28970D02*
X43280Y28970D01*
X43720Y28970D02*
X43720Y29092D01*
X43718Y29113D01*
X43713Y29134D01*
X43704Y29153D01*
X43691Y29170D01*
X43676Y29185D01*
X43659Y29198D01*
X43640Y29207D01*
X43619Y29212D01*
X43598Y29214D01*
X43402Y29214D01*
X43381Y29212D01*
X43360Y29207D01*
X43341Y29198D01*
X43324Y29185D01*
X43309Y29170D01*
X43296Y29153D01*
X43287Y29134D01*
X43282Y29113D01*
X43280Y29092D01*
X43280Y28970D01*
D10*
X54420Y22890D02*
X55420Y22890D01*
X56420Y22890D01*
X60420Y22890D01*
X61420Y22890D01*
X53420Y22890D02*
X53420Y25790D01*
X53420Y22890D02*
X52420Y22890D01*
X51420Y22890D01*
X50420Y22890D01*
X48420Y22890D01*
X46420Y22890D01*
X45420Y22890D01*
X54420Y32890D02*
X55420Y32890D01*
X56420Y32890D01*
X58420Y32890D01*
X60420Y32890D01*
X54420Y32890D02*
X53420Y32890D01*
X52420Y32890D01*
X51420Y32890D01*
X50420Y32890D01*
X49420Y32890D01*
X46420Y32890D01*
X45420Y32890D01*
X61420Y22890D02*
X61420Y21200D01*
X54420Y21050D02*
X54420Y22890D01*
X48420Y22890D02*
X48420Y21050D01*
X45420Y21200D02*
X45420Y22890D01*
X46420Y22890D02*
X46420Y25790D01*
X48420Y25790D02*
X48420Y22890D01*
X50420Y22890D02*
X50420Y25790D01*
X54420Y25790D02*
X54420Y22890D01*
X60420Y22890D02*
X60420Y25790D01*
X60420Y29990D02*
X60420Y32890D01*
X58420Y32890D02*
X58420Y29990D01*
X56420Y29990D02*
X56420Y32890D01*
X54420Y32890D02*
X54420Y29990D01*
X56420Y32890D02*
X56420Y34740D01*
X54420Y34740D02*
X54420Y32890D01*
X45420Y32890D02*
X45420Y34540D01*
X49420Y34740D02*
X49420Y32890D01*
X50420Y32890D02*
X50420Y29990D01*
X46420Y29990D02*
X46420Y32890D01*
X52420Y25790D02*
X52420Y22890D01*
X52420Y29990D02*
X52420Y32890D01*
D12*
X52702Y21475D02*
X52818Y21125D01*
X52585Y21125D02*
X52702Y21475D01*
X52614Y21213D02*
X52789Y21213D01*
X52414Y21125D02*
X52414Y21475D01*
X52452Y21125D02*
X52375Y21125D01*
X52375Y21475D02*
X52452Y21475D01*
X52211Y21475D02*
X52211Y21125D01*
X52016Y21125D02*
X52211Y21475D01*
X52016Y21475D02*
X52016Y21125D01*
X51647Y21300D02*
X51645Y21333D01*
X51640Y21366D01*
X51632Y21398D01*
X51621Y21429D01*
X51607Y21459D01*
X51589Y21487D01*
X51569Y21514D01*
X51647Y21300D02*
X51645Y21267D01*
X51640Y21234D01*
X51632Y21202D01*
X51621Y21171D01*
X51607Y21141D01*
X51589Y21113D01*
X51569Y21086D01*
X51419Y21397D02*
X51322Y21475D01*
X51322Y21125D01*
X51419Y21125D02*
X51224Y21125D01*
X51079Y21125D02*
X51079Y21144D01*
X51060Y21144D01*
X51060Y21125D01*
X51079Y21125D01*
X50915Y21222D02*
X50913Y21240D01*
X50908Y21257D01*
X50900Y21273D01*
X50890Y21287D01*
X50876Y21299D01*
X50861Y21309D01*
X50845Y21315D01*
X50827Y21319D01*
X50809Y21319D01*
X50791Y21315D01*
X50775Y21309D01*
X50760Y21299D01*
X50746Y21287D01*
X50736Y21273D01*
X50728Y21257D01*
X50723Y21240D01*
X50721Y21222D01*
X50723Y21204D01*
X50728Y21187D01*
X50736Y21171D01*
X50746Y21157D01*
X50760Y21145D01*
X50775Y21135D01*
X50791Y21129D01*
X50809Y21125D01*
X50827Y21125D01*
X50845Y21129D01*
X50861Y21135D01*
X50876Y21145D01*
X50890Y21157D01*
X50900Y21171D01*
X50908Y21187D01*
X50913Y21204D01*
X50915Y21222D01*
X50896Y21397D02*
X50894Y21413D01*
X50889Y21429D01*
X50881Y21443D01*
X50870Y21455D01*
X50857Y21465D01*
X50842Y21471D01*
X50826Y21475D01*
X50810Y21475D01*
X50794Y21471D01*
X50779Y21465D01*
X50766Y21455D01*
X50755Y21443D01*
X50747Y21429D01*
X50742Y21413D01*
X50740Y21397D01*
X50742Y21381D01*
X50747Y21365D01*
X50755Y21351D01*
X50766Y21339D01*
X50779Y21329D01*
X50794Y21323D01*
X50810Y21319D01*
X50826Y21319D01*
X50842Y21323D01*
X50857Y21329D01*
X50870Y21339D01*
X50881Y21351D01*
X50889Y21365D01*
X50894Y21381D01*
X50896Y21397D01*
X50574Y21475D02*
X50458Y21125D01*
X50341Y21475D01*
X50132Y21300D02*
X50134Y21267D01*
X50139Y21234D01*
X50147Y21202D01*
X50158Y21171D01*
X50172Y21141D01*
X50190Y21113D01*
X50210Y21086D01*
X50132Y21300D02*
X50134Y21333D01*
X50139Y21366D01*
X50147Y21398D01*
X50158Y21429D01*
X50172Y21459D01*
X50190Y21487D01*
X50210Y21514D01*
D13*
X50065Y34436D02*
X49785Y34436D01*
X49785Y34358D01*
X49787Y34342D01*
X49792Y34326D01*
X49800Y34312D01*
X49811Y34300D01*
X49824Y34290D01*
X49839Y34284D01*
X49855Y34280D01*
X49871Y34280D01*
X49887Y34284D01*
X49902Y34290D01*
X49915Y34300D01*
X49926Y34312D01*
X49934Y34326D01*
X49939Y34342D01*
X49941Y34358D01*
X49941Y34436D01*
X49941Y34342D02*
X50065Y34280D01*
X50065Y34066D02*
X50063Y34052D01*
X50059Y34039D01*
X50051Y34027D01*
X50042Y34018D01*
X50030Y34010D01*
X50017Y34006D01*
X50003Y34004D01*
X50065Y34066D02*
X50063Y34087D01*
X50059Y34107D01*
X50051Y34126D01*
X50040Y34143D01*
X50026Y34159D01*
X49847Y34152D02*
X49833Y34150D01*
X49820Y34146D01*
X49808Y34138D01*
X49799Y34129D01*
X49791Y34117D01*
X49787Y34104D01*
X49785Y34090D01*
X49787Y34071D01*
X49791Y34053D01*
X49798Y34036D01*
X49808Y34020D01*
X49901Y34121D02*
X49894Y34131D01*
X49884Y34140D01*
X49872Y34147D01*
X49860Y34151D01*
X49847Y34152D01*
X49949Y34035D02*
X49956Y34025D01*
X49966Y34016D01*
X49978Y34009D01*
X49990Y34005D01*
X50003Y34004D01*
X49948Y34035D02*
X49902Y34121D01*
X49785Y33823D02*
X50065Y33823D01*
X49785Y33901D02*
X49785Y33745D01*
D11*
X53705Y24407D02*
X54145Y24553D01*
X54145Y24260D02*
X53705Y24407D01*
X54035Y24297D02*
X54035Y24517D01*
X53974Y24073D02*
X53974Y23780D01*
X54121Y23927D02*
X53827Y23927D01*
X52815Y24230D02*
X52796Y24232D01*
X52777Y24237D01*
X52760Y24245D01*
X52744Y24256D01*
X52731Y24269D01*
X52720Y24285D01*
X52712Y24302D01*
X52707Y24321D01*
X52705Y24340D01*
X52707Y24362D01*
X52712Y24384D01*
X52720Y24404D01*
X52732Y24423D01*
X52746Y24440D01*
X52763Y24454D01*
X52782Y24466D01*
X52803Y24474D01*
X52900Y24267D02*
X52886Y24254D01*
X52870Y24244D01*
X52853Y24236D01*
X52834Y24232D01*
X52815Y24230D01*
X52901Y24267D02*
X53145Y24474D01*
X53145Y24230D01*
X52925Y24025D02*
X52892Y24024D01*
X52859Y24019D01*
X52827Y24012D01*
X52796Y24001D01*
X52766Y23988D01*
X52766Y23987D02*
X52749Y23979D01*
X52734Y23968D01*
X52722Y23954D01*
X52713Y23938D01*
X52707Y23920D01*
X52705Y23902D01*
X52707Y23884D01*
X52713Y23866D01*
X52722Y23850D01*
X52734Y23836D01*
X52749Y23825D01*
X52766Y23817D01*
X52796Y23804D01*
X52827Y23793D01*
X52859Y23786D01*
X52892Y23781D01*
X52925Y23780D01*
X52925Y24025D02*
X52958Y24024D01*
X52991Y24019D01*
X53023Y24012D01*
X53054Y24001D01*
X53084Y23988D01*
X53084Y23987D02*
X53101Y23979D01*
X53116Y23968D01*
X53128Y23954D01*
X53137Y23938D01*
X53143Y23920D01*
X53145Y23902D01*
X53084Y23817D02*
X53054Y23804D01*
X53023Y23793D01*
X52991Y23786D01*
X52958Y23781D01*
X52925Y23780D01*
X53084Y23817D02*
X53101Y23825D01*
X53116Y23836D01*
X53128Y23850D01*
X53137Y23866D01*
X53143Y23884D01*
X53145Y23902D01*
X53047Y24000D02*
X52803Y23804D01*
X51901Y24740D02*
X51901Y24813D01*
X51901Y24740D02*
X52145Y24740D01*
X52145Y24887D01*
X52144Y24904D01*
X52139Y24921D01*
X52132Y24936D01*
X52122Y24950D01*
X52110Y24962D01*
X52096Y24972D01*
X52081Y24979D01*
X52064Y24984D01*
X52047Y24985D01*
X52047Y24984D02*
X51803Y24984D01*
X51803Y24985D02*
X51784Y24983D01*
X51765Y24978D01*
X51749Y24968D01*
X51734Y24956D01*
X51722Y24941D01*
X51712Y24925D01*
X51707Y24906D01*
X51705Y24887D01*
X51705Y24740D01*
X51705Y24504D02*
X52145Y24504D01*
X52145Y24260D02*
X51705Y24504D01*
X51705Y24260D02*
X52145Y24260D01*
X52145Y24024D02*
X51705Y24024D01*
X51705Y23902D01*
X51707Y23881D01*
X51712Y23860D01*
X51721Y23841D01*
X51734Y23824D01*
X51749Y23809D01*
X51766Y23796D01*
X51785Y23787D01*
X51806Y23782D01*
X51827Y23780D01*
X52023Y23780D01*
X52044Y23782D01*
X52065Y23787D01*
X52084Y23796D01*
X52101Y23809D01*
X52116Y23824D01*
X52129Y23841D01*
X52138Y23860D01*
X52143Y23881D01*
X52145Y23902D01*
X52145Y24024D01*
D12*
X51125Y25101D02*
X50725Y25234D01*
X50725Y24968D02*
X51125Y25101D01*
X51014Y24807D02*
X50836Y24807D01*
X50817Y24805D01*
X50798Y24800D01*
X50781Y24792D01*
X50765Y24781D01*
X50751Y24767D01*
X50740Y24752D01*
X50732Y24734D01*
X50727Y24715D01*
X50725Y24696D01*
X50727Y24677D01*
X50732Y24658D01*
X50740Y24641D01*
X50751Y24625D01*
X50765Y24611D01*
X50781Y24600D01*
X50798Y24592D01*
X50817Y24587D01*
X50836Y24585D01*
X51014Y24585D01*
X51033Y24587D01*
X51052Y24592D01*
X51070Y24600D01*
X51085Y24611D01*
X51099Y24625D01*
X51110Y24641D01*
X51118Y24658D01*
X51123Y24677D01*
X51125Y24696D01*
X51123Y24715D01*
X51118Y24734D01*
X51110Y24752D01*
X51099Y24767D01*
X51085Y24781D01*
X51070Y24792D01*
X51052Y24800D01*
X51033Y24805D01*
X51014Y24807D01*
X51014Y24389D02*
X50725Y24389D01*
X51014Y24389D02*
X51033Y24387D01*
X51052Y24382D01*
X51070Y24374D01*
X51085Y24363D01*
X51099Y24349D01*
X51110Y24334D01*
X51118Y24316D01*
X51123Y24297D01*
X51125Y24278D01*
X51123Y24259D01*
X51118Y24240D01*
X51110Y24223D01*
X51099Y24207D01*
X51085Y24193D01*
X51070Y24182D01*
X51052Y24174D01*
X51033Y24169D01*
X51014Y24167D01*
X51014Y24166D02*
X50725Y24166D01*
X50725Y23886D02*
X51125Y23886D01*
X50725Y23997D02*
X50725Y23775D01*
X50036Y24621D02*
X50053Y24623D01*
X50070Y24628D01*
X50085Y24636D01*
X50099Y24647D01*
X50110Y24661D01*
X50118Y24676D01*
X50123Y24693D01*
X50125Y24710D01*
X50123Y24735D01*
X50119Y24759D01*
X50111Y24782D01*
X50100Y24804D01*
X50086Y24825D01*
X50069Y24843D01*
X49814Y24832D02*
X49797Y24830D01*
X49780Y24825D01*
X49765Y24817D01*
X49751Y24806D01*
X49740Y24792D01*
X49732Y24777D01*
X49727Y24760D01*
X49725Y24743D01*
X49726Y24722D01*
X49731Y24700D01*
X49737Y24680D01*
X49747Y24661D01*
X49758Y24643D01*
X49892Y24788D02*
X49880Y24803D01*
X49867Y24815D01*
X49850Y24824D01*
X49833Y24830D01*
X49814Y24832D01*
X49958Y24665D02*
X49970Y24650D01*
X49983Y24638D01*
X50000Y24629D01*
X50017Y24623D01*
X50036Y24621D01*
X49958Y24665D02*
X49892Y24787D01*
X49725Y24438D02*
X50125Y24438D01*
X49725Y24438D02*
X49725Y24327D01*
X49727Y24308D01*
X49732Y24289D01*
X49740Y24272D01*
X49751Y24256D01*
X49765Y24242D01*
X49781Y24231D01*
X49798Y24223D01*
X49817Y24218D01*
X49836Y24216D01*
X50014Y24216D01*
X50033Y24218D01*
X50052Y24223D01*
X50070Y24231D01*
X50085Y24242D01*
X50099Y24256D01*
X50110Y24272D01*
X50118Y24289D01*
X50123Y24308D01*
X50125Y24327D01*
X50125Y24438D01*
X50125Y24042D02*
X49725Y23908D01*
X50125Y23775D01*
X50025Y23808D02*
X50025Y24008D01*
X49125Y24563D02*
X49123Y24546D01*
X49118Y24529D01*
X49110Y24514D01*
X49099Y24500D01*
X49085Y24489D01*
X49070Y24481D01*
X49053Y24476D01*
X49036Y24474D01*
X49125Y24563D02*
X49123Y24588D01*
X49119Y24612D01*
X49111Y24635D01*
X49100Y24657D01*
X49086Y24678D01*
X49069Y24696D01*
X48814Y24685D02*
X48797Y24683D01*
X48780Y24678D01*
X48765Y24670D01*
X48751Y24659D01*
X48740Y24645D01*
X48732Y24630D01*
X48727Y24613D01*
X48725Y24596D01*
X48726Y24575D01*
X48731Y24553D01*
X48737Y24533D01*
X48747Y24514D01*
X48758Y24496D01*
X48892Y24641D02*
X48880Y24656D01*
X48867Y24668D01*
X48850Y24677D01*
X48833Y24683D01*
X48814Y24685D01*
X48958Y24518D02*
X48970Y24503D01*
X48983Y24491D01*
X49000Y24482D01*
X49017Y24476D01*
X49036Y24474D01*
X48958Y24518D02*
X48892Y24641D01*
X49125Y24217D02*
X49125Y24128D01*
X49125Y24217D02*
X49123Y24234D01*
X49118Y24251D01*
X49110Y24266D01*
X49099Y24280D01*
X49085Y24291D01*
X49070Y24299D01*
X49053Y24304D01*
X49036Y24306D01*
X48814Y24306D01*
X48797Y24304D01*
X48780Y24299D01*
X48765Y24291D01*
X48751Y24280D01*
X48740Y24266D01*
X48732Y24251D01*
X48727Y24234D01*
X48725Y24217D01*
X48725Y24128D01*
X48725Y23953D02*
X49125Y23953D01*
X49125Y23775D01*
D11*
X48145Y24347D02*
X47705Y24347D01*
X47705Y24469D02*
X47705Y24224D01*
X47705Y23780D02*
X48145Y24073D01*
X48145Y23780D02*
X47705Y24073D01*
X47145Y24495D02*
X46705Y24495D01*
X46705Y24373D01*
X46707Y24352D01*
X46712Y24331D01*
X46721Y24312D01*
X46734Y24295D01*
X46749Y24280D01*
X46766Y24267D01*
X46785Y24258D01*
X46806Y24253D01*
X46827Y24251D01*
X46848Y24253D01*
X46869Y24258D01*
X46888Y24267D01*
X46905Y24280D01*
X46920Y24295D01*
X46933Y24312D01*
X46942Y24331D01*
X46947Y24352D01*
X46949Y24373D01*
X46949Y24495D01*
X46949Y24349D02*
X47145Y24251D01*
X47145Y24073D02*
X46705Y23780D01*
X46705Y24073D02*
X47145Y23780D01*
X45815Y24230D02*
X45796Y24232D01*
X45777Y24237D01*
X45760Y24245D01*
X45744Y24256D01*
X45731Y24269D01*
X45720Y24285D01*
X45712Y24302D01*
X45707Y24321D01*
X45705Y24340D01*
X45707Y24362D01*
X45712Y24384D01*
X45720Y24404D01*
X45732Y24423D01*
X45746Y24440D01*
X45763Y24454D01*
X45782Y24466D01*
X45803Y24474D01*
X45900Y24267D02*
X45886Y24254D01*
X45870Y24244D01*
X45853Y24236D01*
X45834Y24232D01*
X45815Y24230D01*
X45901Y24267D02*
X46145Y24474D01*
X46145Y24230D01*
X45901Y24024D02*
X45901Y23878D01*
X45900Y23878D02*
X45901Y23861D01*
X45906Y23844D01*
X45913Y23829D01*
X45923Y23815D01*
X45935Y23803D01*
X45949Y23793D01*
X45964Y23786D01*
X45981Y23781D01*
X45998Y23780D01*
X46023Y23780D01*
X46044Y23782D01*
X46065Y23787D01*
X46084Y23796D01*
X46101Y23809D01*
X46116Y23824D01*
X46129Y23841D01*
X46138Y23860D01*
X46143Y23881D01*
X46145Y23902D01*
X46143Y23923D01*
X46138Y23944D01*
X46129Y23963D01*
X46116Y23980D01*
X46101Y23995D01*
X46084Y24008D01*
X46065Y24017D01*
X46044Y24022D01*
X46023Y24024D01*
X45901Y24024D01*
X45901Y24025D02*
X45875Y24023D01*
X45850Y24018D01*
X45826Y24010D01*
X45803Y23999D01*
X45782Y23984D01*
X45762Y23968D01*
X45746Y23948D01*
X45731Y23927D01*
X45720Y23904D01*
X45712Y23880D01*
X45707Y23855D01*
X45705Y23829D01*
X54901Y24740D02*
X54901Y24813D01*
X54901Y24740D02*
X55145Y24740D01*
X55145Y24887D01*
X55144Y24904D01*
X55139Y24921D01*
X55132Y24936D01*
X55122Y24950D01*
X55110Y24962D01*
X55096Y24972D01*
X55081Y24979D01*
X55064Y24984D01*
X55047Y24985D01*
X55047Y24984D02*
X54803Y24984D01*
X54803Y24985D02*
X54784Y24983D01*
X54765Y24978D01*
X54749Y24968D01*
X54734Y24956D01*
X54722Y24941D01*
X54712Y24925D01*
X54707Y24906D01*
X54705Y24887D01*
X54705Y24740D01*
X54705Y24504D02*
X55145Y24504D01*
X55145Y24260D02*
X54705Y24504D01*
X54705Y24260D02*
X55145Y24260D01*
X55145Y24024D02*
X54705Y24024D01*
X54705Y23902D01*
X54707Y23881D01*
X54712Y23860D01*
X54721Y23841D01*
X54734Y23824D01*
X54749Y23809D01*
X54766Y23796D01*
X54785Y23787D01*
X54806Y23782D01*
X54827Y23780D01*
X55023Y23780D01*
X55044Y23782D01*
X55065Y23787D01*
X55084Y23796D01*
X55101Y23809D01*
X55116Y23824D01*
X55129Y23841D01*
X55138Y23860D01*
X55143Y23881D01*
X55145Y23902D01*
X55145Y24024D01*
D12*
X55969Y25179D02*
X55969Y25446D01*
X55836Y25312D02*
X56103Y25312D01*
X56125Y24991D02*
X56125Y24880D01*
X56123Y24861D01*
X56118Y24842D01*
X56110Y24825D01*
X56099Y24809D01*
X56085Y24795D01*
X56070Y24784D01*
X56052Y24776D01*
X56033Y24771D01*
X56014Y24769D01*
X55995Y24771D01*
X55976Y24776D01*
X55959Y24784D01*
X55943Y24795D01*
X55929Y24809D01*
X55918Y24825D01*
X55910Y24842D01*
X55905Y24861D01*
X55903Y24880D01*
X55725Y24858D02*
X55725Y24991D01*
X55725Y24858D02*
X55727Y24839D01*
X55733Y24822D01*
X55742Y24806D01*
X55754Y24792D01*
X55770Y24781D01*
X55786Y24773D01*
X55805Y24769D01*
X55823Y24769D01*
X55842Y24773D01*
X55859Y24781D01*
X55874Y24792D01*
X55886Y24806D01*
X55895Y24822D01*
X55901Y24839D01*
X55903Y24858D01*
X55903Y24947D01*
X56103Y24608D02*
X56125Y24608D01*
X56103Y24608D02*
X56103Y24586D01*
X56125Y24586D01*
X56125Y24608D01*
X56125Y24424D02*
X56125Y24313D01*
X56123Y24294D01*
X56118Y24275D01*
X56110Y24258D01*
X56099Y24242D01*
X56085Y24228D01*
X56070Y24217D01*
X56052Y24209D01*
X56033Y24204D01*
X56014Y24202D01*
X55995Y24204D01*
X55976Y24209D01*
X55959Y24217D01*
X55943Y24228D01*
X55929Y24242D01*
X55918Y24258D01*
X55910Y24275D01*
X55905Y24294D01*
X55903Y24313D01*
X55725Y24291D02*
X55725Y24424D01*
X55725Y24291D02*
X55727Y24272D01*
X55733Y24255D01*
X55742Y24239D01*
X55754Y24225D01*
X55770Y24214D01*
X55786Y24206D01*
X55805Y24202D01*
X55823Y24202D01*
X55842Y24206D01*
X55859Y24214D01*
X55874Y24225D01*
X55886Y24239D01*
X55895Y24255D01*
X55901Y24272D01*
X55903Y24291D01*
X55903Y24380D01*
X55725Y24042D02*
X56125Y23908D01*
X55725Y23775D01*
D11*
X56705Y25251D02*
X57145Y25251D01*
X56949Y25104D02*
X56705Y25251D01*
X56949Y25104D02*
X56705Y24957D01*
X57145Y24957D01*
X57023Y24731D02*
X56827Y24731D01*
X56806Y24729D01*
X56785Y24724D01*
X56766Y24715D01*
X56749Y24702D01*
X56734Y24687D01*
X56721Y24670D01*
X56712Y24651D01*
X56707Y24630D01*
X56705Y24609D01*
X56707Y24588D01*
X56712Y24567D01*
X56721Y24548D01*
X56734Y24531D01*
X56749Y24516D01*
X56766Y24503D01*
X56785Y24494D01*
X56806Y24489D01*
X56827Y24487D01*
X57023Y24487D01*
X57044Y24489D01*
X57065Y24494D01*
X57084Y24503D01*
X57101Y24516D01*
X57116Y24531D01*
X57129Y24548D01*
X57138Y24567D01*
X57143Y24588D01*
X57145Y24609D01*
X57143Y24630D01*
X57138Y24651D01*
X57129Y24670D01*
X57116Y24687D01*
X57101Y24702D01*
X57084Y24715D01*
X57065Y24724D01*
X57044Y24729D01*
X57023Y24731D01*
X57145Y24149D02*
X57144Y24132D01*
X57139Y24115D01*
X57132Y24100D01*
X57122Y24086D01*
X57110Y24074D01*
X57096Y24064D01*
X57081Y24057D01*
X57064Y24052D01*
X57047Y24051D01*
X57145Y24149D02*
X57143Y24176D01*
X57138Y24203D01*
X57129Y24229D01*
X57117Y24253D01*
X57102Y24276D01*
X57084Y24296D01*
X56803Y24284D02*
X56786Y24283D01*
X56769Y24278D01*
X56754Y24271D01*
X56740Y24261D01*
X56728Y24249D01*
X56718Y24235D01*
X56711Y24220D01*
X56706Y24203D01*
X56705Y24186D01*
X56707Y24163D01*
X56711Y24139D01*
X56718Y24117D01*
X56729Y24096D01*
X56742Y24076D01*
X56888Y24235D02*
X56878Y24249D01*
X56866Y24261D01*
X56852Y24271D01*
X56837Y24278D01*
X56820Y24283D01*
X56803Y24284D01*
X56962Y24101D02*
X56972Y24087D01*
X56984Y24075D01*
X56998Y24065D01*
X57013Y24058D01*
X57030Y24053D01*
X57047Y24052D01*
X56962Y24101D02*
X56888Y24235D01*
X56705Y23829D02*
X57145Y23829D01*
X57145Y23878D02*
X57145Y23780D01*
X56705Y23780D02*
X56705Y23878D01*
X57705Y25234D02*
X58145Y25234D01*
X57949Y25087D02*
X57705Y25234D01*
X57949Y25087D02*
X57705Y24941D01*
X58145Y24941D01*
X58145Y24682D02*
X57705Y24682D01*
X58145Y24731D02*
X58145Y24633D01*
X57705Y24633D02*
X57705Y24731D01*
X58145Y24313D02*
X58144Y24296D01*
X58139Y24279D01*
X58132Y24264D01*
X58122Y24250D01*
X58110Y24238D01*
X58096Y24228D01*
X58081Y24221D01*
X58064Y24216D01*
X58047Y24215D01*
X58145Y24313D02*
X58143Y24340D01*
X58138Y24367D01*
X58129Y24393D01*
X58117Y24417D01*
X58102Y24440D01*
X58084Y24460D01*
X57803Y24447D02*
X57786Y24446D01*
X57769Y24441D01*
X57754Y24434D01*
X57740Y24424D01*
X57728Y24412D01*
X57718Y24398D01*
X57711Y24383D01*
X57706Y24366D01*
X57705Y24349D01*
X57707Y24326D01*
X57711Y24302D01*
X57718Y24280D01*
X57729Y24259D01*
X57742Y24239D01*
X57888Y24398D02*
X57878Y24412D01*
X57866Y24424D01*
X57852Y24434D01*
X57837Y24441D01*
X57820Y24446D01*
X57803Y24447D01*
X57962Y24264D02*
X57972Y24250D01*
X57984Y24238D01*
X57998Y24228D01*
X58013Y24221D01*
X58030Y24216D01*
X58047Y24215D01*
X57962Y24264D02*
X57888Y24398D01*
X57827Y24024D02*
X58023Y24024D01*
X57827Y24024D02*
X57806Y24022D01*
X57785Y24017D01*
X57766Y24008D01*
X57749Y23995D01*
X57734Y23980D01*
X57721Y23963D01*
X57712Y23944D01*
X57707Y23923D01*
X57705Y23902D01*
X57707Y23881D01*
X57712Y23860D01*
X57721Y23841D01*
X57734Y23824D01*
X57749Y23809D01*
X57766Y23796D01*
X57785Y23787D01*
X57806Y23782D01*
X57827Y23780D01*
X58023Y23780D01*
X58044Y23782D01*
X58065Y23787D01*
X58084Y23796D01*
X58101Y23809D01*
X58116Y23824D01*
X58129Y23841D01*
X58138Y23860D01*
X58143Y23881D01*
X58145Y23902D01*
X58143Y23923D01*
X58138Y23944D01*
X58129Y23963D01*
X58116Y23980D01*
X58101Y23995D01*
X58084Y24008D01*
X58065Y24017D01*
X58044Y24022D01*
X58023Y24024D01*
D12*
X59125Y24530D02*
X59125Y24619D01*
X59123Y24636D01*
X59118Y24653D01*
X59110Y24668D01*
X59099Y24682D01*
X59085Y24693D01*
X59070Y24701D01*
X59053Y24706D01*
X59036Y24708D01*
X58814Y24708D01*
X58797Y24706D01*
X58780Y24701D01*
X58765Y24693D01*
X58751Y24682D01*
X58740Y24668D01*
X58732Y24653D01*
X58727Y24636D01*
X58725Y24619D01*
X58725Y24530D01*
X58725Y24354D02*
X59125Y24354D01*
X59125Y24177D01*
X59125Y23997D02*
X58725Y23997D01*
X58725Y23775D02*
X58969Y23997D01*
X58881Y23908D02*
X59125Y23775D01*
D11*
X60145Y24626D02*
X60145Y24723D01*
X60144Y24740D01*
X60139Y24757D01*
X60132Y24772D01*
X60122Y24786D01*
X60110Y24798D01*
X60096Y24808D01*
X60081Y24815D01*
X60064Y24820D01*
X60047Y24821D01*
X59803Y24821D01*
X59784Y24819D01*
X59765Y24814D01*
X59749Y24804D01*
X59734Y24792D01*
X59722Y24777D01*
X59712Y24761D01*
X59707Y24742D01*
X59705Y24723D01*
X59705Y24626D01*
X60047Y24215D02*
X60064Y24216D01*
X60081Y24221D01*
X60096Y24228D01*
X60110Y24238D01*
X60122Y24250D01*
X60132Y24264D01*
X60139Y24279D01*
X60144Y24296D01*
X60145Y24313D01*
X60143Y24340D01*
X60138Y24367D01*
X60129Y24393D01*
X60117Y24417D01*
X60102Y24440D01*
X60084Y24460D01*
X59803Y24447D02*
X59786Y24446D01*
X59769Y24441D01*
X59754Y24434D01*
X59740Y24424D01*
X59728Y24412D01*
X59718Y24398D01*
X59711Y24383D01*
X59706Y24366D01*
X59705Y24349D01*
X59707Y24326D01*
X59711Y24302D01*
X59718Y24280D01*
X59729Y24259D01*
X59742Y24239D01*
X59888Y24398D02*
X59878Y24412D01*
X59866Y24424D01*
X59852Y24434D01*
X59837Y24441D01*
X59820Y24446D01*
X59803Y24447D01*
X59962Y24264D02*
X59972Y24250D01*
X59984Y24238D01*
X59998Y24228D01*
X60013Y24221D01*
X60030Y24216D01*
X60047Y24215D01*
X59962Y24264D02*
X59888Y24398D01*
X59925Y24025D02*
X59892Y24024D01*
X59859Y24019D01*
X59827Y24012D01*
X59796Y24001D01*
X59766Y23988D01*
X59766Y23987D02*
X59749Y23979D01*
X59734Y23968D01*
X59722Y23954D01*
X59713Y23938D01*
X59707Y23920D01*
X59705Y23902D01*
X59707Y23884D01*
X59713Y23866D01*
X59722Y23850D01*
X59734Y23836D01*
X59749Y23825D01*
X59766Y23817D01*
X59796Y23804D01*
X59827Y23793D01*
X59859Y23786D01*
X59892Y23781D01*
X59925Y23780D01*
X59925Y24025D02*
X59958Y24024D01*
X59991Y24019D01*
X60023Y24012D01*
X60054Y24001D01*
X60084Y23988D01*
X60084Y23987D02*
X60101Y23979D01*
X60116Y23968D01*
X60128Y23954D01*
X60137Y23938D01*
X60143Y23920D01*
X60145Y23902D01*
X60084Y23817D02*
X60054Y23804D01*
X60023Y23793D01*
X59991Y23786D01*
X59958Y23781D01*
X59925Y23780D01*
X60084Y23817D02*
X60101Y23825D01*
X60116Y23836D01*
X60128Y23850D01*
X60137Y23866D01*
X60143Y23884D01*
X60145Y23902D01*
X60047Y24000D02*
X59803Y23804D01*
X61023Y24230D02*
X61002Y24232D01*
X60981Y24237D01*
X60962Y24246D01*
X60945Y24259D01*
X60930Y24274D01*
X60917Y24291D01*
X60908Y24310D01*
X60903Y24331D01*
X60901Y24352D01*
X60903Y24373D01*
X60908Y24394D01*
X60917Y24413D01*
X60930Y24430D01*
X60945Y24445D01*
X60962Y24458D01*
X60981Y24467D01*
X61002Y24472D01*
X61023Y24474D01*
X61044Y24472D01*
X61065Y24467D01*
X61084Y24458D01*
X61101Y24445D01*
X61116Y24430D01*
X61129Y24413D01*
X61138Y24394D01*
X61143Y24373D01*
X61145Y24352D01*
X61143Y24331D01*
X61138Y24310D01*
X61129Y24291D01*
X61116Y24274D01*
X61101Y24259D01*
X61084Y24246D01*
X61065Y24237D01*
X61044Y24232D01*
X61023Y24230D01*
X60803Y24254D02*
X60785Y24256D01*
X60768Y24261D01*
X60751Y24269D01*
X60737Y24280D01*
X60725Y24293D01*
X60715Y24308D01*
X60709Y24325D01*
X60705Y24343D01*
X60705Y24361D01*
X60709Y24379D01*
X60715Y24396D01*
X60725Y24411D01*
X60737Y24424D01*
X60751Y24435D01*
X60768Y24443D01*
X60785Y24448D01*
X60803Y24450D01*
X60821Y24448D01*
X60838Y24443D01*
X60855Y24435D01*
X60869Y24424D01*
X60881Y24411D01*
X60891Y24396D01*
X60897Y24379D01*
X60901Y24361D01*
X60901Y24343D01*
X60897Y24325D01*
X60891Y24308D01*
X60881Y24293D01*
X60869Y24280D01*
X60855Y24269D01*
X60838Y24261D01*
X60821Y24256D01*
X60803Y24254D01*
X60949Y23927D02*
X60949Y23780D01*
X60950Y23927D02*
X60949Y23944D01*
X60944Y23961D01*
X60937Y23976D01*
X60927Y23990D01*
X60915Y24002D01*
X60901Y24012D01*
X60886Y24019D01*
X60869Y24024D01*
X60852Y24025D01*
X60852Y24024D02*
X60827Y24024D01*
X60806Y24022D01*
X60785Y24017D01*
X60766Y24008D01*
X60749Y23995D01*
X60734Y23980D01*
X60721Y23963D01*
X60712Y23944D01*
X60707Y23923D01*
X60705Y23902D01*
X60707Y23881D01*
X60712Y23860D01*
X60721Y23841D01*
X60734Y23824D01*
X60749Y23809D01*
X60766Y23796D01*
X60785Y23787D01*
X60806Y23782D01*
X60827Y23780D01*
X60949Y23780D01*
X60975Y23782D01*
X61000Y23787D01*
X61024Y23795D01*
X61047Y23806D01*
X61068Y23821D01*
X61088Y23837D01*
X61104Y23857D01*
X61119Y23878D01*
X61130Y23901D01*
X61138Y23925D01*
X61143Y23950D01*
X61145Y23976D01*
D12*
X61750Y25240D02*
X62100Y25357D01*
X62100Y25124D02*
X61750Y25240D01*
X62013Y25153D02*
X62013Y25328D01*
X61906Y24977D02*
X61906Y24861D01*
X61905Y24861D02*
X61906Y24846D01*
X61911Y24831D01*
X61918Y24818D01*
X61928Y24806D01*
X61940Y24796D01*
X61953Y24789D01*
X61968Y24784D01*
X61983Y24783D01*
X62003Y24783D01*
X62021Y24785D01*
X62038Y24790D01*
X62054Y24798D01*
X62068Y24808D01*
X62080Y24822D01*
X62090Y24837D01*
X62096Y24853D01*
X62100Y24871D01*
X62100Y24889D01*
X62096Y24907D01*
X62090Y24923D01*
X62080Y24938D01*
X62068Y24952D01*
X62054Y24962D01*
X62038Y24970D01*
X62021Y24975D01*
X62003Y24977D01*
X61906Y24977D01*
X61906Y24978D02*
X61882Y24976D01*
X61858Y24970D01*
X61835Y24961D01*
X61814Y24948D01*
X61796Y24932D01*
X61780Y24914D01*
X61767Y24893D01*
X61758Y24870D01*
X61752Y24846D01*
X61750Y24822D01*
X61711Y24478D02*
X62139Y24634D01*
X62003Y24329D02*
X61985Y24327D01*
X61968Y24322D01*
X61952Y24314D01*
X61938Y24304D01*
X61926Y24290D01*
X61916Y24275D01*
X61910Y24259D01*
X61906Y24241D01*
X61906Y24223D01*
X61910Y24205D01*
X61916Y24189D01*
X61926Y24174D01*
X61938Y24160D01*
X61952Y24150D01*
X61968Y24142D01*
X61985Y24137D01*
X62003Y24135D01*
X62021Y24137D01*
X62038Y24142D01*
X62054Y24150D01*
X62068Y24160D01*
X62080Y24174D01*
X62090Y24189D01*
X62096Y24205D01*
X62100Y24223D01*
X62100Y24241D01*
X62096Y24259D01*
X62090Y24275D01*
X62080Y24290D01*
X62068Y24304D01*
X62054Y24314D01*
X62038Y24322D01*
X62021Y24327D01*
X62003Y24329D01*
X61828Y24310D02*
X61812Y24308D01*
X61796Y24303D01*
X61782Y24295D01*
X61770Y24284D01*
X61760Y24271D01*
X61754Y24256D01*
X61750Y24240D01*
X61750Y24224D01*
X61754Y24208D01*
X61760Y24193D01*
X61770Y24180D01*
X61782Y24169D01*
X61796Y24161D01*
X61812Y24156D01*
X61828Y24154D01*
X61844Y24156D01*
X61860Y24161D01*
X61874Y24169D01*
X61886Y24180D01*
X61896Y24193D01*
X61902Y24208D01*
X61906Y24224D01*
X61906Y24240D01*
X61902Y24256D01*
X61896Y24271D01*
X61886Y24284D01*
X61874Y24295D01*
X61860Y24303D01*
X61844Y24308D01*
X61828Y24310D01*
X61789Y23969D02*
X61750Y23969D01*
X61750Y23775D01*
X62100Y23872D01*
D11*
X51047Y34449D02*
X50705Y34352D01*
X51047Y34449D02*
X51047Y34205D01*
X50949Y34278D02*
X51145Y34278D01*
X51047Y33999D02*
X50705Y33902D01*
X51047Y33999D02*
X51047Y33755D01*
X50949Y33828D02*
X51145Y33828D01*
X51705Y34352D02*
X52047Y34449D01*
X52047Y34205D01*
X51949Y34278D02*
X52145Y34278D01*
X51901Y33999D02*
X51901Y33853D01*
X51900Y33853D02*
X51901Y33836D01*
X51906Y33819D01*
X51913Y33804D01*
X51923Y33790D01*
X51935Y33778D01*
X51949Y33768D01*
X51964Y33761D01*
X51981Y33756D01*
X51998Y33755D01*
X52023Y33755D01*
X52044Y33757D01*
X52065Y33762D01*
X52084Y33771D01*
X52101Y33784D01*
X52116Y33799D01*
X52129Y33816D01*
X52138Y33835D01*
X52143Y33856D01*
X52145Y33877D01*
X52143Y33898D01*
X52138Y33919D01*
X52129Y33938D01*
X52116Y33955D01*
X52101Y33970D01*
X52084Y33983D01*
X52065Y33992D01*
X52044Y33997D01*
X52023Y33999D01*
X51901Y33999D01*
X51901Y34000D02*
X51875Y33998D01*
X51850Y33993D01*
X51826Y33985D01*
X51803Y33974D01*
X51782Y33959D01*
X51762Y33943D01*
X51746Y33923D01*
X51731Y33902D01*
X51720Y33879D01*
X51712Y33855D01*
X51707Y33830D01*
X51705Y33804D01*
X52901Y34303D02*
X52901Y34449D01*
X52900Y34303D02*
X52901Y34286D01*
X52906Y34269D01*
X52913Y34254D01*
X52923Y34240D01*
X52935Y34228D01*
X52949Y34218D01*
X52964Y34211D01*
X52981Y34206D01*
X52998Y34205D01*
X53023Y34205D01*
X53044Y34207D01*
X53065Y34212D01*
X53084Y34221D01*
X53101Y34234D01*
X53116Y34249D01*
X53129Y34266D01*
X53138Y34285D01*
X53143Y34306D01*
X53145Y34327D01*
X53143Y34348D01*
X53138Y34369D01*
X53129Y34388D01*
X53116Y34405D01*
X53101Y34420D01*
X53084Y34433D01*
X53065Y34442D01*
X53044Y34447D01*
X53023Y34449D01*
X52901Y34449D01*
X52901Y34450D02*
X52875Y34448D01*
X52850Y34443D01*
X52826Y34435D01*
X52803Y34424D01*
X52782Y34409D01*
X52762Y34393D01*
X52746Y34373D01*
X52731Y34352D01*
X52720Y34329D01*
X52712Y34305D01*
X52707Y34280D01*
X52705Y34254D01*
X52705Y33902D02*
X53047Y33999D01*
X53047Y33755D01*
X52949Y33828D02*
X53145Y33828D01*
X53705Y34352D02*
X54047Y34449D01*
X54047Y34205D01*
X53949Y34278D02*
X54145Y34278D01*
X53754Y33999D02*
X53705Y33999D01*
X53705Y33755D01*
X54145Y33877D01*
X54705Y33877D02*
X55145Y33877D01*
X54705Y33999D02*
X54705Y33755D01*
X55974Y33755D02*
X55974Y34048D01*
X56121Y33902D02*
X55827Y33902D01*
X56705Y34449D02*
X57145Y34449D01*
X56705Y34449D02*
X56705Y34327D01*
X56707Y34306D01*
X56712Y34285D01*
X56721Y34266D01*
X56734Y34249D01*
X56749Y34234D01*
X56766Y34221D01*
X56785Y34212D01*
X56806Y34207D01*
X56827Y34205D01*
X56848Y34207D01*
X56869Y34212D01*
X56888Y34221D01*
X56905Y34234D01*
X56920Y34249D01*
X56933Y34266D01*
X56942Y34285D01*
X56947Y34306D01*
X56949Y34327D01*
X56949Y34449D01*
X56901Y33999D02*
X56901Y33877D01*
X56903Y33856D01*
X56908Y33835D01*
X56917Y33816D01*
X56930Y33799D01*
X56945Y33784D01*
X56962Y33771D01*
X56981Y33762D01*
X57002Y33757D01*
X57023Y33755D01*
X57044Y33757D01*
X57065Y33762D01*
X57084Y33771D01*
X57101Y33784D01*
X57116Y33799D01*
X57129Y33816D01*
X57138Y33835D01*
X57143Y33856D01*
X57145Y33877D01*
X57145Y33999D01*
X56705Y33999D01*
X56705Y33877D01*
X56707Y33859D01*
X56712Y33842D01*
X56720Y33825D01*
X56731Y33811D01*
X56744Y33799D01*
X56759Y33789D01*
X56776Y33783D01*
X56794Y33779D01*
X56812Y33779D01*
X56830Y33783D01*
X56847Y33789D01*
X56862Y33799D01*
X56875Y33811D01*
X56886Y33825D01*
X56894Y33842D01*
X56899Y33859D01*
X56901Y33877D01*
X58145Y34303D02*
X58145Y34449D01*
X58145Y34303D02*
X58143Y34284D01*
X58138Y34265D01*
X58128Y34249D01*
X58116Y34234D01*
X58101Y34222D01*
X58085Y34212D01*
X58066Y34207D01*
X58047Y34205D01*
X57998Y34205D01*
X57981Y34206D01*
X57964Y34211D01*
X57949Y34218D01*
X57935Y34228D01*
X57923Y34240D01*
X57913Y34254D01*
X57906Y34269D01*
X57901Y34286D01*
X57900Y34303D01*
X57901Y34303D02*
X57901Y34449D01*
X57705Y34449D01*
X57705Y34205D01*
X57705Y33865D02*
X57707Y33846D01*
X57712Y33827D01*
X57720Y33810D01*
X57731Y33794D01*
X57744Y33781D01*
X57760Y33770D01*
X57777Y33762D01*
X57796Y33757D01*
X57815Y33755D01*
X57705Y33865D02*
X57707Y33887D01*
X57712Y33909D01*
X57720Y33929D01*
X57732Y33948D01*
X57746Y33965D01*
X57763Y33979D01*
X57782Y33991D01*
X57803Y33999D01*
X57900Y33792D02*
X57886Y33779D01*
X57870Y33769D01*
X57853Y33761D01*
X57834Y33757D01*
X57815Y33755D01*
X57901Y33792D02*
X58145Y33999D01*
X58145Y33755D01*
X58901Y34303D02*
X58901Y34449D01*
X58900Y34303D02*
X58901Y34286D01*
X58906Y34269D01*
X58913Y34254D01*
X58923Y34240D01*
X58935Y34228D01*
X58949Y34218D01*
X58964Y34211D01*
X58981Y34206D01*
X58998Y34205D01*
X59023Y34205D01*
X59044Y34207D01*
X59065Y34212D01*
X59084Y34221D01*
X59101Y34234D01*
X59116Y34249D01*
X59129Y34266D01*
X59138Y34285D01*
X59143Y34306D01*
X59145Y34327D01*
X59143Y34348D01*
X59138Y34369D01*
X59129Y34388D01*
X59116Y34405D01*
X59101Y34420D01*
X59084Y34433D01*
X59065Y34442D01*
X59044Y34447D01*
X59023Y34449D01*
X58901Y34449D01*
X58901Y34450D02*
X58875Y34448D01*
X58850Y34443D01*
X58826Y34435D01*
X58803Y34424D01*
X58782Y34409D01*
X58762Y34393D01*
X58746Y34373D01*
X58731Y34352D01*
X58720Y34329D01*
X58712Y34305D01*
X58707Y34280D01*
X58705Y34254D01*
X58766Y33963D02*
X58796Y33976D01*
X58827Y33987D01*
X58859Y33994D01*
X58892Y33999D01*
X58925Y34000D01*
X58766Y33962D02*
X58749Y33954D01*
X58734Y33943D01*
X58722Y33929D01*
X58713Y33913D01*
X58707Y33895D01*
X58705Y33877D01*
X58707Y33859D01*
X58713Y33841D01*
X58722Y33825D01*
X58734Y33811D01*
X58749Y33800D01*
X58766Y33792D01*
X58796Y33779D01*
X58827Y33768D01*
X58859Y33761D01*
X58892Y33756D01*
X58925Y33755D01*
X58925Y34000D02*
X58958Y33999D01*
X58991Y33994D01*
X59023Y33987D01*
X59054Y33976D01*
X59084Y33963D01*
X59084Y33962D02*
X59101Y33954D01*
X59116Y33943D01*
X59128Y33929D01*
X59137Y33913D01*
X59143Y33895D01*
X59145Y33877D01*
X59084Y33792D02*
X59054Y33779D01*
X59023Y33768D01*
X58991Y33761D01*
X58958Y33756D01*
X58925Y33755D01*
X59084Y33792D02*
X59101Y33800D01*
X59116Y33811D01*
X59128Y33825D01*
X59137Y33841D01*
X59143Y33859D01*
X59145Y33877D01*
X59047Y33975D02*
X58803Y33779D01*
X60145Y34303D02*
X60145Y34449D01*
X60145Y34303D02*
X60143Y34284D01*
X60138Y34265D01*
X60128Y34249D01*
X60116Y34234D01*
X60101Y34222D01*
X60085Y34212D01*
X60066Y34207D01*
X60047Y34205D01*
X59998Y34205D01*
X59981Y34206D01*
X59964Y34211D01*
X59949Y34218D01*
X59935Y34228D01*
X59923Y34240D01*
X59913Y34254D01*
X59906Y34269D01*
X59901Y34286D01*
X59900Y34303D01*
X59901Y34303D02*
X59901Y34449D01*
X59705Y34449D01*
X59705Y34205D01*
X59705Y33999D02*
X59754Y33999D01*
X59705Y33999D02*
X59705Y33755D01*
X60145Y33877D01*
D12*
X61125Y34244D02*
X61125Y34377D01*
X61125Y34244D02*
X61123Y34227D01*
X61118Y34210D01*
X61110Y34195D01*
X61099Y34181D01*
X61085Y34170D01*
X61070Y34162D01*
X61053Y34157D01*
X61036Y34155D01*
X60992Y34155D01*
X60975Y34157D01*
X60958Y34162D01*
X60943Y34170D01*
X60929Y34181D01*
X60918Y34195D01*
X60910Y34210D01*
X60905Y34227D01*
X60903Y34244D01*
X60903Y34377D01*
X60725Y34377D01*
X60725Y34155D01*
X61014Y33972D02*
X60995Y33970D01*
X60976Y33965D01*
X60959Y33957D01*
X60943Y33946D01*
X60929Y33932D01*
X60918Y33917D01*
X60910Y33899D01*
X60905Y33880D01*
X60903Y33861D01*
X60905Y33842D01*
X60910Y33823D01*
X60918Y33806D01*
X60929Y33790D01*
X60943Y33776D01*
X60959Y33765D01*
X60976Y33757D01*
X60995Y33752D01*
X61014Y33750D01*
X61033Y33752D01*
X61052Y33757D01*
X61070Y33765D01*
X61085Y33776D01*
X61099Y33790D01*
X61110Y33806D01*
X61118Y33823D01*
X61123Y33842D01*
X61125Y33861D01*
X61123Y33880D01*
X61118Y33899D01*
X61110Y33917D01*
X61099Y33932D01*
X61085Y33946D01*
X61070Y33957D01*
X61052Y33965D01*
X61033Y33970D01*
X61014Y33972D01*
X60814Y33950D02*
X60795Y33948D01*
X60778Y33942D01*
X60762Y33933D01*
X60748Y33921D01*
X60737Y33906D01*
X60729Y33889D01*
X60725Y33870D01*
X60725Y33852D01*
X60729Y33833D01*
X60737Y33817D01*
X60748Y33801D01*
X60762Y33789D01*
X60778Y33780D01*
X60795Y33774D01*
X60814Y33772D01*
X60833Y33774D01*
X60850Y33780D01*
X60866Y33789D01*
X60880Y33801D01*
X60891Y33817D01*
X60899Y33833D01*
X60903Y33852D01*
X60903Y33870D01*
X60899Y33889D01*
X60891Y33906D01*
X60880Y33921D01*
X60866Y33933D01*
X60850Y33942D01*
X60833Y33948D01*
X60814Y33950D01*
D11*
X63145Y33170D02*
X63145Y33023D01*
X63143Y33004D01*
X63138Y32985D01*
X63128Y32969D01*
X63116Y32954D01*
X63101Y32942D01*
X63085Y32932D01*
X63066Y32927D01*
X63047Y32925D01*
X63047Y32926D02*
X62998Y32926D01*
X62998Y32925D02*
X62981Y32926D01*
X62964Y32931D01*
X62949Y32938D01*
X62935Y32948D01*
X62923Y32960D01*
X62913Y32974D01*
X62906Y32989D01*
X62901Y33006D01*
X62900Y33023D01*
X62901Y33023D02*
X62901Y33170D01*
X62705Y33170D01*
X62705Y32926D01*
X62949Y32622D02*
X62949Y32476D01*
X62950Y32622D02*
X62949Y32639D01*
X62944Y32656D01*
X62937Y32671D01*
X62927Y32685D01*
X62915Y32697D01*
X62901Y32707D01*
X62886Y32714D01*
X62869Y32719D01*
X62852Y32720D01*
X62827Y32720D01*
X62806Y32718D01*
X62785Y32713D01*
X62766Y32704D01*
X62749Y32691D01*
X62734Y32676D01*
X62721Y32659D01*
X62712Y32640D01*
X62707Y32619D01*
X62705Y32598D01*
X62707Y32577D01*
X62712Y32556D01*
X62721Y32537D01*
X62734Y32520D01*
X62749Y32505D01*
X62766Y32492D01*
X62785Y32483D01*
X62806Y32478D01*
X62827Y32476D01*
X62949Y32476D01*
X62949Y32475D02*
X62975Y32477D01*
X63000Y32482D01*
X63024Y32490D01*
X63047Y32501D01*
X63068Y32516D01*
X63088Y32532D01*
X63104Y32552D01*
X63119Y32573D01*
X63130Y32596D01*
X63138Y32620D01*
X63143Y32645D01*
X63145Y32671D01*
X48901Y33853D02*
X48901Y33999D01*
X48900Y33853D02*
X48901Y33836D01*
X48906Y33819D01*
X48913Y33804D01*
X48923Y33790D01*
X48935Y33778D01*
X48949Y33768D01*
X48964Y33761D01*
X48981Y33756D01*
X48998Y33755D01*
X49023Y33755D01*
X49044Y33757D01*
X49065Y33762D01*
X49084Y33771D01*
X49101Y33784D01*
X49116Y33799D01*
X49129Y33816D01*
X49138Y33835D01*
X49143Y33856D01*
X49145Y33877D01*
X49143Y33898D01*
X49138Y33919D01*
X49129Y33938D01*
X49116Y33955D01*
X49101Y33970D01*
X49084Y33983D01*
X49065Y33992D01*
X49044Y33997D01*
X49023Y33999D01*
X48901Y33999D01*
X48901Y34000D02*
X48875Y33998D01*
X48850Y33993D01*
X48826Y33985D01*
X48803Y33974D01*
X48782Y33959D01*
X48762Y33943D01*
X48746Y33923D01*
X48731Y33902D01*
X48720Y33879D01*
X48712Y33855D01*
X48707Y33830D01*
X48705Y33804D01*
X48145Y33877D02*
X48145Y33999D01*
X48145Y33877D02*
X48143Y33856D01*
X48138Y33835D01*
X48129Y33816D01*
X48116Y33799D01*
X48101Y33784D01*
X48084Y33771D01*
X48065Y33762D01*
X48044Y33757D01*
X48023Y33755D01*
X48002Y33757D01*
X47981Y33762D01*
X47962Y33771D01*
X47945Y33784D01*
X47930Y33799D01*
X47917Y33816D01*
X47908Y33835D01*
X47903Y33856D01*
X47901Y33877D01*
X47705Y33853D02*
X47705Y33999D01*
X47705Y33853D02*
X47707Y33835D01*
X47712Y33818D01*
X47720Y33801D01*
X47731Y33787D01*
X47744Y33775D01*
X47759Y33765D01*
X47776Y33759D01*
X47794Y33755D01*
X47812Y33755D01*
X47830Y33759D01*
X47847Y33765D01*
X47862Y33775D01*
X47875Y33787D01*
X47886Y33801D01*
X47894Y33818D01*
X47899Y33835D01*
X47901Y33853D01*
X47901Y33951D01*
X46815Y33755D02*
X46796Y33757D01*
X46777Y33762D01*
X46760Y33770D01*
X46744Y33781D01*
X46731Y33794D01*
X46720Y33810D01*
X46712Y33827D01*
X46707Y33846D01*
X46705Y33865D01*
X46707Y33887D01*
X46712Y33909D01*
X46720Y33929D01*
X46732Y33948D01*
X46746Y33965D01*
X46763Y33979D01*
X46782Y33991D01*
X46803Y33999D01*
X46900Y33792D02*
X46886Y33779D01*
X46870Y33769D01*
X46853Y33761D01*
X46834Y33757D01*
X46815Y33755D01*
X46901Y33792D02*
X47145Y33999D01*
X47145Y33755D01*
X46145Y33853D02*
X46145Y33999D01*
X46145Y33853D02*
X46143Y33834D01*
X46138Y33815D01*
X46128Y33799D01*
X46116Y33784D01*
X46101Y33772D01*
X46085Y33762D01*
X46066Y33757D01*
X46047Y33755D01*
X45998Y33755D01*
X45981Y33756D01*
X45964Y33761D01*
X45949Y33768D01*
X45935Y33778D01*
X45923Y33790D01*
X45913Y33804D01*
X45906Y33819D01*
X45901Y33836D01*
X45900Y33853D01*
X45901Y33853D02*
X45901Y33999D01*
X45705Y33999D01*
X45705Y33755D01*
D12*
X44100Y33425D02*
X43750Y33308D01*
X44100Y33192D01*
X44013Y33221D02*
X44013Y33396D01*
X43789Y33046D02*
X43750Y33046D01*
X43750Y32851D01*
X44100Y32948D01*
X43925Y32686D02*
X43892Y32684D01*
X43859Y32679D01*
X43827Y32671D01*
X43796Y32660D01*
X43766Y32646D01*
X43738Y32628D01*
X43711Y32608D01*
X43925Y32686D02*
X43958Y32684D01*
X43991Y32679D01*
X44023Y32671D01*
X44054Y32660D01*
X44084Y32646D01*
X44112Y32628D01*
X44139Y32608D01*
X43828Y32458D02*
X43750Y32360D01*
X44100Y32360D01*
X44100Y32263D02*
X44100Y32458D01*
X44100Y32118D02*
X44081Y32118D01*
X44081Y32099D01*
X44100Y32099D01*
X44100Y32118D01*
X44003Y31953D02*
X43985Y31951D01*
X43968Y31946D01*
X43952Y31938D01*
X43938Y31928D01*
X43926Y31914D01*
X43916Y31899D01*
X43910Y31883D01*
X43906Y31865D01*
X43906Y31847D01*
X43910Y31829D01*
X43916Y31813D01*
X43926Y31798D01*
X43938Y31784D01*
X43952Y31774D01*
X43968Y31766D01*
X43985Y31761D01*
X44003Y31759D01*
X44021Y31761D01*
X44038Y31766D01*
X44054Y31774D01*
X44068Y31784D01*
X44080Y31798D01*
X44090Y31813D01*
X44096Y31829D01*
X44100Y31847D01*
X44100Y31865D01*
X44096Y31883D01*
X44090Y31899D01*
X44080Y31914D01*
X44068Y31928D01*
X44054Y31938D01*
X44038Y31946D01*
X44021Y31951D01*
X44003Y31953D01*
X43828Y31934D02*
X43812Y31932D01*
X43796Y31927D01*
X43782Y31919D01*
X43770Y31908D01*
X43760Y31895D01*
X43754Y31880D01*
X43750Y31864D01*
X43750Y31848D01*
X43754Y31832D01*
X43760Y31817D01*
X43770Y31804D01*
X43782Y31793D01*
X43796Y31785D01*
X43812Y31780D01*
X43828Y31778D01*
X43844Y31780D01*
X43860Y31785D01*
X43874Y31793D01*
X43886Y31804D01*
X43896Y31817D01*
X43902Y31832D01*
X43906Y31848D01*
X43906Y31864D01*
X43902Y31880D01*
X43896Y31895D01*
X43886Y31908D01*
X43874Y31919D01*
X43860Y31927D01*
X43844Y31932D01*
X43828Y31934D01*
X43925Y31531D02*
X43958Y31533D01*
X43991Y31538D01*
X44023Y31546D01*
X44054Y31557D01*
X44084Y31571D01*
X44112Y31589D01*
X44139Y31609D01*
X43925Y31531D02*
X43892Y31533D01*
X43859Y31538D01*
X43827Y31546D01*
X43796Y31557D01*
X43766Y31571D01*
X43738Y31589D01*
X43711Y31609D01*
D10*
X44420Y32890D02*
X45420Y32890D01*
D12*
X61750Y31925D02*
X62100Y31925D01*
X61750Y31925D02*
X61750Y31828D01*
X61752Y31810D01*
X61757Y31793D01*
X61765Y31777D01*
X61775Y31763D01*
X61789Y31751D01*
X61804Y31741D01*
X61820Y31735D01*
X61838Y31731D01*
X61856Y31731D01*
X61874Y31735D01*
X61890Y31741D01*
X61905Y31751D01*
X61919Y31763D01*
X61929Y31777D01*
X61937Y31793D01*
X61942Y31810D01*
X61944Y31828D01*
X61944Y31925D01*
X61750Y31594D02*
X62100Y31516D01*
X61867Y31439D01*
X62100Y31361D01*
X61750Y31283D01*
X61750Y31111D02*
X62100Y31111D01*
X61944Y30995D02*
X61750Y31111D01*
X61944Y30995D02*
X61750Y30878D01*
X62100Y30878D01*
X61828Y30696D02*
X61750Y30599D01*
X62100Y30599D01*
X62100Y30696D02*
X62100Y30501D01*
X62100Y30355D02*
X61750Y30239D01*
X62100Y30122D01*
X62013Y30151D02*
X62013Y30326D01*
D11*
X60815Y31676D02*
X60796Y31678D01*
X60777Y31683D01*
X60760Y31691D01*
X60744Y31702D01*
X60731Y31715D01*
X60720Y31731D01*
X60712Y31748D01*
X60707Y31767D01*
X60705Y31786D01*
X60707Y31808D01*
X60712Y31830D01*
X60720Y31850D01*
X60732Y31869D01*
X60746Y31886D01*
X60763Y31900D01*
X60782Y31912D01*
X60803Y31920D01*
X60900Y31713D02*
X60886Y31700D01*
X60870Y31690D01*
X60853Y31682D01*
X60834Y31678D01*
X60815Y31676D01*
X60901Y31712D02*
X61145Y31920D01*
X61145Y31676D01*
X61145Y31470D02*
X61145Y31348D01*
X61143Y31327D01*
X61138Y31306D01*
X61129Y31287D01*
X61116Y31270D01*
X61101Y31255D01*
X61084Y31242D01*
X61065Y31233D01*
X61044Y31228D01*
X61023Y31226D01*
X61002Y31228D01*
X60981Y31233D01*
X60962Y31242D01*
X60945Y31255D01*
X60930Y31270D01*
X60917Y31287D01*
X60908Y31306D01*
X60903Y31327D01*
X60901Y31348D01*
X60705Y31323D02*
X60705Y31470D01*
X60705Y31323D02*
X60707Y31305D01*
X60712Y31288D01*
X60720Y31271D01*
X60731Y31257D01*
X60744Y31245D01*
X60759Y31235D01*
X60776Y31229D01*
X60794Y31225D01*
X60812Y31225D01*
X60830Y31229D01*
X60847Y31235D01*
X60862Y31245D01*
X60875Y31257D01*
X60886Y31271D01*
X60894Y31288D01*
X60899Y31305D01*
X60901Y31323D01*
X60901Y31421D01*
X60145Y31920D02*
X59705Y31920D01*
X59705Y31798D01*
X59707Y31777D01*
X59712Y31756D01*
X59721Y31737D01*
X59734Y31720D01*
X59749Y31705D01*
X59766Y31692D01*
X59785Y31683D01*
X59806Y31678D01*
X59827Y31676D01*
X59848Y31678D01*
X59869Y31683D01*
X59888Y31692D01*
X59905Y31705D01*
X59920Y31720D01*
X59933Y31737D01*
X59942Y31756D01*
X59947Y31777D01*
X59949Y31798D01*
X59949Y31920D01*
X59949Y31773D02*
X60145Y31676D01*
X60145Y31498D02*
X59705Y31205D01*
X59705Y31498D02*
X60145Y31205D01*
X59145Y31798D02*
X58705Y31798D01*
X58705Y31920D02*
X58705Y31676D01*
X58705Y31231D02*
X59145Y31524D01*
X59145Y31231D02*
X58705Y31524D01*
D12*
X58125Y31792D02*
X58123Y31775D01*
X58118Y31758D01*
X58110Y31743D01*
X58099Y31729D01*
X58085Y31718D01*
X58070Y31710D01*
X58053Y31705D01*
X58036Y31703D01*
X58125Y31792D02*
X58123Y31817D01*
X58119Y31841D01*
X58111Y31864D01*
X58100Y31886D01*
X58086Y31907D01*
X58069Y31925D01*
X57814Y31914D02*
X57797Y31912D01*
X57780Y31907D01*
X57765Y31899D01*
X57751Y31888D01*
X57740Y31874D01*
X57732Y31859D01*
X57727Y31842D01*
X57725Y31825D01*
X57726Y31804D01*
X57731Y31782D01*
X57737Y31762D01*
X57747Y31743D01*
X57758Y31725D01*
X57892Y31870D02*
X57880Y31885D01*
X57867Y31897D01*
X57850Y31906D01*
X57833Y31912D01*
X57814Y31914D01*
X57958Y31747D02*
X57970Y31732D01*
X57983Y31720D01*
X58000Y31711D01*
X58017Y31705D01*
X58036Y31703D01*
X57958Y31747D02*
X57892Y31869D01*
X58125Y31446D02*
X58125Y31357D01*
X58125Y31446D02*
X58123Y31463D01*
X58118Y31480D01*
X58110Y31495D01*
X58099Y31509D01*
X58085Y31520D01*
X58070Y31528D01*
X58053Y31533D01*
X58036Y31535D01*
X57814Y31535D01*
X57797Y31533D01*
X57780Y31528D01*
X57765Y31520D01*
X57751Y31509D01*
X57740Y31495D01*
X57732Y31480D01*
X57727Y31463D01*
X57725Y31446D01*
X57725Y31357D01*
X57725Y31182D02*
X58125Y31182D01*
X58125Y31004D01*
X57125Y31792D02*
X57123Y31775D01*
X57118Y31758D01*
X57110Y31743D01*
X57099Y31729D01*
X57085Y31718D01*
X57070Y31710D01*
X57053Y31705D01*
X57036Y31703D01*
X57125Y31792D02*
X57123Y31817D01*
X57119Y31841D01*
X57111Y31864D01*
X57100Y31886D01*
X57086Y31907D01*
X57069Y31925D01*
X56814Y31914D02*
X56797Y31912D01*
X56780Y31907D01*
X56765Y31899D01*
X56751Y31888D01*
X56740Y31874D01*
X56732Y31859D01*
X56727Y31842D01*
X56725Y31825D01*
X56726Y31804D01*
X56731Y31782D01*
X56737Y31762D01*
X56747Y31743D01*
X56758Y31725D01*
X56892Y31870D02*
X56880Y31885D01*
X56867Y31897D01*
X56850Y31906D01*
X56833Y31912D01*
X56814Y31914D01*
X56958Y31747D02*
X56970Y31732D01*
X56983Y31720D01*
X57000Y31711D01*
X57017Y31705D01*
X57036Y31703D01*
X56958Y31747D02*
X56892Y31869D01*
X56725Y31520D02*
X57125Y31520D01*
X56725Y31520D02*
X56725Y31409D01*
X56727Y31390D01*
X56732Y31371D01*
X56740Y31354D01*
X56751Y31338D01*
X56765Y31324D01*
X56781Y31313D01*
X56798Y31305D01*
X56817Y31300D01*
X56836Y31298D01*
X57014Y31298D01*
X57033Y31300D01*
X57052Y31305D01*
X57070Y31313D01*
X57085Y31324D01*
X57099Y31338D01*
X57110Y31354D01*
X57118Y31371D01*
X57123Y31390D01*
X57125Y31409D01*
X57125Y31520D01*
X57125Y31124D02*
X56725Y30990D01*
X57125Y30857D01*
X57025Y30890D02*
X57025Y31090D01*
D11*
X56145Y31773D02*
X55705Y31920D01*
X55705Y31627D02*
X56145Y31773D01*
X56023Y31446D02*
X55827Y31446D01*
X55827Y31445D02*
X55806Y31443D01*
X55785Y31438D01*
X55766Y31429D01*
X55749Y31416D01*
X55734Y31401D01*
X55721Y31384D01*
X55712Y31365D01*
X55707Y31344D01*
X55705Y31323D01*
X55707Y31302D01*
X55712Y31281D01*
X55721Y31262D01*
X55734Y31245D01*
X55749Y31230D01*
X55766Y31217D01*
X55785Y31208D01*
X55806Y31203D01*
X55827Y31201D01*
X56023Y31201D01*
X56044Y31203D01*
X56065Y31208D01*
X56084Y31217D01*
X56101Y31230D01*
X56116Y31245D01*
X56129Y31262D01*
X56138Y31281D01*
X56143Y31302D01*
X56145Y31323D01*
X56143Y31344D01*
X56138Y31365D01*
X56129Y31384D01*
X56116Y31401D01*
X56101Y31416D01*
X56084Y31429D01*
X56065Y31438D01*
X56044Y31443D01*
X56023Y31445D01*
X56023Y30981D02*
X55705Y30981D01*
X56023Y30980D02*
X56044Y30978D01*
X56065Y30973D01*
X56084Y30964D01*
X56101Y30951D01*
X56116Y30936D01*
X56129Y30919D01*
X56138Y30900D01*
X56143Y30879D01*
X56145Y30858D01*
X56143Y30837D01*
X56138Y30816D01*
X56129Y30797D01*
X56116Y30780D01*
X56101Y30765D01*
X56084Y30752D01*
X56065Y30743D01*
X56044Y30738D01*
X56023Y30736D01*
X55705Y30736D01*
X55705Y30423D02*
X56145Y30423D01*
X55705Y30546D02*
X55705Y30301D01*
X54901Y31676D02*
X54901Y31749D01*
X54901Y31676D02*
X55145Y31676D01*
X55145Y31822D01*
X55144Y31839D01*
X55139Y31856D01*
X55132Y31871D01*
X55122Y31885D01*
X55110Y31897D01*
X55096Y31907D01*
X55081Y31914D01*
X55064Y31919D01*
X55047Y31920D01*
X54803Y31920D01*
X54784Y31918D01*
X54765Y31913D01*
X54749Y31903D01*
X54734Y31891D01*
X54722Y31876D01*
X54712Y31860D01*
X54707Y31841D01*
X54705Y31822D01*
X54705Y31676D01*
X54705Y31440D02*
X55145Y31440D01*
X55145Y31196D02*
X54705Y31440D01*
X54705Y31196D02*
X55145Y31196D01*
X55145Y30960D02*
X54705Y30960D01*
X54705Y30838D01*
X54707Y30817D01*
X54712Y30796D01*
X54721Y30777D01*
X54734Y30760D01*
X54749Y30745D01*
X54766Y30732D01*
X54785Y30723D01*
X54806Y30718D01*
X54827Y30716D01*
X55023Y30716D01*
X55044Y30718D01*
X55065Y30723D01*
X55084Y30732D01*
X55101Y30745D01*
X55116Y30760D01*
X55129Y30777D01*
X55138Y30796D01*
X55143Y30817D01*
X55145Y30838D01*
X55145Y30960D01*
X53901Y31773D02*
X53901Y31920D01*
X53900Y31773D02*
X53901Y31756D01*
X53906Y31739D01*
X53913Y31724D01*
X53923Y31710D01*
X53935Y31698D01*
X53949Y31688D01*
X53964Y31681D01*
X53981Y31676D01*
X53998Y31675D01*
X53998Y31676D02*
X54023Y31676D01*
X54044Y31678D01*
X54065Y31683D01*
X54084Y31692D01*
X54101Y31705D01*
X54116Y31720D01*
X54129Y31737D01*
X54138Y31756D01*
X54143Y31777D01*
X54145Y31798D01*
X54143Y31819D01*
X54138Y31840D01*
X54129Y31859D01*
X54116Y31876D01*
X54101Y31891D01*
X54084Y31904D01*
X54065Y31913D01*
X54044Y31918D01*
X54023Y31920D01*
X53901Y31920D01*
X53875Y31918D01*
X53850Y31913D01*
X53826Y31905D01*
X53803Y31894D01*
X53782Y31879D01*
X53762Y31863D01*
X53746Y31843D01*
X53731Y31822D01*
X53720Y31799D01*
X53712Y31775D01*
X53707Y31750D01*
X53705Y31724D01*
X54145Y31470D02*
X54145Y31323D01*
X54143Y31304D01*
X54138Y31285D01*
X54128Y31269D01*
X54116Y31254D01*
X54101Y31242D01*
X54085Y31232D01*
X54066Y31227D01*
X54047Y31225D01*
X54047Y31226D02*
X53998Y31226D01*
X53998Y31225D02*
X53981Y31226D01*
X53964Y31231D01*
X53949Y31238D01*
X53935Y31248D01*
X53923Y31260D01*
X53913Y31274D01*
X53906Y31289D01*
X53901Y31306D01*
X53900Y31323D01*
X53901Y31323D02*
X53901Y31470D01*
X53705Y31470D01*
X53705Y31226D01*
X52815Y31676D02*
X52796Y31678D01*
X52777Y31683D01*
X52760Y31691D01*
X52744Y31702D01*
X52731Y31715D01*
X52720Y31731D01*
X52712Y31748D01*
X52707Y31767D01*
X52705Y31786D01*
X52707Y31808D01*
X52712Y31830D01*
X52720Y31850D01*
X52732Y31869D01*
X52746Y31886D01*
X52763Y31900D01*
X52782Y31912D01*
X52803Y31920D01*
X52900Y31713D02*
X52886Y31700D01*
X52870Y31690D01*
X52853Y31682D01*
X52834Y31678D01*
X52815Y31676D01*
X52901Y31712D02*
X53145Y31920D01*
X53145Y31676D01*
X52754Y31470D02*
X52705Y31470D01*
X52705Y31226D01*
X53145Y31348D01*
X51901Y31676D02*
X51901Y31749D01*
X51901Y31676D02*
X52145Y31676D01*
X52145Y31822D01*
X52144Y31839D01*
X52139Y31856D01*
X52132Y31871D01*
X52122Y31885D01*
X52110Y31897D01*
X52096Y31907D01*
X52081Y31914D01*
X52064Y31919D01*
X52047Y31920D01*
X51803Y31920D01*
X51784Y31918D01*
X51765Y31913D01*
X51749Y31903D01*
X51734Y31891D01*
X51722Y31876D01*
X51712Y31860D01*
X51707Y31841D01*
X51705Y31822D01*
X51705Y31676D01*
X51705Y31440D02*
X52145Y31440D01*
X52145Y31196D02*
X51705Y31440D01*
X51705Y31196D02*
X52145Y31196D01*
X52145Y30960D02*
X51705Y30960D01*
X51705Y30838D01*
X51707Y30817D01*
X51712Y30796D01*
X51721Y30777D01*
X51734Y30760D01*
X51749Y30745D01*
X51766Y30732D01*
X51785Y30723D01*
X51806Y30718D01*
X51827Y30716D01*
X52023Y30716D01*
X52044Y30718D01*
X52065Y30723D01*
X52084Y30732D01*
X52101Y30745D01*
X52116Y30760D01*
X52129Y30777D01*
X52138Y30796D01*
X52143Y30817D01*
X52145Y30838D01*
X52145Y30960D01*
D12*
X50969Y31658D02*
X50969Y31925D01*
X51103Y31792D02*
X50836Y31792D01*
X51125Y31471D02*
X51125Y31360D01*
X51123Y31341D01*
X51118Y31322D01*
X51110Y31305D01*
X51099Y31289D01*
X51085Y31275D01*
X51070Y31264D01*
X51052Y31256D01*
X51033Y31251D01*
X51014Y31249D01*
X50995Y31251D01*
X50976Y31256D01*
X50959Y31264D01*
X50943Y31275D01*
X50929Y31289D01*
X50918Y31305D01*
X50910Y31322D01*
X50905Y31341D01*
X50903Y31360D01*
X50725Y31337D02*
X50725Y31471D01*
X50725Y31337D02*
X50727Y31318D01*
X50733Y31301D01*
X50742Y31285D01*
X50754Y31271D01*
X50770Y31260D01*
X50786Y31252D01*
X50805Y31248D01*
X50823Y31248D01*
X50842Y31252D01*
X50859Y31260D01*
X50874Y31271D01*
X50886Y31285D01*
X50895Y31301D01*
X50901Y31318D01*
X50903Y31337D01*
X50903Y31426D01*
X51103Y31087D02*
X51125Y31087D01*
X51103Y31087D02*
X51103Y31065D01*
X51125Y31065D01*
X51125Y31087D01*
X51125Y30904D02*
X51125Y30793D01*
X51123Y30774D01*
X51118Y30755D01*
X51110Y30738D01*
X51099Y30722D01*
X51085Y30708D01*
X51070Y30697D01*
X51052Y30689D01*
X51033Y30684D01*
X51014Y30682D01*
X50995Y30684D01*
X50976Y30689D01*
X50959Y30697D01*
X50943Y30708D01*
X50929Y30722D01*
X50918Y30738D01*
X50910Y30755D01*
X50905Y30774D01*
X50903Y30793D01*
X50725Y30770D02*
X50725Y30904D01*
X50725Y30770D02*
X50727Y30751D01*
X50733Y30734D01*
X50742Y30718D01*
X50754Y30704D01*
X50770Y30693D01*
X50786Y30685D01*
X50805Y30681D01*
X50823Y30681D01*
X50842Y30685D01*
X50859Y30693D01*
X50874Y30704D01*
X50886Y30718D01*
X50895Y30734D01*
X50901Y30751D01*
X50903Y30770D01*
X50903Y30859D01*
X50725Y30521D02*
X51125Y30388D01*
X50725Y30254D01*
D11*
X50145Y31920D02*
X49705Y31920D01*
X49949Y31773D01*
X49705Y31627D01*
X50145Y31627D01*
X50023Y31401D02*
X49827Y31401D01*
X49827Y31400D02*
X49806Y31398D01*
X49785Y31393D01*
X49766Y31384D01*
X49749Y31371D01*
X49734Y31356D01*
X49721Y31339D01*
X49712Y31320D01*
X49707Y31299D01*
X49705Y31278D01*
X49707Y31257D01*
X49712Y31236D01*
X49721Y31217D01*
X49734Y31200D01*
X49749Y31185D01*
X49766Y31172D01*
X49785Y31163D01*
X49806Y31158D01*
X49827Y31156D01*
X50023Y31156D01*
X50044Y31158D01*
X50065Y31163D01*
X50084Y31172D01*
X50101Y31185D01*
X50116Y31200D01*
X50129Y31217D01*
X50138Y31236D01*
X50143Y31257D01*
X50145Y31278D01*
X50143Y31299D01*
X50138Y31320D01*
X50129Y31339D01*
X50116Y31356D01*
X50101Y31371D01*
X50084Y31384D01*
X50065Y31393D01*
X50044Y31398D01*
X50023Y31400D01*
X50145Y30819D02*
X50144Y30802D01*
X50139Y30785D01*
X50132Y30770D01*
X50122Y30756D01*
X50110Y30744D01*
X50096Y30734D01*
X50081Y30727D01*
X50064Y30722D01*
X50047Y30721D01*
X50145Y30819D02*
X50143Y30846D01*
X50138Y30873D01*
X50129Y30899D01*
X50117Y30923D01*
X50102Y30946D01*
X50084Y30966D01*
X49803Y30954D02*
X49786Y30953D01*
X49769Y30948D01*
X49754Y30941D01*
X49740Y30931D01*
X49728Y30919D01*
X49718Y30905D01*
X49711Y30890D01*
X49706Y30873D01*
X49705Y30856D01*
X49707Y30833D01*
X49711Y30809D01*
X49718Y30787D01*
X49729Y30766D01*
X49742Y30746D01*
X49888Y30904D02*
X49878Y30918D01*
X49866Y30930D01*
X49852Y30940D01*
X49837Y30947D01*
X49820Y30952D01*
X49803Y30953D01*
X49962Y30770D02*
X49972Y30756D01*
X49984Y30744D01*
X49998Y30734D01*
X50013Y30727D01*
X50030Y30722D01*
X50047Y30721D01*
X49962Y30770D02*
X49888Y30904D01*
X49705Y30498D02*
X50145Y30498D01*
X50145Y30547D02*
X50145Y30449D01*
X49705Y30449D02*
X49705Y30547D01*
X49145Y31920D02*
X48705Y31920D01*
X48949Y31773D01*
X48705Y31627D01*
X49145Y31627D01*
X49145Y31368D02*
X48705Y31368D01*
X49145Y31417D02*
X49145Y31319D01*
X48705Y31319D02*
X48705Y31417D01*
X49145Y30999D02*
X49144Y30982D01*
X49139Y30965D01*
X49132Y30950D01*
X49122Y30936D01*
X49110Y30924D01*
X49096Y30914D01*
X49081Y30907D01*
X49064Y30902D01*
X49047Y30901D01*
X49145Y30999D02*
X49143Y31026D01*
X49138Y31053D01*
X49129Y31079D01*
X49117Y31103D01*
X49102Y31126D01*
X49084Y31146D01*
X48803Y31134D02*
X48786Y31133D01*
X48769Y31128D01*
X48754Y31121D01*
X48740Y31111D01*
X48728Y31099D01*
X48718Y31085D01*
X48711Y31070D01*
X48706Y31053D01*
X48705Y31036D01*
X48707Y31013D01*
X48711Y30989D01*
X48718Y30967D01*
X48729Y30946D01*
X48742Y30926D01*
X48888Y31084D02*
X48878Y31098D01*
X48866Y31110D01*
X48852Y31120D01*
X48837Y31127D01*
X48820Y31132D01*
X48803Y31133D01*
X48962Y30950D02*
X48972Y30936D01*
X48984Y30924D01*
X48998Y30914D01*
X49013Y30907D01*
X49030Y30902D01*
X49047Y30901D01*
X48962Y30950D02*
X48888Y31084D01*
X48827Y30711D02*
X49023Y30711D01*
X48827Y30710D02*
X48806Y30708D01*
X48785Y30703D01*
X48766Y30694D01*
X48749Y30681D01*
X48734Y30666D01*
X48721Y30649D01*
X48712Y30630D01*
X48707Y30609D01*
X48705Y30588D01*
X48707Y30567D01*
X48712Y30546D01*
X48721Y30527D01*
X48734Y30510D01*
X48749Y30495D01*
X48766Y30482D01*
X48785Y30473D01*
X48806Y30468D01*
X48827Y30466D01*
X49023Y30466D01*
X49044Y30468D01*
X49065Y30473D01*
X49084Y30482D01*
X49101Y30495D01*
X49116Y30510D01*
X49129Y30527D01*
X49138Y30546D01*
X49143Y30567D01*
X49145Y30588D01*
X49143Y30609D01*
X49138Y30630D01*
X49129Y30649D01*
X49116Y30666D01*
X49101Y30681D01*
X49084Y30694D01*
X49065Y30703D01*
X49044Y30708D01*
X49023Y30710D01*
D12*
X48125Y31747D02*
X48125Y31836D01*
X48123Y31853D01*
X48118Y31870D01*
X48110Y31885D01*
X48099Y31899D01*
X48085Y31910D01*
X48070Y31918D01*
X48053Y31923D01*
X48036Y31925D01*
X47814Y31925D01*
X47797Y31923D01*
X47780Y31918D01*
X47765Y31910D01*
X47751Y31899D01*
X47740Y31885D01*
X47732Y31870D01*
X47727Y31853D01*
X47725Y31836D01*
X47725Y31747D01*
X47725Y31572D02*
X48125Y31572D01*
X48125Y31394D01*
X48125Y31214D02*
X47725Y31214D01*
X47725Y30992D02*
X47969Y31214D01*
X47881Y31126D02*
X48125Y30992D01*
D11*
X47145Y31724D02*
X47145Y31822D01*
X47144Y31839D01*
X47139Y31856D01*
X47132Y31871D01*
X47122Y31885D01*
X47110Y31897D01*
X47096Y31907D01*
X47081Y31914D01*
X47064Y31919D01*
X47047Y31920D01*
X46803Y31920D01*
X46784Y31918D01*
X46765Y31913D01*
X46749Y31903D01*
X46734Y31891D01*
X46722Y31876D01*
X46712Y31860D01*
X46707Y31841D01*
X46705Y31822D01*
X46705Y31724D01*
X47047Y31314D02*
X47064Y31315D01*
X47081Y31320D01*
X47096Y31327D01*
X47110Y31337D01*
X47122Y31349D01*
X47132Y31363D01*
X47139Y31378D01*
X47144Y31395D01*
X47145Y31412D01*
X47143Y31439D01*
X47138Y31466D01*
X47129Y31492D01*
X47117Y31516D01*
X47102Y31539D01*
X47084Y31559D01*
X46803Y31546D02*
X46786Y31545D01*
X46769Y31540D01*
X46754Y31533D01*
X46740Y31523D01*
X46728Y31511D01*
X46718Y31497D01*
X46711Y31482D01*
X46706Y31465D01*
X46705Y31448D01*
X46707Y31425D01*
X46711Y31401D01*
X46718Y31379D01*
X46729Y31358D01*
X46742Y31338D01*
X46888Y31497D02*
X46878Y31511D01*
X46866Y31523D01*
X46852Y31533D01*
X46837Y31540D01*
X46820Y31545D01*
X46803Y31546D01*
X46962Y31363D02*
X46972Y31349D01*
X46984Y31337D01*
X46998Y31327D01*
X47013Y31320D01*
X47030Y31315D01*
X47047Y31314D01*
X46962Y31363D02*
X46888Y31497D01*
X46803Y31123D02*
X46705Y31001D01*
X47145Y31001D01*
X47145Y31123D02*
X47145Y30879D01*
X46047Y31920D02*
X45705Y31822D01*
X46047Y31920D02*
X46047Y31676D01*
X45949Y31749D02*
X46145Y31749D01*
X46145Y31470D02*
X46145Y31323D01*
X46143Y31304D01*
X46138Y31285D01*
X46128Y31269D01*
X46116Y31254D01*
X46101Y31242D01*
X46085Y31232D01*
X46066Y31227D01*
X46047Y31225D01*
X46047Y31226D02*
X45998Y31226D01*
X45998Y31225D02*
X45981Y31226D01*
X45964Y31231D01*
X45949Y31238D01*
X45935Y31248D01*
X45923Y31260D01*
X45913Y31274D01*
X45906Y31289D01*
X45901Y31306D01*
X45900Y31323D01*
X45901Y31323D02*
X45901Y31470D01*
X45705Y31470D01*
X45705Y31226D01*
D12*
X45100Y31925D02*
X44750Y31808D01*
X45100Y31692D01*
X45013Y31721D02*
X45013Y31896D01*
X45100Y31546D02*
X45100Y31429D01*
X45098Y31412D01*
X45092Y31395D01*
X45083Y31380D01*
X45071Y31368D01*
X45056Y31359D01*
X45039Y31353D01*
X45022Y31351D01*
X44983Y31351D01*
X44968Y31352D01*
X44953Y31357D01*
X44940Y31364D01*
X44928Y31374D01*
X44918Y31386D01*
X44911Y31399D01*
X44906Y31414D01*
X44905Y31429D01*
X44906Y31429D02*
X44906Y31546D01*
X44750Y31546D01*
X44750Y31351D01*
X44711Y31047D02*
X45139Y31202D01*
X45003Y30897D02*
X44985Y30895D01*
X44968Y30890D01*
X44952Y30882D01*
X44938Y30872D01*
X44926Y30858D01*
X44916Y30843D01*
X44910Y30827D01*
X44906Y30809D01*
X44906Y30791D01*
X44910Y30773D01*
X44916Y30757D01*
X44926Y30742D01*
X44938Y30728D01*
X44952Y30718D01*
X44968Y30710D01*
X44985Y30705D01*
X45003Y30703D01*
X45021Y30705D01*
X45038Y30710D01*
X45054Y30718D01*
X45068Y30728D01*
X45080Y30742D01*
X45090Y30757D01*
X45096Y30773D01*
X45100Y30791D01*
X45100Y30809D01*
X45096Y30827D01*
X45090Y30843D01*
X45080Y30858D01*
X45068Y30872D01*
X45054Y30882D01*
X45038Y30890D01*
X45021Y30895D01*
X45003Y30897D01*
X44828Y30878D02*
X44812Y30876D01*
X44796Y30871D01*
X44782Y30863D01*
X44770Y30852D01*
X44760Y30839D01*
X44754Y30824D01*
X44750Y30808D01*
X44750Y30792D01*
X44754Y30776D01*
X44760Y30761D01*
X44770Y30748D01*
X44782Y30737D01*
X44796Y30729D01*
X44812Y30724D01*
X44828Y30722D01*
X44844Y30724D01*
X44860Y30729D01*
X44874Y30737D01*
X44886Y30748D01*
X44896Y30761D01*
X44902Y30776D01*
X44906Y30792D01*
X44906Y30808D01*
X44902Y30824D01*
X44896Y30839D01*
X44886Y30852D01*
X44874Y30863D01*
X44860Y30871D01*
X44844Y30876D01*
X44828Y30878D01*
X44906Y30538D02*
X44906Y30421D01*
X44905Y30421D02*
X44906Y30406D01*
X44911Y30391D01*
X44918Y30378D01*
X44928Y30366D01*
X44940Y30356D01*
X44953Y30349D01*
X44968Y30344D01*
X44983Y30343D01*
X45003Y30343D01*
X45021Y30345D01*
X45038Y30350D01*
X45054Y30358D01*
X45068Y30368D01*
X45080Y30382D01*
X45090Y30397D01*
X45096Y30413D01*
X45100Y30431D01*
X45100Y30449D01*
X45096Y30467D01*
X45090Y30483D01*
X45080Y30498D01*
X45068Y30512D01*
X45054Y30522D01*
X45038Y30530D01*
X45021Y30535D01*
X45003Y30537D01*
X45003Y30538D02*
X44906Y30538D01*
X44882Y30536D01*
X44858Y30530D01*
X44835Y30521D01*
X44814Y30508D01*
X44796Y30492D01*
X44780Y30474D01*
X44767Y30453D01*
X44758Y30430D01*
X44752Y30406D01*
X44750Y30382D01*
X61125Y21925D02*
X61125Y21747D01*
X61125Y21925D02*
X60725Y21925D01*
X60725Y21747D01*
X60903Y21792D02*
X60903Y21925D01*
X60725Y21575D02*
X61125Y21575D01*
X61125Y21353D02*
X60725Y21575D01*
X60725Y21353D02*
X61125Y21353D01*
D11*
X60145Y21773D02*
X59705Y21920D01*
X59705Y21627D02*
X60145Y21773D01*
X59901Y21422D02*
X59901Y21300D01*
X59903Y21279D01*
X59908Y21258D01*
X59917Y21239D01*
X59930Y21222D01*
X59945Y21207D01*
X59962Y21194D01*
X59981Y21185D01*
X60002Y21180D01*
X60023Y21178D01*
X60044Y21180D01*
X60065Y21185D01*
X60084Y21194D01*
X60101Y21207D01*
X60116Y21222D01*
X60129Y21239D01*
X60138Y21258D01*
X60143Y21279D01*
X60145Y21300D01*
X60145Y21422D01*
X59705Y21422D01*
X59705Y21300D01*
X59707Y21282D01*
X59712Y21265D01*
X59720Y21248D01*
X59731Y21234D01*
X59744Y21222D01*
X59759Y21212D01*
X59776Y21206D01*
X59794Y21202D01*
X59812Y21202D01*
X59830Y21206D01*
X59847Y21212D01*
X59862Y21222D01*
X59875Y21234D01*
X59886Y21248D01*
X59894Y21265D01*
X59899Y21282D01*
X59901Y21300D01*
X59145Y21773D02*
X58705Y21920D01*
X58705Y21627D02*
X59145Y21773D01*
X59145Y21413D02*
X58705Y21413D01*
X59145Y21462D02*
X59145Y21364D01*
X58705Y21364D02*
X58705Y21462D01*
X57974Y21627D02*
X57974Y21920D01*
X56974Y21920D02*
X56974Y21627D01*
X57121Y21773D02*
X56827Y21773D01*
X56145Y21871D02*
X55705Y21871D01*
X56145Y21920D02*
X56145Y21822D01*
X55705Y21822D02*
X55705Y21920D01*
X55705Y21618D02*
X56145Y21618D01*
X55705Y21618D02*
X55705Y21496D01*
X55707Y21475D01*
X55712Y21454D01*
X55721Y21435D01*
X55734Y21418D01*
X55749Y21403D01*
X55766Y21390D01*
X55785Y21381D01*
X55806Y21376D01*
X55827Y21374D01*
X56023Y21374D01*
X56044Y21376D01*
X56065Y21381D01*
X56084Y21390D01*
X56101Y21403D01*
X56116Y21418D01*
X56129Y21435D01*
X56138Y21454D01*
X56143Y21475D01*
X56145Y21496D01*
X56145Y21618D01*
D13*
X54909Y21774D02*
X54909Y21821D01*
X54909Y21774D02*
X55065Y21774D01*
X55065Y21868D01*
X55063Y21882D01*
X55059Y21895D01*
X55051Y21907D01*
X55042Y21916D01*
X55030Y21924D01*
X55017Y21928D01*
X55003Y21930D01*
X54847Y21930D01*
X54833Y21928D01*
X54820Y21924D01*
X54808Y21916D01*
X54799Y21907D01*
X54791Y21895D01*
X54787Y21882D01*
X54785Y21868D01*
X54785Y21774D01*
X54785Y21623D02*
X55065Y21623D01*
X55065Y21467D02*
X54785Y21623D01*
X54785Y21467D02*
X55065Y21467D01*
X55065Y21316D02*
X54785Y21316D01*
X54785Y21238D01*
X54786Y21223D01*
X54791Y21208D01*
X54798Y21195D01*
X54808Y21183D01*
X54820Y21173D01*
X54833Y21166D01*
X54848Y21161D01*
X54863Y21160D01*
X54987Y21160D01*
X55002Y21161D01*
X55017Y21166D01*
X55030Y21173D01*
X55042Y21183D01*
X55052Y21195D01*
X55059Y21208D01*
X55064Y21223D01*
X55065Y21238D01*
X55065Y21316D01*
D11*
X53974Y21627D02*
X53974Y21920D01*
X52925Y21920D02*
X52892Y21919D01*
X52859Y21914D01*
X52827Y21907D01*
X52796Y21896D01*
X52766Y21883D01*
X52749Y21875D01*
X52734Y21864D01*
X52722Y21850D01*
X52713Y21834D01*
X52707Y21816D01*
X52705Y21798D01*
X52707Y21780D01*
X52713Y21762D01*
X52722Y21746D01*
X52734Y21732D01*
X52749Y21721D01*
X52766Y21713D01*
X52766Y21712D02*
X52796Y21699D01*
X52827Y21688D01*
X52859Y21681D01*
X52892Y21676D01*
X52925Y21675D01*
X52925Y21920D02*
X52958Y21919D01*
X52991Y21914D01*
X53023Y21907D01*
X53054Y21896D01*
X53084Y21883D01*
X53101Y21875D01*
X53116Y21864D01*
X53128Y21850D01*
X53137Y21834D01*
X53143Y21816D01*
X53145Y21798D01*
X53084Y21712D02*
X53054Y21699D01*
X53023Y21688D01*
X52991Y21681D01*
X52958Y21676D01*
X52925Y21675D01*
X53084Y21713D02*
X53101Y21721D01*
X53116Y21732D01*
X53128Y21746D01*
X53137Y21762D01*
X53143Y21780D01*
X53145Y21798D01*
X53047Y21896D02*
X52803Y21700D01*
X51803Y21920D02*
X51705Y21798D01*
X52145Y21798D01*
X52145Y21920D02*
X52145Y21676D01*
X50815Y21676D02*
X50796Y21678D01*
X50777Y21683D01*
X50760Y21691D01*
X50744Y21702D01*
X50731Y21715D01*
X50720Y21731D01*
X50712Y21748D01*
X50707Y21767D01*
X50705Y21786D01*
X50707Y21808D01*
X50712Y21830D01*
X50720Y21850D01*
X50732Y21869D01*
X50746Y21886D01*
X50763Y21900D01*
X50782Y21912D01*
X50803Y21920D01*
X50900Y21713D02*
X50886Y21700D01*
X50870Y21690D01*
X50853Y21682D01*
X50834Y21678D01*
X50815Y21676D01*
X50901Y21712D02*
X51145Y21920D01*
X51145Y21676D01*
X50145Y21798D02*
X50145Y21920D01*
X50145Y21798D02*
X50143Y21777D01*
X50138Y21756D01*
X50129Y21737D01*
X50116Y21720D01*
X50101Y21705D01*
X50084Y21692D01*
X50065Y21683D01*
X50044Y21678D01*
X50023Y21676D01*
X50002Y21678D01*
X49981Y21683D01*
X49962Y21692D01*
X49945Y21705D01*
X49930Y21720D01*
X49917Y21737D01*
X49908Y21756D01*
X49903Y21777D01*
X49901Y21798D01*
X49705Y21773D02*
X49705Y21920D01*
X49705Y21773D02*
X49707Y21755D01*
X49712Y21738D01*
X49720Y21721D01*
X49731Y21707D01*
X49744Y21695D01*
X49759Y21685D01*
X49776Y21679D01*
X49794Y21675D01*
X49812Y21675D01*
X49830Y21679D01*
X49847Y21685D01*
X49862Y21695D01*
X49875Y21707D01*
X49886Y21721D01*
X49894Y21738D01*
X49899Y21755D01*
X49901Y21773D01*
X49901Y21871D01*
X49047Y21920D02*
X48705Y21822D01*
X49047Y21920D02*
X49047Y21676D01*
X48949Y21749D02*
X49145Y21749D01*
X47754Y21920D02*
X47705Y21920D01*
X47705Y21676D01*
X48145Y21798D01*
X47047Y21920D02*
X46705Y21822D01*
X47047Y21920D02*
X47047Y21676D01*
X46949Y21749D02*
X47145Y21749D01*
X45803Y21920D02*
X45705Y21798D01*
X46145Y21798D01*
X46145Y21920D02*
X46145Y21676D01*
X44120Y24031D02*
X43680Y24031D01*
X43680Y23909D01*
X43682Y23888D01*
X43687Y23867D01*
X43696Y23848D01*
X43709Y23831D01*
X43724Y23816D01*
X43741Y23803D01*
X43760Y23794D01*
X43781Y23789D01*
X43802Y23787D01*
X43823Y23789D01*
X43844Y23794D01*
X43863Y23803D01*
X43880Y23816D01*
X43895Y23831D01*
X43908Y23848D01*
X43917Y23867D01*
X43922Y23888D01*
X43924Y23909D01*
X43924Y24031D01*
X43778Y23604D02*
X43680Y23482D01*
X44120Y23482D01*
X44120Y23604D02*
X44120Y23360D01*
X44120Y23179D02*
X44096Y23179D01*
X44096Y23155D01*
X44120Y23155D01*
X44120Y23179D01*
X43778Y22974D02*
X43680Y22852D01*
X44120Y22852D01*
X44120Y22974D02*
X44120Y22730D01*
X43900Y22525D02*
X43867Y22524D01*
X43834Y22519D01*
X43802Y22512D01*
X43771Y22501D01*
X43741Y22488D01*
X43741Y22487D02*
X43724Y22479D01*
X43709Y22468D01*
X43697Y22454D01*
X43688Y22438D01*
X43682Y22420D01*
X43680Y22402D01*
X43682Y22384D01*
X43688Y22366D01*
X43697Y22350D01*
X43709Y22336D01*
X43724Y22325D01*
X43741Y22317D01*
X43771Y22304D01*
X43802Y22293D01*
X43834Y22286D01*
X43867Y22281D01*
X43900Y22280D01*
X43900Y22525D02*
X43933Y22524D01*
X43966Y22519D01*
X43998Y22512D01*
X44029Y22501D01*
X44059Y22488D01*
X44059Y22487D02*
X44076Y22479D01*
X44091Y22468D01*
X44103Y22454D01*
X44112Y22438D01*
X44118Y22420D01*
X44120Y22402D01*
X44059Y22317D02*
X44029Y22304D01*
X43998Y22293D01*
X43966Y22286D01*
X43933Y22281D01*
X43900Y22280D01*
X44059Y22317D02*
X44076Y22325D01*
X44091Y22336D01*
X44103Y22350D01*
X44112Y22366D01*
X44118Y22384D01*
X44120Y22402D01*
X44022Y22500D02*
X43778Y22304D01*
D12*
X44750Y25578D02*
X45100Y25578D01*
X44750Y25578D02*
X44750Y25481D01*
X44752Y25463D01*
X44757Y25446D01*
X44765Y25430D01*
X44775Y25416D01*
X44789Y25404D01*
X44804Y25394D01*
X44820Y25388D01*
X44838Y25384D01*
X44856Y25384D01*
X44874Y25388D01*
X44890Y25394D01*
X44905Y25404D01*
X44919Y25416D01*
X44929Y25430D01*
X44937Y25446D01*
X44942Y25463D01*
X44944Y25481D01*
X44944Y25578D01*
X44750Y25247D02*
X45100Y25169D01*
X44867Y25092D01*
X45100Y25014D01*
X44750Y24936D01*
X44750Y24764D02*
X45100Y24764D01*
X44944Y24648D02*
X44750Y24764D01*
X44944Y24648D02*
X44750Y24531D01*
X45100Y24531D01*
X44925Y24348D02*
X44892Y24346D01*
X44860Y24341D01*
X44829Y24331D01*
X44799Y24319D01*
X44799Y24320D02*
X44785Y24314D01*
X44773Y24305D01*
X44763Y24294D01*
X44756Y24281D01*
X44752Y24267D01*
X44750Y24252D01*
X44752Y24237D01*
X44756Y24223D01*
X44763Y24210D01*
X44773Y24199D01*
X44785Y24190D01*
X44799Y24184D01*
X44829Y24172D01*
X44860Y24162D01*
X44892Y24157D01*
X44925Y24155D01*
X44925Y24348D02*
X44958Y24346D01*
X44990Y24341D01*
X45021Y24331D01*
X45051Y24319D01*
X45051Y24320D02*
X45065Y24314D01*
X45077Y24305D01*
X45087Y24294D01*
X45094Y24281D01*
X45098Y24267D01*
X45100Y24252D01*
X45051Y24184D02*
X45021Y24172D01*
X44990Y24162D01*
X44958Y24157D01*
X44925Y24155D01*
X45051Y24184D02*
X45065Y24190D01*
X45077Y24199D01*
X45087Y24210D01*
X45094Y24223D01*
X45098Y24237D01*
X45100Y24252D01*
X45022Y24329D02*
X44828Y24174D01*
X44750Y23892D02*
X45100Y24008D01*
X45100Y23775D02*
X44750Y23892D01*
X45013Y23804D02*
X45013Y23979D01*
D11*
X62680Y23584D02*
X63120Y23437D01*
X62680Y23291D01*
X62680Y23077D02*
X63120Y23077D01*
X63120Y23126D02*
X63120Y23028D01*
X62680Y23028D02*
X62680Y23126D01*
X62680Y22824D02*
X63120Y22824D01*
X63120Y22580D02*
X62680Y22824D01*
X62680Y22580D02*
X63120Y22580D01*
D12*
X47621Y21475D02*
X47621Y21125D01*
X47621Y21475D02*
X47524Y21475D01*
X47506Y21473D01*
X47489Y21468D01*
X47473Y21460D01*
X47459Y21450D01*
X47447Y21436D01*
X47437Y21421D01*
X47431Y21405D01*
X47427Y21387D01*
X47427Y21369D01*
X47431Y21351D01*
X47437Y21335D01*
X47447Y21320D01*
X47459Y21306D01*
X47473Y21296D01*
X47489Y21288D01*
X47506Y21283D01*
X47524Y21281D01*
X47621Y21281D01*
X47265Y21125D02*
X47265Y21475D01*
X47167Y21475D01*
X47149Y21473D01*
X47132Y21468D01*
X47116Y21460D01*
X47102Y21450D01*
X47090Y21436D01*
X47080Y21421D01*
X47074Y21405D01*
X47070Y21387D01*
X47070Y21369D01*
X47074Y21351D01*
X47080Y21335D01*
X47090Y21320D01*
X47102Y21306D01*
X47116Y21296D01*
X47132Y21288D01*
X47149Y21283D01*
X47167Y21281D01*
X47265Y21281D01*
X47148Y21281D02*
X47070Y21125D01*
X46896Y21222D02*
X46896Y21475D01*
X46895Y21222D02*
X46893Y21204D01*
X46888Y21187D01*
X46880Y21171D01*
X46870Y21157D01*
X46856Y21145D01*
X46841Y21135D01*
X46825Y21129D01*
X46807Y21125D01*
X46789Y21125D01*
X46771Y21129D01*
X46755Y21135D01*
X46740Y21145D01*
X46726Y21157D01*
X46716Y21171D01*
X46708Y21187D01*
X46703Y21204D01*
X46701Y21222D01*
X46701Y21475D01*
X46494Y21426D02*
X46506Y21396D01*
X46516Y21365D01*
X46521Y21333D01*
X46523Y21300D01*
X46494Y21426D02*
X46488Y21440D01*
X46479Y21452D01*
X46468Y21462D01*
X46455Y21469D01*
X46441Y21473D01*
X46426Y21475D01*
X46411Y21473D01*
X46397Y21469D01*
X46384Y21462D01*
X46373Y21452D01*
X46364Y21440D01*
X46358Y21426D01*
X46359Y21426D02*
X46347Y21396D01*
X46337Y21365D01*
X46332Y21333D01*
X46330Y21300D01*
X46523Y21300D02*
X46521Y21267D01*
X46516Y21235D01*
X46506Y21204D01*
X46494Y21174D01*
X46488Y21160D01*
X46479Y21148D01*
X46468Y21138D01*
X46455Y21131D01*
X46441Y21127D01*
X46426Y21125D01*
X46359Y21174D02*
X46347Y21204D01*
X46337Y21235D01*
X46332Y21267D01*
X46330Y21300D01*
X46358Y21174D02*
X46364Y21160D01*
X46373Y21148D01*
X46384Y21138D01*
X46397Y21131D01*
X46411Y21127D01*
X46426Y21125D01*
X46504Y21203D02*
X46349Y21397D01*
X48046Y34300D02*
X48046Y34650D01*
X47949Y34650D01*
X47931Y34648D01*
X47914Y34643D01*
X47898Y34635D01*
X47884Y34625D01*
X47872Y34611D01*
X47862Y34596D01*
X47856Y34580D01*
X47852Y34562D01*
X47852Y34544D01*
X47856Y34526D01*
X47862Y34510D01*
X47872Y34495D01*
X47884Y34481D01*
X47898Y34471D01*
X47914Y34463D01*
X47931Y34458D01*
X47949Y34456D01*
X48046Y34456D01*
X47690Y34300D02*
X47690Y34650D01*
X47592Y34650D01*
X47574Y34648D01*
X47557Y34643D01*
X47541Y34635D01*
X47527Y34625D01*
X47515Y34611D01*
X47505Y34596D01*
X47499Y34580D01*
X47495Y34562D01*
X47495Y34544D01*
X47499Y34526D01*
X47505Y34510D01*
X47515Y34495D01*
X47527Y34481D01*
X47541Y34471D01*
X47557Y34463D01*
X47574Y34458D01*
X47592Y34456D01*
X47690Y34456D01*
X47573Y34456D02*
X47495Y34300D01*
X47321Y34397D02*
X47321Y34650D01*
X47320Y34397D02*
X47318Y34379D01*
X47313Y34362D01*
X47305Y34346D01*
X47295Y34332D01*
X47281Y34320D01*
X47266Y34310D01*
X47250Y34304D01*
X47232Y34300D01*
X47214Y34300D01*
X47196Y34304D01*
X47180Y34310D01*
X47165Y34320D01*
X47151Y34332D01*
X47141Y34346D01*
X47133Y34362D01*
X47128Y34379D01*
X47126Y34397D01*
X47126Y34650D01*
X46919Y34601D02*
X46931Y34571D01*
X46941Y34540D01*
X46946Y34508D01*
X46948Y34475D01*
X46919Y34601D02*
X46913Y34615D01*
X46904Y34627D01*
X46893Y34637D01*
X46880Y34644D01*
X46866Y34648D01*
X46851Y34650D01*
X46836Y34648D01*
X46822Y34644D01*
X46809Y34637D01*
X46798Y34627D01*
X46789Y34615D01*
X46783Y34601D01*
X46784Y34601D02*
X46772Y34571D01*
X46762Y34540D01*
X46757Y34508D01*
X46755Y34475D01*
X46948Y34475D02*
X46946Y34442D01*
X46941Y34410D01*
X46931Y34379D01*
X46919Y34349D01*
X46913Y34335D01*
X46904Y34323D01*
X46893Y34313D01*
X46880Y34306D01*
X46866Y34302D01*
X46851Y34300D01*
X46784Y34349D02*
X46772Y34379D01*
X46762Y34410D01*
X46757Y34442D01*
X46755Y34475D01*
X46783Y34349D02*
X46789Y34335D01*
X46798Y34323D01*
X46809Y34313D01*
X46822Y34306D01*
X46836Y34302D01*
X46851Y34300D01*
X46929Y34378D02*
X46774Y34572D01*
X55789Y34494D02*
X55886Y34494D01*
X55789Y34494D02*
X55771Y34492D01*
X55754Y34487D01*
X55738Y34479D01*
X55724Y34469D01*
X55712Y34455D01*
X55702Y34440D01*
X55696Y34424D01*
X55692Y34406D01*
X55692Y34388D01*
X55696Y34370D01*
X55702Y34354D01*
X55712Y34339D01*
X55724Y34325D01*
X55738Y34315D01*
X55754Y34307D01*
X55771Y34302D01*
X55789Y34300D01*
X55886Y34300D01*
X55886Y34650D01*
X55789Y34650D01*
X55773Y34648D01*
X55757Y34643D01*
X55743Y34635D01*
X55731Y34624D01*
X55721Y34611D01*
X55715Y34596D01*
X55711Y34580D01*
X55711Y34564D01*
X55715Y34548D01*
X55721Y34533D01*
X55731Y34520D01*
X55743Y34509D01*
X55757Y34501D01*
X55773Y34496D01*
X55789Y34494D01*
X55564Y34300D02*
X55447Y34650D01*
X55331Y34300D01*
X55360Y34388D02*
X55535Y34388D01*
X55111Y34300D02*
X55111Y34650D01*
X55014Y34650D02*
X55209Y34650D01*
D10*
X44420Y32890D02*
X44420Y31190D01*
X44420Y29990D01*
X60420Y32890D02*
X61420Y32890D01*
X62420Y32890D01*
X62420Y22890D02*
X61420Y22890D01*
X62420Y22890D02*
X62420Y24590D01*
X62420Y25790D01*
X61420Y25790D02*
X60420Y25790D01*
X61420Y25790D02*
X62420Y25790D01*
X60420Y25790D02*
X56420Y25790D01*
X56420Y22890D01*
D12*
X59790Y25328D02*
X59791Y25313D01*
X59796Y25298D01*
X59803Y25285D01*
X59813Y25273D01*
X59825Y25263D01*
X59838Y25256D01*
X59853Y25251D01*
X59868Y25250D01*
X59890Y25251D01*
X59911Y25256D01*
X59931Y25263D01*
X59950Y25272D01*
X59968Y25284D01*
X59984Y25299D01*
X59975Y25522D02*
X59974Y25537D01*
X59969Y25552D01*
X59962Y25565D01*
X59952Y25577D01*
X59940Y25587D01*
X59927Y25594D01*
X59912Y25599D01*
X59897Y25600D01*
X59874Y25598D01*
X59851Y25593D01*
X59829Y25583D01*
X59809Y25571D01*
X59936Y25454D02*
X59949Y25464D01*
X59960Y25476D01*
X59968Y25490D01*
X59973Y25506D01*
X59975Y25522D01*
X59829Y25396D02*
X59816Y25386D01*
X59805Y25374D01*
X59797Y25360D01*
X59792Y25344D01*
X59790Y25328D01*
X59829Y25396D02*
X59936Y25454D01*
X59617Y25600D02*
X59617Y25250D01*
X59617Y25600D02*
X59520Y25600D01*
X59502Y25598D01*
X59485Y25593D01*
X59469Y25585D01*
X59455Y25575D01*
X59443Y25561D01*
X59433Y25546D01*
X59427Y25530D01*
X59423Y25512D01*
X59423Y25494D01*
X59427Y25476D01*
X59433Y25460D01*
X59443Y25445D01*
X59455Y25431D01*
X59469Y25421D01*
X59485Y25413D01*
X59502Y25408D01*
X59520Y25406D01*
X59617Y25406D01*
X59251Y25250D02*
X59251Y25600D01*
X59290Y25250D02*
X59212Y25250D01*
X59212Y25600D02*
X59290Y25600D01*
X59031Y25551D02*
X59043Y25521D01*
X59053Y25490D01*
X59058Y25458D01*
X59060Y25425D01*
X59031Y25551D02*
X59025Y25565D01*
X59016Y25577D01*
X59005Y25587D01*
X58992Y25594D01*
X58978Y25598D01*
X58963Y25600D01*
X58948Y25598D01*
X58934Y25594D01*
X58921Y25587D01*
X58910Y25577D01*
X58901Y25565D01*
X58895Y25551D01*
X58883Y25521D01*
X58873Y25490D01*
X58868Y25458D01*
X58866Y25425D01*
X59060Y25425D02*
X59058Y25392D01*
X59053Y25360D01*
X59043Y25329D01*
X59031Y25299D01*
X59025Y25285D01*
X59016Y25273D01*
X59005Y25263D01*
X58992Y25256D01*
X58978Y25252D01*
X58963Y25250D01*
X58895Y25299D02*
X58883Y25329D01*
X58873Y25360D01*
X58868Y25392D01*
X58866Y25425D01*
X58895Y25299D02*
X58901Y25285D01*
X58910Y25273D01*
X58921Y25263D01*
X58934Y25256D01*
X58948Y25252D01*
X58963Y25250D01*
X59041Y25328D02*
X58885Y25522D01*
X57956Y21475D02*
X57956Y21222D01*
X57954Y21204D01*
X57949Y21187D01*
X57941Y21171D01*
X57931Y21157D01*
X57917Y21145D01*
X57902Y21135D01*
X57886Y21129D01*
X57868Y21125D01*
X57850Y21125D01*
X57832Y21129D01*
X57816Y21135D01*
X57801Y21145D01*
X57787Y21157D01*
X57777Y21171D01*
X57769Y21187D01*
X57764Y21204D01*
X57762Y21222D01*
X57762Y21475D01*
X57480Y21125D02*
X57465Y21126D01*
X57450Y21131D01*
X57437Y21138D01*
X57425Y21148D01*
X57415Y21160D01*
X57408Y21173D01*
X57403Y21188D01*
X57402Y21203D01*
X57480Y21125D02*
X57502Y21126D01*
X57523Y21131D01*
X57543Y21138D01*
X57562Y21147D01*
X57580Y21159D01*
X57596Y21174D01*
X57587Y21397D02*
X57586Y21412D01*
X57581Y21427D01*
X57574Y21440D01*
X57564Y21452D01*
X57552Y21462D01*
X57539Y21469D01*
X57524Y21474D01*
X57509Y21475D01*
X57486Y21473D01*
X57463Y21468D01*
X57441Y21458D01*
X57421Y21446D01*
X57548Y21329D02*
X57561Y21339D01*
X57572Y21351D01*
X57580Y21365D01*
X57585Y21381D01*
X57587Y21397D01*
X57441Y21271D02*
X57428Y21261D01*
X57417Y21249D01*
X57409Y21235D01*
X57404Y21219D01*
X57402Y21203D01*
X57441Y21271D02*
X57548Y21329D01*
X57229Y21319D02*
X57132Y21319D01*
X57114Y21317D01*
X57097Y21312D01*
X57081Y21304D01*
X57067Y21294D01*
X57055Y21280D01*
X57045Y21265D01*
X57039Y21249D01*
X57035Y21231D01*
X57035Y21213D01*
X57039Y21195D01*
X57045Y21179D01*
X57055Y21164D01*
X57067Y21150D01*
X57081Y21140D01*
X57097Y21132D01*
X57114Y21127D01*
X57132Y21125D01*
X57229Y21125D01*
X57229Y21475D01*
X57132Y21475D01*
X57116Y21473D01*
X57100Y21468D01*
X57086Y21460D01*
X57074Y21449D01*
X57064Y21436D01*
X57058Y21421D01*
X57054Y21405D01*
X57054Y21389D01*
X57058Y21373D01*
X57064Y21358D01*
X57074Y21345D01*
X57086Y21334D01*
X57100Y21326D01*
X57116Y21321D01*
X57132Y21319D01*
X56888Y21397D02*
X56791Y21475D01*
X56791Y21125D01*
X56888Y21125D02*
X56694Y21125D01*
D10*
X55420Y25790D02*
X54420Y25790D01*
X55420Y25790D02*
X56420Y25790D01*
X54420Y25790D02*
X53420Y25790D01*
X52420Y25790D01*
X51420Y25790D01*
X50420Y25790D01*
X48420Y25790D01*
X46420Y25790D01*
X45420Y25790D01*
X44420Y25790D01*
X44420Y24590D02*
X44420Y22890D01*
X44420Y24590D02*
X44420Y25790D01*
X44420Y22890D02*
X45420Y22890D01*
X45420Y25790D01*
X44420Y24590D02*
X43420Y24590D01*
X43420Y22540D01*
D12*
X49928Y25250D02*
X49928Y25600D01*
X49967Y25250D02*
X49889Y25250D01*
X49889Y25600D02*
X49967Y25600D01*
X49630Y25601D02*
X49613Y25599D01*
X49596Y25594D01*
X49581Y25586D01*
X49568Y25575D01*
X49557Y25562D01*
X49549Y25547D01*
X49544Y25530D01*
X49542Y25513D01*
X49630Y25600D02*
X49650Y25598D01*
X49669Y25593D01*
X49687Y25584D01*
X49704Y25572D01*
X49718Y25558D01*
X49729Y25541D01*
X49737Y25523D01*
X49572Y25445D02*
X49560Y25459D01*
X49551Y25476D01*
X49545Y25494D01*
X49543Y25513D01*
X49572Y25444D02*
X49737Y25250D01*
X49543Y25250D01*
X49301Y25250D02*
X49223Y25250D01*
X49301Y25250D02*
X49316Y25251D01*
X49331Y25256D01*
X49344Y25263D01*
X49356Y25273D01*
X49366Y25285D01*
X49373Y25298D01*
X49378Y25313D01*
X49379Y25328D01*
X49379Y25522D01*
X49377Y25539D01*
X49371Y25556D01*
X49362Y25571D01*
X49350Y25583D01*
X49335Y25592D01*
X49318Y25598D01*
X49301Y25600D01*
X49223Y25600D01*
X48970Y25601D02*
X48953Y25599D01*
X48936Y25594D01*
X48921Y25586D01*
X48908Y25575D01*
X48897Y25562D01*
X48889Y25547D01*
X48884Y25530D01*
X48882Y25513D01*
X48970Y25600D02*
X48990Y25598D01*
X49009Y25593D01*
X49027Y25584D01*
X49044Y25572D01*
X49058Y25558D01*
X49069Y25541D01*
X49077Y25523D01*
X48912Y25445D02*
X48900Y25459D01*
X48891Y25476D01*
X48885Y25494D01*
X48883Y25513D01*
X48912Y25444D02*
X49077Y25250D01*
X48883Y25250D01*
D10*
X62420Y24590D02*
X63420Y24590D01*
X63420Y22540D01*
D12*
X47843Y30175D02*
X47828Y30176D01*
X47813Y30181D01*
X47800Y30188D01*
X47788Y30198D01*
X47778Y30210D01*
X47771Y30223D01*
X47766Y30238D01*
X47765Y30253D01*
X47843Y30175D02*
X47865Y30176D01*
X47886Y30181D01*
X47906Y30188D01*
X47925Y30197D01*
X47943Y30209D01*
X47959Y30224D01*
X47950Y30447D02*
X47949Y30462D01*
X47944Y30477D01*
X47937Y30490D01*
X47927Y30502D01*
X47915Y30512D01*
X47902Y30519D01*
X47887Y30524D01*
X47872Y30525D01*
X47849Y30523D01*
X47826Y30518D01*
X47804Y30508D01*
X47784Y30496D01*
X47911Y30379D02*
X47924Y30389D01*
X47935Y30401D01*
X47943Y30415D01*
X47948Y30431D01*
X47950Y30447D01*
X47804Y30321D02*
X47791Y30311D01*
X47780Y30299D01*
X47772Y30285D01*
X47767Y30269D01*
X47765Y30253D01*
X47804Y30321D02*
X47911Y30379D01*
X47592Y30525D02*
X47592Y30175D01*
X47592Y30525D02*
X47495Y30525D01*
X47477Y30523D01*
X47460Y30518D01*
X47444Y30510D01*
X47430Y30500D01*
X47418Y30486D01*
X47408Y30471D01*
X47402Y30455D01*
X47398Y30437D01*
X47398Y30419D01*
X47402Y30401D01*
X47408Y30385D01*
X47418Y30370D01*
X47430Y30356D01*
X47444Y30346D01*
X47460Y30338D01*
X47477Y30333D01*
X47495Y30331D01*
X47592Y30331D01*
X47226Y30175D02*
X47226Y30525D01*
X47265Y30175D02*
X47187Y30175D01*
X47187Y30525D02*
X47265Y30525D01*
X47035Y30447D02*
X46938Y30525D01*
X46938Y30175D01*
X47035Y30175D02*
X46841Y30175D01*
D10*
X46420Y29990D02*
X50420Y29990D01*
X46420Y29990D02*
X45420Y29990D01*
X44420Y29990D01*
X51420Y29990D02*
X52420Y29990D01*
X51420Y29990D02*
X50420Y29990D01*
X53420Y29990D02*
X54420Y29990D01*
X53420Y29990D02*
X52420Y29990D01*
X55420Y29990D02*
X56420Y29990D01*
X55420Y29990D02*
X54420Y29990D01*
X56420Y29990D02*
X58420Y29990D01*
X60420Y29990D01*
X61420Y29990D02*
X62420Y29990D01*
X61420Y29990D02*
X60420Y29990D01*
X62420Y31190D02*
X62420Y32890D01*
X62420Y31190D02*
X62420Y29990D01*
X62420Y31190D02*
X63420Y31190D01*
X63420Y33240D01*
X50420Y32890D02*
X50420Y34740D01*
X61420Y25790D02*
X61420Y22890D01*
X45420Y29990D02*
X45420Y32890D01*
X51420Y32890D02*
X51420Y29990D01*
X53420Y29990D02*
X53420Y32890D01*
X55420Y32890D02*
X55420Y29990D01*
X61420Y29990D02*
X61420Y32890D01*
X44420Y31190D02*
X43420Y31190D01*
X43420Y33240D01*
D12*
X58003Y30525D02*
X58003Y30175D01*
X58042Y30175D02*
X57964Y30175D01*
X57964Y30525D02*
X58042Y30525D01*
X57705Y30526D02*
X57688Y30524D01*
X57671Y30519D01*
X57656Y30511D01*
X57643Y30500D01*
X57632Y30487D01*
X57624Y30472D01*
X57619Y30455D01*
X57617Y30438D01*
X57705Y30525D02*
X57725Y30523D01*
X57744Y30518D01*
X57762Y30509D01*
X57779Y30497D01*
X57793Y30483D01*
X57804Y30466D01*
X57812Y30448D01*
X57647Y30370D02*
X57635Y30384D01*
X57626Y30401D01*
X57620Y30419D01*
X57618Y30438D01*
X57647Y30369D02*
X57812Y30175D01*
X57618Y30175D01*
X57376Y30175D02*
X57298Y30175D01*
X57376Y30175D02*
X57391Y30176D01*
X57406Y30181D01*
X57419Y30188D01*
X57431Y30198D01*
X57441Y30210D01*
X57448Y30223D01*
X57453Y30238D01*
X57454Y30253D01*
X57454Y30447D01*
X57452Y30464D01*
X57446Y30481D01*
X57437Y30496D01*
X57425Y30508D01*
X57410Y30517D01*
X57393Y30523D01*
X57376Y30525D01*
X57298Y30525D01*
X57152Y30447D02*
X57055Y30525D01*
X57055Y30175D01*
X57152Y30175D02*
X56958Y30175D01*
X59733Y30272D02*
X59733Y30525D01*
X59733Y30272D02*
X59731Y30254D01*
X59726Y30237D01*
X59718Y30221D01*
X59708Y30207D01*
X59694Y30195D01*
X59679Y30185D01*
X59663Y30179D01*
X59645Y30175D01*
X59627Y30175D01*
X59609Y30179D01*
X59593Y30185D01*
X59578Y30195D01*
X59564Y30207D01*
X59554Y30221D01*
X59546Y30237D01*
X59541Y30254D01*
X59539Y30272D01*
X59539Y30525D01*
X59283Y30525D02*
X59361Y30253D01*
X59167Y30253D01*
X59225Y30331D02*
X59225Y30175D01*
D14*
X43982Y25485D02*
X43982Y24915D01*
X43982Y25485D02*
X43824Y25485D01*
X43800Y25483D01*
X43777Y25478D01*
X43755Y25469D01*
X43735Y25458D01*
X43717Y25443D01*
X43700Y25426D01*
X43687Y25406D01*
X43677Y25385D01*
X43670Y25362D01*
X43666Y25339D01*
X43666Y25315D01*
X43670Y25292D01*
X43677Y25269D01*
X43687Y25248D01*
X43700Y25228D01*
X43717Y25211D01*
X43735Y25196D01*
X43755Y25185D01*
X43777Y25176D01*
X43800Y25171D01*
X43824Y25169D01*
X43824Y25168D02*
X43982Y25168D01*
X43434Y25358D02*
X43276Y25485D01*
X43276Y24915D01*
X43434Y24915D02*
X43118Y24915D01*
X43982Y30290D02*
X43982Y30860D01*
X43824Y30860D01*
X43800Y30858D01*
X43777Y30853D01*
X43755Y30844D01*
X43735Y30833D01*
X43717Y30818D01*
X43700Y30801D01*
X43687Y30781D01*
X43677Y30760D01*
X43670Y30737D01*
X43666Y30714D01*
X43666Y30690D01*
X43670Y30667D01*
X43677Y30644D01*
X43687Y30623D01*
X43700Y30603D01*
X43717Y30586D01*
X43735Y30571D01*
X43755Y30560D01*
X43777Y30551D01*
X43800Y30546D01*
X43824Y30544D01*
X43824Y30543D02*
X43982Y30543D01*
X43260Y30861D02*
X43238Y30859D01*
X43216Y30854D01*
X43195Y30845D01*
X43176Y30834D01*
X43159Y30819D01*
X43144Y30802D01*
X43133Y30783D01*
X43124Y30762D01*
X43119Y30740D01*
X43117Y30718D01*
X43260Y30860D02*
X43285Y30858D01*
X43310Y30853D01*
X43334Y30844D01*
X43357Y30832D01*
X43378Y30817D01*
X43396Y30799D01*
X43412Y30779D01*
X43425Y30757D01*
X43434Y30733D01*
X43165Y30607D02*
X43152Y30622D01*
X43140Y30639D01*
X43130Y30658D01*
X43124Y30677D01*
X43119Y30697D01*
X43118Y30718D01*
X43165Y30607D02*
X43434Y30290D01*
X43118Y30290D01*
D10*
X51420Y25790D02*
X51420Y22890D01*
X55420Y22890D02*
X55420Y25790D01*
D12*
X47708Y25600D02*
X47708Y25347D01*
X47706Y25329D01*
X47701Y25312D01*
X47693Y25296D01*
X47683Y25282D01*
X47669Y25270D01*
X47654Y25260D01*
X47638Y25254D01*
X47620Y25250D01*
X47602Y25250D01*
X47584Y25254D01*
X47568Y25260D01*
X47553Y25270D01*
X47539Y25282D01*
X47529Y25296D01*
X47521Y25312D01*
X47516Y25329D01*
X47514Y25347D01*
X47514Y25600D01*
X47307Y25551D02*
X47319Y25521D01*
X47329Y25490D01*
X47334Y25458D01*
X47336Y25425D01*
X47307Y25551D02*
X47301Y25565D01*
X47292Y25577D01*
X47281Y25587D01*
X47268Y25594D01*
X47254Y25598D01*
X47239Y25600D01*
X47224Y25598D01*
X47210Y25594D01*
X47197Y25587D01*
X47186Y25577D01*
X47177Y25565D01*
X47171Y25551D01*
X47159Y25521D01*
X47149Y25490D01*
X47144Y25458D01*
X47142Y25425D01*
X47336Y25425D02*
X47334Y25392D01*
X47329Y25360D01*
X47319Y25329D01*
X47307Y25299D01*
X47301Y25285D01*
X47292Y25273D01*
X47281Y25263D01*
X47268Y25256D01*
X47254Y25252D01*
X47239Y25250D01*
X47171Y25299D02*
X47159Y25329D01*
X47149Y25360D01*
X47144Y25392D01*
X47142Y25425D01*
X47171Y25299D02*
X47177Y25285D01*
X47186Y25273D01*
X47197Y25263D01*
X47210Y25256D01*
X47224Y25252D01*
X47239Y25250D01*
X47317Y25328D02*
X47161Y25522D01*
D10*
X61420Y32890D02*
X61420Y33690D01*
M02*
