G04 EAGLE Gerber RS-274X export*
G75*
%MOIN*%
%FSLAX34Y34*%
%LPD*%
%INSilkscreen Top*%
%IPPOS*%
%AMOC8*
5,1,8,0,0,1.08239X$1,22.5*%
G01*
%ADD10C,0.003000*%
%ADD11C,0.008000*%
%ADD12C,0.010000*%
%ADD13C,0.004000*%
%ADD14C,0.005000*%
%ADD15C,0.006000*%
%ADD16C,0.016000*%
%ADD17C,0.016125*%

G36*
X99877Y26726D02*
X99877Y26726D01*
X99881Y26726D01*
X99882Y26727D01*
X99883Y26727D01*
X99888Y26730D01*
X100263Y26980D01*
X100266Y26982D01*
X100268Y26984D01*
X100269Y26985D01*
X100270Y26986D01*
X100271Y26989D01*
X100273Y26992D01*
X100273Y26993D01*
X100273Y26994D01*
X100274Y26997D01*
X100274Y27000D01*
X100274Y27001D01*
X100274Y27002D01*
X100273Y27006D01*
X100273Y27009D01*
X100272Y27010D01*
X100272Y27011D01*
X100270Y27013D01*
X100268Y27016D01*
X100267Y27017D01*
X100267Y27018D01*
X100265Y27018D01*
X100263Y27020D01*
X99888Y27270D01*
X99887Y27271D01*
X99886Y27271D01*
X99883Y27272D01*
X99880Y27274D01*
X99879Y27274D01*
X99878Y27274D01*
X99875Y27274D01*
X99872Y27274D01*
X99871Y27274D01*
X99869Y27274D01*
X99866Y27272D01*
X99863Y27271D01*
X99861Y27270D01*
X99859Y27268D01*
X99857Y27266D01*
X99856Y27265D01*
X99855Y27264D01*
X99854Y27261D01*
X99852Y27258D01*
X99852Y27257D01*
X99852Y27256D01*
X99851Y27250D01*
X99851Y26750D01*
X99851Y26749D01*
X99851Y26748D01*
X99852Y26745D01*
X99852Y26741D01*
X99853Y26740D01*
X99853Y26739D01*
X99855Y26737D01*
X99857Y26734D01*
X99858Y26733D01*
X99858Y26732D01*
X99861Y26731D01*
X99864Y26729D01*
X99865Y26728D01*
X99866Y26728D01*
X99869Y26727D01*
X99872Y26726D01*
X99873Y26726D01*
X99874Y26726D01*
X99877Y26726D01*
G37*
G36*
X99877Y11726D02*
X99877Y11726D01*
X99881Y11726D01*
X99882Y11727D01*
X99883Y11727D01*
X99888Y11730D01*
X100263Y11980D01*
X100266Y11982D01*
X100268Y11984D01*
X100269Y11985D01*
X100270Y11986D01*
X100271Y11989D01*
X100273Y11992D01*
X100273Y11993D01*
X100273Y11994D01*
X100274Y11997D01*
X100274Y12000D01*
X100274Y12001D01*
X100274Y12002D01*
X100273Y12006D01*
X100273Y12009D01*
X100272Y12010D01*
X100272Y12011D01*
X100270Y12013D01*
X100268Y12016D01*
X100267Y12017D01*
X100267Y12018D01*
X100265Y12018D01*
X100263Y12020D01*
X99888Y12270D01*
X99887Y12271D01*
X99886Y12271D01*
X99883Y12272D01*
X99880Y12274D01*
X99879Y12274D01*
X99878Y12274D01*
X99875Y12274D01*
X99872Y12274D01*
X99871Y12274D01*
X99869Y12274D01*
X99866Y12272D01*
X99863Y12271D01*
X99861Y12270D01*
X99859Y12268D01*
X99857Y12266D01*
X99856Y12265D01*
X99855Y12264D01*
X99854Y12261D01*
X99852Y12258D01*
X99852Y12257D01*
X99852Y12256D01*
X99851Y12250D01*
X99851Y11750D01*
X99851Y11749D01*
X99851Y11748D01*
X99852Y11745D01*
X99852Y11741D01*
X99853Y11740D01*
X99853Y11739D01*
X99855Y11737D01*
X99857Y11734D01*
X99858Y11733D01*
X99858Y11732D01*
X99861Y11731D01*
X99864Y11729D01*
X99865Y11728D01*
X99866Y11728D01*
X99869Y11727D01*
X99872Y11726D01*
X99873Y11726D01*
X99874Y11726D01*
X99877Y11726D01*
G37*
G36*
X65080Y50897D02*
X65080Y50897D01*
X65084Y50898D01*
X65085Y50898D01*
X65089Y50900D01*
X65092Y50901D01*
X65093Y50901D01*
X65093Y50902D01*
X65096Y50904D01*
X65099Y50907D01*
X65099Y50908D01*
X65100Y50911D01*
X65102Y50915D01*
X65102Y50916D01*
X65102Y50917D01*
X65103Y50921D01*
X65103Y51079D01*
X65102Y51083D01*
X65102Y51087D01*
X65101Y51087D01*
X65099Y51091D01*
X65097Y51094D01*
X65097Y51095D01*
X65094Y51097D01*
X65091Y51100D01*
X65090Y51100D01*
X65086Y51101D01*
X65082Y51103D01*
X65078Y51103D01*
X65074Y51102D01*
X65073Y51102D01*
X65072Y51102D01*
X65068Y51100D01*
X64910Y51022D01*
X64909Y51021D01*
X64907Y51020D01*
X64905Y51018D01*
X64903Y51016D01*
X64902Y51015D01*
X64901Y51014D01*
X64900Y51011D01*
X64899Y51009D01*
X64898Y51007D01*
X64898Y51006D01*
X64898Y51003D01*
X64897Y51001D01*
X64897Y50999D01*
X64897Y50997D01*
X64898Y50994D01*
X64898Y50992D01*
X64899Y50990D01*
X64900Y50989D01*
X64901Y50987D01*
X64903Y50984D01*
X64904Y50983D01*
X64905Y50982D01*
X64908Y50980D01*
X64909Y50979D01*
X64910Y50979D01*
X64910Y50978D01*
X65068Y50900D01*
X65072Y50898D01*
X65076Y50897D01*
X65080Y50897D01*
G37*
G36*
X91922Y56897D02*
X91922Y56897D01*
X91926Y56898D01*
X91927Y56898D01*
X91928Y56898D01*
X91932Y56900D01*
X92090Y56978D01*
X92091Y56979D01*
X92093Y56980D01*
X92095Y56982D01*
X92097Y56984D01*
X92098Y56985D01*
X92099Y56986D01*
X92100Y56989D01*
X92101Y56991D01*
X92102Y56993D01*
X92102Y56994D01*
X92102Y56997D01*
X92103Y56999D01*
X92103Y57001D01*
X92103Y57003D01*
X92102Y57006D01*
X92102Y57008D01*
X92101Y57010D01*
X92100Y57011D01*
X92099Y57013D01*
X92097Y57016D01*
X92096Y57017D01*
X92095Y57018D01*
X92092Y57020D01*
X92091Y57021D01*
X92090Y57021D01*
X92090Y57022D01*
X91932Y57100D01*
X91928Y57102D01*
X91924Y57103D01*
X91920Y57103D01*
X91916Y57102D01*
X91915Y57102D01*
X91911Y57100D01*
X91908Y57099D01*
X91907Y57099D01*
X91907Y57098D01*
X91904Y57096D01*
X91901Y57093D01*
X91901Y57092D01*
X91900Y57089D01*
X91898Y57085D01*
X91898Y57084D01*
X91898Y57083D01*
X91897Y57079D01*
X91897Y56921D01*
X91898Y56917D01*
X91898Y56913D01*
X91899Y56913D01*
X91901Y56909D01*
X91903Y56906D01*
X91903Y56905D01*
X91906Y56903D01*
X91909Y56900D01*
X91910Y56900D01*
X91914Y56899D01*
X91918Y56897D01*
X91922Y56897D01*
G37*
D10*
X42315Y6315D02*
X42685Y6438D01*
X42315Y6562D01*
X42685Y6754D02*
X42685Y6836D01*
X42685Y6754D02*
X42683Y6740D01*
X42679Y6727D01*
X42671Y6715D01*
X42662Y6706D01*
X42650Y6698D01*
X42637Y6694D01*
X42623Y6692D01*
X42623Y6693D02*
X42500Y6693D01*
X42500Y6692D02*
X42486Y6694D01*
X42473Y6698D01*
X42461Y6706D01*
X42452Y6715D01*
X42444Y6727D01*
X42440Y6740D01*
X42438Y6754D01*
X42438Y6836D01*
X42685Y7030D02*
X42685Y7112D01*
X42685Y7030D02*
X42683Y7016D01*
X42679Y7003D01*
X42671Y6991D01*
X42662Y6982D01*
X42650Y6974D01*
X42637Y6970D01*
X42623Y6968D01*
X42623Y6969D02*
X42500Y6969D01*
X42500Y6968D02*
X42486Y6970D01*
X42473Y6974D01*
X42461Y6982D01*
X42452Y6991D01*
X42444Y7003D01*
X42440Y7016D01*
X42438Y7030D01*
X42438Y7112D01*
X43315Y6362D02*
X43685Y6115D01*
X43685Y6362D02*
X43315Y6115D01*
X43521Y6492D02*
X43603Y6492D01*
X43521Y6492D02*
X43504Y6494D01*
X43488Y6499D01*
X43473Y6508D01*
X43460Y6519D01*
X43450Y6533D01*
X43443Y6549D01*
X43439Y6565D01*
X43439Y6583D01*
X43443Y6599D01*
X43450Y6615D01*
X43460Y6629D01*
X43473Y6640D01*
X43488Y6649D01*
X43504Y6654D01*
X43521Y6656D01*
X43521Y6657D02*
X43603Y6657D01*
X43603Y6656D02*
X43620Y6654D01*
X43636Y6649D01*
X43651Y6640D01*
X43664Y6629D01*
X43674Y6615D01*
X43681Y6599D01*
X43685Y6583D01*
X43685Y6565D01*
X43681Y6549D01*
X43674Y6533D01*
X43664Y6519D01*
X43651Y6508D01*
X43636Y6499D01*
X43620Y6494D01*
X43603Y6492D01*
X43623Y6816D02*
X43438Y6816D01*
X43623Y6816D02*
X43637Y6818D01*
X43650Y6822D01*
X43662Y6830D01*
X43671Y6839D01*
X43679Y6851D01*
X43683Y6864D01*
X43685Y6878D01*
X43685Y6981D01*
X43438Y6981D01*
X43438Y7110D02*
X43438Y7233D01*
X43315Y7151D02*
X43623Y7151D01*
X43637Y7153D01*
X43650Y7157D01*
X43662Y7165D01*
X43671Y7174D01*
X43679Y7186D01*
X43683Y7199D01*
X43685Y7213D01*
X43685Y7233D01*
X44490Y6238D02*
X44315Y6115D01*
X44490Y6238D02*
X44315Y6362D01*
X44490Y6238D02*
X44685Y6238D01*
X44603Y6492D02*
X44521Y6492D01*
X44504Y6494D01*
X44488Y6499D01*
X44473Y6508D01*
X44460Y6519D01*
X44450Y6533D01*
X44443Y6549D01*
X44439Y6565D01*
X44439Y6583D01*
X44443Y6599D01*
X44450Y6615D01*
X44460Y6629D01*
X44473Y6640D01*
X44488Y6649D01*
X44504Y6654D01*
X44521Y6656D01*
X44521Y6657D02*
X44603Y6657D01*
X44603Y6656D02*
X44620Y6654D01*
X44636Y6649D01*
X44651Y6640D01*
X44664Y6629D01*
X44674Y6615D01*
X44681Y6599D01*
X44685Y6583D01*
X44685Y6565D01*
X44681Y6549D01*
X44674Y6533D01*
X44664Y6519D01*
X44651Y6508D01*
X44636Y6499D01*
X44620Y6494D01*
X44603Y6492D01*
X44623Y6816D02*
X44438Y6816D01*
X44623Y6816D02*
X44637Y6818D01*
X44650Y6822D01*
X44662Y6830D01*
X44671Y6839D01*
X44679Y6851D01*
X44683Y6864D01*
X44685Y6878D01*
X44685Y6981D01*
X44438Y6981D01*
X44438Y7110D02*
X44438Y7233D01*
X44315Y7151D02*
X44623Y7151D01*
X44637Y7153D01*
X44650Y7157D01*
X44662Y7165D01*
X44671Y7174D01*
X44679Y7186D01*
X44683Y7199D01*
X44685Y7213D01*
X44685Y7233D01*
X45603Y6420D02*
X45619Y6418D01*
X45634Y6414D01*
X45649Y6406D01*
X45661Y6396D01*
X45671Y6384D01*
X45679Y6369D01*
X45683Y6354D01*
X45685Y6338D01*
X45683Y6315D01*
X45679Y6293D01*
X45672Y6271D01*
X45661Y6251D01*
X45649Y6232D01*
X45634Y6214D01*
X45397Y6226D02*
X45381Y6228D01*
X45366Y6232D01*
X45351Y6240D01*
X45339Y6250D01*
X45329Y6262D01*
X45321Y6277D01*
X45317Y6292D01*
X45315Y6308D01*
X45316Y6328D01*
X45320Y6347D01*
X45326Y6366D01*
X45335Y6384D01*
X45346Y6400D01*
X45469Y6266D02*
X45459Y6252D01*
X45446Y6241D01*
X45431Y6232D01*
X45414Y6227D01*
X45397Y6225D01*
X45531Y6380D02*
X45541Y6394D01*
X45554Y6405D01*
X45569Y6414D01*
X45586Y6419D01*
X45603Y6421D01*
X45531Y6379D02*
X45469Y6266D01*
X45685Y6621D02*
X45685Y6724D01*
X45685Y6621D02*
X45683Y6607D01*
X45679Y6594D01*
X45671Y6582D01*
X45662Y6573D01*
X45650Y6565D01*
X45637Y6561D01*
X45623Y6559D01*
X45623Y6560D02*
X45521Y6560D01*
X45504Y6562D01*
X45488Y6567D01*
X45473Y6576D01*
X45460Y6587D01*
X45450Y6601D01*
X45443Y6617D01*
X45439Y6633D01*
X45439Y6651D01*
X45443Y6667D01*
X45450Y6683D01*
X45460Y6697D01*
X45473Y6708D01*
X45488Y6717D01*
X45504Y6722D01*
X45521Y6724D01*
X45562Y6724D01*
X45562Y6560D01*
X45623Y6876D02*
X45315Y6876D01*
X45623Y6876D02*
X45637Y6878D01*
X45650Y6882D01*
X45662Y6890D01*
X45671Y6899D01*
X45679Y6911D01*
X45683Y6924D01*
X45685Y6938D01*
X46479Y6421D02*
X46479Y6359D01*
X46479Y6421D02*
X46685Y6421D01*
X46685Y6297D01*
X46683Y6281D01*
X46679Y6266D01*
X46671Y6251D01*
X46661Y6239D01*
X46649Y6229D01*
X46634Y6221D01*
X46619Y6217D01*
X46603Y6215D01*
X46397Y6215D01*
X46381Y6217D01*
X46366Y6221D01*
X46351Y6229D01*
X46339Y6239D01*
X46329Y6251D01*
X46321Y6266D01*
X46317Y6281D01*
X46315Y6297D01*
X46315Y6421D01*
X46315Y6599D02*
X46685Y6599D01*
X46685Y6805D02*
X46315Y6599D01*
X46315Y6805D02*
X46685Y6805D01*
X46685Y6983D02*
X46315Y6983D01*
X46315Y7086D01*
X46317Y7104D01*
X46321Y7121D01*
X46329Y7138D01*
X46339Y7152D01*
X46352Y7165D01*
X46367Y7175D01*
X46383Y7183D01*
X46400Y7187D01*
X46418Y7189D01*
X46582Y7189D01*
X46600Y7187D01*
X46617Y7183D01*
X46634Y7175D01*
X46648Y7165D01*
X46661Y7152D01*
X46671Y7137D01*
X46679Y7121D01*
X46683Y7104D01*
X46685Y7086D01*
X46685Y6983D01*
D11*
X30081Y6560D02*
X30081Y5940D01*
X30081Y6560D02*
X30253Y6560D01*
X30277Y6558D01*
X30301Y6553D01*
X30324Y6544D01*
X30346Y6533D01*
X30366Y6518D01*
X30383Y6501D01*
X30398Y6481D01*
X30409Y6459D01*
X30418Y6436D01*
X30423Y6412D01*
X30425Y6388D01*
X30423Y6364D01*
X30418Y6340D01*
X30409Y6317D01*
X30398Y6295D01*
X30383Y6275D01*
X30366Y6258D01*
X30346Y6243D01*
X30324Y6232D01*
X30301Y6223D01*
X30277Y6218D01*
X30253Y6216D01*
X30081Y6216D01*
X30660Y6216D02*
X30660Y6078D01*
X30659Y6216D02*
X30661Y6239D01*
X30666Y6261D01*
X30676Y6282D01*
X30688Y6301D01*
X30704Y6318D01*
X30722Y6332D01*
X30742Y6342D01*
X30763Y6350D01*
X30786Y6354D01*
X30808Y6354D01*
X30831Y6350D01*
X30852Y6342D01*
X30872Y6332D01*
X30890Y6318D01*
X30906Y6301D01*
X30918Y6282D01*
X30928Y6261D01*
X30933Y6239D01*
X30935Y6216D01*
X30935Y6078D01*
X30933Y6055D01*
X30928Y6033D01*
X30918Y6012D01*
X30906Y5993D01*
X30890Y5976D01*
X30872Y5962D01*
X30852Y5952D01*
X30831Y5944D01*
X30808Y5940D01*
X30786Y5940D01*
X30763Y5944D01*
X30742Y5952D01*
X30722Y5962D01*
X30704Y5976D01*
X30688Y5993D01*
X30676Y6012D01*
X30666Y6033D01*
X30661Y6055D01*
X30659Y6078D01*
X31297Y5940D02*
X31435Y5940D01*
X31297Y5940D02*
X31279Y5942D01*
X31262Y5946D01*
X31246Y5954D01*
X31231Y5964D01*
X31218Y5977D01*
X31208Y5992D01*
X31200Y6008D01*
X31196Y6025D01*
X31194Y6043D01*
X31194Y6250D01*
X31196Y6268D01*
X31200Y6285D01*
X31208Y6302D01*
X31218Y6316D01*
X31231Y6329D01*
X31246Y6339D01*
X31262Y6347D01*
X31279Y6351D01*
X31297Y6353D01*
X31435Y6353D01*
X31693Y6560D02*
X31693Y5940D01*
X31693Y6147D02*
X31969Y6353D01*
X31814Y6233D02*
X31969Y5940D01*
X32301Y5940D02*
X32474Y5940D01*
X32301Y5940D02*
X32283Y5942D01*
X32266Y5946D01*
X32250Y5954D01*
X32235Y5964D01*
X32222Y5977D01*
X32212Y5992D01*
X32204Y6008D01*
X32200Y6025D01*
X32198Y6043D01*
X32198Y6216D01*
X32200Y6239D01*
X32205Y6261D01*
X32215Y6282D01*
X32227Y6301D01*
X32243Y6318D01*
X32261Y6332D01*
X32281Y6342D01*
X32302Y6350D01*
X32325Y6354D01*
X32347Y6354D01*
X32370Y6350D01*
X32391Y6342D01*
X32411Y6332D01*
X32429Y6318D01*
X32445Y6301D01*
X32457Y6282D01*
X32467Y6261D01*
X32472Y6239D01*
X32474Y6216D01*
X32474Y6147D01*
X32198Y6147D01*
X32678Y6353D02*
X32885Y6353D01*
X32747Y6560D02*
X32747Y6043D01*
X32749Y6025D01*
X32753Y6008D01*
X32761Y5992D01*
X32771Y5977D01*
X32784Y5964D01*
X32799Y5954D01*
X32815Y5946D01*
X32832Y5942D01*
X32850Y5940D01*
X32885Y5940D01*
X33158Y5940D02*
X33158Y6560D01*
X33503Y6560D02*
X33158Y6181D01*
X33296Y6319D02*
X33503Y5940D01*
X33840Y5940D02*
X34012Y5940D01*
X33840Y5940D02*
X33822Y5942D01*
X33805Y5946D01*
X33789Y5954D01*
X33774Y5964D01*
X33761Y5977D01*
X33751Y5992D01*
X33743Y6008D01*
X33739Y6025D01*
X33737Y6043D01*
X33737Y6216D01*
X33736Y6216D02*
X33738Y6239D01*
X33743Y6261D01*
X33753Y6282D01*
X33765Y6301D01*
X33781Y6318D01*
X33799Y6332D01*
X33819Y6342D01*
X33840Y6350D01*
X33863Y6354D01*
X33885Y6354D01*
X33908Y6350D01*
X33929Y6342D01*
X33949Y6332D01*
X33967Y6318D01*
X33983Y6301D01*
X33995Y6282D01*
X34005Y6261D01*
X34010Y6239D01*
X34012Y6216D01*
X34012Y6147D01*
X33737Y6147D01*
X34294Y6353D02*
X34294Y5940D01*
X34294Y6353D02*
X34501Y6353D01*
X34501Y6284D01*
X34725Y6560D02*
X34725Y5940D01*
X34897Y5940D01*
X34915Y5942D01*
X34932Y5946D01*
X34949Y5954D01*
X34963Y5964D01*
X34976Y5977D01*
X34986Y5992D01*
X34994Y6008D01*
X34998Y6025D01*
X35000Y6043D01*
X35000Y6250D01*
X34998Y6268D01*
X34994Y6285D01*
X34986Y6302D01*
X34976Y6316D01*
X34963Y6329D01*
X34949Y6339D01*
X34932Y6347D01*
X34915Y6351D01*
X34897Y6353D01*
X34725Y6353D01*
X35372Y6181D02*
X35527Y6181D01*
X35372Y6182D02*
X35351Y6180D01*
X35331Y6175D01*
X35312Y6166D01*
X35294Y6154D01*
X35279Y6139D01*
X35267Y6122D01*
X35258Y6102D01*
X35253Y6082D01*
X35251Y6061D01*
X35253Y6040D01*
X35258Y6020D01*
X35267Y6001D01*
X35279Y5983D01*
X35294Y5968D01*
X35312Y5956D01*
X35331Y5947D01*
X35351Y5942D01*
X35372Y5940D01*
X35527Y5940D01*
X35527Y6250D01*
X35526Y6250D02*
X35524Y6268D01*
X35520Y6285D01*
X35512Y6302D01*
X35502Y6316D01*
X35489Y6329D01*
X35475Y6339D01*
X35458Y6347D01*
X35441Y6351D01*
X35423Y6353D01*
X35286Y6353D01*
X35815Y6560D02*
X35815Y6043D01*
X35816Y6043D02*
X35818Y6025D01*
X35822Y6008D01*
X35830Y5992D01*
X35840Y5977D01*
X35853Y5964D01*
X35868Y5954D01*
X35884Y5946D01*
X35901Y5942D01*
X35919Y5940D01*
X30689Y4890D02*
X30482Y5510D01*
X30896Y5510D02*
X30689Y4890D01*
X31229Y4890D02*
X31401Y4890D01*
X31229Y4890D02*
X31211Y4892D01*
X31194Y4896D01*
X31178Y4904D01*
X31163Y4914D01*
X31150Y4927D01*
X31140Y4942D01*
X31132Y4958D01*
X31128Y4975D01*
X31126Y4993D01*
X31126Y5166D01*
X31125Y5166D02*
X31127Y5189D01*
X31132Y5211D01*
X31142Y5232D01*
X31154Y5251D01*
X31170Y5268D01*
X31188Y5282D01*
X31208Y5292D01*
X31229Y5300D01*
X31252Y5304D01*
X31274Y5304D01*
X31297Y5300D01*
X31318Y5292D01*
X31338Y5282D01*
X31356Y5268D01*
X31372Y5251D01*
X31384Y5232D01*
X31394Y5211D01*
X31399Y5189D01*
X31401Y5166D01*
X31401Y5097D01*
X31126Y5097D01*
X31683Y5303D02*
X31683Y4890D01*
X31683Y5303D02*
X31890Y5303D01*
X31890Y5234D01*
X32141Y5131D02*
X32314Y5062D01*
X32142Y5131D02*
X32126Y5139D01*
X32113Y5151D01*
X32101Y5164D01*
X32093Y5180D01*
X32088Y5196D01*
X32086Y5214D01*
X32088Y5231D01*
X32093Y5248D01*
X32101Y5264D01*
X32112Y5277D01*
X32126Y5288D01*
X32142Y5297D01*
X32159Y5301D01*
X32176Y5303D01*
X32207Y5301D01*
X32239Y5297D01*
X32270Y5290D01*
X32301Y5280D01*
X32331Y5269D01*
X32313Y5062D02*
X32329Y5054D01*
X32342Y5042D01*
X32354Y5029D01*
X32362Y5013D01*
X32367Y4997D01*
X32369Y4979D01*
X32367Y4962D01*
X32362Y4945D01*
X32354Y4929D01*
X32343Y4916D01*
X32329Y4905D01*
X32313Y4896D01*
X32296Y4892D01*
X32279Y4890D01*
X32240Y4892D01*
X32202Y4896D01*
X32164Y4903D01*
X32126Y4913D01*
X32089Y4924D01*
X32617Y4890D02*
X32617Y5303D01*
X32600Y5476D02*
X32600Y5510D01*
X32634Y5510D01*
X32634Y5476D01*
X32600Y5476D01*
X32869Y5166D02*
X32869Y5028D01*
X32869Y5166D02*
X32871Y5189D01*
X32876Y5211D01*
X32886Y5232D01*
X32898Y5251D01*
X32914Y5268D01*
X32932Y5282D01*
X32952Y5292D01*
X32973Y5300D01*
X32996Y5304D01*
X33018Y5304D01*
X33041Y5300D01*
X33062Y5292D01*
X33082Y5282D01*
X33100Y5268D01*
X33116Y5251D01*
X33128Y5232D01*
X33138Y5211D01*
X33143Y5189D01*
X33145Y5166D01*
X33145Y5028D01*
X33143Y5005D01*
X33138Y4983D01*
X33128Y4962D01*
X33116Y4943D01*
X33100Y4926D01*
X33082Y4912D01*
X33062Y4902D01*
X33041Y4894D01*
X33018Y4890D01*
X32996Y4890D01*
X32973Y4894D01*
X32952Y4902D01*
X32932Y4912D01*
X32914Y4926D01*
X32898Y4943D01*
X32886Y4962D01*
X32876Y4983D01*
X32871Y5005D01*
X32869Y5028D01*
X33423Y4890D02*
X33423Y5303D01*
X33595Y5303D01*
X33613Y5301D01*
X33630Y5297D01*
X33647Y5289D01*
X33661Y5279D01*
X33674Y5266D01*
X33684Y5252D01*
X33692Y5235D01*
X33696Y5218D01*
X33698Y5200D01*
X33699Y5200D02*
X33699Y4890D01*
X34312Y5372D02*
X34484Y5510D01*
X34484Y4890D01*
X34312Y4890D02*
X34656Y4890D01*
X34897Y4890D02*
X34897Y4924D01*
X34932Y4924D01*
X34932Y4890D01*
X34897Y4890D01*
X35173Y5200D02*
X35174Y5239D01*
X35179Y5277D01*
X35186Y5315D01*
X35196Y5352D01*
X35209Y5389D01*
X35225Y5424D01*
X35233Y5442D01*
X35243Y5459D01*
X35256Y5474D01*
X35271Y5486D01*
X35288Y5497D01*
X35306Y5504D01*
X35325Y5508D01*
X35345Y5510D01*
X35365Y5508D01*
X35384Y5504D01*
X35402Y5497D01*
X35419Y5486D01*
X35434Y5474D01*
X35447Y5459D01*
X35457Y5442D01*
X35465Y5424D01*
X35466Y5424D02*
X35482Y5389D01*
X35495Y5352D01*
X35505Y5315D01*
X35512Y5277D01*
X35517Y5239D01*
X35518Y5200D01*
X35173Y5200D02*
X35174Y5161D01*
X35179Y5123D01*
X35186Y5085D01*
X35196Y5048D01*
X35209Y5011D01*
X35225Y4976D01*
X35233Y4958D01*
X35243Y4941D01*
X35256Y4926D01*
X35271Y4914D01*
X35288Y4903D01*
X35306Y4896D01*
X35325Y4892D01*
X35345Y4890D01*
X35466Y4976D02*
X35482Y5011D01*
X35495Y5048D01*
X35505Y5085D01*
X35512Y5123D01*
X35517Y5161D01*
X35518Y5200D01*
X35465Y4976D02*
X35457Y4958D01*
X35447Y4941D01*
X35434Y4926D01*
X35419Y4914D01*
X35402Y4903D01*
X35384Y4896D01*
X35365Y4892D01*
X35345Y4890D01*
X35208Y5028D02*
X35483Y5372D01*
X32194Y4460D02*
X32194Y3840D01*
X32194Y4460D02*
X32366Y4460D01*
X32390Y4458D01*
X32414Y4453D01*
X32437Y4444D01*
X32459Y4433D01*
X32479Y4418D01*
X32496Y4401D01*
X32511Y4381D01*
X32522Y4359D01*
X32531Y4336D01*
X32536Y4312D01*
X32538Y4288D01*
X32536Y4264D01*
X32531Y4240D01*
X32522Y4217D01*
X32511Y4195D01*
X32496Y4175D01*
X32479Y4158D01*
X32459Y4143D01*
X32437Y4132D01*
X32414Y4123D01*
X32390Y4118D01*
X32366Y4116D01*
X32194Y4116D01*
X32401Y4116D02*
X32538Y3840D01*
X32826Y3840D02*
X32826Y4460D01*
X33170Y3840D01*
X33170Y4460D01*
X33462Y3840D02*
X33634Y3840D01*
X33658Y3842D01*
X33682Y3847D01*
X33705Y3856D01*
X33727Y3867D01*
X33747Y3882D01*
X33764Y3899D01*
X33779Y3919D01*
X33790Y3941D01*
X33799Y3964D01*
X33804Y3988D01*
X33806Y4012D01*
X33804Y4036D01*
X33799Y4060D01*
X33790Y4083D01*
X33779Y4105D01*
X33764Y4125D01*
X33747Y4142D01*
X33727Y4157D01*
X33705Y4168D01*
X33682Y4177D01*
X33658Y4182D01*
X33634Y4184D01*
X33668Y4460D02*
X33462Y4460D01*
X33668Y4460D02*
X33691Y4458D01*
X33713Y4453D01*
X33734Y4443D01*
X33753Y4431D01*
X33770Y4415D01*
X33784Y4397D01*
X33794Y4377D01*
X33802Y4356D01*
X33806Y4333D01*
X33806Y4311D01*
X33802Y4288D01*
X33794Y4267D01*
X33784Y4247D01*
X33770Y4229D01*
X33753Y4213D01*
X33734Y4201D01*
X33713Y4191D01*
X33691Y4186D01*
X33668Y4184D01*
X33530Y4184D01*
D12*
X76969Y48637D02*
X77008Y48639D01*
X77046Y48645D01*
X77083Y48654D01*
X77120Y48667D01*
X77155Y48684D01*
X77188Y48703D01*
X77219Y48726D01*
X77248Y48752D01*
X77274Y48781D01*
X77297Y48812D01*
X77316Y48845D01*
X77333Y48880D01*
X77346Y48917D01*
X77355Y48954D01*
X77361Y48992D01*
X77363Y49031D01*
X76969Y48638D02*
X73031Y48638D01*
X73031Y48637D02*
X72992Y48639D01*
X72954Y48645D01*
X72917Y48654D01*
X72880Y48667D01*
X72845Y48684D01*
X72812Y48703D01*
X72781Y48726D01*
X72752Y48752D01*
X72726Y48781D01*
X72703Y48812D01*
X72684Y48845D01*
X72667Y48880D01*
X72654Y48917D01*
X72645Y48954D01*
X72639Y48992D01*
X72637Y49031D01*
X72637Y52969D02*
X72639Y53008D01*
X72645Y53046D01*
X72654Y53083D01*
X72667Y53120D01*
X72684Y53155D01*
X72703Y53188D01*
X72726Y53219D01*
X72752Y53248D01*
X72781Y53274D01*
X72812Y53297D01*
X72845Y53316D01*
X72880Y53333D01*
X72917Y53346D01*
X72954Y53355D01*
X72992Y53361D01*
X73031Y53363D01*
X73031Y53362D02*
X76969Y53362D01*
X76969Y53363D02*
X77008Y53361D01*
X77046Y53355D01*
X77083Y53346D01*
X77120Y53333D01*
X77155Y53316D01*
X77188Y53297D01*
X77219Y53274D01*
X77248Y53248D01*
X77274Y53219D01*
X77297Y53188D01*
X77316Y53155D01*
X77333Y53120D01*
X77346Y53083D01*
X77355Y53046D01*
X77361Y53008D01*
X77363Y52969D01*
X73608Y51000D02*
X73610Y51074D01*
X73616Y51148D01*
X73626Y51221D01*
X73639Y51294D01*
X73657Y51366D01*
X73678Y51437D01*
X73704Y51507D01*
X73732Y51575D01*
X73765Y51642D01*
X73801Y51707D01*
X73840Y51769D01*
X73883Y51830D01*
X73928Y51888D01*
X73977Y51944D01*
X74029Y51997D01*
X74083Y52048D01*
X74140Y52095D01*
X74200Y52139D01*
X74262Y52180D01*
X74326Y52218D01*
X74391Y52252D01*
X74459Y52282D01*
X74528Y52309D01*
X74598Y52333D01*
X74670Y52352D01*
X74742Y52368D01*
X74815Y52380D01*
X74889Y52388D01*
X74963Y52392D01*
X75037Y52392D01*
X75111Y52388D01*
X75185Y52380D01*
X75258Y52368D01*
X75330Y52352D01*
X75402Y52333D01*
X75472Y52309D01*
X75541Y52282D01*
X75609Y52252D01*
X75674Y52218D01*
X75738Y52180D01*
X75800Y52139D01*
X75860Y52095D01*
X75917Y52048D01*
X75971Y51997D01*
X76023Y51944D01*
X76072Y51888D01*
X76117Y51830D01*
X76160Y51769D01*
X76199Y51707D01*
X76235Y51642D01*
X76268Y51575D01*
X76296Y51507D01*
X76322Y51437D01*
X76343Y51366D01*
X76361Y51294D01*
X76374Y51221D01*
X76384Y51148D01*
X76390Y51074D01*
X76392Y51000D01*
X76390Y50926D01*
X76384Y50852D01*
X76374Y50779D01*
X76361Y50706D01*
X76343Y50634D01*
X76322Y50563D01*
X76296Y50493D01*
X76268Y50425D01*
X76235Y50358D01*
X76199Y50293D01*
X76160Y50231D01*
X76117Y50170D01*
X76072Y50112D01*
X76023Y50056D01*
X75971Y50003D01*
X75917Y49952D01*
X75860Y49905D01*
X75800Y49861D01*
X75738Y49820D01*
X75674Y49782D01*
X75609Y49748D01*
X75541Y49718D01*
X75472Y49691D01*
X75402Y49667D01*
X75330Y49648D01*
X75258Y49632D01*
X75185Y49620D01*
X75111Y49612D01*
X75037Y49608D01*
X74963Y49608D01*
X74889Y49612D01*
X74815Y49620D01*
X74742Y49632D01*
X74670Y49648D01*
X74598Y49667D01*
X74528Y49691D01*
X74459Y49718D01*
X74391Y49748D01*
X74326Y49782D01*
X74262Y49820D01*
X74200Y49861D01*
X74140Y49905D01*
X74083Y49952D01*
X74029Y50003D01*
X73977Y50056D01*
X73928Y50112D01*
X73883Y50170D01*
X73840Y50231D01*
X73801Y50293D01*
X73765Y50358D01*
X73732Y50425D01*
X73704Y50493D01*
X73678Y50563D01*
X73657Y50634D01*
X73639Y50706D01*
X73626Y50779D01*
X73616Y50852D01*
X73610Y50926D01*
X73608Y51000D01*
X74213Y51787D02*
X75787Y51787D01*
X75787Y50213D01*
X74213Y50213D01*
X74213Y51787D01*
X72638Y52476D02*
X72638Y52969D01*
X72638Y51492D02*
X72638Y50508D01*
X72638Y49524D02*
X72638Y49031D01*
X77362Y52476D02*
X77362Y52969D01*
X77362Y51492D02*
X77362Y50508D01*
X77362Y49524D02*
X77362Y49031D01*
D13*
X73173Y53520D02*
X73191Y53522D01*
X73208Y53526D01*
X73224Y53534D01*
X73239Y53544D01*
X73251Y53556D01*
X73261Y53571D01*
X73269Y53587D01*
X73273Y53604D01*
X73275Y53622D01*
X73173Y53520D02*
X73145Y53522D01*
X73117Y53527D01*
X73090Y53537D01*
X73064Y53549D01*
X73041Y53565D01*
X73020Y53584D01*
X73033Y53878D02*
X73035Y53896D01*
X73039Y53913D01*
X73047Y53929D01*
X73057Y53944D01*
X73069Y53956D01*
X73084Y53966D01*
X73100Y53974D01*
X73117Y53978D01*
X73135Y53980D01*
X73160Y53978D01*
X73184Y53974D01*
X73207Y53966D01*
X73230Y53955D01*
X73250Y53942D01*
X73033Y53878D02*
X73035Y53860D01*
X73039Y53843D01*
X73047Y53826D01*
X73057Y53812D01*
X73070Y53799D01*
X73084Y53788D01*
X73225Y53712D02*
X73239Y53701D01*
X73252Y53688D01*
X73262Y53674D01*
X73270Y53657D01*
X73274Y53640D01*
X73276Y53622D01*
X73224Y53712D02*
X73084Y53788D01*
X73438Y53980D02*
X73541Y53520D01*
X73643Y53827D01*
X73745Y53520D01*
X73847Y53980D01*
X74025Y53878D02*
X74153Y53980D01*
X74153Y53520D01*
X74025Y53520D02*
X74281Y53520D01*
D14*
X77531Y32969D02*
X77531Y31000D01*
X77531Y34543D02*
X77531Y35921D01*
X81469Y35921D01*
X81469Y34543D01*
X81469Y32969D02*
X81469Y31000D01*
X81075Y31000D01*
X77925Y31000D02*
X77531Y31000D01*
X78319Y33756D02*
X78321Y33825D01*
X78327Y33893D01*
X78337Y33961D01*
X78351Y34028D01*
X78369Y34095D01*
X78390Y34160D01*
X78416Y34224D01*
X78445Y34286D01*
X78477Y34346D01*
X78513Y34405D01*
X78553Y34461D01*
X78595Y34515D01*
X78641Y34566D01*
X78690Y34615D01*
X78741Y34661D01*
X78795Y34703D01*
X78851Y34743D01*
X78909Y34779D01*
X78970Y34811D01*
X79032Y34840D01*
X79096Y34866D01*
X79161Y34887D01*
X79228Y34905D01*
X79295Y34919D01*
X79363Y34929D01*
X79431Y34935D01*
X79500Y34937D01*
X79569Y34935D01*
X79637Y34929D01*
X79705Y34919D01*
X79772Y34905D01*
X79839Y34887D01*
X79904Y34866D01*
X79968Y34840D01*
X80030Y34811D01*
X80090Y34779D01*
X80149Y34743D01*
X80205Y34703D01*
X80259Y34661D01*
X80310Y34615D01*
X80359Y34566D01*
X80405Y34515D01*
X80447Y34461D01*
X80487Y34405D01*
X80523Y34346D01*
X80555Y34286D01*
X80584Y34224D01*
X80610Y34160D01*
X80631Y34095D01*
X80649Y34028D01*
X80663Y33961D01*
X80673Y33893D01*
X80679Y33825D01*
X80681Y33756D01*
X80679Y33687D01*
X80673Y33619D01*
X80663Y33551D01*
X80649Y33484D01*
X80631Y33417D01*
X80610Y33352D01*
X80584Y33288D01*
X80555Y33226D01*
X80523Y33165D01*
X80487Y33107D01*
X80447Y33051D01*
X80405Y32997D01*
X80359Y32946D01*
X80310Y32897D01*
X80259Y32851D01*
X80205Y32809D01*
X80149Y32769D01*
X80091Y32733D01*
X80030Y32701D01*
X79968Y32672D01*
X79904Y32646D01*
X79839Y32625D01*
X79772Y32607D01*
X79705Y32593D01*
X79637Y32583D01*
X79569Y32577D01*
X79500Y32575D01*
X79431Y32577D01*
X79363Y32583D01*
X79295Y32593D01*
X79228Y32607D01*
X79161Y32625D01*
X79096Y32646D01*
X79032Y32672D01*
X78970Y32701D01*
X78909Y32733D01*
X78851Y32769D01*
X78795Y32809D01*
X78741Y32851D01*
X78690Y32897D01*
X78641Y32946D01*
X78595Y32997D01*
X78553Y33051D01*
X78513Y33107D01*
X78477Y33165D01*
X78445Y33226D01*
X78416Y33288D01*
X78390Y33352D01*
X78369Y33417D01*
X78351Y33484D01*
X78337Y33551D01*
X78327Y33619D01*
X78321Y33687D01*
X78319Y33756D01*
D10*
X77515Y36015D02*
X77515Y36305D01*
X77596Y36305D01*
X77613Y36303D01*
X77629Y36298D01*
X77644Y36290D01*
X77656Y36278D01*
X77666Y36265D01*
X77673Y36249D01*
X77677Y36232D01*
X77677Y36216D01*
X77673Y36199D01*
X77666Y36184D01*
X77656Y36170D01*
X77644Y36158D01*
X77629Y36150D01*
X77613Y36145D01*
X77596Y36143D01*
X77596Y36144D02*
X77515Y36144D01*
X77612Y36144D02*
X77676Y36015D01*
X77801Y36241D02*
X77882Y36305D01*
X77882Y36015D01*
X77962Y36015D02*
X77801Y36015D01*
D11*
X44250Y12000D02*
X44252Y12031D01*
X44258Y12062D01*
X44268Y12092D01*
X44281Y12120D01*
X44298Y12147D01*
X44318Y12171D01*
X44341Y12193D01*
X44366Y12211D01*
X44394Y12226D01*
X44423Y12238D01*
X44453Y12246D01*
X44484Y12250D01*
X44516Y12250D01*
X44547Y12246D01*
X44577Y12238D01*
X44606Y12226D01*
X44634Y12211D01*
X44659Y12193D01*
X44682Y12171D01*
X44702Y12147D01*
X44719Y12120D01*
X44732Y12092D01*
X44742Y12062D01*
X44748Y12031D01*
X44750Y12000D01*
X44748Y11969D01*
X44742Y11938D01*
X44732Y11908D01*
X44719Y11880D01*
X44702Y11853D01*
X44682Y11829D01*
X44659Y11807D01*
X44634Y11789D01*
X44606Y11774D01*
X44577Y11762D01*
X44547Y11754D01*
X44516Y11750D01*
X44484Y11750D01*
X44453Y11754D01*
X44423Y11762D01*
X44394Y11774D01*
X44366Y11789D01*
X44341Y11807D01*
X44318Y11829D01*
X44298Y11853D01*
X44281Y11880D01*
X44268Y11908D01*
X44258Y11938D01*
X44252Y11969D01*
X44250Y12000D01*
X42300Y17600D02*
X46700Y17600D01*
X46400Y7500D02*
X42600Y7500D01*
X46400Y7500D02*
X46400Y8500D01*
X42600Y8500D02*
X42600Y7500D01*
X46400Y8500D02*
X47500Y8500D01*
X42600Y8500D02*
X41500Y8500D01*
X48250Y10400D02*
X48250Y13600D01*
X47500Y13600D02*
X47500Y14750D01*
X47500Y10400D02*
X47500Y8500D01*
X47500Y13600D02*
X48250Y13600D01*
X48250Y10400D02*
X47500Y10400D01*
X47500Y14750D02*
X46700Y14750D01*
X42300Y14750D02*
X41500Y14750D01*
X46700Y14750D02*
X46700Y17600D01*
X42300Y17600D02*
X42300Y14750D01*
X41500Y13900D02*
X40100Y13900D01*
X40100Y10100D02*
X41500Y10100D01*
X40100Y10100D02*
X40100Y13900D01*
X41500Y13900D02*
X41500Y14750D01*
X41500Y10100D02*
X41500Y8500D01*
D15*
X43250Y5000D02*
X43750Y5000D01*
X43250Y5000D02*
X43000Y5250D01*
X43000Y5750D01*
X43250Y6000D01*
X44750Y5000D02*
X45000Y5250D01*
X44750Y5000D02*
X44250Y5000D01*
X44000Y5250D01*
X44000Y5750D01*
X44250Y6000D01*
X44750Y6000D01*
X45000Y5750D01*
X44000Y5250D02*
X43750Y5000D01*
X44000Y5750D02*
X43750Y6000D01*
X43250Y6000D01*
X46250Y5000D02*
X46750Y5000D01*
X46250Y5000D02*
X46000Y5250D01*
X46000Y5750D01*
X46250Y6000D01*
X46000Y5250D02*
X45750Y5000D01*
X45250Y5000D01*
X45000Y5250D01*
X45000Y5750D01*
X45250Y6000D01*
X45750Y6000D01*
X46000Y5750D01*
X47000Y5750D02*
X47000Y5250D01*
X46750Y5000D01*
X47000Y5750D02*
X46750Y6000D01*
X46250Y6000D01*
X42750Y5000D02*
X42250Y5000D01*
X42000Y5250D01*
X42000Y5750D01*
X42250Y6000D01*
X43000Y5250D02*
X42750Y5000D01*
X43000Y5750D02*
X42750Y6000D01*
X42250Y6000D01*
D14*
X35850Y40484D02*
X67346Y40484D01*
X67346Y26311D01*
X35850Y26311D02*
X35850Y40484D01*
X37819Y38319D02*
X65378Y38319D01*
X65378Y28476D01*
X37819Y28476D02*
X37819Y38319D01*
X37819Y28476D02*
X65378Y28476D01*
D13*
X38620Y40872D02*
X38620Y41332D01*
X38620Y40872D02*
X38825Y40872D01*
X39095Y40872D02*
X39198Y40872D01*
X39095Y40873D02*
X39077Y40875D01*
X39060Y40879D01*
X39044Y40887D01*
X39029Y40897D01*
X39017Y40909D01*
X39007Y40924D01*
X38999Y40940D01*
X38995Y40957D01*
X38993Y40975D01*
X38993Y41230D01*
X38995Y41250D01*
X39001Y41269D01*
X39010Y41287D01*
X39023Y41302D01*
X39038Y41315D01*
X39056Y41324D01*
X39075Y41330D01*
X39095Y41332D01*
X39198Y41332D01*
X39385Y41332D02*
X39385Y40872D01*
X39385Y41332D02*
X39512Y41332D01*
X39512Y41333D02*
X39532Y41331D01*
X39552Y41327D01*
X39570Y41319D01*
X39587Y41309D01*
X39603Y41296D01*
X39616Y41280D01*
X39626Y41263D01*
X39634Y41245D01*
X39638Y41225D01*
X39640Y41205D01*
X39640Y41000D01*
X39638Y40980D01*
X39634Y40960D01*
X39626Y40942D01*
X39616Y40925D01*
X39603Y40909D01*
X39587Y40896D01*
X39570Y40886D01*
X39552Y40878D01*
X39532Y40874D01*
X39512Y40872D01*
X39385Y40872D01*
X39850Y41230D02*
X39977Y41332D01*
X39977Y40872D01*
X39850Y40872D02*
X40105Y40872D01*
D14*
X110350Y37323D02*
X116650Y37323D01*
X116650Y2677D01*
X110350Y2677D01*
X110350Y37323D01*
X109269Y36654D02*
X109269Y36384D01*
X109269Y36654D02*
X109344Y36654D01*
X109360Y36652D01*
X109375Y36648D01*
X109388Y36640D01*
X109400Y36629D01*
X109409Y36617D01*
X109415Y36602D01*
X109419Y36587D01*
X109419Y36571D01*
X109415Y36556D01*
X109409Y36542D01*
X109400Y36529D01*
X109388Y36518D01*
X109375Y36510D01*
X109360Y36506D01*
X109344Y36504D01*
X109269Y36504D01*
X109359Y36504D02*
X109419Y36384D01*
X109637Y36655D02*
X109652Y36653D01*
X109667Y36648D01*
X109679Y36640D01*
X109690Y36629D01*
X109698Y36617D01*
X109703Y36602D01*
X109705Y36587D01*
X109637Y36654D02*
X109621Y36653D01*
X109606Y36648D01*
X109592Y36642D01*
X109580Y36632D01*
X109569Y36621D01*
X109560Y36608D01*
X109554Y36594D01*
X109682Y36534D02*
X109692Y36545D01*
X109699Y36558D01*
X109704Y36572D01*
X109705Y36587D01*
X109682Y36534D02*
X109554Y36384D01*
X109704Y36384D01*
X87500Y18500D02*
X87500Y4500D01*
X90250Y4500D01*
X90250Y18500D01*
X89500Y18500D01*
X88500Y18500D02*
X87500Y18500D01*
X88500Y18500D02*
X88502Y18456D01*
X88508Y18413D01*
X88517Y18371D01*
X88530Y18329D01*
X88547Y18289D01*
X88567Y18250D01*
X88590Y18213D01*
X88617Y18179D01*
X88646Y18146D01*
X88679Y18117D01*
X88713Y18090D01*
X88750Y18067D01*
X88789Y18047D01*
X88829Y18030D01*
X88871Y18017D01*
X88913Y18008D01*
X88956Y18002D01*
X89000Y18000D01*
X89044Y18002D01*
X89087Y18008D01*
X89129Y18017D01*
X89171Y18030D01*
X89211Y18047D01*
X89250Y18067D01*
X89287Y18090D01*
X89321Y18117D01*
X89354Y18146D01*
X89383Y18179D01*
X89410Y18213D01*
X89433Y18250D01*
X89453Y18289D01*
X89470Y18329D01*
X89483Y18371D01*
X89492Y18413D01*
X89498Y18456D01*
X89500Y18500D01*
D13*
X89102Y16369D02*
X88770Y16369D01*
X89102Y16369D02*
X89123Y16371D01*
X89144Y16376D01*
X89163Y16384D01*
X89181Y16396D01*
X89196Y16410D01*
X89209Y16427D01*
X89219Y16446D01*
X89226Y16466D01*
X89230Y16486D01*
X89230Y16508D01*
X89226Y16528D01*
X89219Y16548D01*
X89209Y16567D01*
X89196Y16584D01*
X89181Y16598D01*
X89163Y16610D01*
X89144Y16618D01*
X89123Y16623D01*
X89102Y16625D01*
X88770Y16625D01*
X88770Y16932D02*
X89230Y16932D01*
X89000Y16932D02*
X88962Y16868D01*
X88961Y16869D02*
X88951Y16856D01*
X88938Y16845D01*
X88924Y16837D01*
X88907Y16833D01*
X88891Y16832D01*
X88874Y16835D01*
X88859Y16842D01*
X88845Y16851D01*
X88834Y16864D01*
X88826Y16878D01*
X88821Y16894D01*
X88818Y16918D01*
X88818Y16942D01*
X88821Y16966D01*
X88827Y16990D01*
X88836Y17012D01*
X88847Y17034D01*
X89000Y16932D02*
X89038Y16996D01*
X89039Y16996D02*
X89049Y17009D01*
X89062Y17020D01*
X89077Y17028D01*
X89093Y17032D01*
X89109Y17033D01*
X89126Y17030D01*
X89141Y17023D01*
X89155Y17014D01*
X89166Y17001D01*
X89174Y16987D01*
X89179Y16971D01*
X89179Y16970D02*
X89182Y16946D01*
X89182Y16922D01*
X89179Y16898D01*
X89173Y16874D01*
X89164Y16852D01*
X89153Y16830D01*
X89230Y17224D02*
X89230Y17352D01*
X89228Y17373D01*
X89223Y17394D01*
X89215Y17413D01*
X89203Y17431D01*
X89189Y17446D01*
X89172Y17459D01*
X89153Y17469D01*
X89133Y17476D01*
X89113Y17480D01*
X89091Y17480D01*
X89071Y17476D01*
X89051Y17469D01*
X89032Y17459D01*
X89015Y17446D01*
X89001Y17431D01*
X88989Y17413D01*
X88981Y17394D01*
X88976Y17373D01*
X88974Y17352D01*
X88770Y17378D02*
X88770Y17224D01*
X88770Y17378D02*
X88772Y17397D01*
X88777Y17415D01*
X88785Y17432D01*
X88797Y17447D01*
X88811Y17459D01*
X88827Y17469D01*
X88844Y17476D01*
X88863Y17480D01*
X88881Y17480D01*
X88900Y17476D01*
X88917Y17469D01*
X88933Y17459D01*
X88947Y17447D01*
X88959Y17432D01*
X88967Y17415D01*
X88972Y17397D01*
X88974Y17378D01*
X88974Y17276D01*
D11*
X102125Y17000D02*
X102125Y7000D01*
X97875Y7000D02*
X97875Y16000D01*
X97875Y7000D02*
X102125Y7000D01*
X97875Y16000D02*
X99000Y17000D01*
X102125Y17000D01*
X100875Y12000D02*
X99125Y12000D01*
X100250Y12250D02*
X100250Y11750D01*
D16*
X99000Y17250D03*
D14*
X102250Y17000D02*
X102250Y7000D01*
X102425Y11836D02*
X102615Y11836D01*
X102425Y11836D02*
X102425Y11888D01*
X102427Y11902D01*
X102432Y11915D01*
X102441Y11925D01*
X102452Y11934D01*
X102464Y11939D01*
X102478Y11941D01*
X102562Y11941D01*
X102576Y11939D01*
X102589Y11934D01*
X102599Y11925D01*
X102608Y11914D01*
X102613Y11902D01*
X102615Y11888D01*
X102615Y11836D01*
X102425Y12117D02*
X102427Y12129D01*
X102431Y12141D01*
X102439Y12151D01*
X102449Y12159D01*
X102461Y12163D01*
X102473Y12165D01*
X102425Y12117D02*
X102426Y12104D01*
X102430Y12092D01*
X102437Y12081D01*
X102445Y12072D01*
X102456Y12064D01*
X102467Y12059D01*
X102510Y12148D02*
X102499Y12157D01*
X102487Y12162D01*
X102473Y12164D01*
X102509Y12149D02*
X102615Y12059D01*
X102615Y12164D01*
X112531Y49000D02*
X112531Y50969D01*
X112531Y52543D02*
X112531Y53921D01*
X116469Y53921D01*
X116469Y52543D01*
X116469Y50969D02*
X116469Y49000D01*
X116075Y49000D01*
X112925Y49000D02*
X112531Y49000D01*
X113319Y51756D02*
X113321Y51825D01*
X113327Y51893D01*
X113337Y51961D01*
X113351Y52028D01*
X113369Y52095D01*
X113390Y52160D01*
X113416Y52224D01*
X113445Y52286D01*
X113477Y52346D01*
X113513Y52405D01*
X113553Y52461D01*
X113595Y52515D01*
X113641Y52566D01*
X113690Y52615D01*
X113741Y52661D01*
X113795Y52703D01*
X113851Y52743D01*
X113909Y52779D01*
X113970Y52811D01*
X114032Y52840D01*
X114096Y52866D01*
X114161Y52887D01*
X114228Y52905D01*
X114295Y52919D01*
X114363Y52929D01*
X114431Y52935D01*
X114500Y52937D01*
X114569Y52935D01*
X114637Y52929D01*
X114705Y52919D01*
X114772Y52905D01*
X114839Y52887D01*
X114904Y52866D01*
X114968Y52840D01*
X115030Y52811D01*
X115090Y52779D01*
X115149Y52743D01*
X115205Y52703D01*
X115259Y52661D01*
X115310Y52615D01*
X115359Y52566D01*
X115405Y52515D01*
X115447Y52461D01*
X115487Y52405D01*
X115523Y52346D01*
X115555Y52286D01*
X115584Y52224D01*
X115610Y52160D01*
X115631Y52095D01*
X115649Y52028D01*
X115663Y51961D01*
X115673Y51893D01*
X115679Y51825D01*
X115681Y51756D01*
X115679Y51687D01*
X115673Y51619D01*
X115663Y51551D01*
X115649Y51484D01*
X115631Y51417D01*
X115610Y51352D01*
X115584Y51288D01*
X115555Y51226D01*
X115523Y51165D01*
X115487Y51107D01*
X115447Y51051D01*
X115405Y50997D01*
X115359Y50946D01*
X115310Y50897D01*
X115259Y50851D01*
X115205Y50809D01*
X115149Y50769D01*
X115091Y50733D01*
X115030Y50701D01*
X114968Y50672D01*
X114904Y50646D01*
X114839Y50625D01*
X114772Y50607D01*
X114705Y50593D01*
X114637Y50583D01*
X114569Y50577D01*
X114500Y50575D01*
X114431Y50577D01*
X114363Y50583D01*
X114295Y50593D01*
X114228Y50607D01*
X114161Y50625D01*
X114096Y50646D01*
X114032Y50672D01*
X113970Y50701D01*
X113909Y50733D01*
X113851Y50769D01*
X113795Y50809D01*
X113741Y50851D01*
X113690Y50897D01*
X113641Y50946D01*
X113595Y50997D01*
X113553Y51051D01*
X113513Y51107D01*
X113477Y51165D01*
X113445Y51226D01*
X113416Y51288D01*
X113390Y51352D01*
X113369Y51417D01*
X113351Y51484D01*
X113337Y51551D01*
X113327Y51619D01*
X113321Y51687D01*
X113319Y51756D01*
D10*
X112515Y54015D02*
X112515Y54305D01*
X112596Y54305D01*
X112613Y54303D01*
X112629Y54298D01*
X112644Y54290D01*
X112656Y54278D01*
X112666Y54265D01*
X112673Y54249D01*
X112677Y54232D01*
X112677Y54216D01*
X112673Y54199D01*
X112666Y54184D01*
X112656Y54170D01*
X112644Y54158D01*
X112629Y54150D01*
X112613Y54145D01*
X112596Y54143D01*
X112596Y54144D02*
X112515Y54144D01*
X112612Y54144D02*
X112676Y54015D01*
X112801Y54015D02*
X112882Y54015D01*
X112899Y54017D01*
X112915Y54022D01*
X112930Y54030D01*
X112942Y54042D01*
X112952Y54056D01*
X112959Y54071D01*
X112963Y54088D01*
X112963Y54104D01*
X112959Y54121D01*
X112952Y54137D01*
X112942Y54150D01*
X112930Y54162D01*
X112915Y54170D01*
X112899Y54175D01*
X112882Y54177D01*
X112898Y54305D02*
X112801Y54305D01*
X112898Y54305D02*
X112912Y54303D01*
X112926Y54299D01*
X112938Y54291D01*
X112948Y54281D01*
X112956Y54269D01*
X112960Y54255D01*
X112962Y54241D01*
X112960Y54227D01*
X112956Y54213D01*
X112948Y54201D01*
X112938Y54191D01*
X112926Y54183D01*
X112912Y54179D01*
X112898Y54177D01*
X112898Y54176D02*
X112833Y54176D01*
D14*
X65315Y50803D02*
X64685Y50803D01*
X64685Y51197D02*
X65315Y51197D01*
X64921Y51079D02*
X64921Y50921D01*
D13*
X65027Y50480D02*
X65027Y50200D01*
X65027Y50480D02*
X65105Y50480D01*
X65120Y50479D01*
X65135Y50474D01*
X65148Y50467D01*
X65160Y50457D01*
X65170Y50445D01*
X65177Y50432D01*
X65182Y50417D01*
X65183Y50402D01*
X65182Y50402D02*
X65182Y50278D01*
X65183Y50278D02*
X65182Y50263D01*
X65177Y50248D01*
X65170Y50235D01*
X65160Y50223D01*
X65148Y50213D01*
X65135Y50206D01*
X65120Y50201D01*
X65105Y50200D01*
X65027Y50200D01*
X65324Y50200D02*
X65402Y50200D01*
X65418Y50202D01*
X65434Y50207D01*
X65448Y50215D01*
X65460Y50226D01*
X65470Y50239D01*
X65476Y50254D01*
X65480Y50270D01*
X65480Y50286D01*
X65476Y50302D01*
X65470Y50317D01*
X65460Y50330D01*
X65448Y50341D01*
X65434Y50349D01*
X65418Y50354D01*
X65402Y50356D01*
X65418Y50480D02*
X65324Y50480D01*
X65418Y50480D02*
X65433Y50478D01*
X65447Y50473D01*
X65459Y50464D01*
X65469Y50453D01*
X65476Y50440D01*
X65480Y50425D01*
X65480Y50411D01*
X65476Y50396D01*
X65469Y50383D01*
X65459Y50372D01*
X65447Y50363D01*
X65433Y50358D01*
X65418Y50356D01*
X65356Y50356D01*
D15*
X6750Y54250D02*
X2500Y54250D01*
X2500Y57750D02*
X6750Y57750D01*
X1400Y55500D02*
X1400Y55100D01*
X2500Y57000D02*
X2500Y57750D01*
X1400Y56500D02*
X-2050Y55650D01*
X1400Y56500D02*
X1400Y56900D01*
X1400Y55500D02*
X-2050Y54650D01*
X1400Y55500D02*
X1400Y56500D01*
X-2050Y55650D02*
X-2094Y55648D01*
X-2137Y55642D01*
X-2179Y55633D01*
X-2221Y55620D01*
X-2261Y55603D01*
X-2300Y55583D01*
X-2337Y55560D01*
X-2371Y55533D01*
X-2404Y55504D01*
X-2433Y55471D01*
X-2460Y55437D01*
X-2483Y55400D01*
X-2503Y55361D01*
X-2520Y55321D01*
X-2533Y55279D01*
X-2542Y55237D01*
X-2548Y55194D01*
X-2550Y55150D01*
X-2548Y55106D01*
X-2542Y55063D01*
X-2533Y55021D01*
X-2520Y54979D01*
X-2503Y54939D01*
X-2483Y54900D01*
X-2460Y54863D01*
X-2433Y54829D01*
X-2404Y54796D01*
X-2371Y54767D01*
X-2337Y54740D01*
X-2300Y54717D01*
X-2261Y54697D01*
X-2221Y54680D01*
X-2179Y54667D01*
X-2137Y54658D01*
X-2094Y54652D01*
X-2050Y54650D01*
X1400Y55100D02*
X1500Y55000D01*
X2500Y55000D01*
X2500Y54250D01*
X1400Y56900D02*
X1500Y57000D01*
X2500Y57000D01*
X2500Y55000D01*
X1500Y55000D02*
X1500Y57000D01*
X6750Y54700D02*
X6750Y54250D01*
X6750Y55300D02*
X6750Y55700D01*
X6750Y57300D02*
X6750Y57750D01*
X6750Y56700D02*
X6750Y56300D01*
X4927Y58280D02*
X4944Y58281D01*
X4961Y58286D01*
X4976Y58293D01*
X4990Y58303D01*
X5002Y58315D01*
X5012Y58329D01*
X5019Y58344D01*
X5024Y58361D01*
X5025Y58378D01*
X4927Y58280D02*
X4900Y58282D01*
X4873Y58287D01*
X4847Y58296D01*
X4823Y58308D01*
X4800Y58323D01*
X4780Y58341D01*
X4792Y58622D02*
X4793Y58639D01*
X4798Y58656D01*
X4805Y58671D01*
X4815Y58685D01*
X4827Y58697D01*
X4841Y58707D01*
X4856Y58714D01*
X4873Y58719D01*
X4890Y58720D01*
X4913Y58718D01*
X4937Y58714D01*
X4959Y58707D01*
X4980Y58696D01*
X5000Y58683D01*
X4793Y58622D02*
X4794Y58605D01*
X4799Y58588D01*
X4806Y58573D01*
X4816Y58559D01*
X4828Y58547D01*
X4842Y58537D01*
X4975Y58463D02*
X4989Y58453D01*
X5001Y58441D01*
X5011Y58427D01*
X5018Y58412D01*
X5023Y58395D01*
X5024Y58378D01*
X4976Y58463D02*
X4841Y58537D01*
X5215Y58280D02*
X5337Y58280D01*
X5358Y58282D01*
X5379Y58287D01*
X5398Y58296D01*
X5415Y58309D01*
X5430Y58324D01*
X5443Y58341D01*
X5452Y58360D01*
X5457Y58381D01*
X5459Y58402D01*
X5457Y58423D01*
X5452Y58444D01*
X5443Y58463D01*
X5430Y58480D01*
X5415Y58495D01*
X5398Y58508D01*
X5379Y58517D01*
X5358Y58522D01*
X5337Y58524D01*
X5362Y58720D02*
X5215Y58720D01*
X5362Y58720D02*
X5380Y58718D01*
X5397Y58713D01*
X5414Y58705D01*
X5428Y58694D01*
X5440Y58681D01*
X5450Y58666D01*
X5456Y58649D01*
X5460Y58631D01*
X5460Y58613D01*
X5456Y58595D01*
X5450Y58578D01*
X5440Y58563D01*
X5428Y58550D01*
X5414Y58539D01*
X5397Y58531D01*
X5380Y58526D01*
X5362Y58524D01*
X5264Y58524D01*
X14000Y54250D02*
X18250Y54250D01*
X18250Y57750D02*
X14000Y57750D01*
X12900Y55500D02*
X12900Y55100D01*
X14000Y57000D02*
X14000Y57750D01*
X12900Y56500D02*
X9450Y55650D01*
X12900Y56500D02*
X12900Y56900D01*
X12900Y55500D02*
X9450Y54650D01*
X12900Y55500D02*
X12900Y56500D01*
X9450Y55650D02*
X9406Y55648D01*
X9363Y55642D01*
X9321Y55633D01*
X9279Y55620D01*
X9239Y55603D01*
X9200Y55583D01*
X9163Y55560D01*
X9129Y55533D01*
X9096Y55504D01*
X9067Y55471D01*
X9040Y55437D01*
X9017Y55400D01*
X8997Y55361D01*
X8980Y55321D01*
X8967Y55279D01*
X8958Y55237D01*
X8952Y55194D01*
X8950Y55150D01*
X8952Y55106D01*
X8958Y55063D01*
X8967Y55021D01*
X8980Y54979D01*
X8997Y54939D01*
X9017Y54900D01*
X9040Y54863D01*
X9067Y54829D01*
X9096Y54796D01*
X9129Y54767D01*
X9163Y54740D01*
X9200Y54717D01*
X9239Y54697D01*
X9279Y54680D01*
X9321Y54667D01*
X9363Y54658D01*
X9406Y54652D01*
X9450Y54650D01*
X12900Y55100D02*
X13000Y55000D01*
X14000Y55000D01*
X14000Y54250D01*
X12900Y56900D02*
X13000Y57000D01*
X14000Y57000D01*
X14000Y55000D01*
X13000Y55000D02*
X13000Y57000D01*
X18250Y54700D02*
X18250Y54250D01*
X18250Y55300D02*
X18250Y55700D01*
X18250Y57300D02*
X18250Y57750D01*
X18250Y56700D02*
X18250Y56300D01*
X16080Y58150D02*
X16078Y58129D01*
X16073Y58109D01*
X16064Y58090D01*
X16052Y58073D01*
X16037Y58058D01*
X16020Y58046D01*
X16001Y58037D01*
X15981Y58032D01*
X15960Y58030D01*
X15931Y58032D01*
X15903Y58036D01*
X15876Y58044D01*
X15849Y58055D01*
X15824Y58069D01*
X15801Y58086D01*
X15780Y58105D01*
X15795Y58450D02*
X15797Y58471D01*
X15802Y58491D01*
X15811Y58510D01*
X15823Y58527D01*
X15838Y58542D01*
X15855Y58554D01*
X15874Y58563D01*
X15894Y58568D01*
X15915Y58570D01*
X15944Y58568D01*
X15972Y58563D01*
X16000Y58553D01*
X16026Y58541D01*
X16050Y58525D01*
X15795Y58450D02*
X15797Y58429D01*
X15802Y58409D01*
X15811Y58389D01*
X15823Y58372D01*
X15838Y58357D01*
X15855Y58345D01*
X16020Y58255D02*
X16037Y58243D01*
X16052Y58228D01*
X16064Y58211D01*
X16073Y58191D01*
X16078Y58171D01*
X16080Y58150D01*
X16020Y58255D02*
X15855Y58345D01*
X16301Y58150D02*
X16421Y58570D01*
X16301Y58150D02*
X16601Y58150D01*
X16511Y58270D02*
X16511Y58030D01*
D14*
X91685Y57197D02*
X92315Y57197D01*
X92315Y56803D02*
X91685Y56803D01*
X92079Y56921D02*
X92079Y57079D01*
D13*
X91520Y57520D02*
X91520Y57800D01*
X91598Y57800D01*
X91613Y57799D01*
X91628Y57794D01*
X91641Y57787D01*
X91653Y57777D01*
X91663Y57765D01*
X91670Y57752D01*
X91675Y57737D01*
X91676Y57722D01*
X91676Y57598D01*
X91675Y57583D01*
X91670Y57568D01*
X91663Y57555D01*
X91653Y57543D01*
X91641Y57533D01*
X91628Y57526D01*
X91613Y57521D01*
X91598Y57520D01*
X91520Y57520D01*
X91818Y57582D02*
X91880Y57800D01*
X91818Y57582D02*
X91973Y57582D01*
X91926Y57644D02*
X91926Y57520D01*
D14*
X4500Y52700D02*
X4500Y52300D01*
D10*
X4538Y51985D02*
X4538Y51695D01*
X4538Y51985D02*
X4618Y51985D01*
X4635Y51983D01*
X4651Y51978D01*
X4666Y51970D01*
X4678Y51958D01*
X4688Y51945D01*
X4695Y51929D01*
X4699Y51912D01*
X4699Y51896D01*
X4695Y51879D01*
X4688Y51864D01*
X4678Y51850D01*
X4666Y51838D01*
X4651Y51830D01*
X4635Y51825D01*
X4618Y51823D01*
X4618Y51824D02*
X4538Y51824D01*
X4635Y51824D02*
X4699Y51695D01*
X4824Y51759D02*
X4888Y51985D01*
X4824Y51759D02*
X4985Y51759D01*
X4937Y51824D02*
X4937Y51695D01*
D14*
X17000Y51700D02*
X17000Y51300D01*
D10*
X17038Y50985D02*
X17038Y50695D01*
X17038Y50985D02*
X17118Y50985D01*
X17135Y50983D01*
X17151Y50978D01*
X17166Y50970D01*
X17178Y50958D01*
X17188Y50945D01*
X17195Y50929D01*
X17199Y50912D01*
X17199Y50896D01*
X17195Y50879D01*
X17188Y50864D01*
X17178Y50850D01*
X17166Y50838D01*
X17151Y50830D01*
X17135Y50825D01*
X17118Y50823D01*
X17118Y50824D02*
X17038Y50824D01*
X17135Y50824D02*
X17199Y50695D01*
X17324Y50695D02*
X17421Y50695D01*
X17435Y50697D01*
X17449Y50701D01*
X17461Y50709D01*
X17471Y50719D01*
X17479Y50731D01*
X17483Y50745D01*
X17485Y50759D01*
X17485Y50792D01*
X17483Y50806D01*
X17479Y50820D01*
X17471Y50832D01*
X17461Y50842D01*
X17449Y50850D01*
X17435Y50854D01*
X17421Y50856D01*
X17324Y50856D01*
X17324Y50985D01*
X17485Y50985D01*
D15*
X6750Y46250D02*
X2500Y46250D01*
X2500Y49750D02*
X6750Y49750D01*
X1400Y47500D02*
X1400Y47100D01*
X2500Y49000D02*
X2500Y49750D01*
X1400Y48500D02*
X-2050Y47650D01*
X1400Y48500D02*
X1400Y48900D01*
X1400Y47500D02*
X-2050Y46650D01*
X1400Y47500D02*
X1400Y48500D01*
X-2050Y47650D02*
X-2094Y47648D01*
X-2137Y47642D01*
X-2179Y47633D01*
X-2221Y47620D01*
X-2261Y47603D01*
X-2300Y47583D01*
X-2337Y47560D01*
X-2371Y47533D01*
X-2404Y47504D01*
X-2433Y47471D01*
X-2460Y47437D01*
X-2483Y47400D01*
X-2503Y47361D01*
X-2520Y47321D01*
X-2533Y47279D01*
X-2542Y47237D01*
X-2548Y47194D01*
X-2550Y47150D01*
X-2548Y47106D01*
X-2542Y47063D01*
X-2533Y47021D01*
X-2520Y46979D01*
X-2503Y46939D01*
X-2483Y46900D01*
X-2460Y46863D01*
X-2433Y46829D01*
X-2404Y46796D01*
X-2371Y46767D01*
X-2337Y46740D01*
X-2300Y46717D01*
X-2261Y46697D01*
X-2221Y46680D01*
X-2179Y46667D01*
X-2137Y46658D01*
X-2094Y46652D01*
X-2050Y46650D01*
X1400Y47100D02*
X1500Y47000D01*
X2500Y47000D01*
X2500Y46250D01*
X1400Y48900D02*
X1500Y49000D01*
X2500Y49000D01*
X2500Y47000D01*
X1500Y47000D02*
X1500Y49000D01*
X6750Y46700D02*
X6750Y46250D01*
X6750Y47300D02*
X6750Y47700D01*
X6750Y49300D02*
X6750Y49750D01*
X6750Y48700D02*
X6750Y48300D01*
X4960Y50280D02*
X4981Y50282D01*
X5001Y50287D01*
X5020Y50296D01*
X5037Y50308D01*
X5052Y50323D01*
X5064Y50340D01*
X5073Y50359D01*
X5078Y50379D01*
X5080Y50400D01*
X4960Y50280D02*
X4931Y50282D01*
X4903Y50286D01*
X4876Y50294D01*
X4849Y50305D01*
X4824Y50319D01*
X4801Y50336D01*
X4780Y50355D01*
X4795Y50700D02*
X4797Y50721D01*
X4802Y50741D01*
X4811Y50760D01*
X4823Y50777D01*
X4838Y50792D01*
X4855Y50804D01*
X4874Y50813D01*
X4894Y50818D01*
X4915Y50820D01*
X4944Y50818D01*
X4972Y50813D01*
X5000Y50803D01*
X5026Y50791D01*
X5050Y50775D01*
X4795Y50700D02*
X4797Y50679D01*
X4802Y50659D01*
X4811Y50639D01*
X4823Y50622D01*
X4838Y50607D01*
X4855Y50595D01*
X5020Y50505D02*
X5037Y50493D01*
X5052Y50478D01*
X5064Y50461D01*
X5073Y50441D01*
X5078Y50421D01*
X5080Y50400D01*
X5020Y50505D02*
X4855Y50595D01*
X5301Y50280D02*
X5481Y50280D01*
X5502Y50282D01*
X5522Y50287D01*
X5541Y50296D01*
X5558Y50308D01*
X5573Y50323D01*
X5585Y50340D01*
X5594Y50359D01*
X5599Y50379D01*
X5601Y50400D01*
X5601Y50460D01*
X5599Y50481D01*
X5594Y50501D01*
X5585Y50520D01*
X5573Y50537D01*
X5558Y50552D01*
X5541Y50564D01*
X5522Y50573D01*
X5502Y50578D01*
X5481Y50580D01*
X5301Y50580D01*
X5301Y50820D01*
X5601Y50820D01*
D14*
X5000Y44200D02*
X5000Y43800D01*
D10*
X5038Y43485D02*
X5038Y43195D01*
X5038Y43485D02*
X5118Y43485D01*
X5135Y43483D01*
X5151Y43478D01*
X5166Y43470D01*
X5178Y43458D01*
X5188Y43445D01*
X5195Y43429D01*
X5199Y43412D01*
X5199Y43396D01*
X5195Y43379D01*
X5188Y43364D01*
X5178Y43350D01*
X5166Y43338D01*
X5151Y43330D01*
X5135Y43325D01*
X5118Y43323D01*
X5118Y43324D02*
X5038Y43324D01*
X5135Y43324D02*
X5199Y43195D01*
X5324Y43356D02*
X5421Y43356D01*
X5435Y43354D01*
X5449Y43350D01*
X5461Y43342D01*
X5471Y43332D01*
X5479Y43320D01*
X5483Y43306D01*
X5485Y43292D01*
X5485Y43276D01*
X5483Y43259D01*
X5478Y43243D01*
X5470Y43228D01*
X5458Y43216D01*
X5445Y43206D01*
X5429Y43199D01*
X5412Y43195D01*
X5396Y43195D01*
X5379Y43199D01*
X5364Y43206D01*
X5350Y43216D01*
X5338Y43228D01*
X5330Y43243D01*
X5325Y43259D01*
X5323Y43276D01*
X5324Y43276D02*
X5324Y43356D01*
X5326Y43378D01*
X5332Y43400D01*
X5341Y43420D01*
X5354Y43439D01*
X5370Y43455D01*
X5388Y43468D01*
X5409Y43477D01*
X5431Y43483D01*
X5453Y43485D01*
D15*
X14500Y46250D02*
X18750Y46250D01*
X18750Y49750D02*
X14500Y49750D01*
X13400Y47500D02*
X13400Y47100D01*
X14500Y49000D02*
X14500Y49750D01*
X13400Y48500D02*
X9950Y47650D01*
X13400Y48500D02*
X13400Y48900D01*
X13400Y47500D02*
X9950Y46650D01*
X13400Y47500D02*
X13400Y48500D01*
X9950Y47650D02*
X9906Y47648D01*
X9863Y47642D01*
X9821Y47633D01*
X9779Y47620D01*
X9739Y47603D01*
X9700Y47583D01*
X9663Y47560D01*
X9629Y47533D01*
X9596Y47504D01*
X9567Y47471D01*
X9540Y47437D01*
X9517Y47400D01*
X9497Y47361D01*
X9480Y47321D01*
X9467Y47279D01*
X9458Y47237D01*
X9452Y47194D01*
X9450Y47150D01*
X9452Y47106D01*
X9458Y47063D01*
X9467Y47021D01*
X9480Y46979D01*
X9497Y46939D01*
X9517Y46900D01*
X9540Y46863D01*
X9567Y46829D01*
X9596Y46796D01*
X9629Y46767D01*
X9663Y46740D01*
X9700Y46717D01*
X9739Y46697D01*
X9779Y46680D01*
X9821Y46667D01*
X9863Y46658D01*
X9906Y46652D01*
X9950Y46650D01*
X13400Y47100D02*
X13500Y47000D01*
X14500Y47000D01*
X14500Y46250D01*
X13400Y48900D02*
X13500Y49000D01*
X14500Y49000D01*
X14500Y47000D01*
X13500Y47000D02*
X13500Y49000D01*
X18750Y46700D02*
X18750Y46250D01*
X18750Y47300D02*
X18750Y47700D01*
X18750Y49300D02*
X18750Y49750D01*
X18750Y48700D02*
X18750Y48300D01*
X15330Y50150D02*
X15328Y50129D01*
X15323Y50109D01*
X15314Y50090D01*
X15302Y50073D01*
X15287Y50058D01*
X15270Y50046D01*
X15251Y50037D01*
X15231Y50032D01*
X15210Y50030D01*
X15181Y50032D01*
X15153Y50036D01*
X15126Y50044D01*
X15099Y50055D01*
X15074Y50069D01*
X15051Y50086D01*
X15030Y50105D01*
X15045Y50450D02*
X15047Y50471D01*
X15052Y50491D01*
X15061Y50510D01*
X15073Y50527D01*
X15088Y50542D01*
X15105Y50554D01*
X15124Y50563D01*
X15144Y50568D01*
X15165Y50570D01*
X15194Y50568D01*
X15222Y50563D01*
X15250Y50553D01*
X15276Y50541D01*
X15300Y50525D01*
X15045Y50450D02*
X15047Y50429D01*
X15052Y50409D01*
X15061Y50389D01*
X15073Y50372D01*
X15088Y50357D01*
X15105Y50345D01*
X15270Y50255D02*
X15287Y50243D01*
X15302Y50228D01*
X15314Y50211D01*
X15323Y50191D01*
X15328Y50171D01*
X15330Y50150D01*
X15270Y50255D02*
X15105Y50345D01*
X15551Y50450D02*
X15701Y50570D01*
X15701Y50030D01*
X15551Y50030D02*
X15851Y50030D01*
X16390Y50435D02*
X16388Y50456D01*
X16383Y50477D01*
X16375Y50496D01*
X16364Y50514D01*
X16350Y50530D01*
X16334Y50544D01*
X16316Y50555D01*
X16297Y50563D01*
X16276Y50568D01*
X16255Y50570D01*
X16231Y50568D01*
X16207Y50563D01*
X16185Y50555D01*
X16163Y50544D01*
X16144Y50529D01*
X16126Y50513D01*
X16112Y50494D01*
X16099Y50473D01*
X16090Y50450D01*
X16345Y50330D02*
X16361Y50347D01*
X16373Y50367D01*
X16382Y50389D01*
X16388Y50412D01*
X16390Y50435D01*
X16345Y50330D02*
X16090Y50030D01*
X16390Y50030D01*
D14*
X17000Y43700D02*
X17000Y43300D01*
D10*
X17788Y43235D02*
X17788Y42945D01*
X17788Y43235D02*
X17868Y43235D01*
X17885Y43233D01*
X17901Y43228D01*
X17916Y43220D01*
X17928Y43208D01*
X17938Y43195D01*
X17945Y43179D01*
X17949Y43162D01*
X17949Y43146D01*
X17945Y43129D01*
X17938Y43114D01*
X17928Y43100D01*
X17916Y43088D01*
X17901Y43080D01*
X17885Y43075D01*
X17868Y43073D01*
X17868Y43074D02*
X17788Y43074D01*
X17885Y43074D02*
X17949Y42945D01*
X18074Y43203D02*
X18074Y43235D01*
X18235Y43235D01*
X18154Y42945D01*
D15*
X6750Y38250D02*
X2500Y38250D01*
X2500Y41750D02*
X6750Y41750D01*
X1400Y39500D02*
X1400Y39100D01*
X2500Y41000D02*
X2500Y41750D01*
X1400Y40500D02*
X-2050Y39650D01*
X1400Y40500D02*
X1400Y40900D01*
X1400Y39500D02*
X-2050Y38650D01*
X1400Y39500D02*
X1400Y40500D01*
X-2050Y39650D02*
X-2094Y39648D01*
X-2137Y39642D01*
X-2179Y39633D01*
X-2221Y39620D01*
X-2261Y39603D01*
X-2300Y39583D01*
X-2337Y39560D01*
X-2371Y39533D01*
X-2404Y39504D01*
X-2433Y39471D01*
X-2460Y39437D01*
X-2483Y39400D01*
X-2503Y39361D01*
X-2520Y39321D01*
X-2533Y39279D01*
X-2542Y39237D01*
X-2548Y39194D01*
X-2550Y39150D01*
X-2548Y39106D01*
X-2542Y39063D01*
X-2533Y39021D01*
X-2520Y38979D01*
X-2503Y38939D01*
X-2483Y38900D01*
X-2460Y38863D01*
X-2433Y38829D01*
X-2404Y38796D01*
X-2371Y38767D01*
X-2337Y38740D01*
X-2300Y38717D01*
X-2261Y38697D01*
X-2221Y38680D01*
X-2179Y38667D01*
X-2137Y38658D01*
X-2094Y38652D01*
X-2050Y38650D01*
X1400Y39100D02*
X1500Y39000D01*
X2500Y39000D01*
X2500Y38250D01*
X1400Y40900D02*
X1500Y41000D01*
X2500Y41000D01*
X2500Y39000D01*
X1500Y39000D02*
X1500Y41000D01*
X6750Y38700D02*
X6750Y38250D01*
X6750Y39300D02*
X6750Y39700D01*
X6750Y41300D02*
X6750Y41750D01*
X6750Y40700D02*
X6750Y40300D01*
X3330Y42150D02*
X3328Y42129D01*
X3323Y42109D01*
X3314Y42090D01*
X3302Y42073D01*
X3287Y42058D01*
X3270Y42046D01*
X3251Y42037D01*
X3231Y42032D01*
X3210Y42030D01*
X3181Y42032D01*
X3153Y42036D01*
X3126Y42044D01*
X3099Y42055D01*
X3074Y42069D01*
X3051Y42086D01*
X3030Y42105D01*
X3045Y42450D02*
X3047Y42471D01*
X3052Y42491D01*
X3061Y42510D01*
X3073Y42527D01*
X3088Y42542D01*
X3105Y42554D01*
X3124Y42563D01*
X3144Y42568D01*
X3165Y42570D01*
X3194Y42568D01*
X3222Y42563D01*
X3250Y42553D01*
X3276Y42541D01*
X3300Y42525D01*
X3045Y42450D02*
X3047Y42429D01*
X3052Y42409D01*
X3061Y42389D01*
X3073Y42372D01*
X3088Y42357D01*
X3105Y42345D01*
X3270Y42255D02*
X3287Y42243D01*
X3302Y42228D01*
X3314Y42211D01*
X3323Y42191D01*
X3328Y42171D01*
X3330Y42150D01*
X3270Y42255D02*
X3105Y42345D01*
X3551Y42450D02*
X3701Y42570D01*
X3701Y42030D01*
X3551Y42030D02*
X3851Y42030D01*
X4090Y42030D02*
X4240Y42030D01*
X4263Y42032D01*
X4286Y42037D01*
X4308Y42046D01*
X4328Y42059D01*
X4346Y42074D01*
X4361Y42092D01*
X4374Y42112D01*
X4383Y42134D01*
X4388Y42157D01*
X4390Y42180D01*
X4388Y42203D01*
X4383Y42226D01*
X4374Y42248D01*
X4361Y42268D01*
X4346Y42286D01*
X4328Y42301D01*
X4308Y42314D01*
X4286Y42323D01*
X4263Y42328D01*
X4240Y42330D01*
X4270Y42570D02*
X4090Y42570D01*
X4270Y42570D02*
X4291Y42568D01*
X4311Y42563D01*
X4330Y42554D01*
X4347Y42542D01*
X4362Y42527D01*
X4374Y42510D01*
X4383Y42491D01*
X4388Y42471D01*
X4390Y42450D01*
X4388Y42429D01*
X4383Y42409D01*
X4374Y42390D01*
X4362Y42373D01*
X4347Y42358D01*
X4330Y42346D01*
X4311Y42337D01*
X4291Y42332D01*
X4270Y42330D01*
X4150Y42330D01*
D14*
X5000Y36200D02*
X5000Y35800D01*
D10*
X5038Y35485D02*
X5038Y35195D01*
X5038Y35485D02*
X5118Y35485D01*
X5135Y35483D01*
X5151Y35478D01*
X5166Y35470D01*
X5178Y35458D01*
X5188Y35445D01*
X5195Y35429D01*
X5199Y35412D01*
X5199Y35396D01*
X5195Y35379D01*
X5188Y35364D01*
X5178Y35350D01*
X5166Y35338D01*
X5151Y35330D01*
X5135Y35325D01*
X5118Y35323D01*
X5118Y35324D02*
X5038Y35324D01*
X5135Y35324D02*
X5199Y35195D01*
X5323Y35276D02*
X5325Y35293D01*
X5330Y35309D01*
X5338Y35324D01*
X5350Y35336D01*
X5364Y35346D01*
X5379Y35353D01*
X5396Y35357D01*
X5412Y35357D01*
X5429Y35353D01*
X5445Y35346D01*
X5458Y35336D01*
X5470Y35324D01*
X5478Y35309D01*
X5483Y35293D01*
X5485Y35276D01*
X5483Y35259D01*
X5478Y35243D01*
X5470Y35228D01*
X5458Y35216D01*
X5445Y35206D01*
X5429Y35199D01*
X5412Y35195D01*
X5396Y35195D01*
X5379Y35199D01*
X5364Y35206D01*
X5350Y35216D01*
X5338Y35228D01*
X5330Y35243D01*
X5325Y35259D01*
X5323Y35276D01*
X5340Y35421D02*
X5342Y35435D01*
X5346Y35449D01*
X5354Y35461D01*
X5364Y35471D01*
X5376Y35479D01*
X5390Y35483D01*
X5404Y35485D01*
X5418Y35483D01*
X5432Y35479D01*
X5444Y35471D01*
X5454Y35461D01*
X5462Y35449D01*
X5466Y35435D01*
X5468Y35421D01*
X5466Y35407D01*
X5462Y35393D01*
X5454Y35381D01*
X5444Y35371D01*
X5432Y35363D01*
X5418Y35359D01*
X5404Y35357D01*
X5390Y35359D01*
X5376Y35363D01*
X5364Y35371D01*
X5354Y35381D01*
X5346Y35393D01*
X5342Y35407D01*
X5340Y35421D01*
D15*
X14500Y38250D02*
X18750Y38250D01*
X18750Y41750D02*
X14500Y41750D01*
X13400Y39500D02*
X13400Y39100D01*
X14500Y41000D02*
X14500Y41750D01*
X13400Y40500D02*
X9950Y39650D01*
X13400Y40500D02*
X13400Y40900D01*
X13400Y39500D02*
X9950Y38650D01*
X13400Y39500D02*
X13400Y40500D01*
X9950Y39650D02*
X9906Y39648D01*
X9863Y39642D01*
X9821Y39633D01*
X9779Y39620D01*
X9739Y39603D01*
X9700Y39583D01*
X9663Y39560D01*
X9629Y39533D01*
X9596Y39504D01*
X9567Y39471D01*
X9540Y39437D01*
X9517Y39400D01*
X9497Y39361D01*
X9480Y39321D01*
X9467Y39279D01*
X9458Y39237D01*
X9452Y39194D01*
X9450Y39150D01*
X9452Y39106D01*
X9458Y39063D01*
X9467Y39021D01*
X9480Y38979D01*
X9497Y38939D01*
X9517Y38900D01*
X9540Y38863D01*
X9567Y38829D01*
X9596Y38796D01*
X9629Y38767D01*
X9663Y38740D01*
X9700Y38717D01*
X9739Y38697D01*
X9779Y38680D01*
X9821Y38667D01*
X9863Y38658D01*
X9906Y38652D01*
X9950Y38650D01*
X13400Y39100D02*
X13500Y39000D01*
X14500Y39000D01*
X14500Y38250D01*
X13400Y40900D02*
X13500Y41000D01*
X14500Y41000D01*
X14500Y39000D01*
X13500Y39000D02*
X13500Y41000D01*
X18750Y38700D02*
X18750Y38250D01*
X18750Y39300D02*
X18750Y39700D01*
X18750Y41300D02*
X18750Y41750D01*
X18750Y40700D02*
X18750Y40300D01*
X13830Y42150D02*
X13828Y42129D01*
X13823Y42109D01*
X13814Y42090D01*
X13802Y42073D01*
X13787Y42058D01*
X13770Y42046D01*
X13751Y42037D01*
X13731Y42032D01*
X13710Y42030D01*
X13681Y42032D01*
X13653Y42036D01*
X13626Y42044D01*
X13599Y42055D01*
X13574Y42069D01*
X13551Y42086D01*
X13530Y42105D01*
X13545Y42450D02*
X13547Y42471D01*
X13552Y42491D01*
X13561Y42510D01*
X13573Y42527D01*
X13588Y42542D01*
X13605Y42554D01*
X13624Y42563D01*
X13644Y42568D01*
X13665Y42570D01*
X13694Y42568D01*
X13722Y42563D01*
X13750Y42553D01*
X13776Y42541D01*
X13800Y42525D01*
X13545Y42450D02*
X13547Y42429D01*
X13552Y42409D01*
X13561Y42389D01*
X13573Y42372D01*
X13588Y42357D01*
X13605Y42345D01*
X13770Y42255D02*
X13787Y42243D01*
X13802Y42228D01*
X13814Y42211D01*
X13823Y42191D01*
X13828Y42171D01*
X13830Y42150D01*
X13770Y42255D02*
X13605Y42345D01*
X14216Y42570D02*
X14237Y42568D01*
X14258Y42563D01*
X14277Y42555D01*
X14295Y42544D01*
X14311Y42530D01*
X14325Y42514D01*
X14336Y42496D01*
X14344Y42477D01*
X14349Y42456D01*
X14351Y42435D01*
X14216Y42570D02*
X14192Y42568D01*
X14168Y42563D01*
X14146Y42555D01*
X14124Y42544D01*
X14105Y42529D01*
X14087Y42513D01*
X14073Y42494D01*
X14060Y42473D01*
X14051Y42450D01*
X14306Y42330D02*
X14322Y42347D01*
X14334Y42367D01*
X14343Y42389D01*
X14349Y42412D01*
X14351Y42435D01*
X14306Y42330D02*
X14051Y42030D01*
X14351Y42030D01*
D14*
X17000Y35700D02*
X17000Y35300D01*
D10*
X17038Y34985D02*
X17038Y34695D01*
X17038Y34985D02*
X17118Y34985D01*
X17135Y34983D01*
X17151Y34978D01*
X17166Y34970D01*
X17178Y34958D01*
X17188Y34945D01*
X17195Y34929D01*
X17199Y34912D01*
X17199Y34896D01*
X17195Y34879D01*
X17188Y34864D01*
X17178Y34850D01*
X17166Y34838D01*
X17151Y34830D01*
X17135Y34825D01*
X17118Y34823D01*
X17118Y34824D02*
X17038Y34824D01*
X17135Y34824D02*
X17199Y34695D01*
X17388Y34824D02*
X17485Y34824D01*
X17388Y34824D02*
X17374Y34826D01*
X17360Y34830D01*
X17348Y34838D01*
X17338Y34848D01*
X17330Y34860D01*
X17326Y34874D01*
X17324Y34888D01*
X17324Y34904D01*
X17323Y34904D02*
X17325Y34921D01*
X17330Y34937D01*
X17338Y34952D01*
X17350Y34964D01*
X17364Y34974D01*
X17379Y34981D01*
X17396Y34985D01*
X17412Y34985D01*
X17429Y34981D01*
X17445Y34974D01*
X17458Y34964D01*
X17470Y34952D01*
X17478Y34937D01*
X17483Y34921D01*
X17485Y34904D01*
X17485Y34824D01*
X17483Y34804D01*
X17479Y34784D01*
X17471Y34765D01*
X17460Y34748D01*
X17447Y34733D01*
X17432Y34720D01*
X17415Y34709D01*
X17396Y34701D01*
X17376Y34697D01*
X17356Y34695D01*
D15*
X6750Y29250D02*
X2500Y29250D01*
X2500Y32750D02*
X6750Y32750D01*
X1400Y30500D02*
X1400Y30100D01*
X2500Y32000D02*
X2500Y32750D01*
X1400Y31500D02*
X-2050Y30650D01*
X1400Y31500D02*
X1400Y31900D01*
X1400Y30500D02*
X-2050Y29650D01*
X1400Y30500D02*
X1400Y31500D01*
X-2050Y30650D02*
X-2094Y30648D01*
X-2137Y30642D01*
X-2179Y30633D01*
X-2221Y30620D01*
X-2261Y30603D01*
X-2300Y30583D01*
X-2337Y30560D01*
X-2371Y30533D01*
X-2404Y30504D01*
X-2433Y30471D01*
X-2460Y30437D01*
X-2483Y30400D01*
X-2503Y30361D01*
X-2520Y30321D01*
X-2533Y30279D01*
X-2542Y30237D01*
X-2548Y30194D01*
X-2550Y30150D01*
X-2548Y30106D01*
X-2542Y30063D01*
X-2533Y30021D01*
X-2520Y29979D01*
X-2503Y29939D01*
X-2483Y29900D01*
X-2460Y29863D01*
X-2433Y29829D01*
X-2404Y29796D01*
X-2371Y29767D01*
X-2337Y29740D01*
X-2300Y29717D01*
X-2261Y29697D01*
X-2221Y29680D01*
X-2179Y29667D01*
X-2137Y29658D01*
X-2094Y29652D01*
X-2050Y29650D01*
X1400Y30100D02*
X1500Y30000D01*
X2500Y30000D01*
X2500Y29250D01*
X1400Y31900D02*
X1500Y32000D01*
X2500Y32000D01*
X2500Y30000D01*
X1500Y30000D02*
X1500Y32000D01*
X6750Y29700D02*
X6750Y29250D01*
X6750Y30300D02*
X6750Y30700D01*
X6750Y32300D02*
X6750Y32750D01*
X6750Y31700D02*
X6750Y31300D01*
X3330Y33150D02*
X3328Y33129D01*
X3323Y33109D01*
X3314Y33090D01*
X3302Y33073D01*
X3287Y33058D01*
X3270Y33046D01*
X3251Y33037D01*
X3231Y33032D01*
X3210Y33030D01*
X3181Y33032D01*
X3153Y33036D01*
X3126Y33044D01*
X3099Y33055D01*
X3074Y33069D01*
X3051Y33086D01*
X3030Y33105D01*
X3045Y33450D02*
X3047Y33471D01*
X3052Y33491D01*
X3061Y33510D01*
X3073Y33527D01*
X3088Y33542D01*
X3105Y33554D01*
X3124Y33563D01*
X3144Y33568D01*
X3165Y33570D01*
X3194Y33568D01*
X3222Y33563D01*
X3250Y33553D01*
X3276Y33541D01*
X3300Y33525D01*
X3045Y33450D02*
X3047Y33429D01*
X3052Y33409D01*
X3061Y33389D01*
X3073Y33372D01*
X3088Y33357D01*
X3105Y33345D01*
X3270Y33255D02*
X3287Y33243D01*
X3302Y33228D01*
X3314Y33211D01*
X3323Y33191D01*
X3328Y33171D01*
X3330Y33150D01*
X3270Y33255D02*
X3105Y33345D01*
X3551Y33330D02*
X3731Y33330D01*
X3752Y33328D01*
X3772Y33323D01*
X3791Y33314D01*
X3808Y33302D01*
X3823Y33287D01*
X3835Y33270D01*
X3844Y33251D01*
X3849Y33231D01*
X3851Y33210D01*
X3851Y33180D01*
X3849Y33157D01*
X3844Y33134D01*
X3835Y33112D01*
X3822Y33092D01*
X3807Y33074D01*
X3789Y33059D01*
X3769Y33046D01*
X3747Y33037D01*
X3724Y33032D01*
X3701Y33030D01*
X3678Y33032D01*
X3655Y33037D01*
X3633Y33046D01*
X3613Y33059D01*
X3595Y33074D01*
X3580Y33092D01*
X3567Y33112D01*
X3558Y33134D01*
X3553Y33157D01*
X3551Y33180D01*
X3551Y33330D01*
X3553Y33359D01*
X3558Y33387D01*
X3567Y33415D01*
X3578Y33442D01*
X3593Y33466D01*
X3611Y33489D01*
X3632Y33510D01*
X3655Y33528D01*
X3679Y33543D01*
X3706Y33554D01*
X3734Y33563D01*
X3762Y33568D01*
X3791Y33570D01*
D14*
X5000Y26200D02*
X5000Y25800D01*
D10*
X4750Y25485D02*
X4750Y25195D01*
X4750Y25485D02*
X4830Y25485D01*
X4847Y25483D01*
X4863Y25478D01*
X4878Y25470D01*
X4890Y25458D01*
X4900Y25445D01*
X4907Y25429D01*
X4911Y25412D01*
X4911Y25396D01*
X4907Y25379D01*
X4900Y25364D01*
X4890Y25350D01*
X4878Y25338D01*
X4863Y25330D01*
X4847Y25325D01*
X4830Y25323D01*
X4830Y25324D02*
X4750Y25324D01*
X4847Y25324D02*
X4911Y25195D01*
X5036Y25421D02*
X5116Y25485D01*
X5116Y25195D01*
X5036Y25195D02*
X5197Y25195D01*
X5324Y25340D02*
X5326Y25367D01*
X5330Y25394D01*
X5338Y25420D01*
X5348Y25445D01*
X5347Y25444D02*
X5354Y25458D01*
X5363Y25469D01*
X5375Y25478D01*
X5389Y25483D01*
X5404Y25485D01*
X5419Y25483D01*
X5433Y25478D01*
X5445Y25469D01*
X5454Y25458D01*
X5461Y25444D01*
X5461Y25445D02*
X5471Y25420D01*
X5479Y25394D01*
X5483Y25367D01*
X5485Y25340D01*
X5324Y25340D02*
X5326Y25313D01*
X5330Y25286D01*
X5338Y25260D01*
X5348Y25235D01*
X5347Y25236D02*
X5354Y25222D01*
X5363Y25211D01*
X5375Y25202D01*
X5389Y25197D01*
X5404Y25195D01*
X5461Y25235D02*
X5471Y25260D01*
X5479Y25286D01*
X5483Y25313D01*
X5485Y25340D01*
X5461Y25236D02*
X5454Y25222D01*
X5445Y25211D01*
X5433Y25202D01*
X5419Y25197D01*
X5404Y25195D01*
X5340Y25259D02*
X5469Y25421D01*
D15*
X14500Y29250D02*
X18750Y29250D01*
X18750Y32750D02*
X14500Y32750D01*
X13400Y30500D02*
X13400Y30100D01*
X14500Y32000D02*
X14500Y32750D01*
X13400Y31500D02*
X9950Y30650D01*
X13400Y31500D02*
X13400Y31900D01*
X13400Y30500D02*
X9950Y29650D01*
X13400Y30500D02*
X13400Y31500D01*
X9950Y30650D02*
X9906Y30648D01*
X9863Y30642D01*
X9821Y30633D01*
X9779Y30620D01*
X9739Y30603D01*
X9700Y30583D01*
X9663Y30560D01*
X9629Y30533D01*
X9596Y30504D01*
X9567Y30471D01*
X9540Y30437D01*
X9517Y30400D01*
X9497Y30361D01*
X9480Y30321D01*
X9467Y30279D01*
X9458Y30237D01*
X9452Y30194D01*
X9450Y30150D01*
X9452Y30106D01*
X9458Y30063D01*
X9467Y30021D01*
X9480Y29979D01*
X9497Y29939D01*
X9517Y29900D01*
X9540Y29863D01*
X9567Y29829D01*
X9596Y29796D01*
X9629Y29767D01*
X9663Y29740D01*
X9700Y29717D01*
X9739Y29697D01*
X9779Y29680D01*
X9821Y29667D01*
X9863Y29658D01*
X9906Y29652D01*
X9950Y29650D01*
X13400Y30100D02*
X13500Y30000D01*
X14500Y30000D01*
X14500Y29250D01*
X13400Y31900D02*
X13500Y32000D01*
X14500Y32000D01*
X14500Y30000D01*
X13500Y30000D02*
X13500Y32000D01*
X18750Y29700D02*
X18750Y29250D01*
X18750Y30300D02*
X18750Y30700D01*
X18750Y32300D02*
X18750Y32750D01*
X18750Y31700D02*
X18750Y31300D01*
X12580Y32650D02*
X12578Y32629D01*
X12573Y32609D01*
X12564Y32590D01*
X12552Y32573D01*
X12537Y32558D01*
X12520Y32546D01*
X12501Y32537D01*
X12481Y32532D01*
X12460Y32530D01*
X12431Y32532D01*
X12403Y32536D01*
X12376Y32544D01*
X12349Y32555D01*
X12324Y32569D01*
X12301Y32586D01*
X12280Y32605D01*
X12295Y32950D02*
X12297Y32971D01*
X12302Y32991D01*
X12311Y33010D01*
X12323Y33027D01*
X12338Y33042D01*
X12355Y33054D01*
X12374Y33063D01*
X12394Y33068D01*
X12415Y33070D01*
X12444Y33068D01*
X12472Y33063D01*
X12500Y33053D01*
X12526Y33041D01*
X12550Y33025D01*
X12295Y32950D02*
X12297Y32929D01*
X12302Y32909D01*
X12311Y32889D01*
X12323Y32872D01*
X12338Y32857D01*
X12355Y32845D01*
X12520Y32755D02*
X12537Y32743D01*
X12552Y32728D01*
X12564Y32711D01*
X12573Y32691D01*
X12578Y32671D01*
X12580Y32650D01*
X12520Y32755D02*
X12355Y32845D01*
X12801Y32950D02*
X12951Y33070D01*
X12951Y32530D01*
X12801Y32530D02*
X13101Y32530D01*
X13340Y32800D02*
X13342Y32840D01*
X13347Y32880D01*
X13356Y32920D01*
X13369Y32958D01*
X13385Y32995D01*
X13393Y33013D01*
X13404Y33029D01*
X13418Y33043D01*
X13434Y33055D01*
X13451Y33063D01*
X13470Y33068D01*
X13490Y33070D01*
X13510Y33068D01*
X13529Y33063D01*
X13546Y33055D01*
X13562Y33043D01*
X13576Y33029D01*
X13587Y33013D01*
X13595Y32995D01*
X13611Y32958D01*
X13624Y32920D01*
X13633Y32880D01*
X13638Y32840D01*
X13640Y32800D01*
X13340Y32800D02*
X13342Y32760D01*
X13347Y32720D01*
X13356Y32680D01*
X13369Y32642D01*
X13385Y32605D01*
X13393Y32587D01*
X13404Y32571D01*
X13418Y32557D01*
X13434Y32545D01*
X13451Y32537D01*
X13470Y32532D01*
X13490Y32530D01*
X13595Y32605D02*
X13611Y32642D01*
X13624Y32680D01*
X13633Y32720D01*
X13638Y32760D01*
X13640Y32800D01*
X13595Y32605D02*
X13587Y32587D01*
X13576Y32571D01*
X13562Y32557D01*
X13546Y32545D01*
X13529Y32537D01*
X13510Y32532D01*
X13490Y32530D01*
X13370Y32650D02*
X13610Y32950D01*
D14*
X17000Y25700D02*
X17000Y25300D01*
D10*
X16750Y24985D02*
X16750Y24695D01*
X16750Y24985D02*
X16830Y24985D01*
X16847Y24983D01*
X16863Y24978D01*
X16878Y24970D01*
X16890Y24958D01*
X16900Y24945D01*
X16907Y24929D01*
X16911Y24912D01*
X16911Y24896D01*
X16907Y24879D01*
X16900Y24864D01*
X16890Y24850D01*
X16878Y24838D01*
X16863Y24830D01*
X16847Y24825D01*
X16830Y24823D01*
X16830Y24824D02*
X16750Y24824D01*
X16847Y24824D02*
X16911Y24695D01*
X17036Y24921D02*
X17116Y24985D01*
X17116Y24695D01*
X17036Y24695D02*
X17197Y24695D01*
X17324Y24921D02*
X17404Y24985D01*
X17404Y24695D01*
X17324Y24695D02*
X17485Y24695D01*
D15*
X6750Y19250D02*
X2500Y19250D01*
X2500Y22750D02*
X6750Y22750D01*
X1400Y20500D02*
X1400Y20100D01*
X2500Y22000D02*
X2500Y22750D01*
X1400Y21500D02*
X-2050Y20650D01*
X1400Y21500D02*
X1400Y21900D01*
X1400Y20500D02*
X-2050Y19650D01*
X1400Y20500D02*
X1400Y21500D01*
X-2050Y20650D02*
X-2094Y20648D01*
X-2137Y20642D01*
X-2179Y20633D01*
X-2221Y20620D01*
X-2261Y20603D01*
X-2300Y20583D01*
X-2337Y20560D01*
X-2371Y20533D01*
X-2404Y20504D01*
X-2433Y20471D01*
X-2460Y20437D01*
X-2483Y20400D01*
X-2503Y20361D01*
X-2520Y20321D01*
X-2533Y20279D01*
X-2542Y20237D01*
X-2548Y20194D01*
X-2550Y20150D01*
X-2548Y20106D01*
X-2542Y20063D01*
X-2533Y20021D01*
X-2520Y19979D01*
X-2503Y19939D01*
X-2483Y19900D01*
X-2460Y19863D01*
X-2433Y19829D01*
X-2404Y19796D01*
X-2371Y19767D01*
X-2337Y19740D01*
X-2300Y19717D01*
X-2261Y19697D01*
X-2221Y19680D01*
X-2179Y19667D01*
X-2137Y19658D01*
X-2094Y19652D01*
X-2050Y19650D01*
X1400Y20100D02*
X1500Y20000D01*
X2500Y20000D01*
X2500Y19250D01*
X1400Y21900D02*
X1500Y22000D01*
X2500Y22000D01*
X2500Y20000D01*
X1500Y20000D02*
X1500Y22000D01*
X6750Y19700D02*
X6750Y19250D01*
X6750Y20300D02*
X6750Y20700D01*
X6750Y22300D02*
X6750Y22750D01*
X6750Y21700D02*
X6750Y21300D01*
X3330Y23150D02*
X3328Y23129D01*
X3323Y23109D01*
X3314Y23090D01*
X3302Y23073D01*
X3287Y23058D01*
X3270Y23046D01*
X3251Y23037D01*
X3231Y23032D01*
X3210Y23030D01*
X3181Y23032D01*
X3153Y23036D01*
X3126Y23044D01*
X3099Y23055D01*
X3074Y23069D01*
X3051Y23086D01*
X3030Y23105D01*
X3045Y23450D02*
X3047Y23471D01*
X3052Y23491D01*
X3061Y23510D01*
X3073Y23527D01*
X3088Y23542D01*
X3105Y23554D01*
X3124Y23563D01*
X3144Y23568D01*
X3165Y23570D01*
X3194Y23568D01*
X3222Y23563D01*
X3250Y23553D01*
X3276Y23541D01*
X3300Y23525D01*
X3045Y23450D02*
X3047Y23429D01*
X3052Y23409D01*
X3061Y23389D01*
X3073Y23372D01*
X3088Y23357D01*
X3105Y23345D01*
X3270Y23255D02*
X3287Y23243D01*
X3302Y23228D01*
X3314Y23211D01*
X3323Y23191D01*
X3328Y23171D01*
X3330Y23150D01*
X3270Y23255D02*
X3105Y23345D01*
X3551Y23450D02*
X3701Y23570D01*
X3701Y23030D01*
X3551Y23030D02*
X3851Y23030D01*
X4090Y23450D02*
X4240Y23570D01*
X4240Y23030D01*
X4090Y23030D02*
X4390Y23030D01*
D14*
X5000Y17200D02*
X5000Y16800D01*
D10*
X4750Y16485D02*
X4750Y16195D01*
X4750Y16485D02*
X4830Y16485D01*
X4847Y16483D01*
X4863Y16478D01*
X4878Y16470D01*
X4890Y16458D01*
X4900Y16445D01*
X4907Y16429D01*
X4911Y16412D01*
X4911Y16396D01*
X4907Y16379D01*
X4900Y16364D01*
X4890Y16350D01*
X4878Y16338D01*
X4863Y16330D01*
X4847Y16325D01*
X4830Y16323D01*
X4830Y16324D02*
X4750Y16324D01*
X4847Y16324D02*
X4911Y16195D01*
X5036Y16421D02*
X5116Y16485D01*
X5116Y16195D01*
X5036Y16195D02*
X5197Y16195D01*
X5486Y16413D02*
X5484Y16429D01*
X5479Y16445D01*
X5470Y16459D01*
X5459Y16470D01*
X5445Y16479D01*
X5429Y16484D01*
X5413Y16486D01*
X5413Y16485D02*
X5396Y16484D01*
X5380Y16479D01*
X5365Y16472D01*
X5352Y16462D01*
X5340Y16450D01*
X5331Y16436D01*
X5325Y16421D01*
X5461Y16357D02*
X5471Y16368D01*
X5479Y16382D01*
X5483Y16397D01*
X5485Y16413D01*
X5461Y16356D02*
X5324Y16195D01*
X5485Y16195D01*
D15*
X14500Y19250D02*
X18750Y19250D01*
X18750Y22750D02*
X14500Y22750D01*
X13400Y20500D02*
X13400Y20100D01*
X14500Y22000D02*
X14500Y22750D01*
X13400Y21500D02*
X9950Y20650D01*
X13400Y21500D02*
X13400Y21900D01*
X13400Y20500D02*
X9950Y19650D01*
X13400Y20500D02*
X13400Y21500D01*
X9950Y20650D02*
X9906Y20648D01*
X9863Y20642D01*
X9821Y20633D01*
X9779Y20620D01*
X9739Y20603D01*
X9700Y20583D01*
X9663Y20560D01*
X9629Y20533D01*
X9596Y20504D01*
X9567Y20471D01*
X9540Y20437D01*
X9517Y20400D01*
X9497Y20361D01*
X9480Y20321D01*
X9467Y20279D01*
X9458Y20237D01*
X9452Y20194D01*
X9450Y20150D01*
X9452Y20106D01*
X9458Y20063D01*
X9467Y20021D01*
X9480Y19979D01*
X9497Y19939D01*
X9517Y19900D01*
X9540Y19863D01*
X9567Y19829D01*
X9596Y19796D01*
X9629Y19767D01*
X9663Y19740D01*
X9700Y19717D01*
X9739Y19697D01*
X9779Y19680D01*
X9821Y19667D01*
X9863Y19658D01*
X9906Y19652D01*
X9950Y19650D01*
X13400Y20100D02*
X13500Y20000D01*
X14500Y20000D01*
X14500Y19250D01*
X13400Y21900D02*
X13500Y22000D01*
X14500Y22000D01*
X14500Y20000D01*
X13500Y20000D02*
X13500Y22000D01*
X18750Y19700D02*
X18750Y19250D01*
X18750Y20300D02*
X18750Y20700D01*
X18750Y22300D02*
X18750Y22750D01*
X18750Y21700D02*
X18750Y21300D01*
X12330Y22400D02*
X12328Y22379D01*
X12323Y22359D01*
X12314Y22340D01*
X12302Y22323D01*
X12287Y22308D01*
X12270Y22296D01*
X12251Y22287D01*
X12231Y22282D01*
X12210Y22280D01*
X12181Y22282D01*
X12153Y22286D01*
X12126Y22294D01*
X12099Y22305D01*
X12074Y22319D01*
X12051Y22336D01*
X12030Y22355D01*
X12045Y22700D02*
X12047Y22721D01*
X12052Y22741D01*
X12061Y22760D01*
X12073Y22777D01*
X12088Y22792D01*
X12105Y22804D01*
X12124Y22813D01*
X12144Y22818D01*
X12165Y22820D01*
X12194Y22818D01*
X12222Y22813D01*
X12250Y22803D01*
X12276Y22791D01*
X12300Y22775D01*
X12045Y22700D02*
X12047Y22679D01*
X12052Y22659D01*
X12061Y22639D01*
X12073Y22622D01*
X12088Y22607D01*
X12105Y22595D01*
X12270Y22505D02*
X12287Y22493D01*
X12302Y22478D01*
X12314Y22461D01*
X12323Y22441D01*
X12328Y22421D01*
X12330Y22400D01*
X12270Y22505D02*
X12105Y22595D01*
X12551Y22700D02*
X12701Y22820D01*
X12701Y22280D01*
X12551Y22280D02*
X12851Y22280D01*
X13090Y22400D02*
X13210Y22820D01*
X13090Y22400D02*
X13390Y22400D01*
X13300Y22520D02*
X13300Y22280D01*
D14*
X17500Y16700D02*
X17500Y16300D01*
D10*
X17250Y15985D02*
X17250Y15695D01*
X17250Y15985D02*
X17330Y15985D01*
X17347Y15983D01*
X17363Y15978D01*
X17378Y15970D01*
X17390Y15958D01*
X17400Y15945D01*
X17407Y15929D01*
X17411Y15912D01*
X17411Y15896D01*
X17407Y15879D01*
X17400Y15864D01*
X17390Y15850D01*
X17378Y15838D01*
X17363Y15830D01*
X17347Y15825D01*
X17330Y15823D01*
X17330Y15824D02*
X17250Y15824D01*
X17347Y15824D02*
X17411Y15695D01*
X17536Y15921D02*
X17616Y15985D01*
X17616Y15695D01*
X17536Y15695D02*
X17697Y15695D01*
X17824Y15695D02*
X17904Y15695D01*
X17921Y15697D01*
X17937Y15702D01*
X17952Y15710D01*
X17964Y15722D01*
X17974Y15736D01*
X17981Y15751D01*
X17985Y15768D01*
X17985Y15784D01*
X17981Y15801D01*
X17974Y15817D01*
X17964Y15830D01*
X17952Y15842D01*
X17937Y15850D01*
X17921Y15855D01*
X17904Y15857D01*
X17921Y15985D02*
X17824Y15985D01*
X17921Y15985D02*
X17935Y15983D01*
X17949Y15979D01*
X17961Y15971D01*
X17971Y15961D01*
X17979Y15949D01*
X17983Y15935D01*
X17985Y15921D01*
X17983Y15907D01*
X17979Y15893D01*
X17971Y15881D01*
X17961Y15871D01*
X17949Y15863D01*
X17935Y15859D01*
X17921Y15857D01*
X17921Y15856D02*
X17856Y15856D01*
D15*
X89500Y50250D02*
X93750Y50250D01*
X93750Y53750D02*
X89500Y53750D01*
X88400Y51500D02*
X88400Y51100D01*
X89500Y53000D02*
X89500Y53750D01*
X88400Y52500D02*
X84950Y51650D01*
X88400Y52500D02*
X88400Y52900D01*
X88400Y51500D02*
X84950Y50650D01*
X88400Y51500D02*
X88400Y52500D01*
X84950Y51650D02*
X84906Y51648D01*
X84863Y51642D01*
X84821Y51633D01*
X84779Y51620D01*
X84739Y51603D01*
X84700Y51583D01*
X84663Y51560D01*
X84629Y51533D01*
X84596Y51504D01*
X84567Y51471D01*
X84540Y51437D01*
X84517Y51400D01*
X84497Y51361D01*
X84480Y51321D01*
X84467Y51279D01*
X84458Y51237D01*
X84452Y51194D01*
X84450Y51150D01*
X84452Y51106D01*
X84458Y51063D01*
X84467Y51021D01*
X84480Y50979D01*
X84497Y50939D01*
X84517Y50900D01*
X84540Y50863D01*
X84567Y50829D01*
X84596Y50796D01*
X84629Y50767D01*
X84663Y50740D01*
X84700Y50717D01*
X84739Y50697D01*
X84779Y50680D01*
X84821Y50667D01*
X84863Y50658D01*
X84906Y50652D01*
X84950Y50650D01*
X88400Y51100D02*
X88500Y51000D01*
X89500Y51000D01*
X89500Y50250D01*
X88400Y52900D02*
X88500Y53000D01*
X89500Y53000D01*
X89500Y51000D01*
X88500Y51000D02*
X88500Y53000D01*
X93750Y50700D02*
X93750Y50250D01*
X93750Y51300D02*
X93750Y51700D01*
X93750Y53300D02*
X93750Y53750D01*
X93750Y52700D02*
X93750Y52300D01*
X90330Y54150D02*
X90328Y54129D01*
X90323Y54109D01*
X90314Y54090D01*
X90302Y54073D01*
X90287Y54058D01*
X90270Y54046D01*
X90251Y54037D01*
X90231Y54032D01*
X90210Y54030D01*
X90181Y54032D01*
X90153Y54036D01*
X90126Y54044D01*
X90099Y54055D01*
X90074Y54069D01*
X90051Y54086D01*
X90030Y54105D01*
X90045Y54450D02*
X90047Y54471D01*
X90052Y54491D01*
X90061Y54510D01*
X90073Y54527D01*
X90088Y54542D01*
X90105Y54554D01*
X90124Y54563D01*
X90144Y54568D01*
X90165Y54570D01*
X90194Y54568D01*
X90222Y54563D01*
X90250Y54553D01*
X90276Y54541D01*
X90300Y54525D01*
X90045Y54450D02*
X90047Y54429D01*
X90052Y54409D01*
X90061Y54389D01*
X90073Y54372D01*
X90088Y54357D01*
X90105Y54345D01*
X90270Y54255D02*
X90287Y54243D01*
X90302Y54228D01*
X90314Y54211D01*
X90323Y54191D01*
X90328Y54171D01*
X90330Y54150D01*
X90270Y54255D02*
X90105Y54345D01*
X90551Y54450D02*
X90701Y54570D01*
X90701Y54030D01*
X90551Y54030D02*
X90851Y54030D01*
D14*
X96500Y52200D02*
X96500Y51800D01*
D10*
X96015Y52515D02*
X96015Y52805D01*
X96096Y52805D01*
X96113Y52803D01*
X96129Y52798D01*
X96144Y52790D01*
X96156Y52778D01*
X96166Y52765D01*
X96173Y52749D01*
X96177Y52732D01*
X96177Y52716D01*
X96173Y52699D01*
X96166Y52684D01*
X96156Y52670D01*
X96144Y52658D01*
X96129Y52650D01*
X96113Y52645D01*
X96096Y52643D01*
X96096Y52644D02*
X96015Y52644D01*
X96112Y52644D02*
X96176Y52515D01*
X96301Y52741D02*
X96382Y52805D01*
X96382Y52515D01*
X96462Y52515D02*
X96301Y52515D01*
X96589Y52579D02*
X96653Y52805D01*
X96589Y52579D02*
X96750Y52579D01*
X96702Y52644D02*
X96702Y52515D01*
D15*
X88750Y40250D02*
X84500Y40250D01*
X84500Y43750D02*
X88750Y43750D01*
X83400Y41500D02*
X83400Y41100D01*
X84500Y43000D02*
X84500Y43750D01*
X83400Y42500D02*
X79950Y41650D01*
X83400Y42500D02*
X83400Y42900D01*
X83400Y41500D02*
X79950Y40650D01*
X83400Y41500D02*
X83400Y42500D01*
X79950Y41650D02*
X79906Y41648D01*
X79863Y41642D01*
X79821Y41633D01*
X79779Y41620D01*
X79739Y41603D01*
X79700Y41583D01*
X79663Y41560D01*
X79629Y41533D01*
X79596Y41504D01*
X79567Y41471D01*
X79540Y41437D01*
X79517Y41400D01*
X79497Y41361D01*
X79480Y41321D01*
X79467Y41279D01*
X79458Y41237D01*
X79452Y41194D01*
X79450Y41150D01*
X79452Y41106D01*
X79458Y41063D01*
X79467Y41021D01*
X79480Y40979D01*
X79497Y40939D01*
X79517Y40900D01*
X79540Y40863D01*
X79567Y40829D01*
X79596Y40796D01*
X79629Y40767D01*
X79663Y40740D01*
X79700Y40717D01*
X79739Y40697D01*
X79779Y40680D01*
X79821Y40667D01*
X79863Y40658D01*
X79906Y40652D01*
X79950Y40650D01*
X83400Y41100D02*
X83500Y41000D01*
X84500Y41000D01*
X84500Y40250D01*
X83400Y42900D02*
X83500Y43000D01*
X84500Y43000D01*
X84500Y41000D01*
X83500Y41000D02*
X83500Y43000D01*
X88750Y40700D02*
X88750Y40250D01*
X88750Y41300D02*
X88750Y41700D01*
X88750Y43300D02*
X88750Y43750D01*
X88750Y42700D02*
X88750Y42300D01*
X85330Y44150D02*
X85328Y44129D01*
X85323Y44109D01*
X85314Y44090D01*
X85302Y44073D01*
X85287Y44058D01*
X85270Y44046D01*
X85251Y44037D01*
X85231Y44032D01*
X85210Y44030D01*
X85181Y44032D01*
X85153Y44036D01*
X85126Y44044D01*
X85099Y44055D01*
X85074Y44069D01*
X85051Y44086D01*
X85030Y44105D01*
X85045Y44450D02*
X85047Y44471D01*
X85052Y44491D01*
X85061Y44510D01*
X85073Y44527D01*
X85088Y44542D01*
X85105Y44554D01*
X85124Y44563D01*
X85144Y44568D01*
X85165Y44570D01*
X85194Y44568D01*
X85222Y44563D01*
X85250Y44553D01*
X85276Y44541D01*
X85300Y44525D01*
X85045Y44450D02*
X85047Y44429D01*
X85052Y44409D01*
X85061Y44389D01*
X85073Y44372D01*
X85088Y44357D01*
X85105Y44345D01*
X85270Y44255D02*
X85287Y44243D01*
X85302Y44228D01*
X85314Y44211D01*
X85323Y44191D01*
X85328Y44171D01*
X85330Y44150D01*
X85270Y44255D02*
X85105Y44345D01*
X85551Y44510D02*
X85551Y44570D01*
X85851Y44570D01*
X85701Y44030D01*
D14*
X90000Y39200D02*
X90000Y38800D01*
D10*
X89515Y39515D02*
X89515Y39805D01*
X89596Y39805D01*
X89613Y39803D01*
X89629Y39798D01*
X89644Y39790D01*
X89656Y39778D01*
X89666Y39765D01*
X89673Y39749D01*
X89677Y39732D01*
X89677Y39716D01*
X89673Y39699D01*
X89666Y39684D01*
X89656Y39670D01*
X89644Y39658D01*
X89629Y39650D01*
X89613Y39645D01*
X89596Y39643D01*
X89596Y39644D02*
X89515Y39644D01*
X89612Y39644D02*
X89676Y39515D01*
X89801Y39741D02*
X89882Y39805D01*
X89882Y39515D01*
X89962Y39515D02*
X89801Y39515D01*
X90089Y39515D02*
X90186Y39515D01*
X90200Y39517D01*
X90214Y39521D01*
X90226Y39529D01*
X90236Y39539D01*
X90244Y39551D01*
X90248Y39565D01*
X90250Y39579D01*
X90250Y39612D01*
X90248Y39626D01*
X90244Y39640D01*
X90236Y39652D01*
X90226Y39662D01*
X90214Y39670D01*
X90200Y39674D01*
X90186Y39676D01*
X90089Y39676D01*
X90089Y39805D01*
X90250Y39805D01*
D15*
X94500Y40250D02*
X98750Y40250D01*
X98750Y43750D02*
X94500Y43750D01*
X93400Y41500D02*
X93400Y41100D01*
X94500Y43000D02*
X94500Y43750D01*
X93400Y42500D02*
X89950Y41650D01*
X93400Y42500D02*
X93400Y42900D01*
X93400Y41500D02*
X89950Y40650D01*
X93400Y41500D02*
X93400Y42500D01*
X89950Y41650D02*
X89906Y41648D01*
X89863Y41642D01*
X89821Y41633D01*
X89779Y41620D01*
X89739Y41603D01*
X89700Y41583D01*
X89663Y41560D01*
X89629Y41533D01*
X89596Y41504D01*
X89567Y41471D01*
X89540Y41437D01*
X89517Y41400D01*
X89497Y41361D01*
X89480Y41321D01*
X89467Y41279D01*
X89458Y41237D01*
X89452Y41194D01*
X89450Y41150D01*
X89452Y41106D01*
X89458Y41063D01*
X89467Y41021D01*
X89480Y40979D01*
X89497Y40939D01*
X89517Y40900D01*
X89540Y40863D01*
X89567Y40829D01*
X89596Y40796D01*
X89629Y40767D01*
X89663Y40740D01*
X89700Y40717D01*
X89739Y40697D01*
X89779Y40680D01*
X89821Y40667D01*
X89863Y40658D01*
X89906Y40652D01*
X89950Y40650D01*
X93400Y41100D02*
X93500Y41000D01*
X94500Y41000D01*
X94500Y40250D01*
X93400Y42900D02*
X93500Y43000D01*
X94500Y43000D01*
X94500Y41000D01*
X93500Y41000D02*
X93500Y43000D01*
X98750Y40700D02*
X98750Y40250D01*
X98750Y41300D02*
X98750Y41700D01*
X98750Y43300D02*
X98750Y43750D01*
X98750Y42700D02*
X98750Y42300D01*
X95330Y44150D02*
X95328Y44129D01*
X95323Y44109D01*
X95314Y44090D01*
X95302Y44073D01*
X95287Y44058D01*
X95270Y44046D01*
X95251Y44037D01*
X95231Y44032D01*
X95210Y44030D01*
X95181Y44032D01*
X95153Y44036D01*
X95126Y44044D01*
X95099Y44055D01*
X95074Y44069D01*
X95051Y44086D01*
X95030Y44105D01*
X95045Y44450D02*
X95047Y44471D01*
X95052Y44491D01*
X95061Y44510D01*
X95073Y44527D01*
X95088Y44542D01*
X95105Y44554D01*
X95124Y44563D01*
X95144Y44568D01*
X95165Y44570D01*
X95194Y44568D01*
X95222Y44563D01*
X95250Y44553D01*
X95276Y44541D01*
X95300Y44525D01*
X95045Y44450D02*
X95047Y44429D01*
X95052Y44409D01*
X95061Y44389D01*
X95073Y44372D01*
X95088Y44357D01*
X95105Y44345D01*
X95270Y44255D02*
X95287Y44243D01*
X95302Y44228D01*
X95314Y44211D01*
X95323Y44191D01*
X95328Y44171D01*
X95330Y44150D01*
X95270Y44255D02*
X95105Y44345D01*
X95551Y44180D02*
X95553Y44203D01*
X95558Y44226D01*
X95567Y44248D01*
X95580Y44268D01*
X95595Y44286D01*
X95613Y44301D01*
X95633Y44314D01*
X95655Y44323D01*
X95678Y44328D01*
X95701Y44330D01*
X95724Y44328D01*
X95747Y44323D01*
X95769Y44314D01*
X95789Y44301D01*
X95807Y44286D01*
X95822Y44268D01*
X95835Y44248D01*
X95844Y44226D01*
X95849Y44203D01*
X95851Y44180D01*
X95849Y44157D01*
X95844Y44134D01*
X95835Y44112D01*
X95822Y44092D01*
X95807Y44074D01*
X95789Y44059D01*
X95769Y44046D01*
X95747Y44037D01*
X95724Y44032D01*
X95701Y44030D01*
X95678Y44032D01*
X95655Y44037D01*
X95633Y44046D01*
X95613Y44059D01*
X95595Y44074D01*
X95580Y44092D01*
X95567Y44112D01*
X95558Y44134D01*
X95553Y44157D01*
X95551Y44180D01*
X95581Y44450D02*
X95583Y44471D01*
X95588Y44491D01*
X95597Y44510D01*
X95609Y44527D01*
X95624Y44542D01*
X95641Y44554D01*
X95660Y44563D01*
X95680Y44568D01*
X95701Y44570D01*
X95722Y44568D01*
X95742Y44563D01*
X95761Y44554D01*
X95778Y44542D01*
X95793Y44527D01*
X95805Y44510D01*
X95814Y44491D01*
X95819Y44471D01*
X95821Y44450D01*
X95819Y44429D01*
X95814Y44409D01*
X95805Y44390D01*
X95793Y44373D01*
X95778Y44358D01*
X95761Y44346D01*
X95742Y44337D01*
X95722Y44332D01*
X95701Y44330D01*
X95680Y44332D01*
X95660Y44337D01*
X95641Y44346D01*
X95624Y44358D01*
X95609Y44373D01*
X95597Y44390D01*
X95588Y44409D01*
X95583Y44429D01*
X95581Y44450D01*
D14*
X99500Y39200D02*
X99500Y38800D01*
D10*
X99015Y39515D02*
X99015Y39805D01*
X99096Y39805D01*
X99113Y39803D01*
X99129Y39798D01*
X99144Y39790D01*
X99156Y39778D01*
X99166Y39765D01*
X99173Y39749D01*
X99177Y39732D01*
X99177Y39716D01*
X99173Y39699D01*
X99166Y39684D01*
X99156Y39670D01*
X99144Y39658D01*
X99129Y39650D01*
X99113Y39645D01*
X99096Y39643D01*
X99096Y39644D02*
X99015Y39644D01*
X99112Y39644D02*
X99176Y39515D01*
X99301Y39741D02*
X99382Y39805D01*
X99382Y39515D01*
X99462Y39515D02*
X99301Y39515D01*
X99589Y39676D02*
X99686Y39676D01*
X99700Y39674D01*
X99714Y39670D01*
X99726Y39662D01*
X99736Y39652D01*
X99744Y39640D01*
X99748Y39626D01*
X99750Y39612D01*
X99750Y39596D01*
X99751Y39596D02*
X99749Y39579D01*
X99744Y39563D01*
X99736Y39548D01*
X99724Y39536D01*
X99711Y39526D01*
X99695Y39519D01*
X99678Y39515D01*
X99662Y39515D01*
X99645Y39519D01*
X99630Y39526D01*
X99616Y39536D01*
X99604Y39548D01*
X99596Y39563D01*
X99591Y39579D01*
X99589Y39596D01*
X99589Y39676D01*
X99591Y39698D01*
X99597Y39720D01*
X99606Y39740D01*
X99619Y39759D01*
X99635Y39775D01*
X99653Y39788D01*
X99674Y39797D01*
X99696Y39803D01*
X99718Y39805D01*
D15*
X104500Y40250D02*
X108750Y40250D01*
X108750Y43750D02*
X104500Y43750D01*
X103400Y41500D02*
X103400Y41100D01*
X104500Y43000D02*
X104500Y43750D01*
X103400Y42500D02*
X99950Y41650D01*
X103400Y42500D02*
X103400Y42900D01*
X103400Y41500D02*
X99950Y40650D01*
X103400Y41500D02*
X103400Y42500D01*
X99950Y41650D02*
X99906Y41648D01*
X99863Y41642D01*
X99821Y41633D01*
X99779Y41620D01*
X99739Y41603D01*
X99700Y41583D01*
X99663Y41560D01*
X99629Y41533D01*
X99596Y41504D01*
X99567Y41471D01*
X99540Y41437D01*
X99517Y41400D01*
X99497Y41361D01*
X99480Y41321D01*
X99467Y41279D01*
X99458Y41237D01*
X99452Y41194D01*
X99450Y41150D01*
X99452Y41106D01*
X99458Y41063D01*
X99467Y41021D01*
X99480Y40979D01*
X99497Y40939D01*
X99517Y40900D01*
X99540Y40863D01*
X99567Y40829D01*
X99596Y40796D01*
X99629Y40767D01*
X99663Y40740D01*
X99700Y40717D01*
X99739Y40697D01*
X99779Y40680D01*
X99821Y40667D01*
X99863Y40658D01*
X99906Y40652D01*
X99950Y40650D01*
X103400Y41100D02*
X103500Y41000D01*
X104500Y41000D01*
X104500Y40250D01*
X103400Y42900D02*
X103500Y43000D01*
X104500Y43000D01*
X104500Y41000D01*
X103500Y41000D02*
X103500Y43000D01*
X108750Y40700D02*
X108750Y40250D01*
X108750Y41300D02*
X108750Y41700D01*
X108750Y43300D02*
X108750Y43750D01*
X108750Y42700D02*
X108750Y42300D01*
X105330Y44150D02*
X105328Y44129D01*
X105323Y44109D01*
X105314Y44090D01*
X105302Y44073D01*
X105287Y44058D01*
X105270Y44046D01*
X105251Y44037D01*
X105231Y44032D01*
X105210Y44030D01*
X105181Y44032D01*
X105153Y44036D01*
X105126Y44044D01*
X105099Y44055D01*
X105074Y44069D01*
X105051Y44086D01*
X105030Y44105D01*
X105045Y44450D02*
X105047Y44471D01*
X105052Y44491D01*
X105061Y44510D01*
X105073Y44527D01*
X105088Y44542D01*
X105105Y44554D01*
X105124Y44563D01*
X105144Y44568D01*
X105165Y44570D01*
X105194Y44568D01*
X105222Y44563D01*
X105250Y44553D01*
X105276Y44541D01*
X105300Y44525D01*
X105045Y44450D02*
X105047Y44429D01*
X105052Y44409D01*
X105061Y44389D01*
X105073Y44372D01*
X105088Y44357D01*
X105105Y44345D01*
X105270Y44255D02*
X105287Y44243D01*
X105302Y44228D01*
X105314Y44211D01*
X105323Y44191D01*
X105328Y44171D01*
X105330Y44150D01*
X105270Y44255D02*
X105105Y44345D01*
X105671Y44270D02*
X105851Y44270D01*
X105671Y44270D02*
X105650Y44272D01*
X105630Y44277D01*
X105611Y44286D01*
X105594Y44298D01*
X105579Y44313D01*
X105567Y44330D01*
X105558Y44349D01*
X105553Y44369D01*
X105551Y44390D01*
X105551Y44420D01*
X105553Y44443D01*
X105558Y44466D01*
X105567Y44488D01*
X105580Y44508D01*
X105595Y44526D01*
X105613Y44541D01*
X105633Y44554D01*
X105655Y44563D01*
X105678Y44568D01*
X105701Y44570D01*
X105724Y44568D01*
X105747Y44563D01*
X105769Y44554D01*
X105789Y44541D01*
X105807Y44526D01*
X105822Y44508D01*
X105835Y44488D01*
X105844Y44466D01*
X105849Y44443D01*
X105851Y44420D01*
X105851Y44270D01*
X105849Y44241D01*
X105844Y44213D01*
X105835Y44185D01*
X105824Y44158D01*
X105809Y44134D01*
X105791Y44111D01*
X105770Y44090D01*
X105747Y44072D01*
X105723Y44057D01*
X105696Y44046D01*
X105668Y44037D01*
X105640Y44032D01*
X105611Y44030D01*
D14*
X110000Y39200D02*
X110000Y38800D01*
D10*
X110015Y39515D02*
X110015Y39805D01*
X110096Y39805D01*
X110113Y39803D01*
X110129Y39798D01*
X110144Y39790D01*
X110156Y39778D01*
X110166Y39765D01*
X110173Y39749D01*
X110177Y39732D01*
X110177Y39716D01*
X110173Y39699D01*
X110166Y39684D01*
X110156Y39670D01*
X110144Y39658D01*
X110129Y39650D01*
X110113Y39645D01*
X110096Y39643D01*
X110096Y39644D02*
X110015Y39644D01*
X110112Y39644D02*
X110176Y39515D01*
X110301Y39741D02*
X110382Y39805D01*
X110382Y39515D01*
X110462Y39515D02*
X110301Y39515D01*
X110589Y39773D02*
X110589Y39805D01*
X110750Y39805D01*
X110670Y39515D01*
D15*
X113900Y40250D02*
X118150Y40250D01*
X118150Y43750D02*
X113900Y43750D01*
X112800Y41500D02*
X112800Y41100D01*
X113900Y43000D02*
X113900Y43750D01*
X112800Y42500D02*
X109350Y41650D01*
X112800Y42500D02*
X112800Y42900D01*
X112800Y41500D02*
X109350Y40650D01*
X112800Y41500D02*
X112800Y42500D01*
X109350Y41650D02*
X109306Y41648D01*
X109263Y41642D01*
X109221Y41633D01*
X109179Y41620D01*
X109139Y41603D01*
X109100Y41583D01*
X109063Y41560D01*
X109029Y41533D01*
X108996Y41504D01*
X108967Y41471D01*
X108940Y41437D01*
X108917Y41400D01*
X108897Y41361D01*
X108880Y41321D01*
X108867Y41279D01*
X108858Y41237D01*
X108852Y41194D01*
X108850Y41150D01*
X108852Y41106D01*
X108858Y41063D01*
X108867Y41021D01*
X108880Y40979D01*
X108897Y40939D01*
X108917Y40900D01*
X108940Y40863D01*
X108967Y40829D01*
X108996Y40796D01*
X109029Y40767D01*
X109063Y40740D01*
X109100Y40717D01*
X109139Y40697D01*
X109179Y40680D01*
X109221Y40667D01*
X109263Y40658D01*
X109306Y40652D01*
X109350Y40650D01*
X112800Y41100D02*
X112900Y41000D01*
X113900Y41000D01*
X113900Y40250D01*
X112800Y42900D02*
X112900Y43000D01*
X113900Y43000D01*
X113900Y41000D01*
X112900Y41000D02*
X112900Y43000D01*
X118150Y40700D02*
X118150Y40250D01*
X118150Y41300D02*
X118150Y41700D01*
X118150Y43300D02*
X118150Y43750D01*
X118150Y42700D02*
X118150Y42300D01*
X114730Y44150D02*
X114728Y44129D01*
X114723Y44109D01*
X114714Y44090D01*
X114702Y44073D01*
X114687Y44058D01*
X114670Y44046D01*
X114651Y44037D01*
X114631Y44032D01*
X114610Y44030D01*
X114581Y44032D01*
X114553Y44036D01*
X114526Y44044D01*
X114499Y44055D01*
X114474Y44069D01*
X114451Y44086D01*
X114430Y44105D01*
X114445Y44450D02*
X114447Y44471D01*
X114452Y44491D01*
X114461Y44510D01*
X114473Y44527D01*
X114488Y44542D01*
X114505Y44554D01*
X114524Y44563D01*
X114544Y44568D01*
X114565Y44570D01*
X114594Y44568D01*
X114622Y44563D01*
X114650Y44553D01*
X114676Y44541D01*
X114700Y44525D01*
X114445Y44450D02*
X114447Y44429D01*
X114452Y44409D01*
X114461Y44389D01*
X114473Y44372D01*
X114488Y44357D01*
X114505Y44345D01*
X114670Y44255D02*
X114687Y44243D01*
X114702Y44228D01*
X114714Y44211D01*
X114723Y44191D01*
X114728Y44171D01*
X114730Y44150D01*
X114670Y44255D02*
X114505Y44345D01*
X114951Y44450D02*
X115101Y44570D01*
X115101Y44030D01*
X114951Y44030D02*
X115251Y44030D01*
X115490Y44030D02*
X115670Y44030D01*
X115691Y44032D01*
X115711Y44037D01*
X115730Y44046D01*
X115747Y44058D01*
X115762Y44073D01*
X115774Y44090D01*
X115783Y44109D01*
X115788Y44129D01*
X115790Y44150D01*
X115790Y44210D01*
X115788Y44231D01*
X115783Y44251D01*
X115774Y44270D01*
X115762Y44287D01*
X115747Y44302D01*
X115730Y44314D01*
X115711Y44323D01*
X115691Y44328D01*
X115670Y44330D01*
X115490Y44330D01*
X115490Y44570D01*
X115790Y44570D01*
D14*
X117900Y37950D02*
X117900Y37550D01*
D10*
X117415Y38265D02*
X117415Y38555D01*
X117496Y38555D01*
X117513Y38553D01*
X117529Y38548D01*
X117544Y38540D01*
X117556Y38528D01*
X117566Y38515D01*
X117573Y38499D01*
X117577Y38482D01*
X117577Y38466D01*
X117573Y38449D01*
X117566Y38434D01*
X117556Y38420D01*
X117544Y38408D01*
X117529Y38400D01*
X117513Y38395D01*
X117496Y38393D01*
X117496Y38394D02*
X117415Y38394D01*
X117512Y38394D02*
X117576Y38265D01*
X117701Y38491D02*
X117782Y38555D01*
X117782Y38265D01*
X117862Y38265D02*
X117701Y38265D01*
X117989Y38346D02*
X117991Y38363D01*
X117996Y38379D01*
X118004Y38394D01*
X118016Y38406D01*
X118030Y38416D01*
X118045Y38423D01*
X118062Y38427D01*
X118078Y38427D01*
X118095Y38423D01*
X118111Y38416D01*
X118124Y38406D01*
X118136Y38394D01*
X118144Y38379D01*
X118149Y38363D01*
X118151Y38346D01*
X118149Y38329D01*
X118144Y38313D01*
X118136Y38298D01*
X118124Y38286D01*
X118111Y38276D01*
X118095Y38269D01*
X118078Y38265D01*
X118062Y38265D01*
X118045Y38269D01*
X118030Y38276D01*
X118016Y38286D01*
X118004Y38298D01*
X117996Y38313D01*
X117991Y38329D01*
X117989Y38346D01*
X118006Y38491D02*
X118008Y38505D01*
X118012Y38519D01*
X118020Y38531D01*
X118030Y38541D01*
X118042Y38549D01*
X118056Y38553D01*
X118070Y38555D01*
X118084Y38553D01*
X118098Y38549D01*
X118110Y38541D01*
X118120Y38531D01*
X118128Y38519D01*
X118132Y38505D01*
X118134Y38491D01*
X118132Y38477D01*
X118128Y38463D01*
X118120Y38451D01*
X118110Y38441D01*
X118098Y38433D01*
X118084Y38429D01*
X118070Y38427D01*
X118056Y38429D01*
X118042Y38433D01*
X118030Y38441D01*
X118020Y38451D01*
X118012Y38463D01*
X118008Y38477D01*
X118006Y38491D01*
D14*
X69000Y50800D02*
X69000Y51200D01*
D10*
X68515Y51515D02*
X68515Y51805D01*
X68596Y51805D01*
X68613Y51803D01*
X68629Y51798D01*
X68644Y51790D01*
X68656Y51778D01*
X68666Y51765D01*
X68673Y51749D01*
X68677Y51732D01*
X68677Y51716D01*
X68673Y51699D01*
X68666Y51684D01*
X68656Y51670D01*
X68644Y51658D01*
X68629Y51650D01*
X68613Y51645D01*
X68596Y51643D01*
X68596Y51644D02*
X68515Y51644D01*
X68612Y51644D02*
X68676Y51515D01*
X68801Y51741D02*
X68882Y51805D01*
X68882Y51515D01*
X68962Y51515D02*
X68801Y51515D01*
X69153Y51644D02*
X69250Y51644D01*
X69153Y51644D02*
X69139Y51646D01*
X69125Y51650D01*
X69113Y51658D01*
X69103Y51668D01*
X69095Y51680D01*
X69091Y51694D01*
X69089Y51708D01*
X69089Y51724D01*
X69091Y51741D01*
X69096Y51757D01*
X69104Y51772D01*
X69116Y51784D01*
X69130Y51794D01*
X69145Y51801D01*
X69162Y51805D01*
X69178Y51805D01*
X69195Y51801D01*
X69211Y51794D01*
X69224Y51784D01*
X69236Y51772D01*
X69244Y51757D01*
X69249Y51741D01*
X69251Y51724D01*
X69250Y51724D02*
X69250Y51644D01*
X69248Y51624D01*
X69244Y51604D01*
X69236Y51585D01*
X69225Y51568D01*
X69212Y51553D01*
X69197Y51540D01*
X69180Y51529D01*
X69161Y51521D01*
X69141Y51517D01*
X69121Y51515D01*
D12*
X7363Y6031D02*
X7361Y5992D01*
X7355Y5954D01*
X7346Y5917D01*
X7333Y5880D01*
X7316Y5845D01*
X7297Y5812D01*
X7274Y5781D01*
X7248Y5752D01*
X7219Y5726D01*
X7188Y5703D01*
X7155Y5684D01*
X7120Y5667D01*
X7083Y5654D01*
X7046Y5645D01*
X7008Y5639D01*
X6969Y5637D01*
X6969Y5638D02*
X3031Y5638D01*
X3031Y5637D02*
X2992Y5639D01*
X2954Y5645D01*
X2917Y5654D01*
X2880Y5667D01*
X2845Y5684D01*
X2812Y5703D01*
X2781Y5726D01*
X2752Y5752D01*
X2726Y5781D01*
X2703Y5812D01*
X2684Y5845D01*
X2667Y5880D01*
X2654Y5917D01*
X2645Y5954D01*
X2639Y5992D01*
X2637Y6031D01*
X2637Y9969D02*
X2639Y10008D01*
X2645Y10046D01*
X2654Y10083D01*
X2667Y10120D01*
X2684Y10155D01*
X2703Y10188D01*
X2726Y10219D01*
X2752Y10248D01*
X2781Y10274D01*
X2812Y10297D01*
X2845Y10316D01*
X2880Y10333D01*
X2917Y10346D01*
X2954Y10355D01*
X2992Y10361D01*
X3031Y10363D01*
X3031Y10362D02*
X6969Y10362D01*
X6969Y10363D02*
X7008Y10361D01*
X7046Y10355D01*
X7083Y10346D01*
X7120Y10333D01*
X7155Y10316D01*
X7188Y10297D01*
X7219Y10274D01*
X7248Y10248D01*
X7274Y10219D01*
X7297Y10188D01*
X7316Y10155D01*
X7333Y10120D01*
X7346Y10083D01*
X7355Y10046D01*
X7361Y10008D01*
X7363Y9969D01*
X3608Y8000D02*
X3610Y8074D01*
X3616Y8148D01*
X3626Y8221D01*
X3639Y8294D01*
X3657Y8366D01*
X3678Y8437D01*
X3704Y8507D01*
X3732Y8575D01*
X3765Y8642D01*
X3801Y8707D01*
X3840Y8769D01*
X3883Y8830D01*
X3928Y8888D01*
X3977Y8944D01*
X4029Y8997D01*
X4083Y9048D01*
X4140Y9095D01*
X4200Y9139D01*
X4262Y9180D01*
X4326Y9218D01*
X4391Y9252D01*
X4459Y9282D01*
X4528Y9309D01*
X4598Y9333D01*
X4670Y9352D01*
X4742Y9368D01*
X4815Y9380D01*
X4889Y9388D01*
X4963Y9392D01*
X5037Y9392D01*
X5111Y9388D01*
X5185Y9380D01*
X5258Y9368D01*
X5330Y9352D01*
X5402Y9333D01*
X5472Y9309D01*
X5541Y9282D01*
X5609Y9252D01*
X5674Y9218D01*
X5738Y9180D01*
X5800Y9139D01*
X5860Y9095D01*
X5917Y9048D01*
X5971Y8997D01*
X6023Y8944D01*
X6072Y8888D01*
X6117Y8830D01*
X6160Y8769D01*
X6199Y8707D01*
X6235Y8642D01*
X6268Y8575D01*
X6296Y8507D01*
X6322Y8437D01*
X6343Y8366D01*
X6361Y8294D01*
X6374Y8221D01*
X6384Y8148D01*
X6390Y8074D01*
X6392Y8000D01*
X6390Y7926D01*
X6384Y7852D01*
X6374Y7779D01*
X6361Y7706D01*
X6343Y7634D01*
X6322Y7563D01*
X6296Y7493D01*
X6268Y7425D01*
X6235Y7358D01*
X6199Y7293D01*
X6160Y7231D01*
X6117Y7170D01*
X6072Y7112D01*
X6023Y7056D01*
X5971Y7003D01*
X5917Y6952D01*
X5860Y6905D01*
X5800Y6861D01*
X5738Y6820D01*
X5674Y6782D01*
X5609Y6748D01*
X5541Y6718D01*
X5472Y6691D01*
X5402Y6667D01*
X5330Y6648D01*
X5258Y6632D01*
X5185Y6620D01*
X5111Y6612D01*
X5037Y6608D01*
X4963Y6608D01*
X4889Y6612D01*
X4815Y6620D01*
X4742Y6632D01*
X4670Y6648D01*
X4598Y6667D01*
X4528Y6691D01*
X4459Y6718D01*
X4391Y6748D01*
X4326Y6782D01*
X4262Y6820D01*
X4200Y6861D01*
X4140Y6905D01*
X4083Y6952D01*
X4029Y7003D01*
X3977Y7056D01*
X3928Y7112D01*
X3883Y7170D01*
X3840Y7231D01*
X3801Y7293D01*
X3765Y7358D01*
X3732Y7425D01*
X3704Y7493D01*
X3678Y7563D01*
X3657Y7634D01*
X3639Y7706D01*
X3626Y7779D01*
X3616Y7852D01*
X3610Y7926D01*
X3608Y8000D01*
X4213Y8787D02*
X5787Y8787D01*
X5787Y7213D01*
X4213Y7213D01*
X4213Y8787D01*
X2638Y9476D02*
X2638Y9969D01*
X2638Y8492D02*
X2638Y7508D01*
X2638Y6524D02*
X2638Y6031D01*
X7362Y9476D02*
X7362Y9969D01*
X7362Y8492D02*
X7362Y7508D01*
X7362Y6524D02*
X7362Y6031D01*
D13*
X3173Y10520D02*
X3191Y10522D01*
X3208Y10526D01*
X3224Y10534D01*
X3239Y10544D01*
X3251Y10556D01*
X3261Y10571D01*
X3269Y10587D01*
X3273Y10604D01*
X3275Y10622D01*
X3173Y10520D02*
X3145Y10522D01*
X3117Y10527D01*
X3090Y10537D01*
X3064Y10549D01*
X3041Y10565D01*
X3020Y10584D01*
X3033Y10878D02*
X3035Y10896D01*
X3039Y10913D01*
X3047Y10929D01*
X3057Y10944D01*
X3069Y10956D01*
X3084Y10966D01*
X3100Y10974D01*
X3117Y10978D01*
X3135Y10980D01*
X3160Y10978D01*
X3184Y10974D01*
X3207Y10966D01*
X3230Y10955D01*
X3250Y10942D01*
X3033Y10878D02*
X3035Y10860D01*
X3039Y10843D01*
X3047Y10826D01*
X3057Y10812D01*
X3070Y10799D01*
X3084Y10788D01*
X3225Y10712D02*
X3239Y10701D01*
X3252Y10688D01*
X3262Y10674D01*
X3270Y10657D01*
X3274Y10640D01*
X3276Y10622D01*
X3224Y10712D02*
X3084Y10788D01*
X3438Y10980D02*
X3541Y10520D01*
X3643Y10827D01*
X3745Y10520D01*
X3847Y10980D01*
X4166Y10980D02*
X4186Y10978D01*
X4205Y10973D01*
X4224Y10965D01*
X4240Y10953D01*
X4254Y10939D01*
X4266Y10923D01*
X4274Y10904D01*
X4279Y10885D01*
X4281Y10865D01*
X4166Y10980D02*
X4143Y10978D01*
X4120Y10973D01*
X4099Y10964D01*
X4079Y10952D01*
X4061Y10937D01*
X4046Y10919D01*
X4034Y10899D01*
X4025Y10878D01*
X4243Y10775D02*
X4256Y10790D01*
X4267Y10807D01*
X4275Y10826D01*
X4279Y10845D01*
X4281Y10865D01*
X4242Y10776D02*
X4025Y10520D01*
X4281Y10520D01*
D14*
X5000Y2700D02*
X5000Y2300D01*
D10*
X4750Y1985D02*
X4750Y1695D01*
X4750Y1985D02*
X4830Y1985D01*
X4847Y1983D01*
X4863Y1978D01*
X4878Y1970D01*
X4890Y1958D01*
X4900Y1945D01*
X4907Y1929D01*
X4911Y1912D01*
X4911Y1896D01*
X4907Y1879D01*
X4900Y1864D01*
X4890Y1850D01*
X4878Y1838D01*
X4863Y1830D01*
X4847Y1825D01*
X4830Y1823D01*
X4830Y1824D02*
X4750Y1824D01*
X4847Y1824D02*
X4911Y1695D01*
X5197Y1913D02*
X5195Y1929D01*
X5190Y1945D01*
X5181Y1959D01*
X5170Y1970D01*
X5156Y1979D01*
X5140Y1984D01*
X5124Y1986D01*
X5124Y1985D02*
X5107Y1984D01*
X5091Y1979D01*
X5076Y1972D01*
X5063Y1962D01*
X5051Y1950D01*
X5042Y1936D01*
X5036Y1921D01*
X5173Y1857D02*
X5183Y1868D01*
X5191Y1882D01*
X5195Y1897D01*
X5197Y1913D01*
X5173Y1856D02*
X5036Y1695D01*
X5197Y1695D01*
X5324Y1840D02*
X5326Y1867D01*
X5330Y1894D01*
X5338Y1920D01*
X5348Y1945D01*
X5347Y1944D02*
X5354Y1958D01*
X5363Y1969D01*
X5375Y1978D01*
X5389Y1983D01*
X5404Y1985D01*
X5419Y1983D01*
X5433Y1978D01*
X5445Y1969D01*
X5454Y1958D01*
X5461Y1944D01*
X5461Y1945D02*
X5471Y1920D01*
X5479Y1894D01*
X5483Y1867D01*
X5485Y1840D01*
X5324Y1840D02*
X5326Y1813D01*
X5330Y1786D01*
X5338Y1760D01*
X5348Y1735D01*
X5347Y1736D02*
X5354Y1722D01*
X5363Y1711D01*
X5375Y1702D01*
X5389Y1697D01*
X5404Y1695D01*
X5461Y1735D02*
X5471Y1760D01*
X5479Y1786D01*
X5483Y1813D01*
X5485Y1840D01*
X5461Y1736D02*
X5454Y1722D01*
X5445Y1711D01*
X5433Y1702D01*
X5419Y1697D01*
X5404Y1695D01*
X5340Y1759D02*
X5469Y1921D01*
D12*
X15969Y5637D02*
X16008Y5639D01*
X16046Y5645D01*
X16083Y5654D01*
X16120Y5667D01*
X16155Y5684D01*
X16188Y5703D01*
X16219Y5726D01*
X16248Y5752D01*
X16274Y5781D01*
X16297Y5812D01*
X16316Y5845D01*
X16333Y5880D01*
X16346Y5917D01*
X16355Y5954D01*
X16361Y5992D01*
X16363Y6031D01*
X15969Y5638D02*
X12031Y5638D01*
X12031Y5637D02*
X11992Y5639D01*
X11954Y5645D01*
X11917Y5654D01*
X11880Y5667D01*
X11845Y5684D01*
X11812Y5703D01*
X11781Y5726D01*
X11752Y5752D01*
X11726Y5781D01*
X11703Y5812D01*
X11684Y5845D01*
X11667Y5880D01*
X11654Y5917D01*
X11645Y5954D01*
X11639Y5992D01*
X11637Y6031D01*
X11637Y9969D02*
X11639Y10008D01*
X11645Y10046D01*
X11654Y10083D01*
X11667Y10120D01*
X11684Y10155D01*
X11703Y10188D01*
X11726Y10219D01*
X11752Y10248D01*
X11781Y10274D01*
X11812Y10297D01*
X11845Y10316D01*
X11880Y10333D01*
X11917Y10346D01*
X11954Y10355D01*
X11992Y10361D01*
X12031Y10363D01*
X12031Y10362D02*
X15969Y10362D01*
X15969Y10363D02*
X16008Y10361D01*
X16046Y10355D01*
X16083Y10346D01*
X16120Y10333D01*
X16155Y10316D01*
X16188Y10297D01*
X16219Y10274D01*
X16248Y10248D01*
X16274Y10219D01*
X16297Y10188D01*
X16316Y10155D01*
X16333Y10120D01*
X16346Y10083D01*
X16355Y10046D01*
X16361Y10008D01*
X16363Y9969D01*
X12608Y8000D02*
X12610Y8074D01*
X12616Y8148D01*
X12626Y8221D01*
X12639Y8294D01*
X12657Y8366D01*
X12678Y8437D01*
X12704Y8507D01*
X12732Y8575D01*
X12765Y8642D01*
X12801Y8707D01*
X12840Y8769D01*
X12883Y8830D01*
X12928Y8888D01*
X12977Y8944D01*
X13029Y8997D01*
X13083Y9048D01*
X13140Y9095D01*
X13200Y9139D01*
X13262Y9180D01*
X13326Y9218D01*
X13391Y9252D01*
X13459Y9282D01*
X13528Y9309D01*
X13598Y9333D01*
X13670Y9352D01*
X13742Y9368D01*
X13815Y9380D01*
X13889Y9388D01*
X13963Y9392D01*
X14037Y9392D01*
X14111Y9388D01*
X14185Y9380D01*
X14258Y9368D01*
X14330Y9352D01*
X14402Y9333D01*
X14472Y9309D01*
X14541Y9282D01*
X14609Y9252D01*
X14674Y9218D01*
X14738Y9180D01*
X14800Y9139D01*
X14860Y9095D01*
X14917Y9048D01*
X14971Y8997D01*
X15023Y8944D01*
X15072Y8888D01*
X15117Y8830D01*
X15160Y8769D01*
X15199Y8707D01*
X15235Y8642D01*
X15268Y8575D01*
X15296Y8507D01*
X15322Y8437D01*
X15343Y8366D01*
X15361Y8294D01*
X15374Y8221D01*
X15384Y8148D01*
X15390Y8074D01*
X15392Y8000D01*
X15390Y7926D01*
X15384Y7852D01*
X15374Y7779D01*
X15361Y7706D01*
X15343Y7634D01*
X15322Y7563D01*
X15296Y7493D01*
X15268Y7425D01*
X15235Y7358D01*
X15199Y7293D01*
X15160Y7231D01*
X15117Y7170D01*
X15072Y7112D01*
X15023Y7056D01*
X14971Y7003D01*
X14917Y6952D01*
X14860Y6905D01*
X14800Y6861D01*
X14738Y6820D01*
X14674Y6782D01*
X14609Y6748D01*
X14541Y6718D01*
X14472Y6691D01*
X14402Y6667D01*
X14330Y6648D01*
X14258Y6632D01*
X14185Y6620D01*
X14111Y6612D01*
X14037Y6608D01*
X13963Y6608D01*
X13889Y6612D01*
X13815Y6620D01*
X13742Y6632D01*
X13670Y6648D01*
X13598Y6667D01*
X13528Y6691D01*
X13459Y6718D01*
X13391Y6748D01*
X13326Y6782D01*
X13262Y6820D01*
X13200Y6861D01*
X13140Y6905D01*
X13083Y6952D01*
X13029Y7003D01*
X12977Y7056D01*
X12928Y7112D01*
X12883Y7170D01*
X12840Y7231D01*
X12801Y7293D01*
X12765Y7358D01*
X12732Y7425D01*
X12704Y7493D01*
X12678Y7563D01*
X12657Y7634D01*
X12639Y7706D01*
X12626Y7779D01*
X12616Y7852D01*
X12610Y7926D01*
X12608Y8000D01*
X13213Y8787D02*
X14787Y8787D01*
X14787Y7213D01*
X13213Y7213D01*
X13213Y8787D01*
X11638Y9476D02*
X11638Y9969D01*
X11638Y8492D02*
X11638Y7508D01*
X11638Y6524D02*
X11638Y6031D01*
X16362Y9476D02*
X16362Y9969D01*
X16362Y8492D02*
X16362Y7508D01*
X16362Y6524D02*
X16362Y6031D01*
D13*
X12173Y10520D02*
X12191Y10522D01*
X12208Y10526D01*
X12224Y10534D01*
X12239Y10544D01*
X12251Y10556D01*
X12261Y10571D01*
X12269Y10587D01*
X12273Y10604D01*
X12275Y10622D01*
X12173Y10520D02*
X12145Y10522D01*
X12117Y10527D01*
X12090Y10537D01*
X12064Y10549D01*
X12041Y10565D01*
X12020Y10584D01*
X12033Y10878D02*
X12035Y10896D01*
X12039Y10913D01*
X12047Y10929D01*
X12057Y10944D01*
X12069Y10956D01*
X12084Y10966D01*
X12100Y10974D01*
X12117Y10978D01*
X12135Y10980D01*
X12160Y10978D01*
X12184Y10974D01*
X12207Y10966D01*
X12230Y10955D01*
X12250Y10942D01*
X12033Y10878D02*
X12035Y10860D01*
X12039Y10843D01*
X12047Y10826D01*
X12057Y10812D01*
X12070Y10799D01*
X12084Y10788D01*
X12225Y10712D02*
X12239Y10701D01*
X12252Y10688D01*
X12262Y10674D01*
X12270Y10657D01*
X12274Y10640D01*
X12276Y10622D01*
X12224Y10712D02*
X12084Y10788D01*
X12438Y10980D02*
X12541Y10520D01*
X12643Y10827D01*
X12745Y10520D01*
X12847Y10980D01*
X13025Y10520D02*
X13153Y10520D01*
X13174Y10522D01*
X13195Y10527D01*
X13214Y10535D01*
X13232Y10547D01*
X13247Y10561D01*
X13260Y10578D01*
X13270Y10597D01*
X13277Y10617D01*
X13281Y10637D01*
X13281Y10659D01*
X13277Y10679D01*
X13270Y10699D01*
X13260Y10718D01*
X13247Y10735D01*
X13232Y10749D01*
X13214Y10761D01*
X13195Y10769D01*
X13174Y10774D01*
X13153Y10776D01*
X13178Y10980D02*
X13025Y10980D01*
X13178Y10980D02*
X13197Y10978D01*
X13215Y10973D01*
X13232Y10965D01*
X13247Y10953D01*
X13259Y10939D01*
X13269Y10923D01*
X13276Y10906D01*
X13280Y10887D01*
X13280Y10869D01*
X13276Y10850D01*
X13269Y10833D01*
X13259Y10817D01*
X13247Y10803D01*
X13232Y10791D01*
X13215Y10783D01*
X13197Y10778D01*
X13178Y10776D01*
X13076Y10776D01*
D14*
X14000Y2700D02*
X14000Y2300D01*
D10*
X13750Y1985D02*
X13750Y1695D01*
X13750Y1985D02*
X13830Y1985D01*
X13847Y1983D01*
X13863Y1978D01*
X13878Y1970D01*
X13890Y1958D01*
X13900Y1945D01*
X13907Y1929D01*
X13911Y1912D01*
X13911Y1896D01*
X13907Y1879D01*
X13900Y1864D01*
X13890Y1850D01*
X13878Y1838D01*
X13863Y1830D01*
X13847Y1825D01*
X13830Y1823D01*
X13830Y1824D02*
X13750Y1824D01*
X13847Y1824D02*
X13911Y1695D01*
X14197Y1913D02*
X14195Y1929D01*
X14190Y1945D01*
X14181Y1959D01*
X14170Y1970D01*
X14156Y1979D01*
X14140Y1984D01*
X14124Y1986D01*
X14124Y1985D02*
X14107Y1984D01*
X14091Y1979D01*
X14076Y1972D01*
X14063Y1962D01*
X14051Y1950D01*
X14042Y1936D01*
X14036Y1921D01*
X14173Y1857D02*
X14183Y1868D01*
X14191Y1882D01*
X14195Y1897D01*
X14197Y1913D01*
X14173Y1856D02*
X14036Y1695D01*
X14197Y1695D01*
X14324Y1921D02*
X14404Y1985D01*
X14404Y1695D01*
X14324Y1695D02*
X14485Y1695D01*
D12*
X24969Y5637D02*
X25008Y5639D01*
X25046Y5645D01*
X25083Y5654D01*
X25120Y5667D01*
X25155Y5684D01*
X25188Y5703D01*
X25219Y5726D01*
X25248Y5752D01*
X25274Y5781D01*
X25297Y5812D01*
X25316Y5845D01*
X25333Y5880D01*
X25346Y5917D01*
X25355Y5954D01*
X25361Y5992D01*
X25363Y6031D01*
X24969Y5638D02*
X21031Y5638D01*
X21031Y5637D02*
X20992Y5639D01*
X20954Y5645D01*
X20917Y5654D01*
X20880Y5667D01*
X20845Y5684D01*
X20812Y5703D01*
X20781Y5726D01*
X20752Y5752D01*
X20726Y5781D01*
X20703Y5812D01*
X20684Y5845D01*
X20667Y5880D01*
X20654Y5917D01*
X20645Y5954D01*
X20639Y5992D01*
X20637Y6031D01*
X20637Y9969D02*
X20639Y10008D01*
X20645Y10046D01*
X20654Y10083D01*
X20667Y10120D01*
X20684Y10155D01*
X20703Y10188D01*
X20726Y10219D01*
X20752Y10248D01*
X20781Y10274D01*
X20812Y10297D01*
X20845Y10316D01*
X20880Y10333D01*
X20917Y10346D01*
X20954Y10355D01*
X20992Y10361D01*
X21031Y10363D01*
X21031Y10362D02*
X24969Y10362D01*
X24969Y10363D02*
X25008Y10361D01*
X25046Y10355D01*
X25083Y10346D01*
X25120Y10333D01*
X25155Y10316D01*
X25188Y10297D01*
X25219Y10274D01*
X25248Y10248D01*
X25274Y10219D01*
X25297Y10188D01*
X25316Y10155D01*
X25333Y10120D01*
X25346Y10083D01*
X25355Y10046D01*
X25361Y10008D01*
X25363Y9969D01*
X21608Y8000D02*
X21610Y8074D01*
X21616Y8148D01*
X21626Y8221D01*
X21639Y8294D01*
X21657Y8366D01*
X21678Y8437D01*
X21704Y8507D01*
X21732Y8575D01*
X21765Y8642D01*
X21801Y8707D01*
X21840Y8769D01*
X21883Y8830D01*
X21928Y8888D01*
X21977Y8944D01*
X22029Y8997D01*
X22083Y9048D01*
X22140Y9095D01*
X22200Y9139D01*
X22262Y9180D01*
X22326Y9218D01*
X22391Y9252D01*
X22459Y9282D01*
X22528Y9309D01*
X22598Y9333D01*
X22670Y9352D01*
X22742Y9368D01*
X22815Y9380D01*
X22889Y9388D01*
X22963Y9392D01*
X23037Y9392D01*
X23111Y9388D01*
X23185Y9380D01*
X23258Y9368D01*
X23330Y9352D01*
X23402Y9333D01*
X23472Y9309D01*
X23541Y9282D01*
X23609Y9252D01*
X23674Y9218D01*
X23738Y9180D01*
X23800Y9139D01*
X23860Y9095D01*
X23917Y9048D01*
X23971Y8997D01*
X24023Y8944D01*
X24072Y8888D01*
X24117Y8830D01*
X24160Y8769D01*
X24199Y8707D01*
X24235Y8642D01*
X24268Y8575D01*
X24296Y8507D01*
X24322Y8437D01*
X24343Y8366D01*
X24361Y8294D01*
X24374Y8221D01*
X24384Y8148D01*
X24390Y8074D01*
X24392Y8000D01*
X24390Y7926D01*
X24384Y7852D01*
X24374Y7779D01*
X24361Y7706D01*
X24343Y7634D01*
X24322Y7563D01*
X24296Y7493D01*
X24268Y7425D01*
X24235Y7358D01*
X24199Y7293D01*
X24160Y7231D01*
X24117Y7170D01*
X24072Y7112D01*
X24023Y7056D01*
X23971Y7003D01*
X23917Y6952D01*
X23860Y6905D01*
X23800Y6861D01*
X23738Y6820D01*
X23674Y6782D01*
X23609Y6748D01*
X23541Y6718D01*
X23472Y6691D01*
X23402Y6667D01*
X23330Y6648D01*
X23258Y6632D01*
X23185Y6620D01*
X23111Y6612D01*
X23037Y6608D01*
X22963Y6608D01*
X22889Y6612D01*
X22815Y6620D01*
X22742Y6632D01*
X22670Y6648D01*
X22598Y6667D01*
X22528Y6691D01*
X22459Y6718D01*
X22391Y6748D01*
X22326Y6782D01*
X22262Y6820D01*
X22200Y6861D01*
X22140Y6905D01*
X22083Y6952D01*
X22029Y7003D01*
X21977Y7056D01*
X21928Y7112D01*
X21883Y7170D01*
X21840Y7231D01*
X21801Y7293D01*
X21765Y7358D01*
X21732Y7425D01*
X21704Y7493D01*
X21678Y7563D01*
X21657Y7634D01*
X21639Y7706D01*
X21626Y7779D01*
X21616Y7852D01*
X21610Y7926D01*
X21608Y8000D01*
X22213Y8787D02*
X23787Y8787D01*
X23787Y7213D01*
X22213Y7213D01*
X22213Y8787D01*
X20638Y9476D02*
X20638Y9969D01*
X20638Y8492D02*
X20638Y7508D01*
X20638Y6524D02*
X20638Y6031D01*
X25362Y9476D02*
X25362Y9969D01*
X25362Y8492D02*
X25362Y7508D01*
X25362Y6524D02*
X25362Y6031D01*
D13*
X21173Y10520D02*
X21191Y10522D01*
X21208Y10526D01*
X21224Y10534D01*
X21239Y10544D01*
X21251Y10556D01*
X21261Y10571D01*
X21269Y10587D01*
X21273Y10604D01*
X21275Y10622D01*
X21173Y10520D02*
X21145Y10522D01*
X21117Y10527D01*
X21090Y10537D01*
X21064Y10549D01*
X21041Y10565D01*
X21020Y10584D01*
X21033Y10878D02*
X21035Y10896D01*
X21039Y10913D01*
X21047Y10929D01*
X21057Y10944D01*
X21069Y10956D01*
X21084Y10966D01*
X21100Y10974D01*
X21117Y10978D01*
X21135Y10980D01*
X21160Y10978D01*
X21184Y10974D01*
X21207Y10966D01*
X21230Y10955D01*
X21250Y10942D01*
X21033Y10878D02*
X21035Y10860D01*
X21039Y10843D01*
X21047Y10826D01*
X21057Y10812D01*
X21070Y10799D01*
X21084Y10788D01*
X21225Y10712D02*
X21239Y10701D01*
X21252Y10688D01*
X21262Y10674D01*
X21270Y10657D01*
X21274Y10640D01*
X21276Y10622D01*
X21224Y10712D02*
X21084Y10788D01*
X21438Y10980D02*
X21541Y10520D01*
X21643Y10827D01*
X21745Y10520D01*
X21847Y10980D01*
X22127Y10980D02*
X22025Y10622D01*
X22281Y10622D01*
X22204Y10724D02*
X22204Y10520D01*
D14*
X23000Y2700D02*
X23000Y2300D01*
D10*
X22750Y1985D02*
X22750Y1695D01*
X22750Y1985D02*
X22830Y1985D01*
X22847Y1983D01*
X22863Y1978D01*
X22878Y1970D01*
X22890Y1958D01*
X22900Y1945D01*
X22907Y1929D01*
X22911Y1912D01*
X22911Y1896D01*
X22907Y1879D01*
X22900Y1864D01*
X22890Y1850D01*
X22878Y1838D01*
X22863Y1830D01*
X22847Y1825D01*
X22830Y1823D01*
X22830Y1824D02*
X22750Y1824D01*
X22847Y1824D02*
X22911Y1695D01*
X23197Y1913D02*
X23195Y1929D01*
X23190Y1945D01*
X23181Y1959D01*
X23170Y1970D01*
X23156Y1979D01*
X23140Y1984D01*
X23124Y1986D01*
X23124Y1985D02*
X23107Y1984D01*
X23091Y1979D01*
X23076Y1972D01*
X23063Y1962D01*
X23051Y1950D01*
X23042Y1936D01*
X23036Y1921D01*
X23173Y1857D02*
X23183Y1868D01*
X23191Y1882D01*
X23195Y1897D01*
X23197Y1913D01*
X23173Y1856D02*
X23036Y1695D01*
X23197Y1695D01*
X23486Y1913D02*
X23484Y1929D01*
X23479Y1945D01*
X23470Y1959D01*
X23459Y1970D01*
X23445Y1979D01*
X23429Y1984D01*
X23413Y1986D01*
X23413Y1985D02*
X23396Y1984D01*
X23380Y1979D01*
X23365Y1972D01*
X23352Y1962D01*
X23340Y1950D01*
X23331Y1936D01*
X23325Y1921D01*
X23461Y1857D02*
X23471Y1868D01*
X23479Y1882D01*
X23483Y1897D01*
X23485Y1913D01*
X23461Y1856D02*
X23324Y1695D01*
X23485Y1695D01*
D14*
X27031Y31500D02*
X27031Y33469D01*
X27031Y35043D02*
X27031Y36421D01*
X30969Y36421D01*
X30969Y35043D01*
X30969Y33469D02*
X30969Y31500D01*
X30575Y31500D01*
X27425Y31500D02*
X27031Y31500D01*
X27819Y34256D02*
X27821Y34325D01*
X27827Y34393D01*
X27837Y34461D01*
X27851Y34528D01*
X27869Y34595D01*
X27890Y34660D01*
X27916Y34724D01*
X27945Y34786D01*
X27977Y34846D01*
X28013Y34905D01*
X28053Y34961D01*
X28095Y35015D01*
X28141Y35066D01*
X28190Y35115D01*
X28241Y35161D01*
X28295Y35203D01*
X28351Y35243D01*
X28409Y35279D01*
X28470Y35311D01*
X28532Y35340D01*
X28596Y35366D01*
X28661Y35387D01*
X28728Y35405D01*
X28795Y35419D01*
X28863Y35429D01*
X28931Y35435D01*
X29000Y35437D01*
X29069Y35435D01*
X29137Y35429D01*
X29205Y35419D01*
X29272Y35405D01*
X29339Y35387D01*
X29404Y35366D01*
X29468Y35340D01*
X29530Y35311D01*
X29590Y35279D01*
X29649Y35243D01*
X29705Y35203D01*
X29759Y35161D01*
X29810Y35115D01*
X29859Y35066D01*
X29905Y35015D01*
X29947Y34961D01*
X29987Y34905D01*
X30023Y34846D01*
X30055Y34786D01*
X30084Y34724D01*
X30110Y34660D01*
X30131Y34595D01*
X30149Y34528D01*
X30163Y34461D01*
X30173Y34393D01*
X30179Y34325D01*
X30181Y34256D01*
X30179Y34187D01*
X30173Y34119D01*
X30163Y34051D01*
X30149Y33984D01*
X30131Y33917D01*
X30110Y33852D01*
X30084Y33788D01*
X30055Y33726D01*
X30023Y33665D01*
X29987Y33607D01*
X29947Y33551D01*
X29905Y33497D01*
X29859Y33446D01*
X29810Y33397D01*
X29759Y33351D01*
X29705Y33309D01*
X29649Y33269D01*
X29591Y33233D01*
X29530Y33201D01*
X29468Y33172D01*
X29404Y33146D01*
X29339Y33125D01*
X29272Y33107D01*
X29205Y33093D01*
X29137Y33083D01*
X29069Y33077D01*
X29000Y33075D01*
X28931Y33077D01*
X28863Y33083D01*
X28795Y33093D01*
X28728Y33107D01*
X28661Y33125D01*
X28596Y33146D01*
X28532Y33172D01*
X28470Y33201D01*
X28409Y33233D01*
X28351Y33269D01*
X28295Y33309D01*
X28241Y33351D01*
X28190Y33397D01*
X28141Y33446D01*
X28095Y33497D01*
X28053Y33551D01*
X28013Y33607D01*
X27977Y33665D01*
X27945Y33726D01*
X27916Y33788D01*
X27890Y33852D01*
X27869Y33917D01*
X27851Y33984D01*
X27837Y34051D01*
X27827Y34119D01*
X27821Y34187D01*
X27819Y34256D01*
D10*
X27015Y36515D02*
X27015Y36805D01*
X27096Y36805D01*
X27113Y36803D01*
X27129Y36798D01*
X27144Y36790D01*
X27156Y36778D01*
X27166Y36765D01*
X27173Y36749D01*
X27177Y36732D01*
X27177Y36716D01*
X27173Y36699D01*
X27166Y36684D01*
X27156Y36670D01*
X27144Y36658D01*
X27129Y36650D01*
X27113Y36645D01*
X27096Y36643D01*
X27096Y36644D02*
X27015Y36644D01*
X27112Y36644D02*
X27176Y36515D01*
X27463Y36733D02*
X27461Y36749D01*
X27456Y36765D01*
X27447Y36779D01*
X27436Y36790D01*
X27422Y36799D01*
X27406Y36804D01*
X27390Y36806D01*
X27390Y36805D02*
X27373Y36804D01*
X27357Y36799D01*
X27342Y36792D01*
X27329Y36782D01*
X27317Y36770D01*
X27308Y36756D01*
X27302Y36741D01*
X27438Y36677D02*
X27448Y36688D01*
X27456Y36702D01*
X27460Y36717D01*
X27462Y36733D01*
X27438Y36676D02*
X27301Y36515D01*
X27462Y36515D01*
X27589Y36515D02*
X27670Y36515D01*
X27687Y36517D01*
X27703Y36522D01*
X27718Y36530D01*
X27730Y36542D01*
X27740Y36556D01*
X27747Y36571D01*
X27751Y36588D01*
X27751Y36604D01*
X27747Y36621D01*
X27740Y36637D01*
X27730Y36650D01*
X27718Y36662D01*
X27703Y36670D01*
X27687Y36675D01*
X27670Y36677D01*
X27686Y36805D02*
X27589Y36805D01*
X27686Y36805D02*
X27700Y36803D01*
X27714Y36799D01*
X27726Y36791D01*
X27736Y36781D01*
X27744Y36769D01*
X27748Y36755D01*
X27750Y36741D01*
X27748Y36727D01*
X27744Y36713D01*
X27736Y36701D01*
X27726Y36691D01*
X27714Y36683D01*
X27700Y36679D01*
X27686Y36677D01*
X27686Y36676D02*
X27621Y36676D01*
D11*
X68750Y12000D02*
X68752Y12031D01*
X68758Y12062D01*
X68768Y12092D01*
X68781Y12120D01*
X68798Y12147D01*
X68818Y12171D01*
X68841Y12193D01*
X68866Y12211D01*
X68894Y12226D01*
X68923Y12238D01*
X68953Y12246D01*
X68984Y12250D01*
X69016Y12250D01*
X69047Y12246D01*
X69077Y12238D01*
X69106Y12226D01*
X69134Y12211D01*
X69159Y12193D01*
X69182Y12171D01*
X69202Y12147D01*
X69219Y12120D01*
X69232Y12092D01*
X69242Y12062D01*
X69248Y12031D01*
X69250Y12000D01*
X69248Y11969D01*
X69242Y11938D01*
X69232Y11908D01*
X69219Y11880D01*
X69202Y11853D01*
X69182Y11829D01*
X69159Y11807D01*
X69134Y11789D01*
X69106Y11774D01*
X69077Y11762D01*
X69047Y11754D01*
X69016Y11750D01*
X68984Y11750D01*
X68953Y11754D01*
X68923Y11762D01*
X68894Y11774D01*
X68866Y11789D01*
X68841Y11807D01*
X68818Y11829D01*
X68798Y11853D01*
X68781Y11880D01*
X68768Y11908D01*
X68758Y11938D01*
X68752Y11969D01*
X68750Y12000D01*
X66800Y17600D02*
X71200Y17600D01*
X70900Y7500D02*
X67100Y7500D01*
X70900Y7500D02*
X70900Y8500D01*
X67100Y8500D02*
X67100Y7500D01*
X70900Y8500D02*
X72000Y8500D01*
X67100Y8500D02*
X66000Y8500D01*
X72750Y10400D02*
X72750Y13600D01*
X72000Y13600D02*
X72000Y14750D01*
X72000Y10400D02*
X72000Y8500D01*
X72000Y13600D02*
X72750Y13600D01*
X72750Y10400D02*
X72000Y10400D01*
X72000Y14750D02*
X71200Y14750D01*
X66800Y14750D02*
X66000Y14750D01*
X71200Y14750D02*
X71200Y17600D01*
X66800Y17600D02*
X66800Y14750D01*
X66000Y13900D02*
X64600Y13900D01*
X64600Y10100D02*
X66000Y10100D01*
X64600Y10100D02*
X64600Y13900D01*
X66000Y13900D02*
X66000Y14750D01*
X66000Y10100D02*
X66000Y8500D01*
D13*
X67020Y10898D02*
X67020Y11230D01*
X67020Y10898D02*
X67022Y10877D01*
X67027Y10856D01*
X67035Y10837D01*
X67047Y10819D01*
X67061Y10804D01*
X67078Y10791D01*
X67097Y10781D01*
X67117Y10774D01*
X67137Y10770D01*
X67159Y10770D01*
X67179Y10774D01*
X67199Y10781D01*
X67218Y10791D01*
X67235Y10804D01*
X67249Y10819D01*
X67261Y10837D01*
X67269Y10856D01*
X67274Y10877D01*
X67276Y10898D01*
X67276Y11230D01*
X67626Y11230D02*
X67646Y11228D01*
X67665Y11223D01*
X67684Y11215D01*
X67700Y11203D01*
X67714Y11189D01*
X67726Y11173D01*
X67734Y11154D01*
X67739Y11135D01*
X67741Y11115D01*
X67626Y11230D02*
X67603Y11228D01*
X67580Y11223D01*
X67559Y11214D01*
X67539Y11202D01*
X67521Y11187D01*
X67506Y11169D01*
X67494Y11149D01*
X67485Y11128D01*
X67703Y11025D02*
X67716Y11040D01*
X67727Y11057D01*
X67735Y11076D01*
X67739Y11095D01*
X67741Y11115D01*
X67702Y11026D02*
X67485Y10770D01*
X67741Y10770D01*
D15*
X69750Y4500D02*
X70250Y4500D01*
X70500Y4250D01*
X70500Y3750D01*
X70250Y3500D01*
X68750Y4500D02*
X68500Y4250D01*
X68750Y4500D02*
X69250Y4500D01*
X69500Y4250D01*
X69500Y3750D01*
X69250Y3500D01*
X68750Y3500D01*
X68500Y3750D01*
X69500Y4250D02*
X69750Y4500D01*
X69500Y3750D02*
X69750Y3500D01*
X70250Y3500D01*
X67250Y4500D02*
X66750Y4500D01*
X67250Y4500D02*
X67500Y4250D01*
X67500Y3750D01*
X67250Y3500D01*
X67500Y4250D02*
X67750Y4500D01*
X68250Y4500D01*
X68500Y4250D01*
X68500Y3750D01*
X68250Y3500D01*
X67750Y3500D01*
X67500Y3750D01*
X66500Y3750D02*
X66500Y4250D01*
X66750Y4500D01*
X66500Y3750D02*
X66750Y3500D01*
X67250Y3500D01*
X70750Y4500D02*
X71250Y4500D01*
X71500Y4250D01*
X71500Y3750D01*
X71250Y3500D01*
X70500Y4250D02*
X70750Y4500D01*
X70500Y3750D02*
X70750Y3500D01*
X71250Y3500D01*
D14*
X66645Y4845D02*
X66645Y5195D01*
X66645Y4845D02*
X66643Y4828D01*
X66639Y4811D01*
X66632Y4795D01*
X66622Y4781D01*
X66609Y4768D01*
X66595Y4758D01*
X66579Y4751D01*
X66562Y4747D01*
X66545Y4745D01*
X66495Y4745D01*
X66880Y4745D02*
X66880Y5195D01*
X67005Y5195D01*
X67026Y5193D01*
X67046Y5188D01*
X67064Y5180D01*
X67082Y5169D01*
X67097Y5155D01*
X67110Y5138D01*
X67119Y5120D01*
X67126Y5101D01*
X67130Y5080D01*
X67130Y5060D01*
X67126Y5039D01*
X67119Y5020D01*
X67110Y5002D01*
X67097Y4985D01*
X67082Y4971D01*
X67064Y4960D01*
X67046Y4952D01*
X67026Y4947D01*
X67005Y4945D01*
X66880Y4945D01*
X67308Y5095D02*
X67433Y5195D01*
X67433Y4745D01*
X67308Y4745D02*
X67558Y4745D01*
X87500Y20250D02*
X87500Y34250D01*
X87500Y20250D02*
X90250Y20250D01*
X90250Y34250D01*
X89500Y34250D01*
X88500Y34250D02*
X87500Y34250D01*
X88500Y34250D02*
X88502Y34206D01*
X88508Y34163D01*
X88517Y34121D01*
X88530Y34079D01*
X88547Y34039D01*
X88567Y34000D01*
X88590Y33963D01*
X88617Y33929D01*
X88646Y33896D01*
X88679Y33867D01*
X88713Y33840D01*
X88750Y33817D01*
X88789Y33797D01*
X88829Y33780D01*
X88871Y33767D01*
X88913Y33758D01*
X88956Y33752D01*
X89000Y33750D01*
X89044Y33752D01*
X89087Y33758D01*
X89129Y33767D01*
X89171Y33780D01*
X89211Y33797D01*
X89250Y33817D01*
X89287Y33840D01*
X89321Y33867D01*
X89354Y33896D01*
X89383Y33929D01*
X89410Y33963D01*
X89433Y34000D01*
X89453Y34039D01*
X89470Y34079D01*
X89483Y34121D01*
X89492Y34163D01*
X89498Y34206D01*
X89500Y34250D01*
D13*
X89102Y32119D02*
X88770Y32119D01*
X89102Y32119D02*
X89123Y32121D01*
X89144Y32126D01*
X89163Y32134D01*
X89181Y32146D01*
X89196Y32160D01*
X89209Y32177D01*
X89219Y32196D01*
X89226Y32216D01*
X89230Y32236D01*
X89230Y32258D01*
X89226Y32278D01*
X89219Y32298D01*
X89209Y32317D01*
X89196Y32334D01*
X89181Y32348D01*
X89163Y32360D01*
X89144Y32368D01*
X89123Y32373D01*
X89102Y32375D01*
X88770Y32375D01*
X88770Y32682D02*
X89230Y32682D01*
X89000Y32682D02*
X88962Y32618D01*
X88961Y32619D02*
X88951Y32606D01*
X88938Y32595D01*
X88924Y32587D01*
X88907Y32583D01*
X88891Y32582D01*
X88874Y32585D01*
X88859Y32592D01*
X88845Y32601D01*
X88834Y32614D01*
X88826Y32628D01*
X88821Y32644D01*
X88818Y32668D01*
X88818Y32692D01*
X88821Y32716D01*
X88827Y32740D01*
X88836Y32762D01*
X88847Y32784D01*
X89000Y32682D02*
X89038Y32746D01*
X89039Y32746D02*
X89049Y32759D01*
X89062Y32770D01*
X89077Y32778D01*
X89093Y32782D01*
X89109Y32783D01*
X89126Y32780D01*
X89141Y32773D01*
X89155Y32764D01*
X89166Y32751D01*
X89174Y32737D01*
X89179Y32721D01*
X89179Y32720D02*
X89182Y32696D01*
X89182Y32672D01*
X89179Y32648D01*
X89173Y32624D01*
X89164Y32602D01*
X89153Y32580D01*
X88872Y32974D02*
X88770Y33102D01*
X89230Y33102D01*
X89230Y32974D02*
X89230Y33230D01*
D11*
X102125Y32000D02*
X102125Y22000D01*
X97875Y22000D02*
X97875Y31000D01*
X97875Y22000D02*
X102125Y22000D01*
X97875Y31000D02*
X99000Y32000D01*
X102125Y32000D01*
X100875Y27000D02*
X99125Y27000D01*
X100250Y27250D02*
X100250Y26750D01*
D16*
X99000Y32250D03*
D14*
X102250Y32000D02*
X102250Y22000D01*
X102425Y26836D02*
X102615Y26836D01*
X102425Y26836D02*
X102425Y26888D01*
X102427Y26902D01*
X102432Y26915D01*
X102441Y26925D01*
X102452Y26934D01*
X102464Y26939D01*
X102478Y26941D01*
X102562Y26941D01*
X102576Y26939D01*
X102589Y26934D01*
X102599Y26925D01*
X102608Y26914D01*
X102613Y26902D01*
X102615Y26888D01*
X102615Y26836D01*
X102467Y27059D02*
X102425Y27112D01*
X102615Y27112D01*
X102615Y27164D02*
X102615Y27059D01*
X7400Y4300D02*
X7400Y3900D01*
D10*
X8165Y4615D02*
X8165Y4905D01*
X8246Y4905D01*
X8263Y4903D01*
X8279Y4898D01*
X8294Y4890D01*
X8306Y4878D01*
X8316Y4865D01*
X8323Y4849D01*
X8327Y4832D01*
X8327Y4816D01*
X8323Y4799D01*
X8316Y4784D01*
X8306Y4770D01*
X8294Y4758D01*
X8279Y4750D01*
X8263Y4745D01*
X8246Y4743D01*
X8246Y4744D02*
X8165Y4744D01*
X8262Y4744D02*
X8326Y4615D01*
X8613Y4833D02*
X8611Y4849D01*
X8606Y4865D01*
X8597Y4879D01*
X8586Y4890D01*
X8572Y4899D01*
X8556Y4904D01*
X8540Y4906D01*
X8540Y4905D02*
X8523Y4904D01*
X8507Y4899D01*
X8492Y4892D01*
X8479Y4882D01*
X8467Y4870D01*
X8458Y4856D01*
X8452Y4841D01*
X8588Y4777D02*
X8598Y4788D01*
X8606Y4802D01*
X8610Y4817D01*
X8612Y4833D01*
X8588Y4776D02*
X8451Y4615D01*
X8612Y4615D01*
X8739Y4679D02*
X8803Y4905D01*
X8739Y4679D02*
X8900Y4679D01*
X8852Y4744D02*
X8852Y4615D01*
D17*
X10650Y1600D03*
D10*
X10444Y2065D02*
X10379Y2065D01*
X10365Y2067D01*
X10351Y2071D01*
X10339Y2079D01*
X10329Y2089D01*
X10321Y2101D01*
X10317Y2115D01*
X10315Y2129D01*
X10315Y2291D01*
X10317Y2305D01*
X10321Y2319D01*
X10329Y2331D01*
X10339Y2341D01*
X10351Y2349D01*
X10365Y2353D01*
X10379Y2355D01*
X10444Y2355D01*
X10556Y2291D02*
X10636Y2355D01*
X10636Y2065D01*
X10556Y2065D02*
X10717Y2065D01*
M02*
