G04 EAGLE Gerber RS-274X export*
G75*
%MOIN*%
%FSLAX34Y34*%
%LPD*%
%INSoldermask Top*%
%IPPOS*%
%AMOC8*
5,1,8,0,0,1.08239X$1,22.5*%
G01*
%ADD10C,0.131984*%
%ADD11R,0.066000X0.066000*%
%ADD12P,0.071438X8X202.500000*%
%ADD13C,0.083165*%
%ADD14C,0.061118*%
%ADD15C,0.104425*%
%ADD16C,0.076000*%
%ADD17C,0.076000*%
%ADD18C,0.106000*%
%ADD19C,0.062000*%
%ADD20C,0.082000*%
%ADD21C,0.116236*%
%ADD22C,0.050094*%
%ADD23C,0.050800*%
%ADD24R,0.037496X0.037496*%
%ADD25R,0.043400X0.046600*%
%ADD26C,0.181000*%
%ADD27C,0.024000*%
%ADD28C,0.046000*%
%ADD29R,0.030000X0.026000*%


D10*
X31000Y-16000D03*
X31000Y-4000D03*
X43000Y-4000D03*
X43000Y-16000D03*
D11*
X61923Y22390D03*
D12*
X61923Y23390D03*
X60923Y22390D03*
X60923Y23390D03*
X59923Y22390D03*
X59923Y23390D03*
X58923Y22390D03*
X58923Y23390D03*
X57923Y22390D03*
X57923Y23390D03*
X56923Y22390D03*
X56923Y23390D03*
X55923Y22390D03*
X55923Y23390D03*
X54923Y22390D03*
X54923Y23390D03*
X53923Y22390D03*
X53923Y23390D03*
X52923Y22390D03*
X52923Y23390D03*
X51923Y22390D03*
X51923Y23390D03*
X50923Y22390D03*
X50923Y23390D03*
X49923Y22390D03*
X49923Y23390D03*
X48923Y22390D03*
X48923Y23390D03*
X47923Y22390D03*
X47923Y23390D03*
X46923Y22390D03*
X46923Y23390D03*
X45923Y22390D03*
X45923Y23390D03*
X44923Y22390D03*
X44923Y23390D03*
D11*
X61923Y32390D03*
D12*
X61923Y33390D03*
X60923Y32390D03*
X60923Y33390D03*
X59923Y32390D03*
X59923Y33390D03*
X58923Y32390D03*
X58923Y33390D03*
X57923Y32390D03*
X57923Y33390D03*
X56923Y32390D03*
X56923Y33390D03*
X55923Y32390D03*
X55923Y33390D03*
X54923Y32390D03*
X54923Y33390D03*
X53923Y32390D03*
X53923Y33390D03*
X52923Y32390D03*
X52923Y33390D03*
X51923Y32390D03*
X51923Y33390D03*
X50923Y32390D03*
X50923Y33390D03*
X49923Y32390D03*
X49923Y33390D03*
X48923Y32390D03*
X48923Y33390D03*
X47923Y32390D03*
X47923Y33390D03*
X46923Y32390D03*
X46923Y33390D03*
X45923Y32390D03*
X45923Y33390D03*
X44923Y32390D03*
X44923Y33390D03*
D13*
X77461Y51984D03*
X77461Y50016D03*
X72539Y50016D03*
X72539Y51984D03*
D14*
X78516Y31000D03*
X79500Y31000D03*
X80484Y31000D03*
D15*
X77531Y33756D03*
X81469Y33756D03*
D16*
X43600Y16922D02*
X42900Y16922D01*
X45400Y16922D02*
X46100Y16922D01*
X43600Y15150D02*
X42900Y15150D01*
X45400Y15150D02*
X46100Y15150D01*
D17*
X43500Y8000D03*
X44500Y8000D03*
X45500Y8000D03*
D18*
X41500Y14625D03*
X41500Y9375D03*
X47500Y9375D03*
X47500Y14625D03*
D17*
X40500Y13000D03*
X40500Y12000D03*
X40500Y11000D03*
D19*
X46500Y5780D02*
X46500Y5220D01*
X45500Y5220D02*
X45500Y5780D01*
X44500Y5780D02*
X44500Y5220D01*
X43500Y5220D02*
X43500Y5780D01*
X42500Y5780D02*
X42500Y5220D01*
D20*
X39000Y39120D02*
X39000Y39880D01*
X40000Y39880D02*
X40000Y39120D01*
X41000Y39120D02*
X41000Y39880D01*
X42000Y39880D02*
X42000Y39120D01*
X43000Y39120D02*
X43000Y39880D01*
X44000Y39880D02*
X44000Y39120D01*
X45000Y39120D02*
X45000Y39880D01*
X46000Y39880D02*
X46000Y39120D01*
X47000Y39120D02*
X47000Y39880D01*
X48000Y39880D02*
X48000Y39120D01*
X49000Y39120D02*
X49000Y39880D01*
X50000Y39880D02*
X50000Y39120D01*
X51000Y39120D02*
X51000Y39880D01*
X52000Y39880D02*
X52000Y39120D01*
X53000Y39120D02*
X53000Y39880D01*
X54000Y39880D02*
X54000Y39120D01*
D15*
X36835Y39500D03*
X66362Y39500D03*
X36835Y27295D03*
X66362Y27295D03*
D21*
X113500Y9823D03*
X113500Y30177D03*
D13*
X111285Y2776D03*
X112762Y2776D03*
X114238Y2776D03*
X115715Y2776D03*
X112762Y37224D03*
X114238Y37224D03*
D22*
X87720Y18000D02*
X87280Y18000D01*
X87280Y17000D02*
X87720Y17000D01*
X87720Y16000D02*
X87280Y16000D01*
X87280Y15000D02*
X87720Y15000D01*
X87720Y14000D02*
X87280Y14000D01*
X87280Y13000D02*
X87720Y13000D01*
X87720Y12000D02*
X87280Y12000D01*
X87280Y11000D02*
X87720Y11000D01*
X87720Y10000D02*
X87280Y10000D01*
X87280Y9000D02*
X87720Y9000D01*
X87720Y8000D02*
X87280Y8000D01*
X87280Y7000D02*
X87720Y7000D01*
X87720Y6000D02*
X87280Y6000D01*
X87280Y5000D02*
X87720Y5000D01*
X90280Y18000D02*
X90720Y18000D01*
X90720Y17000D02*
X90280Y17000D01*
X90280Y16000D02*
X90720Y16000D01*
X90720Y15000D02*
X90280Y15000D01*
X90280Y14000D02*
X90720Y14000D01*
X90720Y13000D02*
X90280Y13000D01*
X90280Y12000D02*
X90720Y12000D01*
X90720Y11000D02*
X90280Y11000D01*
X90280Y10000D02*
X90720Y10000D01*
X90720Y9000D02*
X90280Y9000D01*
X90280Y8000D02*
X90720Y8000D01*
X90720Y7000D02*
X90280Y7000D01*
X90280Y6000D02*
X90720Y6000D01*
X90720Y5000D02*
X90280Y5000D01*
D23*
X98276Y16500D02*
X98724Y16500D01*
X98724Y15500D02*
X98276Y15500D01*
X98276Y10500D02*
X98724Y10500D01*
X98724Y9500D02*
X98276Y9500D01*
X98276Y14500D02*
X98724Y14500D01*
X98724Y13500D02*
X98276Y13500D01*
X98276Y11500D02*
X98724Y11500D01*
X98724Y12500D02*
X98276Y12500D01*
X98276Y8500D02*
X98724Y8500D01*
X98724Y7500D02*
X98276Y7500D01*
X101276Y7500D02*
X101724Y7500D01*
X101724Y8500D02*
X101276Y8500D01*
X101276Y9500D02*
X101724Y9500D01*
X101724Y10500D02*
X101276Y10500D01*
X101276Y11500D02*
X101724Y11500D01*
X101724Y12500D02*
X101276Y12500D01*
X101276Y13500D02*
X101724Y13500D01*
X101724Y14500D02*
X101276Y14500D01*
X101276Y15500D02*
X101724Y15500D01*
X101724Y16500D02*
X101276Y16500D01*
D14*
X113516Y49000D03*
X114500Y49000D03*
X115484Y49000D03*
D15*
X112531Y51756D03*
X116469Y51756D03*
D24*
X65295Y51000D03*
X64705Y51000D03*
D23*
X7224Y55000D02*
X6776Y55000D01*
X6776Y56000D02*
X7224Y56000D01*
X7224Y57000D02*
X6776Y57000D01*
D17*
X5000Y55000D03*
X5000Y57000D03*
D23*
X18276Y55000D02*
X18724Y55000D01*
X18724Y56000D02*
X18276Y56000D01*
X18276Y57000D02*
X18724Y57000D01*
D17*
X16500Y55000D03*
X16500Y57000D03*
D24*
X91705Y57000D03*
X92295Y57000D03*
D25*
X4815Y52500D03*
X4185Y52500D03*
X17315Y51500D03*
X16685Y51500D03*
D23*
X7224Y47000D02*
X6776Y47000D01*
X6776Y48000D02*
X7224Y48000D01*
X7224Y49000D02*
X6776Y49000D01*
D17*
X5000Y47000D03*
X5000Y49000D03*
D25*
X5315Y44000D03*
X4685Y44000D03*
D23*
X18776Y47000D02*
X19224Y47000D01*
X19224Y48000D02*
X18776Y48000D01*
X18776Y49000D02*
X19224Y49000D01*
D17*
X17000Y47000D03*
X17000Y49000D03*
D25*
X17315Y43500D03*
X16685Y43500D03*
D23*
X7224Y39000D02*
X6776Y39000D01*
X6776Y40000D02*
X7224Y40000D01*
X7224Y41000D02*
X6776Y41000D01*
D17*
X5000Y39000D03*
X5000Y41000D03*
D25*
X5315Y36000D03*
X4685Y36000D03*
D23*
X18776Y39000D02*
X19224Y39000D01*
X19224Y40000D02*
X18776Y40000D01*
X18776Y41000D02*
X19224Y41000D01*
D17*
X17000Y39000D03*
X17000Y41000D03*
D25*
X17315Y35500D03*
X16685Y35500D03*
D23*
X7224Y30000D02*
X6776Y30000D01*
X6776Y31000D02*
X7224Y31000D01*
X7224Y32000D02*
X6776Y32000D01*
D17*
X5000Y30000D03*
X5000Y32000D03*
D25*
X5315Y26000D03*
X4685Y26000D03*
D23*
X18776Y30000D02*
X19224Y30000D01*
X19224Y31000D02*
X18776Y31000D01*
X18776Y32000D02*
X19224Y32000D01*
D17*
X17000Y30000D03*
X17000Y32000D03*
D25*
X17315Y25500D03*
X16685Y25500D03*
D23*
X7224Y20000D02*
X6776Y20000D01*
X6776Y21000D02*
X7224Y21000D01*
X7224Y22000D02*
X6776Y22000D01*
D17*
X5000Y20000D03*
X5000Y22000D03*
D25*
X5315Y17000D03*
X4685Y17000D03*
D23*
X18776Y20000D02*
X19224Y20000D01*
X19224Y21000D02*
X18776Y21000D01*
X18776Y22000D02*
X19224Y22000D01*
D17*
X17000Y20000D03*
X17000Y22000D03*
D25*
X17815Y16500D03*
X17185Y16500D03*
D23*
X93776Y51000D02*
X94224Y51000D01*
X94224Y52000D02*
X93776Y52000D01*
X93776Y53000D02*
X94224Y53000D01*
D17*
X92000Y51000D03*
X92000Y53000D03*
D25*
X96185Y52000D03*
X96815Y52000D03*
D23*
X89224Y41000D02*
X88776Y41000D01*
X88776Y42000D02*
X89224Y42000D01*
X89224Y43000D02*
X88776Y43000D01*
D17*
X87000Y41000D03*
X87000Y43000D03*
D25*
X89685Y39000D03*
X90315Y39000D03*
D23*
X98776Y41000D02*
X99224Y41000D01*
X99224Y42000D02*
X98776Y42000D01*
X98776Y43000D02*
X99224Y43000D01*
D17*
X97000Y41000D03*
X97000Y43000D03*
D25*
X99185Y39000D03*
X99815Y39000D03*
D23*
X108776Y41000D02*
X109224Y41000D01*
X109224Y42000D02*
X108776Y42000D01*
X108776Y43000D02*
X109224Y43000D01*
D17*
X107000Y41000D03*
X107000Y43000D03*
D25*
X109685Y39000D03*
X110315Y39000D03*
D23*
X118176Y41000D02*
X118624Y41000D01*
X118624Y42000D02*
X118176Y42000D01*
X118176Y43000D02*
X118624Y43000D01*
D17*
X116400Y41000D03*
X116400Y43000D03*
D25*
X117585Y37750D03*
X118215Y37750D03*
X68685Y51000D03*
X69315Y51000D03*
D13*
X7461Y8984D03*
X7461Y7016D03*
X2539Y7016D03*
X2539Y8984D03*
D25*
X5315Y2500D03*
X4685Y2500D03*
D13*
X16461Y8984D03*
X16461Y7016D03*
X11539Y7016D03*
X11539Y8984D03*
D25*
X14315Y2500D03*
X13685Y2500D03*
D13*
X25461Y8984D03*
X25461Y7016D03*
X20539Y7016D03*
X20539Y8984D03*
D25*
X23315Y2500D03*
X22685Y2500D03*
D14*
X28016Y31500D03*
X29000Y31500D03*
X29984Y31500D03*
D15*
X27031Y34256D03*
X30969Y34256D03*
D16*
X67400Y16922D02*
X68100Y16922D01*
X69900Y16922D02*
X70600Y16922D01*
X68100Y15150D02*
X67400Y15150D01*
X69900Y15150D02*
X70600Y15150D01*
D17*
X68000Y8000D03*
X69000Y8000D03*
X70000Y8000D03*
D18*
X66000Y14625D03*
X66000Y9375D03*
X72000Y9375D03*
X72000Y14625D03*
D17*
X65000Y13000D03*
X65000Y12000D03*
X65000Y11000D03*
D19*
X67000Y4280D02*
X67000Y3720D01*
X68000Y3720D02*
X68000Y4280D01*
X69000Y4280D02*
X69000Y3720D01*
X70000Y3720D02*
X70000Y4280D01*
X71000Y4280D02*
X71000Y3720D01*
D22*
X87280Y33750D02*
X87720Y33750D01*
X87720Y32750D02*
X87280Y32750D01*
X87280Y31750D02*
X87720Y31750D01*
X87720Y30750D02*
X87280Y30750D01*
X87280Y29750D02*
X87720Y29750D01*
X87720Y28750D02*
X87280Y28750D01*
X87280Y27750D02*
X87720Y27750D01*
X87720Y26750D02*
X87280Y26750D01*
X87280Y25750D02*
X87720Y25750D01*
X87720Y24750D02*
X87280Y24750D01*
X87280Y23750D02*
X87720Y23750D01*
X87720Y22750D02*
X87280Y22750D01*
X87280Y21750D02*
X87720Y21750D01*
X87720Y20750D02*
X87280Y20750D01*
X90280Y33750D02*
X90720Y33750D01*
X90720Y32750D02*
X90280Y32750D01*
X90280Y31750D02*
X90720Y31750D01*
X90720Y30750D02*
X90280Y30750D01*
X90280Y29750D02*
X90720Y29750D01*
X90720Y28750D02*
X90280Y28750D01*
X90280Y27750D02*
X90720Y27750D01*
X90720Y26750D02*
X90280Y26750D01*
X90280Y25750D02*
X90720Y25750D01*
X90720Y24750D02*
X90280Y24750D01*
X90280Y23750D02*
X90720Y23750D01*
X90720Y22750D02*
X90280Y22750D01*
X90280Y21750D02*
X90720Y21750D01*
X90720Y20750D02*
X90280Y20750D01*
D23*
X98276Y31500D02*
X98724Y31500D01*
X98724Y30500D02*
X98276Y30500D01*
X98276Y25500D02*
X98724Y25500D01*
X98724Y24500D02*
X98276Y24500D01*
X98276Y29500D02*
X98724Y29500D01*
X98724Y28500D02*
X98276Y28500D01*
X98276Y26500D02*
X98724Y26500D01*
X98724Y27500D02*
X98276Y27500D01*
X98276Y23500D02*
X98724Y23500D01*
X98724Y22500D02*
X98276Y22500D01*
X101276Y22500D02*
X101724Y22500D01*
X101724Y23500D02*
X101276Y23500D01*
X101276Y24500D02*
X101724Y24500D01*
X101724Y25500D02*
X101276Y25500D01*
X101276Y26500D02*
X101724Y26500D01*
X101724Y27500D02*
X101276Y27500D01*
X101276Y28500D02*
X101724Y28500D01*
X101724Y29500D02*
X101276Y29500D01*
X101276Y30500D02*
X101724Y30500D01*
X101724Y31500D02*
X101276Y31500D01*
D26*
X1500Y1500D03*
X1500Y58500D03*
X118500Y58500D03*
X118500Y1500D03*
D27*
X1450Y3750D02*
X1452Y3784D01*
X1458Y3818D01*
X1467Y3851D01*
X1481Y3882D01*
X1498Y3912D01*
X1518Y3940D01*
X1541Y3965D01*
X1567Y3988D01*
X1595Y4007D01*
X1625Y4023D01*
X1657Y4035D01*
X1690Y4044D01*
X1724Y4049D01*
X1759Y4050D01*
X1793Y4047D01*
X1826Y4040D01*
X1859Y4030D01*
X1890Y4015D01*
X1919Y3998D01*
X1946Y3977D01*
X1971Y3953D01*
X1993Y3926D01*
X2011Y3898D01*
X2026Y3867D01*
X2038Y3835D01*
X2046Y3801D01*
X2050Y3767D01*
X2050Y3733D01*
X2046Y3699D01*
X2038Y3665D01*
X2026Y3633D01*
X2011Y3602D01*
X1993Y3574D01*
X1971Y3547D01*
X1946Y3523D01*
X1919Y3502D01*
X1890Y3485D01*
X1859Y3470D01*
X1826Y3460D01*
X1793Y3453D01*
X1759Y3450D01*
X1724Y3451D01*
X1690Y3456D01*
X1657Y3465D01*
X1625Y3477D01*
X1595Y3493D01*
X1567Y3512D01*
X1541Y3535D01*
X1518Y3560D01*
X1498Y3588D01*
X1481Y3618D01*
X1467Y3649D01*
X1458Y3682D01*
X1452Y3716D01*
X1450Y3750D01*
D28*
X1750Y3750D03*
D27*
X117450Y3750D02*
X117452Y3784D01*
X117458Y3818D01*
X117467Y3851D01*
X117481Y3882D01*
X117498Y3912D01*
X117518Y3940D01*
X117541Y3965D01*
X117567Y3988D01*
X117595Y4007D01*
X117625Y4023D01*
X117657Y4035D01*
X117690Y4044D01*
X117724Y4049D01*
X117759Y4050D01*
X117793Y4047D01*
X117826Y4040D01*
X117859Y4030D01*
X117890Y4015D01*
X117919Y3998D01*
X117946Y3977D01*
X117971Y3953D01*
X117993Y3926D01*
X118011Y3898D01*
X118026Y3867D01*
X118038Y3835D01*
X118046Y3801D01*
X118050Y3767D01*
X118050Y3733D01*
X118046Y3699D01*
X118038Y3665D01*
X118026Y3633D01*
X118011Y3602D01*
X117993Y3574D01*
X117971Y3547D01*
X117946Y3523D01*
X117919Y3502D01*
X117890Y3485D01*
X117859Y3470D01*
X117826Y3460D01*
X117793Y3453D01*
X117759Y3450D01*
X117724Y3451D01*
X117690Y3456D01*
X117657Y3465D01*
X117625Y3477D01*
X117595Y3493D01*
X117567Y3512D01*
X117541Y3535D01*
X117518Y3560D01*
X117498Y3588D01*
X117481Y3618D01*
X117467Y3649D01*
X117458Y3682D01*
X117452Y3716D01*
X117450Y3750D01*
D28*
X117750Y3750D03*
D27*
X117700Y56000D02*
X117702Y56034D01*
X117708Y56068D01*
X117717Y56101D01*
X117731Y56132D01*
X117748Y56162D01*
X117768Y56190D01*
X117791Y56215D01*
X117817Y56238D01*
X117845Y56257D01*
X117875Y56273D01*
X117907Y56285D01*
X117940Y56294D01*
X117974Y56299D01*
X118009Y56300D01*
X118043Y56297D01*
X118076Y56290D01*
X118109Y56280D01*
X118140Y56265D01*
X118169Y56248D01*
X118196Y56227D01*
X118221Y56203D01*
X118243Y56176D01*
X118261Y56148D01*
X118276Y56117D01*
X118288Y56085D01*
X118296Y56051D01*
X118300Y56017D01*
X118300Y55983D01*
X118296Y55949D01*
X118288Y55915D01*
X118276Y55883D01*
X118261Y55852D01*
X118243Y55824D01*
X118221Y55797D01*
X118196Y55773D01*
X118169Y55752D01*
X118140Y55735D01*
X118109Y55720D01*
X118076Y55710D01*
X118043Y55703D01*
X118009Y55700D01*
X117974Y55701D01*
X117940Y55706D01*
X117907Y55715D01*
X117875Y55727D01*
X117845Y55743D01*
X117817Y55762D01*
X117791Y55785D01*
X117768Y55810D01*
X117748Y55838D01*
X117731Y55868D01*
X117717Y55899D01*
X117708Y55932D01*
X117702Y55966D01*
X117700Y56000D01*
D28*
X118000Y56000D03*
D25*
X7085Y4100D03*
X7715Y4100D03*
D29*
X10430Y1600D03*
X10870Y1600D03*
M02*
