G04 EAGLE Gerber RS-274X export*
G75*
%MOIN*%
%FSLAX34Y34*%
%LPD*%
%INSolderpaste Top*%
%IPPOS*%
%AMOC8*
5,1,8,0,0,1.08239X$1,22.5*%
G01*
%ADD10R,0.031496X0.031496*%
%ADD11R,0.037400X0.040600*%
%ADD12R,0.024000X0.020000*%


D10*
X65295Y51000D03*
X64705Y51000D03*
X91705Y57000D03*
X92295Y57000D03*
D11*
X4815Y52500D03*
X4185Y52500D03*
X17315Y51500D03*
X16685Y51500D03*
X5315Y44000D03*
X4685Y44000D03*
X17315Y43500D03*
X16685Y43500D03*
X5315Y36000D03*
X4685Y36000D03*
X17315Y35500D03*
X16685Y35500D03*
X5315Y26000D03*
X4685Y26000D03*
X17315Y25500D03*
X16685Y25500D03*
X5315Y17000D03*
X4685Y17000D03*
X17815Y16500D03*
X17185Y16500D03*
X96185Y52000D03*
X96815Y52000D03*
X89685Y39000D03*
X90315Y39000D03*
X99185Y39000D03*
X99815Y39000D03*
X109685Y39000D03*
X110315Y39000D03*
X117585Y37750D03*
X118215Y37750D03*
X68685Y51000D03*
X69315Y51000D03*
X5315Y2500D03*
X4685Y2500D03*
X14315Y2500D03*
X13685Y2500D03*
X23315Y2500D03*
X22685Y2500D03*
X7085Y4100D03*
X7715Y4100D03*
D12*
X10430Y1600D03*
X10870Y1600D03*
M02*
